<svg xmlns="http://www.w3.org/2000/svg" viewBox="0 0 790.73 819.05"><defs><style>.cls-1,.cls-10,.cls-11,.cls-12,.cls-4,.cls-6,.cls-8,.cls-9{fill:none;}.cls-1{stroke:#fff;}.cls-1,.cls-11,.cls-12,.cls-4,.cls-6,.cls-9{stroke-linecap:round;stroke-linejoin:round;}.cls-1,.cls-8,.cls-9{stroke-width:3px;}.cls-2{fill:#c0c9ff;}.cls-3{fill:#fff;}.cls-4,.cls-6,.cls-8,.cls-9{stroke:#30384f;}.cls-4{stroke-width:2px;}.cls-5{fill:#30384f;}.cls-6{stroke-width:1.8px;}.cls-7{fill:#ff395a;}.cls-8{stroke-miterlimit:10;}.cls-11,.cls-12{stroke:#ff395a;stroke-width:3.28px;}.cls-12{stroke-dasharray:3.04 5.07;}</style></defs><title>map</title><g id="chung_floor_1_copy" data-name="chung floor 1 copy"><g id="chung"><path class="cls-1" d="M244.5,131.85v-14"/><path class="cls-1" d="M621.5,260.69v2.58c0,1.42,2.25,2.58,5,2.58h9a5,5,0,0,1,5,5v182a5,5,0,0,0,5,5h105a5,5,0,0,1,5,5v88a13.37,13.37,0,0,0,3.25,8.25,6.47,6.47,0,0,1,.67,7.53l-31.34,51.94a6.73,6.73,0,0,0,1,7.82l1.42,1.43a3.78,3.78,0,0,1-.71,6.16l-49,30.24a10,10,0,0,0-4.25,7.63v10.5a4.78,4.78,0,0,1-5,4.5h-43c-2.75,0-5-1.12-5-2.5v-2.5"/><path class="cls-1" d="M123.5,268.85v-6a5,5,0,0,0-5-5h-34a5,5,0,0,1-5-5v-114a5,5,0,0,1,5-5h27a5,5,0,0,0,5-5v-6a5,5,0,0,1,5-5h247a5,5,0,0,1,5,5v29h0v-2c0-2.75.22-5,.5-5H491.5a5,5,0,0,1,5,5v22c0-1.65.22-3,.5-3h67.5a5,5,0,0,1,5,5v16a5,5,0,0,0,5,5h42a5,5,0,0,1,5,5v44"/><path class="cls-1" d="M492.5,750.27v4.79a4.92,4.92,0,0,1-5,4.79h-39"/><line class="cls-1" x1="492.5" y1="705.12" x2="492.5" y2="740.69"/><path class="cls-1" d="M568.5,683.85v32a5,5,0,0,1-5,5h-47a5,5,0,0,1-5-5v-21h0a5,5,0,0,0-5-5h-9c-2.75,0-5,1.35-5,3v3"/><line class="cls-1" x1="431.5" y1="759.85" x2="388.5" y2="761.85"/><line class="cls-1" x1="375.5" y1="761.85" x2="325.5" y2="763.85"/><line class="cls-1" x1="312.5" y1="763.85" x2="249.5" y2="765.85"/><path class="cls-1" d="M69.5,657.27v4.29c0,2.36,2.25,4.29,5,4.29h57a5,5,0,0,1,5,5v99.5a5,5,0,0,0,5,5H221a14,14,0,0,0,8.54-3.53l6-6"/><path class="cls-1" d="M69.5,465.12V469c0,2.12,2.25,3.86,5,3.86h44a5,5,0,0,1,5,5v155a5,5,0,0,1-5,5h-44c-2.75,0-5,1.44-5,3.2v3.2"/><path class="cls-1" d="M123.5,295.85v144a5,5,0,0,1-5,5h-44c-2.75,0-5,1.49-5,3.3v3.31"/><path class="cls-1" d="M568,668.35v-6a5,5,0,0,1,5-5h46a5,5,0,0,1,5,5v5.5"/></g></g><g id="floor_1_copy" data-name="floor 1 copy"><rect class="cls-2" x="130" y="559.35" width="98" height="81" rx="5"/><rect class="cls-2" x="130" y="472.35" width="98" height="81" rx="5"/><rect class="cls-2" x="254" y="559.35" width="95" height="81" rx="5"/><rect class="cls-2" x="254" y="472.35" width="95" height="81" rx="5"/><rect class="cls-2" x="351" y="559.35" width="95" height="81" rx="5"/><rect class="cls-2" x="351" y="472.35" width="95" height="81" rx="5"/><path class="cls-2" d="M618,462.35H746a5,5,0,0,1,5,5v84a69,69,0,0,1-69,69H618a5,5,0,0,1-5-5v-148a5,5,0,0,1,5-5Z"/><rect class="cls-2" x="514" y="473.35" width="95" height="81" rx="5"/><rect class="cls-2" x="514" y="558.35" width="95" height="81" rx="5"/><rect class="cls-2" x="452" y="472.35" width="40" height="40" rx="5"/><rect class="cls-2" x="452" y="515.85" width="40" height="40" rx="5"/><rect class="cls-2" x="452" y="559.35" width="40" height="20" rx="5"/><rect class="cls-2" x="452" y="582.85" width="40" height="26" rx="5"/><rect class="cls-2" x="452" y="612.35" width="40" height="28" rx="5"/><rect class="cls-2" x="131" y="417.35" width="94" height="52" rx="5"/><path class="cls-2" d="M256,668.35a5,5,0,0,1,5-5h59a5,5,0,0,1,5,5v82a5.29,5.29,0,0,1-5,5.22l-59,2.56a4.76,4.76,0,0,1-5-4.78Z"/><path class="cls-2" d="M329,668.35a5,5,0,0,1,5-5h48a5,5,0,0,1,5,5v80a5.22,5.22,0,0,1-5,5.17l-48,1.66a4.82,4.82,0,0,1-5-4.83Z"/><path class="cls-2" d="M391,668.35a5,5,0,0,1,5-5h45a5,5,0,0,1,5,5v78a5.24,5.24,0,0,1-5,5.18l-45,1.64a4.8,4.8,0,0,1-5-4.82Z"/><path class="cls-2" d="M140,695.35a5,5,0,0,1,5-5H246a5.1,5.1,0,0,1,5.07,5l.86,58a4.93,4.93,0,0,1-4.93,5H225a5,5,0,0,0-5,5h0a5,5,0,0,1-5,5H145a5,5,0,0,1-5-5Z"/><rect class="cls-2" x="140" y="659.35" width="93" height="28" rx="5"/><rect class="cls-2" x="449" y="667.35" width="40" height="40.48" rx="5"/><rect class="cls-2" x="449" y="711.37" width="40" height="40.48" rx="5"/><path class="cls-2" d="M213.13,283.22a3.8,3.8,0,0,1,3.87-4.87h87a5,5,0,0,1,5,5v72a5,5,0,0,1-5,5H236a6.61,6.61,0,0,1-6.13-4.87Z"/><path class="cls-2" d="M237,363.35a4,4,0,0,0-4,4.9l14,70.2a6.38,6.38,0,0,0,6,4.9h39a5,5,0,0,0,5-5v-70a5,5,0,0,0-5-5Z"/><rect class="cls-2" x="299" y="363.35" width="96" height="80" rx="5"/><rect class="cls-2" x="311" y="278.35" width="83" height="82" rx="5"/><rect class="cls-2" x="397" y="278.35" width="95" height="82" rx="5"/><rect class="cls-2" x="397" y="363.35" width="95" height="80" rx="5"/><rect class="cls-2" x="83" y="138.35" width="54" height="113" rx="5"/><rect class="cls-2" x="253" y="185.35" width="88" height="66" rx="5"/><path class="cls-2" d="M253,132.35a5,5,0,0,1,5-5H360a5,5,0,0,1,5,5v71a5,5,0,0,1-5,5H349a5,5,0,0,1-5-5v-17a5,5,0,0,0-5-5H258a5,5,0,0,1-5-5Z"/><path class="cls-2" d="M129,122.35a5,5,0,0,0-5,5v2a5,5,0,0,0,5,5h7a5,5,0,0,1,5,5v71a5,5,0,0,0,5,5h61a5,5,0,0,1,5,5v22a5,5,0,0,0,5,5h12a5,5,0,0,0,5-5v-43a5,5,0,0,1,5-5h6a5,5,0,0,0,5-5v-46a5,5,0,0,0-5-5h-1a5,5,0,0,1-5-5v-6a5,5,0,0,0-5-5Z"/><path class="cls-2" d="M373,157.35a5,5,0,0,0-5,5v27a5,5,0,0,0,5,5h88.14a5,5,0,0,1,5,5v6a5,5,0,0,0,5,5h5.5a5,5,0,0,0,5-5v-20a5,5,0,0,1,5-5H488a5,5,0,0,0,5-5v-19a5,5,0,0,0-5-5H384.78c-2.75,0-5,1.35-5,3s-2.25,3-5,3Z"/><path class="cls-2" d="M504,177.35a5,5,0,0,1,5-5h52a5,5,0,0,1,5,5v16c0,2.75-1.58,5-3.5,5s-3.5,2.25-3.5,5v10a5,5,0,0,1-5,5H519a5,5,0,0,0-5,5v21a5,5,0,0,1-5,5H489a5,5,0,0,1-5-5v-57a5,5,0,0,1,5-5h10a5,5,0,0,0,5-5Z"/><path class="cls-2" d="M368,203.35a5,5,0,0,1,5-5h8a5,5,0,0,1,5,5v19a5,5,0,0,1-5,5H366a5,5,0,0,1-5-5v-4c0-2.75,1.57-5,3.5-5s3.5-2.25,3.5-5Z"/><rect class="cls-2" x="361" y="230.35" width="27" height="21" rx="5"/><rect class="cls-2" x="389" y="199.35" width="22" height="39" rx="4.79"/><rect class="cls-2" x="414.5" y="199.35" width="24" height="39" rx="5"/><rect class="cls-2" x="441" y="199.35" width="24" height="39" rx="5"/><rect class="cls-2" x="516" y="272.35" width="119" height="58" rx="5"/><rect class="cls-2" x="516" y="336.35" width="119" height="115" rx="5"/><rect class="cls-2" x="566" y="198.35" width="51.41" height="46" rx="4.51"/></g><g id="floor_1_stuff" data-name="floor 1 stuff"><polygon class="cls-3" points="525.37 238.43 523.53 236.58 529.94 230.17 536.03 236.27 534.19 238.11 529.94 233.86 525.37 238.43"/><polygon class="cls-3" points="543.46 238.23 537.37 232.13 539.21 230.28 543.46 234.54 548.03 229.97 549.87 231.82 543.46 238.23"/><path class="cls-3" d="M545.7,250.2h-18a7,7,0,0,1-7-7v-18a7,7,0,0,1,7-7h18a7,7,0,0,1,7,7v18A7,7,0,0,1,545.7,250.2Zm-18-30a5,5,0,0,0-5,5v18a5,5,0,0,0,5,5h18a5,5,0,0,0,5-5v-18a5,5,0,0,0-5-5Z"/><rect class="cls-4" x="133.7" y="424.2" width="38.3" height="38.3" rx="7.66"/><polygon class="cls-5" points="161.78 448.67 153.73 440.62 156.17 438.18 161.78 443.8 167.81 437.77 170.25 440.2 161.78 448.67"/><polygon class="cls-5" points="137.89 448.94 135.45 446.5 143.92 438.03 151.97 446.08 149.53 448.52 143.92 442.91 137.89 448.94"/><path class="cls-3" d="M137.06,338.41a1.65,1.65,0,0,1-1.45,1.63v0a1.66,1.66,0,0,1,1.45,1.63V346a3,3,0,0,1-3.34,3.31H128.2a.33.33,0,0,1-.36-.37V331.24a.32.32,0,0,1,.36-.37h5.52a3,3,0,0,1,3.34,3.31ZM134,334.83a.82.82,0,0,0-.92-.92H131v4.64h2.09a.82.82,0,0,0,.92-.9Zm0,7.68a.82.82,0,0,0-.92-.92H131v4.64h2.09a.82.82,0,0,0,.92-.92Z"/><path class="cls-3" d="M149.89,330.87c.35,0,.51.21.37.53l-4.21,10.23v7.18a.41.41,0,0,1-.46.46h-2.21a.41.41,0,0,1-.46-.46v-7.18l-4.21-10.23c-.13-.32,0-.53.37-.53h2.3a.49.49,0,0,1,.53.37l2.58,6.6,2.57-6.6a.5.5,0,0,1,.53-.37Z"/><path class="cls-3" d="M160.29,330.87a.33.33,0,0,1,.37.37v2.3a.33.33,0,0,1-.37.37h-2.67v15a.32.32,0,0,1-.37.37h-2.39a.33.33,0,0,1-.37-.37v-15h-2.66a.34.34,0,0,1-.37-.37v-2.3a.34.34,0,0,1,.37-.37Z"/><path class="cls-3" d="M171.44,333.54c0,.23-.09.39-.37.39h-5.74v4.6h4.39a.34.34,0,0,1,.36.39v2.27c0,.26-.13.4-.36.4h-4.39v4.64h5.74c.28,0,.37.12.37.37v2.3c0,.23-.09.37-.37.37h-8.46a.33.33,0,0,1-.34-.37V331.24a.33.33,0,0,1,.34-.37h8.46c.28,0,.37.14.37.37Z"/><path class="cls-3" d="M178.94,330.87a3,3,0,0,1,3.31,3.31v2.44a.33.33,0,0,1-.37.37h-2.39a.34.34,0,0,1-.37-.37v-1.79a.81.81,0,0,0-.91-.92H177.1a.84.84,0,0,0-.92.92V338l5.47,1.79a.85.85,0,0,1,.6.85V346a3,3,0,0,1-3.31,3.31h-2.57a3,3,0,0,1-3.32-3.31v-2.42a.33.33,0,0,1,.37-.37h2.39c.26,0,.37.12.37.37v1.77a.83.83,0,0,0,.92.92h1.11a.81.81,0,0,0,.91-.92v-3.06l-5.45-1.79a.83.83,0,0,1-.62-.85v-5.43a3,3,0,0,1,3.32-3.31Z"/><path class="cls-3" d="M137.37,260.6a.26.26,0,0,1-.29.29h-1.79a.26.26,0,0,1-.29-.29v-1.44a.65.65,0,0,0-.72-.72h-.94a.64.64,0,0,0-.72.72v8.21a.64.64,0,0,0,.72.72h.94a.64.64,0,0,0,.72-.72v-1.44a.25.25,0,0,1,.29-.28h1.79a.26.26,0,0,1,.29.28v1.95a2.32,2.32,0,0,1-2.59,2.59h-2a2.33,2.33,0,0,1-2.61-2.59v-9.22a2.33,2.33,0,0,1,2.61-2.59h2a2.32,2.32,0,0,1,2.59,2.59Z"/><path class="cls-3" d="M143.92,256.36a.26.26,0,0,1,.29-.29h1.86c.21,0,.3.1.3.29v13.82a.26.26,0,0,1-.3.29h-1.86a.27.27,0,0,1-.29-.29v-5.72h-2.3v5.72a.27.27,0,0,1-.29.29h-1.85c-.22,0-.31-.11-.31-.29V256.36c0-.19.09-.29.31-.29h1.85a.26.26,0,0,1,.29.29v5.72h2.3Z"/><path class="cls-3" d="M155.35,258.16c0,.18-.07.3-.28.3h-4.5v3.6H154a.27.27,0,0,1,.29.31v1.78a.27.27,0,0,1-.29.31h-3.43v3.63h4.5c.21,0,.28.09.28.29v1.8c0,.18-.07.29-.28.29h-6.63a.26.26,0,0,1-.27-.29V256.36a.26.26,0,0,1,.27-.29h6.63c.21,0,.28.1.28.29Z"/><path class="cls-3" d="M164.19,260.6a.27.27,0,0,1-.29.29h-1.8a.26.26,0,0,1-.28-.29v-1.44a.65.65,0,0,0-.72-.72h-.94a.64.64,0,0,0-.72.72v8.21a.64.64,0,0,0,.72.72h.94a.64.64,0,0,0,.72-.72v-1.44a.25.25,0,0,1,.28-.28h1.8a.26.26,0,0,1,.29.28v1.95a2.33,2.33,0,0,1-2.59,2.59h-2a2.33,2.33,0,0,1-2.61-2.59v-9.22a2.33,2.33,0,0,1,2.61-2.59h2a2.33,2.33,0,0,1,2.59,2.59Z"/><path class="cls-3" d="M171.79,270.47a.41.41,0,0,1-.42-.27l-2.26-5.35-.67,1.28v4a.32.32,0,0,1-.36.36h-1.73a.32.32,0,0,1-.36-.36V256.43a.32.32,0,0,1,.36-.36h1.73a.32.32,0,0,1,.36.36V262l2.77-5.67a.43.43,0,0,1,.42-.27h1.89c.27,0,.38.18.25.43l-3.06,6.28,3.26,7.28c.12.23,0,.41-.27.41Z"/><path class="cls-3" d="M175.64,263.16a.32.32,0,0,1,.36-.36h2.84a.32.32,0,0,1,.36.36v1.66a.32.32,0,0,1-.36.36H176a.32.32,0,0,1-.36-.36Z"/><path class="cls-3" d="M183.16,256.07a.26.26,0,0,1,.29.29v13.82a.27.27,0,0,1-.29.29h-1.87a.26.26,0,0,1-.29-.29V256.36a.25.25,0,0,1,.29-.29Z"/><path class="cls-3" d="M192.65,256.07a.26.26,0,0,1,.29.29v13.82a.27.27,0,0,1-.29.29h-1.78a.32.32,0,0,1-.33-.23l-2.75-7.69h-.09v7.63a.26.26,0,0,1-.29.29h-1.87a.27.27,0,0,1-.29-.29V256.36a.26.26,0,0,1,.29-.29h1.78a.32.32,0,0,1,.33.23l2.73,7.65h.11v-7.59a.25.25,0,0,1,.29-.29Z"/><path class="cls-5" d="M281.62,204.22a.48.48,0,0,1,.52.53V230.1a.48.48,0,0,1-.52.53h-3.44a.48.48,0,0,1-.53-.53V209.24l-2,.26a.54.54,0,0,1-.69-.59v-3.17a.6.6,0,0,1,.62-.69Z"/><path class="cls-5" d="M285.77,209c0-3.11,1.65-4.76,4.75-4.76h3.7c3.1,0,4.75,1.65,4.75,4.76v16.9c0,3.1-1.65,4.75-4.75,4.75h-3.7c-3.1,0-4.75-1.65-4.75-4.75Zm7.63,17.39a1.17,1.17,0,0,0,1.32-1.32V209.8a1.19,1.19,0,0,0-1.32-1.32h-1.92a1.18,1.18,0,0,0-1.32,1.32v15.25a1.17,1.17,0,0,0,1.32,1.32Z"/><path class="cls-5" d="M306.89,220.43c-3,0-4.62-1.62-4.62-4.62v-7c0-3,1.62-4.62,4.62-4.62h4c3,0,4.62,1.62,4.62,4.62v8.49a4.16,4.16,0,0,1-.33,1.65l-4.68,11.15a.74.74,0,0,1-.76.5h-3.43c-.5,0-.7-.3-.5-.76l4-9.44ZM308,208.58a1.18,1.18,0,0,0-1.32,1.32v4.85a1.18,1.18,0,0,0,1.32,1.32h1.85a1.18,1.18,0,0,0,1.32-1.32V209.9a1.18,1.18,0,0,0-1.32-1.32Z"/><path class="cls-5" d="M668.39,506.43a.49.49,0,0,1,.53.53v25.35a.48.48,0,0,1-.53.52H665a.46.46,0,0,1-.53-.52V511.45l-2,.26a.54.54,0,0,1-.69-.59V508a.62.62,0,0,1,.63-.7Z"/><path class="cls-5" d="M685.78,517.26a2.38,2.38,0,0,1-2.08,2.34v.07a2.37,2.37,0,0,1,2.08,2.34v6.07c0,3.1-1.68,4.75-4.78,4.75h-3.83c-3,0-4.62-1.61-4.62-4.62v-1.09a.6.6,0,0,1,.66-.66h3.16a.6.6,0,0,1,.66.66v1.36h3.7a.59.59,0,0,0,.66-.66v-4.69a1.17,1.17,0,0,0-1.32-1.32h-3.89a.59.59,0,0,1-.66-.66v-3a.59.59,0,0,1,.66-.66h3.89a1.17,1.17,0,0,0,1.32-1.28v-4.72a.59.59,0,0,0-.66-.66H677v1.35a.59.59,0,0,1-.66.66h-3.16a.59.59,0,0,1-.66-.66v-1.35c0-2.84,1.61-4.36,4.62-4.36H681c3.1,0,4.78,1.65,4.78,4.75Z"/><path class="cls-5" d="M702.31,517.26a2.38,2.38,0,0,1-2.08,2.34v.07a2.37,2.37,0,0,1,2.08,2.34v6.07c0,3.1-1.68,4.75-4.78,4.75h-3.67c-3.1,0-4.78-1.65-4.78-4.75V522a2.37,2.37,0,0,1,2.08-2.34v-.07a2.38,2.38,0,0,1-2.08-2.34v-6.08c0-3.1,1.68-4.75,4.78-4.75h3.67c3.1,0,4.78,1.65,4.78,4.75Zm-4.39-5.15a1.17,1.17,0,0,0-1.32-1.32h-1.81a1.17,1.17,0,0,0-1.32,1.32v4.06a1.17,1.17,0,0,0,1.32,1.28h1.81a1.17,1.17,0,0,0,1.32-1.28Zm0,11a1.17,1.17,0,0,0-1.32-1.32h-1.81a1.17,1.17,0,0,0-1.32,1.32v4a1.17,1.17,0,0,0,1.32,1.32h1.81a1.17,1.17,0,0,0,1.32-1.32Z"/><path class="cls-5" d="M178.94,712.9a.49.49,0,0,1,.53.53v25.34a.49.49,0,0,1-.53.53h-3.43a.48.48,0,0,1-.53-.53V717.92l-2,.26a.54.54,0,0,1-.69-.59v-3.17a.62.62,0,0,1,.63-.7Z"/><path class="cls-5" d="M198.77,727.36a.59.59,0,0,1,.66.65v2.84a.59.59,0,0,1-.66.66h-1.35v7.13a.59.59,0,0,1-.66.66h-2.87a.59.59,0,0,1-.66-.66v-7.19h-9.47a.59.59,0,0,1-.66-.66v-2.94a1.33,1.33,0,0,1,.23-.79l8.48-13.73a.83.83,0,0,1,.79-.43h3.47c.53,0,.72.33.43.79l-8.29,13.73h5v-4a.59.59,0,0,1,.66-.66h2.87a.59.59,0,0,1,.66.66v3.9Z"/><path class="cls-5" d="M215,723.72a2.38,2.38,0,0,1-2.08,2.35v.06a2.39,2.39,0,0,1,2.08,2.35v6.07c0,3.1-1.69,4.75-4.79,4.75h-3.83c-3,0-4.62-1.61-4.62-4.62v-1.09a.59.59,0,0,1,.66-.66h3.17a.59.59,0,0,1,.66.66V735h3.7a.6.6,0,0,0,.66-.66V729.6a1.17,1.17,0,0,0-1.32-1.32h-3.9a.59.59,0,0,1-.66-.66v-3a.59.59,0,0,1,.66-.66h3.9a1.18,1.18,0,0,0,1.32-1.28v-4.72a.59.59,0,0,0-.66-.66h-3.7v1.35a.59.59,0,0,1-.66.66H202.4a.59.59,0,0,1-.66-.66v-1.35c0-2.84,1.62-4.36,4.62-4.36h3.83c3.1,0,4.79,1.65,4.79,4.75Z"/><path class="cls-5" d="M275.35,695.93a.48.48,0,0,1,.53.53v25.35a.48.48,0,0,1-.53.53h-3.43a.48.48,0,0,1-.53-.53V701l-2,.26a.55.55,0,0,1-.7-.59v-3.17a.62.62,0,0,1,.63-.7Z"/><path class="cls-5" d="M295.19,710.39a.59.59,0,0,1,.66.66v2.84a.6.6,0,0,1-.66.66h-1.35v7.12a.6.6,0,0,1-.66.67H290.3a.6.6,0,0,1-.66-.67v-7.19h-9.47a.59.59,0,0,1-.66-.66v-2.94a1.42,1.42,0,0,1,.23-.79l8.48-13.73a.83.83,0,0,1,.8-.43h3.46c.53,0,.73.33.43.79l-8.28,13.73h5v-4a.59.59,0,0,1,.66-.66h2.88a.6.6,0,0,1,.66.66v3.9Z"/><path class="cls-5" d="M304.1,713.65a.84.84,0,0,0-.47.8v2.87a.6.6,0,0,0,.66.66h3.57v-1.36a.6.6,0,0,1,.66-.66h3.17a.6.6,0,0,1,.66.66v5a.6.6,0,0,1-.66.67H299.81a.6.6,0,0,1-.66-.67v-9.73c0-.63.23-.89.85-1.22l7.86-4.23v-4.88a1.2,1.2,0,0,0-1.32-1.32H305a1.17,1.17,0,0,0-1.32,1.32v2.57a.48.48,0,0,1-.52.53h-3.44a.47.47,0,0,1-.52-.53v-3.5c0-3.1,1.65-4.75,4.75-4.75h3.7c3.06,0,4.75,1.65,4.75,4.75v7.79c0,.63-.27.89-.89,1.22Z"/><path class="cls-5" d="M346.17,694.43a.49.49,0,0,1,.53.53v25.35a.48.48,0,0,1-.53.52h-3.43a.47.47,0,0,1-.53-.52V699.45l-2,.26a.54.54,0,0,1-.69-.59V696a.62.62,0,0,1,.63-.7Z"/><path class="cls-5" d="M366,708.89a.59.59,0,0,1,.66.66v2.83a.59.59,0,0,1-.66.66h-1.35v7.13a.59.59,0,0,1-.66.66h-2.87a.59.59,0,0,1-.66-.66V713H351a.59.59,0,0,1-.66-.66v-2.94a1.33,1.33,0,0,1,.23-.79L359,694.86a.83.83,0,0,1,.79-.43h3.47c.53,0,.72.33.43.79L355.44,709h5v-4a.59.59,0,0,1,.66-.66H364a.59.59,0,0,1,.66.66v3.9Z"/><path class="cls-5" d="M375.67,694.43a.49.49,0,0,1,.53.53v25.35a.48.48,0,0,1-.53.52h-3.43a.47.47,0,0,1-.53-.52V699.45l-2,.26a.55.55,0,0,1-.7-.59V696a.62.62,0,0,1,.63-.7Z"/><path class="cls-5" d="M404.91,693.43a.48.48,0,0,1,.52.53v25.35a.47.47,0,0,1-.52.52h-3.44a.47.47,0,0,1-.53-.52V698.45l-2,.26a.54.54,0,0,1-.69-.59V695a.61.61,0,0,1,.62-.7Z"/><path class="cls-5" d="M422.3,704.26a2.38,2.38,0,0,1-2.08,2.34v.07A2.37,2.37,0,0,1,422.3,709v6.07c0,3.1-1.69,4.75-4.79,4.75h-3.83c-3,0-4.62-1.61-4.62-4.62v-1.09a.6.6,0,0,1,.66-.66h3.17a.6.6,0,0,1,.66.66v1.36h3.7a.59.59,0,0,0,.66-.66v-4.69a1.17,1.17,0,0,0-1.32-1.32h-3.9a.59.59,0,0,1-.66-.66v-3a.59.59,0,0,1,.66-.66h3.9a1.18,1.18,0,0,0,1.32-1.28v-4.72a.59.59,0,0,0-.66-.66h-3.7v1.35a.59.59,0,0,1-.66.66h-3.17a.59.59,0,0,1-.66-.66v-1.35c0-2.84,1.62-4.36,4.62-4.36h3.83c3.1,0,4.79,1.65,4.79,4.75Z"/><path class="cls-5" d="M430.22,709.64c-3,0-4.62-1.62-4.62-4.63v-7c0-3,1.61-4.62,4.62-4.62h4c3,0,4.62,1.62,4.62,4.62v8.48a4.09,4.09,0,0,1-.33,1.65l-4.69,11.16a.72.72,0,0,1-.76.49h-3.43c-.5,0-.69-.29-.5-.75l4-9.44Zm1-11.85a1.18,1.18,0,0,0-1.32,1.32V704a1.18,1.18,0,0,0,1.32,1.32h1.85a1.18,1.18,0,0,0,1.32-1.32v-4.85a1.18,1.18,0,0,0-1.32-1.32Z"/><path class="cls-5" d="M287.92,497.93a.49.49,0,0,1,.53.53v25.35a.48.48,0,0,1-.53.52h-3.43a.47.47,0,0,1-.53-.52V503l-2,.26a.55.55,0,0,1-.7-.59v-3.17a.62.62,0,0,1,.63-.7Z"/><path class="cls-5" d="M297,515.65a.83.83,0,0,0-.46.8v2.87a.59.59,0,0,0,.66.66h3.56v-1.36a.6.6,0,0,1,.66-.66h3.17a.6.6,0,0,1,.66.66v5a.59.59,0,0,1-.66.66H292.74a.59.59,0,0,1-.66-.66v-9.73c0-.63.23-.89.86-1.22l7.85-4.23v-4.88a1.2,1.2,0,0,0-1.32-1.32h-1.58a1.17,1.17,0,0,0-1.32,1.32v2.57a.49.49,0,0,1-.53.53h-3.43a.47.47,0,0,1-.53-.53v-3.5c0-3.1,1.65-4.75,4.75-4.75h3.7c3.07,0,4.75,1.65,4.75,4.75v7.79c0,.63-.26.89-.89,1.22Z"/><path class="cls-5" d="M313.2,514.14c-3,0-4.62-1.62-4.62-4.63v-7c0-3,1.62-4.62,4.62-4.62h4c3,0,4.62,1.62,4.62,4.62V511a4.09,4.09,0,0,1-.33,1.65l-4.69,11.16a.72.72,0,0,1-.76.49h-3.43c-.49,0-.69-.29-.49-.75l4-9.44Zm1.06-11.85a1.18,1.18,0,0,0-1.32,1.32v4.85a1.18,1.18,0,0,0,1.32,1.32h1.84a1.18,1.18,0,0,0,1.32-1.32v-4.85a1.18,1.18,0,0,0-1.32-1.32Z"/><path class="cls-5" d="M384.54,497.93a.49.49,0,0,1,.53.53v25.35a.49.49,0,0,1-.53.53h-3.43a.48.48,0,0,1-.53-.53V503l-2,.26a.55.55,0,0,1-.7-.59v-3.17a.61.61,0,0,1,.63-.69Z"/><path class="cls-5" d="M393.65,515.65a.83.83,0,0,0-.46.8v2.87a.59.59,0,0,0,.66.66h3.56v-1.35a.6.6,0,0,1,.66-.67h3.17a.6.6,0,0,1,.66.67v5a.6.6,0,0,1-.66.67H389.36a.6.6,0,0,1-.66-.67v-9.73c0-.63.23-.89.86-1.22l7.85-4.23v-4.88a1.2,1.2,0,0,0-1.32-1.32h-1.58a1.17,1.17,0,0,0-1.32,1.32v2.57a.49.49,0,0,1-.53.53h-3.43a.47.47,0,0,1-.53-.53v-3.5c0-3.1,1.65-4.75,4.75-4.75h3.7c3.07,0,4.75,1.65,4.75,4.75v7.79c0,.63-.26.89-.89,1.22Z"/><path class="cls-5" d="M419.26,497.93c.53,0,.66.33.49.79l-9.63,25a.72.72,0,0,1-.76.53l-3.44,0c-.49,0-.69-.3-.52-.76l8.15-21.26h-7.82a.49.49,0,0,1-.53-.53v-3.3a.51.51,0,0,1,.53-.56Z"/><path class="cls-5" d="M287.91,584.93a.48.48,0,0,1,.52.53v25.35a.48.48,0,0,1-.52.53h-3.44a.48.48,0,0,1-.53-.53V590l-2,.26a.54.54,0,0,1-.69-.59v-3.17a.6.6,0,0,1,.62-.69Z"/><path class="cls-5" d="M305.3,595.76a2.38,2.38,0,0,1-2.08,2.34v.07a2.37,2.37,0,0,1,2.08,2.34v6.07c0,3.1-1.69,4.76-4.79,4.76h-3.83c-3,0-4.62-1.62-4.62-4.63v-1.08a.6.6,0,0,1,.66-.67h3.17a.6.6,0,0,1,.66.67V607h3.7a.59.59,0,0,0,.66-.66v-4.69a1.17,1.17,0,0,0-1.32-1.32h-3.9a.59.59,0,0,1-.66-.66v-3a.59.59,0,0,1,.66-.66h3.9a1.18,1.18,0,0,0,1.32-1.29V590a.59.59,0,0,0-.66-.66h-3.7v1.35a.59.59,0,0,1-.66.66h-3.17a.59.59,0,0,1-.66-.66v-1.35c0-2.84,1.62-4.36,4.62-4.36h3.83c3.1,0,4.79,1.65,4.79,4.75Z"/><path class="cls-5" d="M320.81,584.93a.59.59,0,0,1,.66.66v3a.59.59,0,0,1-.66.66h-7.43v5.18l7.86,2.48a.7.7,0,0,1,.56.72v9c0,3-1.62,4.63-4.62,4.63h-4c-3,0-4.62-1.62-4.62-4.63v-1.05a.59.59,0,0,1,.66-.66h3.16a.59.59,0,0,1,.66.66V607h3.6a.59.59,0,0,0,.66-.66v-6l-7.85-2.48a.69.69,0,0,1-.56-.72V585.59a.59.59,0,0,1,.66-.66Z"/><path class="cls-5" d="M165.41,497.93a.48.48,0,0,1,.52.53v25.35a.47.47,0,0,1-.52.52H162a.47.47,0,0,1-.53-.52V503l-2,.26a.54.54,0,0,1-.69-.59v-3.17a.61.61,0,0,1,.62-.7Z"/><path class="cls-5" d="M182.8,508.76a2.38,2.38,0,0,1-2.08,2.34v.07a2.37,2.37,0,0,1,2.08,2.34v6.07c0,3.1-1.69,4.75-4.79,4.75h-3.83c-3,0-4.62-1.61-4.62-4.62v-1.09a.6.6,0,0,1,.66-.66h3.17a.6.6,0,0,1,.66.66V520h3.7a.59.59,0,0,0,.66-.66v-4.69a1.17,1.17,0,0,0-1.32-1.32h-3.9a.59.59,0,0,1-.66-.66v-3a.59.59,0,0,1,.66-.66h3.9a1.18,1.18,0,0,0,1.32-1.28V503a.59.59,0,0,0-.66-.66h-3.7v1.35a.59.59,0,0,1-.66.66h-3.17a.59.59,0,0,1-.66-.66v-1.35c0-2.84,1.62-4.36,4.62-4.36H178c3.1,0,4.79,1.65,4.79,4.75Z"/><path class="cls-5" d="M191.05,515.65a.84.84,0,0,0-.47.8v2.87a.59.59,0,0,0,.66.66h3.57v-1.36a.6.6,0,0,1,.66-.66h3.17a.6.6,0,0,1,.66.66v5a.59.59,0,0,1-.66.66H186.76a.59.59,0,0,1-.66-.66v-9.73c0-.63.23-.89.85-1.22l7.86-4.23v-4.88a1.2,1.2,0,0,0-1.32-1.32H191.9a1.17,1.17,0,0,0-1.32,1.32v2.57a.48.48,0,0,1-.52.53h-3.44a.47.47,0,0,1-.52-.53v-3.5c0-3.1,1.65-4.75,4.75-4.75h3.69c3.07,0,4.76,1.65,4.76,4.75v7.79c0,.63-.27.89-.89,1.22Z"/><path class="cls-5" d="M165.72,584.93a.49.49,0,0,1,.53.53v25.35a.49.49,0,0,1-.53.53h-3.43a.47.47,0,0,1-.53-.53V590l-2,.26a.54.54,0,0,1-.69-.59v-3.17a.61.61,0,0,1,.63-.69Z"/><path class="cls-5" d="M183.11,595.76A2.38,2.38,0,0,1,181,598.1v.07a2.37,2.37,0,0,1,2.08,2.34v6.07c0,3.1-1.68,4.76-4.79,4.76H174.5c-3,0-4.62-1.62-4.62-4.63v-1.08a.6.6,0,0,1,.66-.67h3.16a.6.6,0,0,1,.66.67V607h3.7a.59.59,0,0,0,.66-.66v-4.69a1.17,1.17,0,0,0-1.32-1.32h-3.89a.59.59,0,0,1-.66-.66v-3a.59.59,0,0,1,.66-.66h3.89a1.18,1.18,0,0,0,1.32-1.29V590a.59.59,0,0,0-.66-.66h-3.7v1.35a.59.59,0,0,1-.66.66h-3.16a.59.59,0,0,1-.66-.66v-1.35c0-2.84,1.61-4.36,4.62-4.36h3.82c3.11,0,4.79,1.65,4.79,4.75Z"/><path class="cls-5" d="M199,595.76a2.38,2.38,0,0,1-2.08,2.34v.07a2.37,2.37,0,0,1,2.08,2.34v6.07c0,3.1-1.68,4.76-4.78,4.76h-3.83c-3,0-4.62-1.62-4.62-4.63v-1.08a.6.6,0,0,1,.66-.67h3.17a.6.6,0,0,1,.66.67V607h3.69a.59.59,0,0,0,.66-.66v-4.69a1.17,1.17,0,0,0-1.32-1.32h-3.89a.59.59,0,0,1-.66-.66v-3a.59.59,0,0,1,.66-.66h3.89a1.18,1.18,0,0,0,1.32-1.29V590a.59.59,0,0,0-.66-.66h-3.69v1.35a.59.59,0,0,1-.66.66h-3.17a.59.59,0,0,1-.66-.66v-1.35c0-2.84,1.62-4.36,4.62-4.36h3.83c3.1,0,4.78,1.65,4.78,4.75Z"/><path class="cls-5" d="M298.39,140.37a.48.48,0,0,1,.52.53v25.34a.48.48,0,0,1-.52.53H295a.47.47,0,0,1-.52-.53V145.39l-2.05.26a.54.54,0,0,1-.69-.59v-3.17a.61.61,0,0,1,.62-.7Z"/><path class="cls-5" d="M309.24,140.37a.49.49,0,0,1,.53.53v25.34a.49.49,0,0,1-.53.53h-3.43a.48.48,0,0,1-.53-.53V145.39l-2,.26a.55.55,0,0,1-.7-.59v-3.17a.62.62,0,0,1,.63-.7Z"/><path class="cls-5" d="M313.4,145.12c0-3.1,1.65-4.75,4.75-4.75h3.7c3.1,0,4.75,1.65,4.75,4.75V162c0,3.1-1.65,4.75-4.75,4.75h-3.7c-3.1,0-4.75-1.65-4.75-4.75ZM321,162.51a1.17,1.17,0,0,0,1.32-1.32V146a1.18,1.18,0,0,0-1.32-1.32h-1.91a1.18,1.18,0,0,0-1.32,1.32v15.24a1.17,1.17,0,0,0,1.32,1.32Z"/><path class="cls-5" d="M417.42,158.38a.49.49,0,0,1,.53.53v25.35a.48.48,0,0,1-.53.52H414a.47.47,0,0,1-.53-.52V163.4l-2,.26a.55.55,0,0,1-.7-.59V159.9a.61.61,0,0,1,.63-.69Z"/><path class="cls-5" d="M428.28,158.38a.49.49,0,0,1,.53.53v25.35a.48.48,0,0,1-.53.52h-3.43a.46.46,0,0,1-.53-.52V163.4l-2.05.26a.54.54,0,0,1-.69-.59V159.9a.61.61,0,0,1,.63-.69Z"/><path class="cls-5" d="M446.83,158.38c.52,0,.66.33.49.79l-9.64,25.05a.71.71,0,0,1-.76.53l-3.43,0c-.49,0-.69-.29-.53-.76l8.16-21.25h-7.83a.48.48,0,0,1-.52-.53v-3.3a.5.5,0,0,1,.52-.56Z"/><path class="cls-5" d="M547.92,498.93a.49.49,0,0,1,.53.53v25.35a.49.49,0,0,1-.53.53h-3.43a.48.48,0,0,1-.53-.53V504l-2,.26a.55.55,0,0,1-.7-.59v-3.17a.61.61,0,0,1,.63-.69Z"/><path class="cls-5" d="M557,516.65a.83.83,0,0,0-.46.8v2.87a.59.59,0,0,0,.66.66h3.56v-1.35a.6.6,0,0,1,.66-.67h3.17a.6.6,0,0,1,.66.67v5a.6.6,0,0,1-.66.67H552.74a.6.6,0,0,1-.66-.67v-9.73c0-.63.23-.89.86-1.22l7.85-4.23v-4.88a1.2,1.2,0,0,0-1.32-1.32h-1.58a1.17,1.17,0,0,0-1.32,1.32v2.57a.49.49,0,0,1-.53.53h-3.43a.47.47,0,0,1-.53-.53v-3.5c0-3.1,1.65-4.75,4.75-4.75h3.7c3.07,0,4.75,1.65,4.75,4.75v7.79c0,.63-.26.89-.89,1.22Z"/><path class="cls-5" d="M580.79,498.93a.59.59,0,0,1,.66.66v3a.59.59,0,0,1-.66.66h-7.43v5.18l7.86,2.48a.69.69,0,0,1,.56.72v9c0,3-1.62,4.63-4.62,4.63h-4c-3,0-4.62-1.62-4.62-4.63v-1.05a.59.59,0,0,1,.66-.66h3.17a.59.59,0,0,1,.66.66V521h3.59a.59.59,0,0,0,.66-.66v-6l-7.85-2.48a.69.69,0,0,1-.56-.72V499.59a.59.59,0,0,1,.66-.66Z"/><path class="cls-5" d="M433.74,304.43a.49.49,0,0,1,.53.53v25.35a.48.48,0,0,1-.53.52h-3.43a.47.47,0,0,1-.53-.52V309.45l-2,.26a.55.55,0,0,1-.7-.59V306a.61.61,0,0,1,.63-.69Z"/><path class="cls-5" d="M442.85,322.15a.83.83,0,0,0-.46.8v2.87a.59.59,0,0,0,.66.66h3.56v-1.36a.6.6,0,0,1,.66-.66h3.17a.6.6,0,0,1,.66.66v5.05a.59.59,0,0,1-.66.66H438.56a.59.59,0,0,1-.66-.66v-9.73c0-.63.23-.89.86-1.22l7.85-4.23v-4.88a1.2,1.2,0,0,0-1.32-1.32h-1.58a1.17,1.17,0,0,0-1.32,1.32v2.57a.49.49,0,0,1-.53.53h-3.43a.47.47,0,0,1-.53-.53v-3.5c0-3.1,1.65-4.75,4.75-4.75h3.7c3.07,0,4.75,1.65,4.75,4.75V317c0,.63-.26.89-.89,1.22Z"/><path class="cls-5" d="M461.1,304.43a.49.49,0,0,1,.53.53v25.35a.48.48,0,0,1-.53.52h-3.43a.46.46,0,0,1-.53-.52V309.45l-2.05.26a.54.54,0,0,1-.69-.59V306a.61.61,0,0,1,.63-.69Z"/><path class="cls-5" d="M333.42,388.43a.49.49,0,0,1,.53.53v25.35a.48.48,0,0,1-.53.52H330a.47.47,0,0,1-.53-.52V393.45l-2,.26a.55.55,0,0,1-.7-.59V390a.61.61,0,0,1,.63-.69Z"/><path class="cls-5" d="M342.53,406.15a.83.83,0,0,0-.46.8v2.87a.59.59,0,0,0,.66.66h3.56v-1.36a.6.6,0,0,1,.66-.66h3.17a.6.6,0,0,1,.66.66v5.05a.59.59,0,0,1-.66.66H338.24a.59.59,0,0,1-.66-.66v-9.73c0-.63.23-.89.86-1.22l7.85-4.23v-4.88a1.2,1.2,0,0,0-1.32-1.32h-1.58a1.17,1.17,0,0,0-1.32,1.32v2.57a.49.49,0,0,1-.53.53h-3.43a.47.47,0,0,1-.53-.53v-3.5c0-3.1,1.65-4.75,4.75-4.75H346c3.07,0,4.75,1.65,4.75,4.75V401c0,.63-.26.89-.89,1.22Z"/><path class="cls-5" d="M367.31,399.26a2.38,2.38,0,0,1-2.08,2.34v.07a2.37,2.37,0,0,1,2.08,2.34v6.07c0,3.1-1.68,4.75-4.78,4.75h-3.67c-3.1,0-4.78-1.65-4.78-4.75V404a2.37,2.37,0,0,1,2.08-2.34v-.07a2.38,2.38,0,0,1-2.08-2.34v-6.08c0-3.1,1.68-4.75,4.78-4.75h3.67c3.1,0,4.78,1.65,4.78,4.75Zm-4.39-5.15a1.17,1.17,0,0,0-1.32-1.32h-1.81a1.17,1.17,0,0,0-1.32,1.32v4.06a1.17,1.17,0,0,0,1.32,1.28h1.81a1.17,1.17,0,0,0,1.32-1.28Zm0,11a1.17,1.17,0,0,0-1.32-1.32h-1.81a1.17,1.17,0,0,0-1.32,1.32v4a1.17,1.17,0,0,0,1.32,1.32h1.81a1.17,1.17,0,0,0,1.32-1.32Z"/><path class="cls-5" d="M430.91,388.43a.48.48,0,0,1,.52.53v25.35a.47.47,0,0,1-.52.52h-3.44a.47.47,0,0,1-.53-.52V393.45l-2,.26a.54.54,0,0,1-.69-.59V390a.6.6,0,0,1,.62-.69Z"/><path class="cls-5" d="M440,406.15a.83.83,0,0,0-.46.8v2.87a.59.59,0,0,0,.66.66h3.57v-1.36a.6.6,0,0,1,.66-.66h3.16a.6.6,0,0,1,.66.66v5.05a.59.59,0,0,1-.66.66H435.72a.59.59,0,0,1-.66-.66v-9.73c0-.63.23-.89.86-1.22l7.86-4.23v-4.88a1.2,1.2,0,0,0-1.32-1.32h-1.59a1.17,1.17,0,0,0-1.32,1.32v2.57a.49.49,0,0,1-.53.53h-3.43a.48.48,0,0,1-.53-.53v-3.5c0-3.1,1.65-4.75,4.75-4.75h3.7c3.07,0,4.75,1.65,4.75,4.75V401c0,.63-.26.89-.89,1.22Z"/><path class="cls-5" d="M460.14,398.63c3,0,4.62,1.62,4.62,4.62v7c0,3-1.61,4.62-4.62,4.62h-4c-3,0-4.62-1.61-4.62-4.62v-8.48a4.12,4.12,0,0,1,.33-1.65l4.69-11.15a.73.73,0,0,1,.76-.5h3.43c.5,0,.69.3.5.76l-4,9.44Zm-1.05,11.85a1.18,1.18,0,0,0,1.32-1.32v-4.85a1.18,1.18,0,0,0-1.32-1.32h-1.85a1.18,1.18,0,0,0-1.32,1.32v4.85a1.18,1.18,0,0,0,1.32,1.32Z"/><polygon class="cls-6" points="600.18 203.13 600.18 212.04 591.26 212.04 591.26 220.96 582.34 220.96 582.34 229.87 573.43 229.87 573.43 240.96 577.76 240.96 577.76 234.2 586.67 234.2 586.67 225.29 595.59 225.29 595.59 216.37 604.51 216.37 604.51 207.45 611.26 207.45 611.26 203.13 600.18 203.13"/><polygon class="cls-5" points="590.08 209.18 593.9 205.35 593.9 207.37 596.01 207.36 596.01 201.75 590.39 201.75 590.39 203.86 592.4 203.86 588.59 207.68 590.08 209.18"/><polygon class="cls-5" points="578.08 218.9 574.27 222.72 574.27 220.71 572.15 220.71 572.16 226.32 577.78 226.32 577.77 224.21 575.76 224.21 579.58 220.39 578.08 218.9"/><polygon class="cls-4" points="207.72 421.93 207.72 431.81 197.83 431.81 197.83 441.7 187.94 441.7 187.94 451.59 178.06 451.59 178.06 463.87 182.86 463.87 182.86 456.38 192.74 456.38 192.74 446.5 202.63 446.5 202.63 436.61 212.51 436.61 212.51 426.73 220 426.73 220 421.93 207.72 421.93"/><polygon class="cls-5" points="196.53 428.64 200.76 424.41 200.76 426.64 203.1 426.64 203.1 420.41 196.88 420.41 196.88 422.75 199.11 422.75 194.87 426.99 196.53 428.64"/><polygon class="cls-5" points="183.22 439.41 178.98 443.64 178.98 441.41 176.64 441.41 176.64 447.64 182.87 447.64 182.87 445.3 180.64 445.3 184.87 441.06 183.22 439.41"/><polygon class="cls-7" points="238.52 435.88 236.13 424.1 241.59 427.72 243.23 425.25 233.55 418.82 227.13 428.51 229.6 430.15 233.22 424.69 235.61 436.47 238.52 435.88"/><polygon class="cls-7" points="99.16 457.02 87.14 457.02 91.77 452.38 89.67 450.28 81.46 458.5 89.67 466.72 91.77 464.62 87.14 459.98 99.16 459.98 99.16 457.02"/><polygon class="cls-7" points="99.16 649.02 87.14 649.02 91.77 644.38 89.67 642.28 81.46 650.5 89.67 658.72 91.77 656.62 87.14 651.98 99.16 651.98 99.16 649.02"/><polygon class="cls-7" points="589.16 674.02 577.13 674.02 581.77 669.38 579.67 667.28 571.46 675.5 579.67 683.72 581.77 681.62 577.13 676.98 589.16 676.98 589.16 674.02"/><polygon class="cls-7" points="603.75 674.02 615.78 674.02 611.14 669.38 613.24 667.28 621.46 675.5 613.24 683.72 611.14 681.62 615.78 676.98 603.75 676.98 603.75 674.02"/><polygon class="cls-7" points="241.12 782.35 241.12 770.33 236.49 774.96 234.39 772.87 242.6 764.65 250.82 772.87 248.72 774.96 244.09 770.33 244.09 782.35 241.12 782.35"/><polygon class="cls-7" points="318.12 781.35 318.12 769.33 313.49 773.96 311.39 771.87 319.61 763.65 327.82 771.87 325.72 773.96 321.09 769.33 321.09 781.35 318.12 781.35"/><polygon class="cls-7" points="381.12 779.35 381.12 767.33 376.49 771.96 374.39 769.87 382.61 761.65 390.82 769.87 388.72 771.96 384.09 767.33 384.09 779.35 381.12 779.35"/><polygon class="cls-7" points="438.12 776.35 438.12 764.33 433.49 768.96 431.39 766.87 439.61 758.65 447.82 766.87 445.72 768.96 441.09 764.33 441.09 776.35 438.12 776.35"/><polygon class="cls-7" points="603.75 251.02 615.78 251.02 611.14 246.38 613.24 244.28 621.46 252.5 613.24 260.72 611.14 258.62 615.78 253.98 603.75 253.98 603.75 251.02"/><polygon class="cls-7" points="507 699.67 498.48 699.67 501.76 696.38 500.28 694.9 494.46 700.72 500.28 706.54 501.76 705.06 498.48 701.77 507 701.77 507 699.67"/><polygon class="cls-7" points="507 743.84 498.48 743.84 501.76 740.56 500.28 739.07 494.46 744.89 500.28 750.72 501.76 749.23 498.48 745.95 507 745.95 507 743.84"/><polygon class="cls-7" points="102.75 280.02 114.78 280.02 110.14 275.38 112.24 273.28 120.46 281.5 112.24 289.72 110.14 287.62 114.78 282.98 102.75 282.98 102.75 280.02"/><circle class="cls-8" cx="472" cy="525.6" r="3.88" transform="translate(-36.07 34.78) rotate(-4.07)"/><path class="cls-8" d="M476.36,531.11h-8.72c-1.94,0-3.2,2.63-2.33,4.86l4.92,12.72a1.86,1.86,0,0,0,3.54,0L478.69,536C479.56,533.74,478.3,531.11,476.36,531.11Z"/><circle class="cls-8" cx="472" cy="482.1" r="3.88" transform="translate(-32.99 34.67) rotate(-4.07)"/><path class="cls-8" d="M466.52,506.48h11c1.94,0,3.19-2.4,2.33-4.45L474,488.6a1.89,1.89,0,0,0-1.78-1.27h-.41a1.88,1.88,0,0,0-1.78,1.26L464.19,502C463.33,504.08,464.58,506.48,466.52,506.48Z"/><circle class="cls-9" cx="469" cy="677.34" r="3.88" transform="translate(-46.84 34.95) rotate(-4.07)"/><path class="cls-9" d="M473.36,682.85h-8.72c-1.94,0-3.2,2.63-2.33,4.86l4.92,12.72a1.86,1.86,0,0,0,3.54,0l4.92-12.72C476.56,685.48,475.3,682.85,473.36,682.85Z"/><circle class="cls-8" cx="469" cy="721.36" r="3.88" transform="translate(-49.96 35.06) rotate(-4.07)"/><path class="cls-8" d="M463.52,745.74h11c1.94,0,3.19-2.4,2.33-4.44L471,727.86a1.89,1.89,0,0,0-1.78-1.27h-.41a1.88,1.88,0,0,0-1.78,1.26l-5.87,13.45C460.33,743.34,461.58,745.74,463.52,745.74Z"/><circle class="cls-8" cx="426.5" cy="208.6" r="3.88" transform="translate(-13.71 30.76) rotate(-4.07)"/><path class="cls-8" d="M430.86,214.11h-8.72c-1.94,0-3.2,2.63-2.33,4.86l4.92,12.72a1.86,1.86,0,0,0,3.54,0L433.19,219C434.06,216.74,432.8,214.11,430.86,214.11Z"/><circle class="cls-8" cx="453" cy="208.6" r="3.88" transform="matrix(1, -0.07, 0.07, 1, -13.65, 32.64)"/><path class="cls-8" d="M447.52,233h11c1.94,0,3.19-2.4,2.33-4.45L455,215.1a1.89,1.89,0,0,0-1.78-1.27h-.41a1.88,1.88,0,0,0-1.78,1.26l-5.87,13.44C444.33,230.58,445.58,233,447.52,233Z"/><path class="cls-3" d="M217,350.48,204.54,338a.49.49,0,0,1,0-.7l12.56-12.73a.48.48,0,0,1,.36-.15h.08a.52.52,0,0,1,.37.29c.73,1.58.89,4.19-2.53,7.61l-5.31,5.31a1.07,1.07,0,0,0,.76,1.83,1.06,1.06,0,0,0,.75-.31l5.31-5.32c4.2-4.19,4.78-8.83,1.51-12.1a1.07,1.07,0,0,0-1.52,0l-13.85,14a.51.51,0,0,1-.35.15h0a.51.51,0,0,1-.36-.15l-2.07-2.08a.5.5,0,0,1,0-.71l.38-.38a4.8,4.8,0,0,0,0-6.79l-5.22-5.17a1.06,1.06,0,0,0-.75-.31,1,1,0,0,0-.76.32,1.07,1.07,0,0,0,0,1.51l5.22,5.17a2.66,2.66,0,0,1,0,3.76l-.38.38a.51.51,0,0,1-.35.15.53.53,0,0,1-.36-.15l-6.72-6.72a1.07,1.07,0,1,0-1.51,1.51L196.5,333a.51.51,0,0,1,0,.71l-.34.34a2.66,2.66,0,0,1-3.75,0l-5.22-5.17a1.08,1.08,0,0,0-.76-.31,1.07,1.07,0,0,0-.76.31,1.1,1.1,0,0,0-.31.76,1,1,0,0,0,.32.76l5.22,5.17a4.78,4.78,0,0,0,6.78,0l.33-.33a.49.49,0,0,1,.36-.15.47.47,0,0,1,.35.15l2.1,2.09a.51.51,0,0,1,0,.71L188.5,350.48a1.07,1.07,0,0,0,0,1.52,1,1,0,0,0,.75.31A1.07,1.07,0,0,0,190,352l12.31-12.48a.47.47,0,0,1,.35-.15h0a.52.52,0,0,1,.36.14L215.52,352a1.05,1.05,0,0,0,.76.32A1,1,0,0,0,217,352a1.07,1.07,0,0,0,0-1.51Z"/><path class="cls-10" d="M213.48,262.16a2.14,2.14,0,1,0,2.14-2.13A2.14,2.14,0,0,0,213.48,262.16Z"/><path class="cls-10" d="M201.13,269.22h8.25c1-1.6,3.46-2.42,4.36-2.72a1.13,1.13,0,0,1,.31-.06.52.52,0,0,1,.21,0l1.36.48,1.36-.48a.86.86,0,0,1,.27-.05.73.73,0,0,1,.25,0,10.57,10.57,0,0,1,3.9,2.14V257.48H201.13Zm14.49-10.79a3.73,3.73,0,1,1-3.74,3.73A3.74,3.74,0,0,1,215.62,258.43ZM204,259.62h4.65a.8.8,0,0,1,0,1.6H204a.8.8,0,0,1,0-1.6Zm0,2.93h4.65a.8.8,0,1,1,0,1.6H204a.8.8,0,1,1,0-1.6Zm0,2.93h2.68a.8.8,0,1,1,0,1.6H204a.8.8,0,0,1,0-1.6Z"/><path class="cls-10" d="M215.35,268.57l-1.36-.46a6.82,6.82,0,0,0-2.26,1.11h7.78a6.82,6.82,0,0,0-2.26-1.11l-1.36.46a.93.93,0,0,1-.29.05A.74.74,0,0,1,215.35,268.57Z"/><path class="cls-3" d="M204,261h4.65a.55.55,0,0,0,.55-.55.55.55,0,0,0-.55-.55H204a.55.55,0,0,0-.55.55A.55.55,0,0,0,204,261Z"/><path class="cls-3" d="M212.13,262.16a3.49,3.49,0,1,0,3.49-3.48A3.49,3.49,0,0,0,212.13,262.16Zm3.49-2.38a2.38,2.38,0,1,1-2.39,2.38A2.38,2.38,0,0,1,215.62,259.78Z"/><path class="cls-3" d="M221.78,255.6h-21a1.52,1.52,0,0,0-1.51,1.51v12.48a1.52,1.52,0,0,0,1.51,1.51h21a1.51,1.51,0,0,0,1.5-1.51V257.11A1.51,1.51,0,0,0,221.78,255.6Zm-2,13.71a.26.26,0,0,1-.23.16h-7.78a.26.26,0,0,1-.23-.16.25.25,0,0,1,.07-.28,6.58,6.58,0,0,1,2.18-1.1l.16-.06h.16l1.36.47.17,0a.65.65,0,0,0,.2,0l1.37-.46h.16l.18.07a6.46,6.46,0,0,1,2.16,1.09A.25.25,0,0,1,219.74,269.31Zm1.91-.7a.24.24,0,0,1-.16.23l-.09,0a.25.25,0,0,1-.18-.08,10.29,10.29,0,0,0-3.8-2.07.47.47,0,0,0-.17,0,.52.52,0,0,0-.18,0l-1.37.48-.08,0-.08,0-1.37-.48-.12,0a.68.68,0,0,0-.23.05l-.07,0c-.9.3-3.28,1.1-4.15,2.58a.26.26,0,0,1-.22.13h-8.25a.25.25,0,0,1-.25-.25V257.48a.26.26,0,0,1,.25-.25H221.4a.25.25,0,0,1,.25.25Z"/><path class="cls-3" d="M204,266.83h2.68a.54.54,0,0,0,.55-.55.55.55,0,0,0-.55-.55H204a.55.55,0,0,0-.55.55A.55.55,0,0,0,204,266.83Z"/><path class="cls-3" d="M204,263.9h4.65a.55.55,0,0,0,0-1.1H204a.55.55,0,1,0,0,1.1Z"/><polygon class="cls-4" points="195.72 171.93 195.72 181.81 185.83 181.81 185.83 191.7 175.94 191.7 175.94 201.59 166.06 201.59 166.06 213.87 170.86 213.87 170.86 206.38 180.74 206.38 180.74 196.5 190.63 196.5 190.63 186.61 200.51 186.61 200.51 176.73 208 176.73 208 171.93 195.72 171.93"/><polygon class="cls-5" points="184.53 178.64 188.76 174.41 188.76 176.64 191.1 176.64 191.1 170.41 184.88 170.41 184.88 172.75 187.11 172.75 182.87 176.99 184.53 178.64"/><polygon class="cls-5" points="171.22 189.41 166.98 193.64 166.98 191.41 164.64 191.41 164.64 197.64 170.87 197.64 170.87 195.3 168.64 195.3 172.87 191.06 171.22 189.41"/><path class="cls-5" d="M239,691.74a9.08,9.08,0,0,0-9,9.1,8.24,8.24,0,0,0,3.6,7.17V711a1.32,1.32,0,0,0,1.28,1.2H235l8.26-.67a1.25,1.25,0,0,0,1.16-1.2V708a8.92,8.92,0,0,0,3.6-7.19A9.08,9.08,0,0,0,239,691.74Zm3.59,14.55a1.15,1.15,0,0,0-.59,1.06v1.83l-6,.47v-2.3a1.15,1.15,0,0,0-.54-1,5.86,5.86,0,0,1-3-5.47,6.59,6.59,0,1,1,13.17,0A6,6,0,0,1,242.59,706.29Zm1.7,7.75a1.19,1.19,0,0,1-1.1,1.28l-8.2.6h-.09a1.2,1.2,0,0,1-1.19-1.11,1.21,1.21,0,0,1,1.11-1.29l8.2-.59A1.19,1.19,0,0,1,244.29,714Zm-2.61,3.79a1.2,1.2,0,0,1-1.1,1.29l-3,.23h-.1a1.2,1.2,0,0,1-.09-2.4l3-.23A1.2,1.2,0,0,1,241.68,717.83Zm2.1-17a1,1,0,0,1-1,.94h-.1a1.06,1.06,0,0,1-.94-1.15,2.29,2.29,0,0,0-1.5-2.39,1.06,1.06,0,0,1-.63-1.34,1,1,0,0,1,1.32-.64A4.39,4.39,0,0,1,243.78,700.82Z"/><path class="cls-5" d="M624.34,546.88a1.93,1.93,0,0,1,2.16-2.16h1.68a1.93,1.93,0,0,1,2.16,2.16v6.18a1.93,1.93,0,0,1-2.16,2.16H626.5a1.93,1.93,0,0,1-2.16-2.16Zm3.51,6.41a.53.53,0,0,0,.6-.6v-5.43a.54.54,0,0,0-.6-.6h-1a.54.54,0,0,0-.6.6v5.43a.53.53,0,0,0,.6.6Z"/><path class="cls-5" d="M631.84,545a.23.23,0,0,1,.24-.24h3.6a1.93,1.93,0,0,1,2.16,2.16v3a1.94,1.94,0,0,1-2.16,2.15l-1.89,0v3a.21.21,0,0,1-.24.24l-1.47,0a.22.22,0,0,1-.24-.24Zm3.45,5.09a.53.53,0,0,0,.6-.6v-2.19a.53.53,0,0,0-.6-.6h-1.5v3.39Z"/><path class="cls-5" d="M645.33,546.46c0,.16-.06.26-.24.26h-3.71V549h2.82a.23.23,0,0,1,.24.26v1.48a.22.22,0,0,1-.24.25h-2.82v2.23h3.71c.18,0,.24.07.24.23V555c0,.15-.06.24-.24.24h-5.52a.22.22,0,0,1-.23-.24V545a.22.22,0,0,1,.23-.24h5.52a.21.21,0,0,1,.24.24Z"/><path class="cls-5" d="M653,544.72a.22.22,0,0,1,.24.24v10a.22.22,0,0,1-.24.24h-1.18a.26.26,0,0,1-.27-.19l-2.82-5.73V555a.21.21,0,0,1-.24.24h-1.41a.22.22,0,0,1-.24-.24V545a.23.23,0,0,1,.24-.24h1.18a.28.28,0,0,1,.27.2l2.82,5.73V545a.22.22,0,0,1,.24-.24Z"/><path class="cls-5" d="M655,555.22a.21.21,0,0,1-.24-.24V545a.22.22,0,0,1,.24-.24h1.56a.23.23,0,0,1,.24.24v10a.22.22,0,0,1-.24.24Z"/><path class="cls-5" d="M664.44,544.72a.23.23,0,0,1,.24.24v10a.22.22,0,0,1-.24.24h-1.18A.26.26,0,0,1,663,555l-2.82-5.73V555a.22.22,0,0,1-.24.24h-1.41a.22.22,0,0,1-.24-.24V545a.23.23,0,0,1,.24-.24h1.18a.28.28,0,0,1,.27.2l2.82,5.73V545a.22.22,0,0,1,.24-.24Z"/><path class="cls-5" d="M666.19,546.88a1.93,1.93,0,0,1,2.16-2.16H670a1.94,1.94,0,0,1,2.16,2.16V548a.23.23,0,0,1-.24.24h-1.41a.22.22,0,0,1-.24-.24v-.74a.54.54,0,0,0-.6-.6h-1a.53.53,0,0,0-.6.6v5.43a.53.53,0,0,0,.6.6h1a.53.53,0,0,0,.6-.6v-1.31h-.78a.21.21,0,0,1-.24-.24v-1.5c0-.16.07-.23.24-.23H672a.21.21,0,0,1,.24.23v3.42a1.94,1.94,0,0,1-2.16,2.16h-1.68a1.93,1.93,0,0,1-2.16-2.16Z"/><path class="cls-5" d="M682.33,543.23a.27.27,0,0,1,.3.3v1.38a.27.27,0,0,1-.3.3H680a.53.53,0,0,0-.6.59v1.7a.54.54,0,0,0,.6.59h1.4v-.6a.27.27,0,0,1,.3-.31h1.42a.27.27,0,0,1,.3.31v.6h.63a.26.26,0,0,1,.3.29v1.38a.27.27,0,0,1-.3.3h-.63v4.86a.27.27,0,0,1-.3.3h-3.54a1.94,1.94,0,0,1-2.17-2.16v-2.9a1.08,1.08,0,0,1,.94-1.07v0a1.08,1.08,0,0,1-.94-1.06v-2.62a1.93,1.93,0,0,1,2.17-2.15Zm-2.3,6.83a.54.54,0,0,0-.6.61v2a.54.54,0,0,0,.6.61h1.4v-3.19Z"/><path class="cls-5" d="M695.65,548.5a.22.22,0,0,1-.24.25H694a.22.22,0,0,1-.24-.25v-1.22a.54.54,0,0,0-.6-.61h-1a.54.54,0,0,0-.6.61v5.44a.53.53,0,0,0,.6.6h1a.53.53,0,0,0,.6-.6v-1.28a.21.21,0,0,1,.24-.23h1.41a.21.21,0,0,1,.24.23v1.62a1.94,1.94,0,0,1-2.16,2.16h-1.68a1.94,1.94,0,0,1-2.17-2.16v-6.18a1.94,1.94,0,0,1,2.17-2.16h1.68a1.94,1.94,0,0,1,2.16,2.16Z"/><path class="cls-5" d="M699.19,553.25h3a.21.21,0,0,1,.24.23V555c0,.17-.07.24-.24.24h-4.77a.21.21,0,0,1-.24-.24V545a.23.23,0,0,1,.24-.24H699a.22.22,0,0,1,.24.24Z"/><path class="cls-5" d="M703.46,546.88a1.93,1.93,0,0,1,2.16-2.16h1.68a1.93,1.93,0,0,1,2.16,2.16v6.18a1.93,1.93,0,0,1-2.16,2.16h-1.68a1.93,1.93,0,0,1-2.16-2.16Zm3.51,6.41a.53.53,0,0,0,.6-.6v-5.43a.54.54,0,0,0-.6-.6h-1a.54.54,0,0,0-.6.6v5.43a.53.53,0,0,0,.6.6Z"/><path class="cls-5" d="M714.8,544.72a1.93,1.93,0,0,1,2.16,2.16v1a.22.22,0,0,1-.24.24H715.2a.23.23,0,0,1-.24-.24v-.63a.53.53,0,0,0-.6-.61h-.82a.55.55,0,0,0-.6.61v1.27l3.63,1.17a.55.55,0,0,1,.39.56v2.81a1.93,1.93,0,0,1-2.16,2.16h-1.68a1.94,1.94,0,0,1-2.16-2.16v-1a.21.21,0,0,1,.24-.24h1.51c.17,0,.24.07.24.24v.63a.54.54,0,0,0,.6.6h.81a.53.53,0,0,0,.6-.6v-1.51l-3.6-1.17a.55.55,0,0,1-.4-.56v-2.6a1.94,1.94,0,0,1,2.16-2.16Z"/><path class="cls-5" d="M718.7,555.22a.22.22,0,0,1-.24-.24V545a.22.22,0,0,1,.24-.24h1.56a.23.23,0,0,1,.24.24v10a.22.22,0,0,1-.24.24Z"/><path class="cls-5" d="M728.17,544.72a.23.23,0,0,1,.24.24v10a.22.22,0,0,1-.24.24H727a.26.26,0,0,1-.27-.19l-2.82-5.73V555a.21.21,0,0,1-.24.24h-1.41A.22.22,0,0,1,722,555V545a.23.23,0,0,1,.24-.24h1.19a.28.28,0,0,1,.27.2l2.82,5.73V545a.22.22,0,0,1,.24-.24Z"/><path class="cls-5" d="M729.91,546.88a1.93,1.93,0,0,1,2.16-2.16h1.68a1.94,1.94,0,0,1,2.16,2.16V548a.23.23,0,0,1-.24.24h-1.41A.22.22,0,0,1,734,548v-.74a.54.54,0,0,0-.6-.6h-1a.53.53,0,0,0-.6.6v5.43a.53.53,0,0,0,.6.6h1a.53.53,0,0,0,.6-.6v-1.31h-.78a.21.21,0,0,1-.24-.24v-1.5c0-.16.07-.23.24-.23h2.43a.21.21,0,0,1,.24.23v3.42a1.94,1.94,0,0,1-2.16,2.16h-1.68a1.93,1.93,0,0,1-2.16-2.16Z"/><path class="cls-5" d="M652.07,566.51a.22.22,0,0,1-.24.24h-1.41a.22.22,0,0,1-.24-.24v-1.23a.54.54,0,0,0-.6-.6h-1a.53.53,0,0,0-.6.6v5.44a.53.53,0,0,0,.6.6h1a.53.53,0,0,0,.6-.6v-1.27a.22.22,0,0,1,.24-.24h1.41a.22.22,0,0,1,.24.24v1.62a1.94,1.94,0,0,1-2.16,2.16h-1.68a1.94,1.94,0,0,1-2.17-2.16v-6.18a1.94,1.94,0,0,1,2.17-2.16h1.68a1.94,1.94,0,0,1,2.16,2.16Z"/><path class="cls-5" d="M659.56,564.47c0,.15-.06.25-.24.25h-3.71V567h2.82a.22.22,0,0,1,.24.25v1.48a.23.23,0,0,1-.24.26h-2.82v2.22h3.71c.18,0,.24.07.24.24V573c0,.15-.06.24-.24.24H653.8a.22.22,0,0,1-.23-.24V563a.22.22,0,0,1,.23-.24h5.52c.18,0,.24.09.24.24Z"/><path class="cls-5" d="M666.91,567.9a2,2,0,0,1-.84,1.83l.78,3.23c0,.18,0,.27-.21.27h-1.47a.23.23,0,0,1-.25-.21l-.72-3h-1.34V573a.22.22,0,0,1-.24.24h-1.47a.22.22,0,0,1-.24-.24V563a.22.22,0,0,1,.24-.24h3.6a1.93,1.93,0,0,1,2.16,2.16Zm-2.55.23a.54.54,0,0,0,.6-.6v-2.27a.54.54,0,0,0-.6-.59h-1.5v3.46Z"/><path class="cls-5" d="M674.4,564.47c0,.15-.06.25-.24.25h-3.71V567h2.82a.22.22,0,0,1,.24.25v1.48a.23.23,0,0,1-.24.26h-2.82v2.22h3.71c.18,0,.24.07.24.24V573c0,.15-.06.24-.24.24h-5.52a.22.22,0,0,1-.23-.24V563a.22.22,0,0,1,.23-.24h5.52c.18,0,.24.09.24.24Z"/><path class="cls-5" d="M684.15,562.73a.27.27,0,0,1,.3.3v9.9a.27.27,0,0,1-.3.3h-1.4a.27.27,0,0,1-.29-.3V567h-.11L680.94,573a.31.31,0,0,1-.33.26h-.88a.31.31,0,0,1-.33-.26L678,567h-.11v5.89a.27.27,0,0,1-.3.3H676.2a.27.27,0,0,1-.3-.3V563a.27.27,0,0,1,.3-.3h2a.31.31,0,0,1,.33.26l1.67,6.68,1.66-6.68a.32.32,0,0,1,.33-.26Z"/><path class="cls-5" d="M686,564.89a1.93,1.93,0,0,1,2.16-2.16h1.68a1.93,1.93,0,0,1,2.16,2.16v6.18a1.93,1.93,0,0,1-2.16,2.16h-1.68a1.93,1.93,0,0,1-2.16-2.16Zm3.51,6.4a.53.53,0,0,0,.6-.6v-5.43a.54.54,0,0,0-.6-.59h-1a.54.54,0,0,0-.6.59v5.43a.53.53,0,0,0,.6.6Z"/><path class="cls-5" d="M699.62,562.73a.22.22,0,0,1,.24.24v10a.22.22,0,0,1-.24.24h-1.18a.26.26,0,0,1-.27-.2l-2.82-5.73V573a.22.22,0,0,1-.24.24H693.7a.22.22,0,0,1-.24-.24V563a.22.22,0,0,1,.24-.24h1.18a.27.27,0,0,1,.27.19l2.82,5.73V563a.22.22,0,0,1,.24-.24Z"/><path class="cls-5" d="M701.6,573.23a.22.22,0,0,1-.24-.24V563a.22.22,0,0,1,.24-.24h1.56a.22.22,0,0,1,.24.24v10a.22.22,0,0,1-.24.24Z"/><path class="cls-5" d="M710.89,564.47c0,.15-.06.25-.24.25h-3.71V567h2.82a.22.22,0,0,1,.24.25v1.48a.23.23,0,0,1-.24.26h-2.82v2.22h3.71c.18,0,.24.07.24.24V573c0,.15-.06.24-.24.24h-5.52a.22.22,0,0,1-.23-.24V563a.22.22,0,0,1,.23-.24h5.52c.18,0,.24.09.24.24Z"/><path class="cls-5" d="M715.78,562.73a1.93,1.93,0,0,1,2.16,2.16v1a.21.21,0,0,1-.24.24h-1.51a.22.22,0,0,1-.24-.24v-.63a.53.53,0,0,0-.6-.6h-.83a.55.55,0,0,0-.6.6v1.27l3.63,1.17a.54.54,0,0,1,.39.56v2.82a1.93,1.93,0,0,1-2.16,2.16H714.1a1.94,1.94,0,0,1-2.16-2.16v-1a.22.22,0,0,1,.24-.24h1.52a.21.21,0,0,1,.24.24v.63a.53.53,0,0,0,.6.6h.81a.53.53,0,0,0,.6-.6v-1.51l-3.6-1.17a.54.54,0,0,1-.41-.56v-2.59a1.94,1.94,0,0,1,2.16-2.16Z"/><path class="cls-5" d="M314,664.74a9.08,9.08,0,0,0-9,9.1,8.24,8.24,0,0,0,3.6,7.17V684a1.32,1.32,0,0,0,1.28,1.2H310l8.26-.67a1.25,1.25,0,0,0,1.16-1.2V681a8.92,8.92,0,0,0,3.6-7.19A9.08,9.08,0,0,0,314,664.74Zm3.59,14.55a1.15,1.15,0,0,0-.59,1.06v1.83l-6,.47v-2.3a1.15,1.15,0,0,0-.54-1,5.86,5.86,0,0,1-3-5.47,6.59,6.59,0,1,1,13.17,0A6,6,0,0,1,317.59,679.29Zm1.7,7.75a1.19,1.19,0,0,1-1.1,1.28l-8.2.6h-.09a1.2,1.2,0,0,1-1.19-1.11,1.21,1.21,0,0,1,1.11-1.29l8.2-.59A1.19,1.19,0,0,1,319.29,687Zm-2.61,3.79a1.2,1.2,0,0,1-1.1,1.29l-3,.23h-.1a1.2,1.2,0,0,1-.09-2.4l3-.23A1.2,1.2,0,0,1,316.68,690.83Zm2.1-17a1,1,0,0,1-1,.94h-.1a1.06,1.06,0,0,1-.94-1.15,2.29,2.29,0,0,0-1.5-2.39,1.06,1.06,0,0,1-.63-1.34,1,1,0,0,1,1.32-.64A4.39,4.39,0,0,1,318.78,673.82Z"/><path class="cls-5" d="M376,664.74a9.08,9.08,0,0,0-9,9.1,8.24,8.24,0,0,0,3.6,7.17V684a1.32,1.32,0,0,0,1.28,1.2H372l8.26-.67a1.25,1.25,0,0,0,1.16-1.2V681a8.92,8.92,0,0,0,3.6-7.19A9.08,9.08,0,0,0,376,664.74Zm3.59,14.55a1.15,1.15,0,0,0-.59,1.06v1.83l-6,.47v-2.3a1.15,1.15,0,0,0-.54-1,5.86,5.86,0,0,1-3-5.47,6.59,6.59,0,1,1,13.17,0A6,6,0,0,1,379.59,679.29Zm1.7,7.75a1.19,1.19,0,0,1-1.1,1.28l-8.2.6h-.09a1.2,1.2,0,0,1-1.19-1.11,1.21,1.21,0,0,1,1.11-1.29l8.2-.59A1.19,1.19,0,0,1,381.29,687Zm-2.61,3.79a1.2,1.2,0,0,1-1.1,1.29l-3,.23h-.1a1.2,1.2,0,0,1-.09-2.4l3-.23A1.2,1.2,0,0,1,378.68,690.83Zm2.1-17a1,1,0,0,1-1,.94h-.1a1.06,1.06,0,0,1-.94-1.15,2.29,2.29,0,0,0-1.5-2.39,1.06,1.06,0,0,1-.63-1.34,1,1,0,0,1,1.32-.64A4.39,4.39,0,0,1,380.78,673.82Z"/><path class="cls-5" d="M435,664.74a9.08,9.08,0,0,0-9,9.1,8.24,8.24,0,0,0,3.6,7.17V684a1.32,1.32,0,0,0,1.28,1.2H431l8.26-.67a1.25,1.25,0,0,0,1.16-1.2V681a8.92,8.92,0,0,0,3.6-7.19A9.08,9.08,0,0,0,435,664.74Zm3.59,14.55a1.15,1.15,0,0,0-.59,1.06v1.83l-6,.47v-2.3a1.15,1.15,0,0,0-.54-1,5.86,5.86,0,0,1-3-5.47,6.59,6.59,0,1,1,13.17,0A6,6,0,0,1,438.59,679.29Zm1.7,7.75a1.19,1.19,0,0,1-1.1,1.28l-8.2.6h-.09a1.2,1.2,0,0,1-1.19-1.11,1.21,1.21,0,0,1,1.11-1.29l8.2-.59A1.19,1.19,0,0,1,440.29,687Zm-2.61,3.79a1.2,1.2,0,0,1-1.1,1.29l-3,.23h-.1a1.2,1.2,0,0,1-.09-2.4l3-.23A1.2,1.2,0,0,1,437.68,690.83Zm2.1-17a1,1,0,0,1-1,.94h-.1a1.06,1.06,0,0,1-.94-1.15,2.29,2.29,0,0,0-1.5-2.39,1.06,1.06,0,0,1-.63-1.34,1,1,0,0,1,1.32-.64A4.39,4.39,0,0,1,439.78,673.82Z"/><path class="cls-5" d="M303.93,666.4a1.07,1.07,0,0,0-1-1,16.24,16.24,0,0,0-14.86,7,6.37,6.37,0,0,0-5.16.57,9.52,9.52,0,0,0-3.81,4.26,1.08,1.08,0,0,0,1.49,1.42,4.14,4.14,0,0,1,4.87.43l4.79,4.79,0,0a4.13,4.13,0,0,1,.43,4.87,1.07,1.07,0,0,0,.17,1.25,1.1,1.1,0,0,0,.79.34,1.06,1.06,0,0,0,.46-.1,9.54,9.54,0,0,0,4.26-3.82,6.31,6.31,0,0,0,.57-5.17,19,19,0,0,0,3.26-3A15.6,15.6,0,0,0,303.93,666.4Zm-21.28,9.49a4.79,4.79,0,0,1,4.18-1.58,22.75,22.75,0,0,0-1.11,2.28A6,6,0,0,0,282.65,675.89Zm10.82,10.82a6,6,0,0,0-.71-3.1,20.14,20.14,0,0,0,2.28-1.13A4.76,4.76,0,0,1,293.47,686.71Zm-2.14-4.86L287.49,678c1.92-5.14,6.69-10.64,14.33-10.49C302.08,676.63,294.56,680.58,291.33,681.85Zm7-10.83a1.77,1.77,0,0,1,0,2.49,1.76,1.76,0,0,1-2.5,0,1.77,1.77,0,0,1,1.25-3A1.79,1.79,0,0,1,298.35,671Zm-15.3,11.28c-1.25,1.25-1.3,3.75-1.3,4.23a1.1,1.1,0,0,0,1.08,1.1h0c.56,0,3-.09,4.18-1.31a2.89,2.89,0,0,0,.93-2.07,2.85,2.85,0,0,0-.87-2A2.76,2.76,0,0,0,283.05,682.3Zm2.46,2.47a3.1,3.1,0,0,1-1.48.55,3.12,3.12,0,0,1,.55-1.48.81.81,0,0,1,.53-.3.87.87,0,0,1,.7.7A.87.87,0,0,1,285.51,684.77Z"/><path class="cls-5" d="M247.93,724.4a1.07,1.07,0,0,0-1-1,16.24,16.24,0,0,0-14.86,7,6.37,6.37,0,0,0-5.16.57,9.52,9.52,0,0,0-3.81,4.26,1.08,1.08,0,0,0,1.49,1.42,4.14,4.14,0,0,1,4.87.43l4.79,4.79,0,0a4.13,4.13,0,0,1,.43,4.87,1.07,1.07,0,0,0,.17,1.25,1.1,1.1,0,0,0,.79.34,1.06,1.06,0,0,0,.46-.1,9.54,9.54,0,0,0,4.26-3.82,6.31,6.31,0,0,0,.57-5.17,19,19,0,0,0,3.26-3A15.6,15.6,0,0,0,247.93,724.4Zm-21.28,9.49a4.79,4.79,0,0,1,4.18-1.58,22.75,22.75,0,0,0-1.11,2.28A6,6,0,0,0,226.65,733.89Zm10.82,10.82a6,6,0,0,0-.71-3.1,20.14,20.14,0,0,0,2.28-1.13A4.76,4.76,0,0,1,237.47,744.71Zm-2.14-4.86L231.49,736c1.92-5.14,6.69-10.64,14.33-10.49C246.08,734.63,238.56,738.58,235.33,739.85Zm7-10.83a1.77,1.77,0,0,1,0,2.49,1.76,1.76,0,0,1-2.5,0,1.77,1.77,0,0,1,1.25-3A1.79,1.79,0,0,1,242.35,729Zm-15.3,11.28c-1.25,1.25-1.3,3.75-1.3,4.23a1.1,1.1,0,0,0,1.08,1.1h0c.56,0,3-.09,4.18-1.31a2.89,2.89,0,0,0,.93-2.07,2.85,2.85,0,0,0-.87-2A2.76,2.76,0,0,0,227.05,740.3Zm2.46,2.47a3.1,3.1,0,0,1-1.48.55,3.12,3.12,0,0,1,.55-1.48.81.81,0,0,1,.53-.3.87.87,0,0,1,.7.7A.87.87,0,0,1,229.51,742.77Z"/><path class="cls-10" d="M201.73,383.42c4.92-1.93,16.35-7.92,16-21.76h-.46c-11.34,0-18.44,8.23-21.32,15.95ZM208.61,367a2.69,2.69,0,0,1,3.8,3.8,2.69,2.69,0,1,1-3.8-3.8Z"/><path class="cls-10" d="M205,390.82a7.29,7.29,0,0,0,2.39-6.43,35.15,35.15,0,0,1-3.48,1.72A9.12,9.12,0,0,1,205,390.82Z"/><path class="cls-10" d="M192.9,387.86a1.33,1.33,0,0,0,.45-.8,1.11,1.11,0,0,0-.36-.69,1,1,0,0,0-.7-.36,1.22,1.22,0,0,0-.81.45,4.77,4.77,0,0,0-.84,2.24A4.53,4.53,0,0,0,192.9,387.86Z"/><path class="cls-10" d="M188.89,374.36a9.19,9.19,0,0,1,4.33,1.07,31.35,31.35,0,0,1,1.69-3.45,5.19,5.19,0,0,0-1-.09,7.7,7.7,0,0,0-5.34,2.48Z"/><path class="cls-3" d="M195,384.39a3.65,3.65,0,0,0-2.62-1.18,4.11,4.11,0,0,0-2.85,1.26c-1.76,1.76-1.83,5.37-1.82,6.08a1.18,1.18,0,0,0,1.14,1.17h.05c.43,0,4.21-.05,6-1.85a3.91,3.91,0,0,0,1.27-2.79A3.83,3.83,0,0,0,195,384.39Zm-1.72,3.83a5.18,5.18,0,0,1-2.52,1h-.09a.5.5,0,0,1-.35-.14.52.52,0,0,1-.14-.44,5.14,5.14,0,0,1,1-2.52,1.68,1.68,0,0,1,1.16-.59,1.48,1.48,0,0,1,1.05.5,1.53,1.53,0,0,1,.51,1.05A1.71,1.71,0,0,1,193.25,388.22Z"/><path class="cls-3" d="M220.4,360a1.16,1.16,0,0,0-1.06-1.06c-.72-.05-1.44-.08-2.14-.08a24.35,24.35,0,0,0-20,10.49.49.49,0,0,1-.41.21.4.4,0,0,1-.15,0,8.89,8.89,0,0,0-2.75-.44,9.43,9.43,0,0,0-4.68,1.28,14,14,0,0,0-5.6,6.24,1.16,1.16,0,0,0,1,1.65,1.1,1.1,0,0,0,.53-.14,8,8,0,0,1,3.7-.95,6,6,0,0,1,4.3,1.69l7.28,7.28.07.07c1.91,1.91,2.21,5.12.71,8a1.15,1.15,0,0,0,.19,1.33,1.13,1.13,0,0,0,.83.36,1.17,1.17,0,0,0,.49-.11,13.92,13.92,0,0,0,6.25-5.59,9.14,9.14,0,0,0,.82-7.47.5.5,0,0,1,.19-.56,28.11,28.11,0,0,0,4.87-4.42A23.25,23.25,0,0,0,220.4,360Zm-25.06,12.23a30.52,30.52,0,0,0-1.66,3.4.47.47,0,0,1-.29.28l-.17,0a.5.5,0,0,1-.24-.06,8.66,8.66,0,0,0-4.09-1h-.35a.51.51,0,0,1-.35-.86,8.22,8.22,0,0,1,5.69-2.62,6.83,6.83,0,0,1,1.11.09.53.53,0,0,1,.37.28A.5.5,0,0,1,195.34,372.22Zm10,18.95a.47.47,0,0,1-.35.15.46.46,0,0,1-.2-.05.49.49,0,0,1-.3-.47,8.67,8.67,0,0,0-1-4.45.49.49,0,0,1,0-.41.5.5,0,0,1,.28-.29,37.42,37.42,0,0,0,3.42-1.69.45.45,0,0,1,.25-.07.54.54,0,0,1,.21.05.51.51,0,0,1,.28.36A7.71,7.71,0,0,1,205.35,391.17Zm-3.43-7.28a.63.63,0,0,1-.19,0,.5.5,0,0,1-.35-.14L195.56,378a.5.5,0,0,1-.12-.53c2.94-7.87,10.2-16.27,21.79-16.27h.47a.51.51,0,0,1,.49.49C218.59,375.8,206.94,381.92,201.92,383.89Z"/><path class="cls-3" d="M208.32,368.86a2.18,2.18,0,0,0,3.73,1.54,2.18,2.18,0,0,0-1.54-3.72,2.19,2.19,0,0,0-1.54.63A2.22,2.22,0,0,0,208.32,368.86Z"/><path class="cls-3" d="M210.51,369.55a.72.72,0,0,1-.69-.69.72.72,0,0,1,.2-.48.7.7,0,0,1,.49-.2.67.67,0,0,1,.48.2.72.72,0,0,1,.2.48.66.66,0,0,1-.2.48A.68.68,0,0,1,210.51,369.55Z"/><path class="cls-5" d="M746.68,473.23l-6.86-6.86a1.08,1.08,0,0,0-1.54,0,5.15,5.15,0,0,0-1.31,4.77l-3.11,3.11c-1.7-.52-6.09-1.41-9.33,1.82a1.1,1.1,0,0,0,0,1.54l4.69,4.68-6.9,6.9a1.09,1.09,0,0,0,.77,1.86,1.11,1.11,0,0,0,.77-.32l6.89-6.9,4.69,4.69a1.1,1.1,0,0,0,1.53,0c3.24-3.24,2.35-7.63,1.83-9.33l3.11-3.11a5.15,5.15,0,0,0,4.77-1.31A1.08,1.08,0,0,0,746.68,473.23Zm-4.59.6a1.07,1.07,0,0,0-1.22.22l-4.09,4.08a1.1,1.1,0,0,0-.23,1.18,10.05,10.05,0,0,1,.58,2.81,6.45,6.45,0,0,1-1,4l-4.61-4.61h0l-4.61-4.61c2.91-2,6.65-.48,6.83-.41a1.08,1.08,0,0,0,1.18-.24l4.08-4.08a1.1,1.1,0,0,0,.22-1.23,2.5,2.5,0,0,1,0-2.11l5,5A2.51,2.51,0,0,1,742.09,473.83Zm-6.44,5.89a4.14,4.14,0,0,1,.35,1.71.94.94,0,0,1-1,.92h0a1,1,0,0,1-.92-1,2.56,2.56,0,0,0-.18-.88.95.95,0,0,1,1.73-.77Z"/><path class="cls-5" d="M213.5,579.09a5.24,5.24,0,1,1,5.24-5.23A5.24,5.24,0,0,1,213.5,579.09Zm0-8.55a3.32,3.32,0,1,0,3.32,3.32A3.32,3.32,0,0,0,213.5,570.54Zm0,15.81h-.15a14.65,14.65,0,0,1-1.81-.11,1,1,0,0,1-.83-.82l-.27-1.95a9.25,9.25,0,0,1-1.72-.73l-1.54,1.16a1,1,0,0,1-1.16,0,14.73,14.73,0,0,1-1.36-1.2l-.1-.11a16.86,16.86,0,0,1-1.21-1.35,1,1,0,0,1,0-1.17l1.19-1.57a9.68,9.68,0,0,1-.71-1.73l-1.9-.27a1,1,0,0,1-.82-.83,14.65,14.65,0,0,1-.11-1.81v-.15a14.65,14.65,0,0,1,.11-1.81,1,1,0,0,1,.82-.83l1.95-.26a9.66,9.66,0,0,1,.73-1.72l-1.16-1.55a1,1,0,0,1,0-1.16,14.73,14.73,0,0,1,1.2-1.36l.11-.1a13.91,13.91,0,0,1,1.35-1.2,1,1,0,0,1,1.17,0l1.57,1.19a10,10,0,0,1,1.73-.7l.27-1.91a1,1,0,0,1,.83-.82,17.32,17.32,0,0,1,1.81-.11h.15a17.32,17.32,0,0,1,1.81.11,1,1,0,0,1,.83.82l.26,2a9.62,9.62,0,0,1,1.72.72l1.55-1.16a1,1,0,0,1,1.16,0,14.73,14.73,0,0,1,1.36,1.2l.1.11c.67.66,1.18,1.33,1.21,1.35a1,1,0,0,1,0,1.17l-1.19,1.57a9.64,9.64,0,0,1,.7,1.73l1.91.27a1,1,0,0,1,.82.83,14.65,14.65,0,0,1,.11,1.81V574a14.65,14.65,0,0,1-.11,1.81,1,1,0,0,1-.82.83l-1.95.26a9.75,9.75,0,0,1-.73,1.73l1.16,1.54a1,1,0,0,1,0,1.16,14.73,14.73,0,0,1-1.2,1.36l-.11.1a16.86,16.86,0,0,1-1.35,1.21,1,1,0,0,1-1.17,0l-1.57-1.19a10.8,10.8,0,0,1-1.73.7l-.27,1.91a1,1,0,0,1-.83.82A14.65,14.65,0,0,1,213.5,586.35Zm-1-2c.25,0,.54,0,.84,0h.15c.3,0,.59,0,.84,0l.25-1.79a1,1,0,0,1,.74-.81,7.89,7.89,0,0,0,2.39-1,1,1,0,0,1,.73-.11.91.91,0,0,1,.38.19l1.43,1.09c.19-.17.4-.36.61-.58l.11-.1c.21-.21.41-.43.57-.62l-1.08-1.44a1,1,0,0,1,0-1.09,8,8,0,0,0,1-2.31.94.94,0,0,1,.81-.78l1.82-.25c0-.25,0-.54,0-.84v-.15c0-.3,0-.59,0-.84l-1.79-.26a1,1,0,0,1-.8-.73,8,8,0,0,0-1-2.36,1,1,0,0,1-.1-.21.94.94,0,0,1,.14-.9l1.11-1.46c-.17-.19-.36-.4-.58-.61l-.1-.11c-.22-.21-.43-.41-.62-.57l-1.44,1.08a1,1,0,0,1-1.15,0,8.22,8.22,0,0,0-2.31-1,1,1,0,0,1-.73-.8l-.24-1.82c-.25,0-.54,0-.84,0h-.15c-.3,0-.59,0-.84,0l-.26,1.79a1,1,0,0,1-.8.82,7.83,7.83,0,0,0-2.32,1,1,1,0,0,1-.74.11,1.07,1.07,0,0,1-.38-.2l-1.42-1.08c-.19.17-.4.36-.61.58l-.11.1c-.21.22-.41.43-.57.62l1.08,1.44a1,1,0,0,1,.06,1.08l-.06.08a8,8,0,0,0-1,2.3,1,1,0,0,1-.8.73l-1.82.24c0,.25,0,.54,0,.84v.15c0,.3,0,.59,0,.84l1.79.26a1,1,0,0,1,.82.81v0a8.28,8.28,0,0,0,.95,2.28,1,1,0,0,1,.08.8,1,1,0,0,1-.17.32l-1.08,1.41c.17.19.36.4.58.61l.1.11c.22.21.43.41.62.57l1.44-1.08a1,1,0,0,1,1.2,0,8,8,0,0,0,2.26.94,1,1,0,0,1,.72.8Z"/><path class="cls-5" d="M213.5,492.09a5.24,5.24,0,1,1,5.24-5.23A5.24,5.24,0,0,1,213.5,492.09Zm0-8.55a3.32,3.32,0,1,0,3.32,3.32A3.32,3.32,0,0,0,213.5,483.54Zm0,15.81h-.15a14.65,14.65,0,0,1-1.81-.11,1,1,0,0,1-.83-.82l-.27-1.95a9.25,9.25,0,0,1-1.72-.73l-1.54,1.16a1,1,0,0,1-1.16,0,14.73,14.73,0,0,1-1.36-1.2l-.1-.11a16.86,16.86,0,0,1-1.21-1.35,1,1,0,0,1,0-1.17l1.19-1.57a9.68,9.68,0,0,1-.71-1.73l-1.9-.27a1,1,0,0,1-.82-.83,14.65,14.65,0,0,1-.11-1.81v-.15a14.65,14.65,0,0,1,.11-1.81,1,1,0,0,1,.82-.83l1.95-.26a9.66,9.66,0,0,1,.73-1.72l-1.16-1.55a1,1,0,0,1,0-1.16,14.73,14.73,0,0,1,1.2-1.36l.11-.1a13.91,13.91,0,0,1,1.35-1.2,1,1,0,0,1,1.17,0l1.57,1.19a10,10,0,0,1,1.73-.7l.27-1.91a1,1,0,0,1,.83-.82,17.32,17.32,0,0,1,1.81-.11h.15a17.32,17.32,0,0,1,1.81.11,1,1,0,0,1,.83.82l.26,2a9.62,9.62,0,0,1,1.72.72l1.55-1.16a1,1,0,0,1,1.16,0,14.73,14.73,0,0,1,1.36,1.2l.1.11c.67.66,1.18,1.33,1.21,1.35a1,1,0,0,1,0,1.17l-1.19,1.57a9.64,9.64,0,0,1,.7,1.73l1.91.27a1,1,0,0,1,.82.83,14.65,14.65,0,0,1,.11,1.81V487a14.65,14.65,0,0,1-.11,1.81,1,1,0,0,1-.82.83l-1.95.26a9.75,9.75,0,0,1-.73,1.73l1.16,1.54a1,1,0,0,1,0,1.16,14.73,14.73,0,0,1-1.2,1.36l-.11.1a16.86,16.86,0,0,1-1.35,1.21,1,1,0,0,1-1.17,0l-1.57-1.19a10.8,10.8,0,0,1-1.73.7l-.27,1.91a1,1,0,0,1-.83.82A14.65,14.65,0,0,1,213.5,499.35Zm-1-2c.25,0,.54,0,.84,0h.15c.3,0,.59,0,.84,0l.25-1.79a1,1,0,0,1,.74-.81,7.89,7.89,0,0,0,2.39-1,1,1,0,0,1,.73-.11.91.91,0,0,1,.38.19l1.43,1.09c.19-.17.4-.36.61-.58l.11-.1c.21-.21.41-.43.57-.62l-1.08-1.44a1,1,0,0,1,0-1.09,8,8,0,0,0,1-2.31.94.94,0,0,1,.81-.78l1.82-.25c0-.25,0-.54,0-.84v-.15c0-.3,0-.59,0-.84l-1.79-.26a1,1,0,0,1-.8-.73,8,8,0,0,0-1-2.36,1,1,0,0,1-.1-.21.94.94,0,0,1,.14-.9l1.11-1.46c-.17-.19-.36-.4-.58-.61l-.1-.11c-.22-.21-.43-.41-.62-.57l-1.44,1.08a1,1,0,0,1-1.15,0,8.22,8.22,0,0,0-2.31-1,1,1,0,0,1-.73-.8l-.24-1.82c-.25,0-.54,0-.84,0h-.15c-.3,0-.59,0-.84,0l-.26,1.79a1,1,0,0,1-.8.82,7.83,7.83,0,0,0-2.32.95,1,1,0,0,1-.74.11,1.07,1.07,0,0,1-.38-.2l-1.42-1.08c-.19.17-.4.36-.61.58l-.11.1c-.21.22-.41.43-.57.62l1.08,1.44a1,1,0,0,1,.06,1.08l-.06.08a8,8,0,0,0-1,2.3,1,1,0,0,1-.8.73l-1.82.24c0,.25,0,.54,0,.84v.15c0,.3,0,.59,0,.84l1.79.26a1,1,0,0,1,.82.81v0a8.28,8.28,0,0,0,.95,2.28,1,1,0,0,1,.08.8,1,1,0,0,1-.17.32l-1.08,1.41c.17.19.36.4.58.61l.1.11c.22.21.43.41.62.57l1.44-1.08a1,1,0,0,1,1.2,0,8,8,0,0,0,2.26.94,1,1,0,0,1,.72.8Z"/><path class="cls-5" d="M334.5,579.09a5.24,5.24,0,1,1,5.24-5.23A5.24,5.24,0,0,1,334.5,579.09Zm0-8.55a3.32,3.32,0,1,0,3.32,3.32A3.32,3.32,0,0,0,334.5,570.54Zm0,15.81h-.15a14.65,14.65,0,0,1-1.81-.11,1,1,0,0,1-.83-.82l-.27-1.95a9.25,9.25,0,0,1-1.72-.73l-1.54,1.16a1,1,0,0,1-1.16,0,14.73,14.73,0,0,1-1.36-1.2l-.1-.11a16.86,16.86,0,0,1-1.21-1.35,1,1,0,0,1,0-1.17l1.19-1.57a9.68,9.68,0,0,1-.71-1.73l-1.9-.27a1,1,0,0,1-.82-.83,14.65,14.65,0,0,1-.11-1.81v-.15a14.65,14.65,0,0,1,.11-1.81,1,1,0,0,1,.82-.83l1.95-.26a9.66,9.66,0,0,1,.73-1.72l-1.16-1.55a1,1,0,0,1,0-1.16,14.73,14.73,0,0,1,1.2-1.36l.11-.1a13.91,13.91,0,0,1,1.35-1.2,1,1,0,0,1,1.17,0l1.57,1.19a10,10,0,0,1,1.73-.7l.27-1.91a1,1,0,0,1,.83-.82,17.32,17.32,0,0,1,1.81-.11h.15a17.32,17.32,0,0,1,1.81.11,1,1,0,0,1,.83.82l.26,2a9.62,9.62,0,0,1,1.72.72l1.55-1.16a1,1,0,0,1,1.16,0,14.73,14.73,0,0,1,1.36,1.2l.1.11c.67.66,1.18,1.33,1.21,1.35a1,1,0,0,1,0,1.17l-1.19,1.57a9.64,9.64,0,0,1,.7,1.73l1.91.27a1,1,0,0,1,.82.83,14.65,14.65,0,0,1,.11,1.81V574a14.65,14.65,0,0,1-.11,1.81,1,1,0,0,1-.82.83l-1.95.26a9.75,9.75,0,0,1-.73,1.73l1.16,1.54a1,1,0,0,1,0,1.16,14.73,14.73,0,0,1-1.2,1.36l-.11.1a16.86,16.86,0,0,1-1.35,1.21,1,1,0,0,1-1.17,0l-1.57-1.19a10.8,10.8,0,0,1-1.73.7l-.27,1.91a1,1,0,0,1-.83.82A14.65,14.65,0,0,1,334.5,586.35Zm-1-2c.25,0,.54,0,.84,0h.15c.3,0,.59,0,.84,0l.25-1.79a1,1,0,0,1,.74-.81,7.89,7.89,0,0,0,2.39-1,1,1,0,0,1,.73-.11.91.91,0,0,1,.38.19l1.43,1.09c.19-.17.4-.36.61-.58l.11-.1c.21-.21.41-.43.57-.62l-1.08-1.44a1,1,0,0,1,0-1.09,8,8,0,0,0,1-2.31.94.94,0,0,1,.81-.78l1.82-.25c0-.25,0-.54,0-.84v-.15c0-.3,0-.59,0-.84l-1.79-.26a1,1,0,0,1-.8-.73,8,8,0,0,0-.95-2.36,1,1,0,0,1-.1-.21.94.94,0,0,1,.14-.9l1.11-1.46c-.17-.19-.36-.4-.58-.61l-.1-.11c-.22-.21-.43-.41-.62-.57l-1.44,1.08a1,1,0,0,1-1.15,0,8.22,8.22,0,0,0-2.31-1,1,1,0,0,1-.73-.8l-.24-1.82c-.25,0-.54,0-.84,0h-.15c-.3,0-.59,0-.84,0l-.26,1.79a1,1,0,0,1-.8.82,7.83,7.83,0,0,0-2.32,1,1,1,0,0,1-.74.11,1.07,1.07,0,0,1-.38-.2l-1.42-1.08c-.19.17-.4.36-.61.58l-.11.1c-.21.22-.41.43-.57.62l1.08,1.44a1,1,0,0,1,.06,1.08l-.06.08a8,8,0,0,0-1,2.3,1,1,0,0,1-.8.73l-1.82.24c0,.25,0,.54,0,.84v.15c0,.3,0,.59,0,.84l1.79.26a1,1,0,0,1,.82.81v0a8.28,8.28,0,0,0,.95,2.28,1,1,0,0,1,.08.8,1,1,0,0,1-.17.32l-1.08,1.41c.17.19.36.4.58.61l.1.11c.22.21.43.41.62.57l1.44-1.08a1,1,0,0,1,1.2,0,8,8,0,0,0,2.26.94,1,1,0,0,1,.72.8Z"/><path class="cls-5" d="M334.5,492.09a5.24,5.24,0,1,1,5.24-5.23A5.24,5.24,0,0,1,334.5,492.09Zm0-8.55a3.32,3.32,0,1,0,3.32,3.32A3.32,3.32,0,0,0,334.5,483.54Zm0,15.81h-.15a14.65,14.65,0,0,1-1.81-.11,1,1,0,0,1-.83-.82l-.27-1.95a9.25,9.25,0,0,1-1.72-.73l-1.54,1.16a1,1,0,0,1-1.16,0,14.73,14.73,0,0,1-1.36-1.2l-.1-.11a16.86,16.86,0,0,1-1.21-1.35,1,1,0,0,1,0-1.17l1.19-1.57a9.68,9.68,0,0,1-.71-1.73l-1.9-.27a1,1,0,0,1-.82-.83,14.65,14.65,0,0,1-.11-1.81v-.15a14.65,14.65,0,0,1,.11-1.81,1,1,0,0,1,.82-.83l1.95-.26a9.66,9.66,0,0,1,.73-1.72l-1.16-1.55a1,1,0,0,1,0-1.16,14.73,14.73,0,0,1,1.2-1.36l.11-.1a13.91,13.91,0,0,1,1.35-1.2,1,1,0,0,1,1.17,0l1.57,1.19a10,10,0,0,1,1.73-.7l.27-1.91a1,1,0,0,1,.83-.82,17.32,17.32,0,0,1,1.81-.11h.15a17.32,17.32,0,0,1,1.81.11,1,1,0,0,1,.83.82l.26,2a9.62,9.62,0,0,1,1.72.72l1.55-1.16a1,1,0,0,1,1.16,0,14.73,14.73,0,0,1,1.36,1.2l.1.11c.67.66,1.18,1.33,1.21,1.35a1,1,0,0,1,0,1.17l-1.19,1.57a9.64,9.64,0,0,1,.7,1.73l1.91.27a1,1,0,0,1,.82.83,14.65,14.65,0,0,1,.11,1.81V487a14.65,14.65,0,0,1-.11,1.81,1,1,0,0,1-.82.83l-1.95.26a9.75,9.75,0,0,1-.73,1.73l1.16,1.54a1,1,0,0,1,0,1.16,14.73,14.73,0,0,1-1.2,1.36l-.11.1a16.86,16.86,0,0,1-1.35,1.21,1,1,0,0,1-1.17,0l-1.57-1.19a10.8,10.8,0,0,1-1.73.7l-.27,1.91a1,1,0,0,1-.83.82A14.65,14.65,0,0,1,334.5,499.35Zm-1-2c.25,0,.54,0,.84,0h.15c.3,0,.59,0,.84,0l.25-1.79a1,1,0,0,1,.74-.81,7.89,7.89,0,0,0,2.39-1,1,1,0,0,1,.73-.11.91.91,0,0,1,.38.19l1.43,1.09c.19-.17.4-.36.61-.58l.11-.1c.21-.21.41-.43.57-.62l-1.08-1.44a1,1,0,0,1,0-1.09,8,8,0,0,0,1-2.31.94.94,0,0,1,.81-.78l1.82-.25c0-.25,0-.54,0-.84v-.15c0-.3,0-.59,0-.84l-1.79-.26a1,1,0,0,1-.8-.73,8,8,0,0,0-.95-2.36,1,1,0,0,1-.1-.21.94.94,0,0,1,.14-.9l1.11-1.46c-.17-.19-.36-.4-.58-.61l-.1-.11c-.22-.21-.43-.41-.62-.57l-1.44,1.08a1,1,0,0,1-1.15,0,8.22,8.22,0,0,0-2.31-1,1,1,0,0,1-.73-.8l-.24-1.82c-.25,0-.54,0-.84,0h-.15c-.3,0-.59,0-.84,0l-.26,1.79a1,1,0,0,1-.8.82,7.83,7.83,0,0,0-2.32.95,1,1,0,0,1-.74.11,1.07,1.07,0,0,1-.38-.2l-1.42-1.08c-.19.17-.4.36-.61.58l-.11.1c-.21.22-.41.43-.57.62l1.08,1.44a1,1,0,0,1,.06,1.08l-.06.08a8,8,0,0,0-1,2.3,1,1,0,0,1-.8.73l-1.82.24c0,.25,0,.54,0,.84v.15c0,.3,0,.59,0,.84l1.79.26a1,1,0,0,1,.82.81v0a8.28,8.28,0,0,0,.95,2.28,1,1,0,0,1,.08.8,1,1,0,0,1-.17.32l-1.08,1.41c.17.19.36.4.58.61l.1.11c.22.21.43.41.62.57l1.44-1.08a1,1,0,0,1,1.2,0,8,8,0,0,0,2.26.94,1,1,0,0,1,.72.8Z"/><path class="cls-5" d="M431.5,492.09a5.24,5.24,0,1,1,5.24-5.23A5.24,5.24,0,0,1,431.5,492.09Zm0-8.55a3.32,3.32,0,1,0,3.32,3.32A3.32,3.32,0,0,0,431.5,483.54Zm0,15.81h-.15a14.65,14.65,0,0,1-1.81-.11,1,1,0,0,1-.83-.82l-.27-1.95a9.25,9.25,0,0,1-1.72-.73l-1.54,1.16a1,1,0,0,1-1.16,0,14.73,14.73,0,0,1-1.36-1.2l-.1-.11a16.86,16.86,0,0,1-1.21-1.35,1,1,0,0,1,0-1.17l1.19-1.57a9.68,9.68,0,0,1-.71-1.73l-1.9-.27a1,1,0,0,1-.82-.83,14.65,14.65,0,0,1-.11-1.81v-.15a14.65,14.65,0,0,1,.11-1.81,1,1,0,0,1,.82-.83l1.95-.26a9.66,9.66,0,0,1,.73-1.72l-1.16-1.55a1,1,0,0,1,0-1.16,14.73,14.73,0,0,1,1.2-1.36l.11-.1a13.91,13.91,0,0,1,1.35-1.2,1,1,0,0,1,1.17,0l1.57,1.19a10,10,0,0,1,1.73-.7l.27-1.91a1,1,0,0,1,.83-.82,17.32,17.32,0,0,1,1.81-.11h.15a17.32,17.32,0,0,1,1.81.11,1,1,0,0,1,.83.82l.26,2a9.62,9.62,0,0,1,1.72.72l1.55-1.16a1,1,0,0,1,1.16,0,14.73,14.73,0,0,1,1.36,1.2l.1.11c.67.66,1.18,1.33,1.21,1.35a1,1,0,0,1,0,1.17l-1.19,1.57a9.64,9.64,0,0,1,.7,1.73l1.91.27a1,1,0,0,1,.82.83,14.65,14.65,0,0,1,.11,1.81V487a14.65,14.65,0,0,1-.11,1.81,1,1,0,0,1-.82.83l-1.95.26a9.75,9.75,0,0,1-.73,1.73l1.16,1.54a1,1,0,0,1,0,1.16,14.73,14.73,0,0,1-1.2,1.36l-.11.1a16.86,16.86,0,0,1-1.35,1.21,1,1,0,0,1-1.17,0l-1.57-1.19a10.8,10.8,0,0,1-1.73.7l-.27,1.91a1,1,0,0,1-.83.82A14.65,14.65,0,0,1,431.5,499.35Zm-1-2c.25,0,.54,0,.84,0h.15c.3,0,.59,0,.84,0l.25-1.79a1,1,0,0,1,.74-.81,7.89,7.89,0,0,0,2.39-1,1,1,0,0,1,.73-.11.91.91,0,0,1,.38.19l1.43,1.09c.19-.17.4-.36.61-.58l.11-.1c.21-.21.41-.43.57-.62l-1.08-1.44a1,1,0,0,1,0-1.09,8,8,0,0,0,1-2.31.94.94,0,0,1,.81-.78l1.82-.25c0-.25,0-.54,0-.84v-.15c0-.3,0-.59,0-.84l-1.79-.26a1,1,0,0,1-.8-.73,8,8,0,0,0-.95-2.36,1,1,0,0,1-.1-.21.94.94,0,0,1,.14-.9l1.11-1.46c-.17-.19-.36-.4-.58-.61l-.1-.11c-.22-.21-.43-.41-.62-.57l-1.44,1.08a1,1,0,0,1-1.15,0,8.22,8.22,0,0,0-2.31-1,1,1,0,0,1-.73-.8l-.24-1.82c-.25,0-.54,0-.84,0h-.15c-.3,0-.59,0-.84,0l-.26,1.79a1,1,0,0,1-.8.82,7.83,7.83,0,0,0-2.32.95,1,1,0,0,1-.74.11,1.07,1.07,0,0,1-.38-.2l-1.42-1.08c-.19.17-.4.36-.61.58l-.11.1c-.21.22-.41.43-.57.62l1.08,1.44a1,1,0,0,1,.06,1.08l-.06.08a8,8,0,0,0-1,2.3,1,1,0,0,1-.8.73l-1.82.24c0,.25,0,.54,0,.84v.15c0,.3,0,.59,0,.84l1.79.26a1,1,0,0,1,.82.81v0a8.28,8.28,0,0,0,.95,2.28,1,1,0,0,1,.08.8,1,1,0,0,1-.17.32l-1.08,1.41c.17.19.36.4.58.61l.1.11c.22.21.43.41.62.57l1.44-1.08a1,1,0,0,1,1.2,0,8,8,0,0,0,2.26.94,1,1,0,0,1,.72.8Z"/><path class="cls-5" d="M594.5,492.09a5.24,5.24,0,1,1,5.24-5.23A5.24,5.24,0,0,1,594.5,492.09Zm0-8.55a3.32,3.32,0,1,0,3.32,3.32A3.32,3.32,0,0,0,594.5,483.54Zm0,15.81h-.15a14.65,14.65,0,0,1-1.81-.11,1,1,0,0,1-.83-.82l-.27-1.95a9.25,9.25,0,0,1-1.72-.73l-1.54,1.16a1,1,0,0,1-1.16,0,14.73,14.73,0,0,1-1.36-1.2l-.1-.11a16.86,16.86,0,0,1-1.21-1.35,1,1,0,0,1,0-1.17l1.19-1.57a9.68,9.68,0,0,1-.71-1.73l-1.9-.27a1,1,0,0,1-.82-.83,14.65,14.65,0,0,1-.11-1.81v-.15a14.65,14.65,0,0,1,.11-1.81,1,1,0,0,1,.82-.83l2-.26a9.66,9.66,0,0,1,.73-1.72l-1.16-1.55a1,1,0,0,1,0-1.16,14.73,14.73,0,0,1,1.2-1.36l.11-.1a13.91,13.91,0,0,1,1.35-1.2,1,1,0,0,1,1.17,0l1.57,1.19a10,10,0,0,1,1.73-.7l.27-1.91a1,1,0,0,1,.83-.82,17.32,17.32,0,0,1,1.81-.11h.15a17.32,17.32,0,0,1,1.81.11,1,1,0,0,1,.83.82l.26,2a9.62,9.62,0,0,1,1.72.72l1.55-1.16a1,1,0,0,1,1.16,0,14.73,14.73,0,0,1,1.36,1.2l.1.11c.67.66,1.18,1.33,1.21,1.35a1,1,0,0,1,0,1.17l-1.19,1.57a9.64,9.64,0,0,1,.7,1.73l1.91.27a1,1,0,0,1,.82.83,14.65,14.65,0,0,1,.11,1.81V487a14.65,14.65,0,0,1-.11,1.81,1,1,0,0,1-.82.83l-2,.26a9.75,9.75,0,0,1-.73,1.73l1.16,1.54a1,1,0,0,1,0,1.16,14.73,14.73,0,0,1-1.2,1.36l-.11.1a16.86,16.86,0,0,1-1.35,1.21,1,1,0,0,1-1.17,0l-1.57-1.19a10.8,10.8,0,0,1-1.73.7l-.27,1.91a1,1,0,0,1-.83.82A14.65,14.65,0,0,1,594.5,499.35Zm-1-2c.25,0,.54,0,.84,0h.15c.3,0,.59,0,.84,0l.25-1.79a1,1,0,0,1,.74-.81,7.89,7.89,0,0,0,2.39-1,1,1,0,0,1,.73-.11.91.91,0,0,1,.38.19l1.43,1.09c.19-.17.4-.36.61-.58l.11-.1c.21-.21.41-.43.57-.62l-1.08-1.44a1,1,0,0,1,0-1.09,8,8,0,0,0,1-2.31.94.94,0,0,1,.81-.78l1.82-.25c0-.25,0-.54,0-.84v-.15c0-.3,0-.59,0-.84l-1.79-.26a1,1,0,0,1-.8-.73,8,8,0,0,0-1-2.36,1,1,0,0,1-.1-.21.94.94,0,0,1,.14-.9l1.11-1.46c-.17-.19-.36-.4-.58-.61l-.1-.11c-.22-.21-.43-.41-.62-.57l-1.44,1.08a1,1,0,0,1-1.15,0,8.22,8.22,0,0,0-2.31-1,1,1,0,0,1-.73-.8l-.24-1.82c-.25,0-.54,0-.84,0h-.15c-.3,0-.59,0-.84,0l-.26,1.79a1,1,0,0,1-.8.82,7.83,7.83,0,0,0-2.32.95,1,1,0,0,1-.74.11,1.07,1.07,0,0,1-.38-.2l-1.42-1.08c-.19.17-.4.36-.61.58l-.11.1c-.21.22-.41.43-.57.62l1.08,1.44a1,1,0,0,1,.06,1.08l-.06.08a8,8,0,0,0-1,2.3,1,1,0,0,1-.8.73l-1.82.24c0,.25,0,.54,0,.84v.15c0,.3,0,.59,0,.84l1.79.26a1,1,0,0,1,.82.81v0a8.28,8.28,0,0,0,1,2.28,1,1,0,0,1,.08.8,1,1,0,0,1-.17.32l-1.08,1.41c.17.19.36.4.58.61l.1.11c.22.21.43.41.62.57l1.44-1.08a1,1,0,0,1,1.2,0,8,8,0,0,0,2.26.94,1,1,0,0,1,.72.8Z"/><path class="cls-5" d="M380.5,383.09a5.24,5.24,0,1,1,5.24-5.23A5.24,5.24,0,0,1,380.5,383.09Zm0-8.55a3.32,3.32,0,1,0,3.32,3.32A3.32,3.32,0,0,0,380.5,374.54Zm0,15.81h-.15a14.65,14.65,0,0,1-1.81-.11,1,1,0,0,1-.83-.82l-.27-1.95a9.25,9.25,0,0,1-1.72-.73l-1.54,1.16a1,1,0,0,1-1.16,0,14.73,14.73,0,0,1-1.36-1.2l-.1-.11a16.86,16.86,0,0,1-1.21-1.35,1,1,0,0,1,0-1.17l1.19-1.57a9.68,9.68,0,0,1-.71-1.73l-1.9-.27a1,1,0,0,1-.82-.83,14.65,14.65,0,0,1-.11-1.81v-.15a14.65,14.65,0,0,1,.11-1.81,1,1,0,0,1,.82-.83l1.95-.26a9.66,9.66,0,0,1,.73-1.72l-1.16-1.55a1,1,0,0,1,0-1.16,14.73,14.73,0,0,1,1.2-1.36l.11-.1a13.91,13.91,0,0,1,1.35-1.2,1,1,0,0,1,1.17,0l1.57,1.19a10,10,0,0,1,1.73-.7l.27-1.91a1,1,0,0,1,.83-.82,17.32,17.32,0,0,1,1.81-.11h.15a17.32,17.32,0,0,1,1.81.11,1,1,0,0,1,.83.82l.26,2a9.62,9.62,0,0,1,1.72.72l1.55-1.16a1,1,0,0,1,1.16,0,14.73,14.73,0,0,1,1.36,1.2l.1.11c.67.66,1.18,1.33,1.21,1.35a1,1,0,0,1,0,1.17l-1.19,1.57a9.64,9.64,0,0,1,.7,1.73l1.91.27a1,1,0,0,1,.82.83,14.65,14.65,0,0,1,.11,1.81V378a14.65,14.65,0,0,1-.11,1.81,1,1,0,0,1-.82.83l-1.95.26a9.75,9.75,0,0,1-.73,1.73l1.16,1.54a1,1,0,0,1,0,1.16,14.73,14.73,0,0,1-1.2,1.36l-.11.1a16.86,16.86,0,0,1-1.35,1.21,1,1,0,0,1-1.17,0l-1.57-1.19a10.8,10.8,0,0,1-1.73.7l-.27,1.91a1,1,0,0,1-.83.82A14.65,14.65,0,0,1,380.5,390.35Zm-1-2c.25,0,.54,0,.84,0h.15c.3,0,.59,0,.84,0l.25-1.79a1,1,0,0,1,.74-.81,7.89,7.89,0,0,0,2.39-1,1,1,0,0,1,.73-.11.91.91,0,0,1,.38.19l1.43,1.09c.19-.17.4-.36.61-.58l.11-.1c.21-.21.41-.43.57-.62l-1.08-1.44a1,1,0,0,1,0-1.09,8,8,0,0,0,1-2.31.94.94,0,0,1,.81-.78l1.82-.25c0-.25,0-.54,0-.84v-.15c0-.3,0-.59,0-.84l-1.79-.26a1,1,0,0,1-.8-.73,8,8,0,0,0-.95-2.36,1,1,0,0,1-.1-.21.94.94,0,0,1,.14-.9l1.11-1.46c-.17-.19-.36-.4-.58-.61l-.1-.11c-.22-.21-.43-.41-.62-.57l-1.44,1.08a1,1,0,0,1-1.15,0,8.22,8.22,0,0,0-2.31-1,1,1,0,0,1-.73-.8l-.24-1.82c-.25,0-.54,0-.84,0h-.15c-.3,0-.59,0-.84,0l-.26,1.79a1,1,0,0,1-.8.82,7.83,7.83,0,0,0-2.32.95,1,1,0,0,1-.74.11,1.07,1.07,0,0,1-.38-.2l-1.42-1.08c-.19.17-.4.36-.61.58l-.11.1c-.21.22-.41.43-.57.62l1.08,1.44a1,1,0,0,1,.06,1.08l-.06.08a8,8,0,0,0-1,2.3,1,1,0,0,1-.8.73l-1.82.24c0,.25,0,.54,0,.84v.15c0,.3,0,.59,0,.84l1.79.26a1,1,0,0,1,.82.81v0a8.28,8.28,0,0,0,.95,2.28,1,1,0,0,1,.08.8,1,1,0,0,1-.17.32l-1.08,1.41c.17.19.36.4.58.61l.1.11c.22.21.43.41.62.57l1.44-1.08a1,1,0,0,1,1.2,0,8,8,0,0,0,2.26.94,1,1,0,0,1,.72.8Z"/><path class="cls-5" d="M477.5,383.09a5.24,5.24,0,1,1,5.24-5.23A5.24,5.24,0,0,1,477.5,383.09Zm0-8.55a3.32,3.32,0,1,0,3.32,3.32A3.32,3.32,0,0,0,477.5,374.54Zm0,15.81h-.15a14.65,14.65,0,0,1-1.81-.11,1,1,0,0,1-.83-.82l-.27-1.95a9.25,9.25,0,0,1-1.72-.73l-1.54,1.16a1,1,0,0,1-1.16,0,14.73,14.73,0,0,1-1.36-1.2l-.1-.11a16.86,16.86,0,0,1-1.21-1.35,1,1,0,0,1,0-1.17l1.19-1.57a9.68,9.68,0,0,1-.71-1.73l-1.9-.27a1,1,0,0,1-.82-.83,14.65,14.65,0,0,1-.11-1.81v-.15a14.65,14.65,0,0,1,.11-1.81,1,1,0,0,1,.82-.83l1.95-.26a9.66,9.66,0,0,1,.73-1.72l-1.16-1.55a1,1,0,0,1,0-1.16,14.73,14.73,0,0,1,1.2-1.36l.11-.1a13.91,13.91,0,0,1,1.35-1.2,1,1,0,0,1,1.17,0l1.57,1.19a10,10,0,0,1,1.73-.7l.27-1.91a1,1,0,0,1,.83-.82,17.32,17.32,0,0,1,1.81-.11h.15a17.32,17.32,0,0,1,1.81.11,1,1,0,0,1,.83.82l.26,2a9.62,9.62,0,0,1,1.72.72l1.55-1.16a1,1,0,0,1,1.16,0,14.73,14.73,0,0,1,1.36,1.2l.1.11c.67.66,1.18,1.33,1.21,1.35a1,1,0,0,1,0,1.17l-1.19,1.57a9.64,9.64,0,0,1,.7,1.73l1.91.27a1,1,0,0,1,.82.83,14.65,14.65,0,0,1,.11,1.81V378a14.65,14.65,0,0,1-.11,1.81,1,1,0,0,1-.82.83l-1.95.26a9.75,9.75,0,0,1-.73,1.73l1.16,1.54a1,1,0,0,1,0,1.16,14.73,14.73,0,0,1-1.2,1.36l-.11.1a16.86,16.86,0,0,1-1.35,1.21,1,1,0,0,1-1.17,0l-1.57-1.19a10.8,10.8,0,0,1-1.73.7l-.27,1.91a1,1,0,0,1-.83.82A14.65,14.65,0,0,1,477.5,390.35Zm-1-2c.25,0,.54,0,.84,0h.15c.3,0,.59,0,.84,0l.25-1.79a1,1,0,0,1,.74-.81,7.89,7.89,0,0,0,2.39-1,1,1,0,0,1,.73-.11.91.91,0,0,1,.38.19l1.43,1.09c.19-.17.4-.36.61-.58l.11-.1c.21-.21.41-.43.57-.62l-1.08-1.44a1,1,0,0,1,0-1.09,8,8,0,0,0,1-2.31.94.94,0,0,1,.81-.78l1.82-.25c0-.25,0-.54,0-.84v-.15c0-.3,0-.59,0-.84l-1.79-.26a1,1,0,0,1-.8-.73,8,8,0,0,0-.95-2.36,1,1,0,0,1-.1-.21.94.94,0,0,1,.14-.9l1.11-1.46c-.17-.19-.36-.4-.58-.61l-.1-.11c-.22-.21-.43-.41-.62-.57l-1.44,1.08a1,1,0,0,1-1.15,0,8.22,8.22,0,0,0-2.31-1,1,1,0,0,1-.73-.8l-.24-1.82c-.25,0-.54,0-.84,0h-.15c-.3,0-.59,0-.84,0l-.26,1.79a1,1,0,0,1-.8.82,7.83,7.83,0,0,0-2.32.95,1,1,0,0,1-.74.11,1.07,1.07,0,0,1-.38-.2l-1.42-1.08c-.19.17-.4.36-.61.58l-.11.1c-.21.22-.41.43-.57.62l1.08,1.44a1,1,0,0,1,.06,1.08l-.06.08a8,8,0,0,0-1,2.3,1,1,0,0,1-.8.73l-1.82.24c0,.25,0,.54,0,.84v.15c0,.3,0,.59,0,.84l1.79.26a1,1,0,0,1,.82.81v0a8.28,8.28,0,0,0,.95,2.28,1,1,0,0,1,.08.8,1,1,0,0,1-.17.32l-1.08,1.41c.17.19.36.4.58.61l.1.11c.22.21.43.41.62.57l1.44-1.08a1,1,0,0,1,1.2,0,8,8,0,0,0,2.26.94,1,1,0,0,1,.72.8Z"/><path class="cls-5" d="M477.5,298.09a5.24,5.24,0,1,1,5.24-5.23A5.24,5.24,0,0,1,477.5,298.09Zm0-8.55a3.32,3.32,0,1,0,3.32,3.32A3.32,3.32,0,0,0,477.5,289.54Zm0,15.81h-.15a14.65,14.65,0,0,1-1.81-.11,1,1,0,0,1-.83-.82l-.27-1.95a9.25,9.25,0,0,1-1.72-.73l-1.54,1.16a1,1,0,0,1-1.16,0,14.73,14.73,0,0,1-1.36-1.2l-.1-.11a16.86,16.86,0,0,1-1.21-1.35,1,1,0,0,1,0-1.17l1.19-1.57a9.68,9.68,0,0,1-.71-1.73l-1.9-.27a1,1,0,0,1-.82-.83,14.65,14.65,0,0,1-.11-1.81v-.15a14.65,14.65,0,0,1,.11-1.81,1,1,0,0,1,.82-.83l1.95-.26a9.66,9.66,0,0,1,.73-1.72l-1.16-1.55a1,1,0,0,1,0-1.16,14.73,14.73,0,0,1,1.2-1.36l.11-.1a13.91,13.91,0,0,1,1.35-1.2,1,1,0,0,1,1.17,0l1.57,1.19a10,10,0,0,1,1.73-.7l.27-1.91a1,1,0,0,1,.83-.82,17.32,17.32,0,0,1,1.81-.11h.15a17.32,17.32,0,0,1,1.81.11,1,1,0,0,1,.83.82l.26,2a9.62,9.62,0,0,1,1.72.72l1.55-1.16a1,1,0,0,1,1.16,0,14.73,14.73,0,0,1,1.36,1.2l.1.11c.67.66,1.18,1.33,1.21,1.35a1,1,0,0,1,0,1.17l-1.19,1.57a9.64,9.64,0,0,1,.7,1.73l1.91.27a1,1,0,0,1,.82.83,14.65,14.65,0,0,1,.11,1.81V293a14.65,14.65,0,0,1-.11,1.81,1,1,0,0,1-.82.83l-1.95.26a9.75,9.75,0,0,1-.73,1.73l1.16,1.54a1,1,0,0,1,0,1.16,14.73,14.73,0,0,1-1.2,1.36l-.11.1a16.86,16.86,0,0,1-1.35,1.21,1,1,0,0,1-1.17,0l-1.57-1.19a10.8,10.8,0,0,1-1.73.7l-.27,1.91a1,1,0,0,1-.83.82A14.65,14.65,0,0,1,477.5,305.35Zm-1-2c.25,0,.54,0,.84,0h.15c.3,0,.59,0,.84,0l.25-1.79a1,1,0,0,1,.74-.81,7.89,7.89,0,0,0,2.39-1,1,1,0,0,1,.73-.11.91.91,0,0,1,.38.19l1.43,1.09c.19-.17.4-.36.61-.58l.11-.1c.21-.21.41-.43.57-.62l-1.08-1.44a1,1,0,0,1,0-1.09,8,8,0,0,0,1-2.31.94.94,0,0,1,.81-.78l1.82-.25c0-.25,0-.54,0-.84v-.15c0-.3,0-.59,0-.84l-1.79-.26a1,1,0,0,1-.8-.73,8,8,0,0,0-.95-2.36,1,1,0,0,1-.1-.21.94.94,0,0,1,.14-.9l1.11-1.46c-.17-.19-.36-.4-.58-.61l-.1-.11c-.22-.21-.43-.41-.62-.57l-1.44,1.08a1,1,0,0,1-1.15,0,8.22,8.22,0,0,0-2.31-1,1,1,0,0,1-.73-.8l-.24-1.82c-.25,0-.54,0-.84,0h-.15c-.3,0-.59,0-.84,0l-.26,1.79a1,1,0,0,1-.8.82,7.83,7.83,0,0,0-2.32.95,1,1,0,0,1-.74.11,1.07,1.07,0,0,1-.38-.2l-1.42-1.08c-.19.17-.4.36-.61.58l-.11.1c-.21.22-.41.43-.57.62l1.08,1.44a1,1,0,0,1,.06,1.08l-.06.08a8,8,0,0,0-1,2.3,1,1,0,0,1-.8.73l-1.82.24c0,.25,0,.54,0,.84v.15c0,.3,0,.59,0,.84l1.79.26a1,1,0,0,1,.82.81v0a8.28,8.28,0,0,0,.95,2.28,1,1,0,0,1,.08.8,1,1,0,0,1-.17.32l-1.08,1.41c.17.19.36.4.58.61l.1.11c.22.21.43.41.62.57l1.44-1.08a1,1,0,0,1,1.2,0,8,8,0,0,0,2.26.94,1,1,0,0,1,.72.8Z"/><path class="cls-5" d="M477.5,171.09a5.24,5.24,0,1,1,5.24-5.23A5.24,5.24,0,0,1,477.5,171.09Zm0-8.55a3.32,3.32,0,1,0,3.32,3.32A3.32,3.32,0,0,0,477.5,162.54Zm0,15.81h-.15a14.65,14.65,0,0,1-1.81-.11,1,1,0,0,1-.83-.82l-.27-1.95a9.25,9.25,0,0,1-1.72-.73l-1.54,1.16a1,1,0,0,1-1.16,0,14.73,14.73,0,0,1-1.36-1.2l-.1-.11a16.86,16.86,0,0,1-1.21-1.35,1,1,0,0,1,0-1.17l1.19-1.57a9.68,9.68,0,0,1-.71-1.73l-1.9-.27a1,1,0,0,1-.82-.83,14.65,14.65,0,0,1-.11-1.81v-.15a14.65,14.65,0,0,1,.11-1.81,1,1,0,0,1,.82-.83l1.95-.26a9.66,9.66,0,0,1,.73-1.72l-1.16-1.55a1,1,0,0,1,0-1.16,14.73,14.73,0,0,1,1.2-1.36l.11-.1a13.91,13.91,0,0,1,1.35-1.2,1,1,0,0,1,1.17,0l1.57,1.19a10,10,0,0,1,1.73-.7l.27-1.91a1,1,0,0,1,.83-.82,17.32,17.32,0,0,1,1.81-.11h.15a17.32,17.32,0,0,1,1.81.11,1,1,0,0,1,.83.82l.26,2a9.62,9.62,0,0,1,1.72.72l1.55-1.16a1,1,0,0,1,1.16,0,14.73,14.73,0,0,1,1.36,1.2l.1.11c.67.66,1.18,1.33,1.21,1.35a1,1,0,0,1,0,1.17l-1.19,1.57a9.64,9.64,0,0,1,.7,1.73l1.91.27a1,1,0,0,1,.82.83,14.65,14.65,0,0,1,.11,1.81V166a14.65,14.65,0,0,1-.11,1.81,1,1,0,0,1-.82.83l-1.95.26a9.75,9.75,0,0,1-.73,1.73l1.16,1.54a1,1,0,0,1,0,1.16,14.73,14.73,0,0,1-1.2,1.36l-.11.1a16.86,16.86,0,0,1-1.35,1.21,1,1,0,0,1-1.17,0l-1.57-1.19a10.8,10.8,0,0,1-1.73.7l-.27,1.91a1,1,0,0,1-.83.82A14.65,14.65,0,0,1,477.5,178.35Zm-1-1.95c.25,0,.54,0,.84,0h.15c.3,0,.59,0,.84,0l.25-1.79a1,1,0,0,1,.74-.81,7.89,7.89,0,0,0,2.39-1,1,1,0,0,1,.73-.11.91.91,0,0,1,.38.19l1.43,1.09c.19-.17.4-.36.61-.58l.11-.1c.21-.21.41-.43.57-.62l-1.08-1.44a1,1,0,0,1,0-1.09,8,8,0,0,0,1-2.31.94.94,0,0,1,.81-.78l1.82-.25c0-.25,0-.54,0-.84v-.15c0-.3,0-.59,0-.84l-1.79-.26a1,1,0,0,1-.8-.73,8,8,0,0,0-.95-2.36,1,1,0,0,1-.1-.21.94.94,0,0,1,.14-.9l1.11-1.46c-.17-.19-.36-.4-.58-.61l-.1-.11c-.22-.21-.43-.41-.62-.57l-1.44,1.08a1,1,0,0,1-1.15,0,8.22,8.22,0,0,0-2.31-1,1,1,0,0,1-.73-.8l-.24-1.82c-.25,0-.54,0-.84,0h-.15c-.3,0-.59,0-.84,0l-.26,1.79a1,1,0,0,1-.8.82,7.83,7.83,0,0,0-2.32,1,1,1,0,0,1-.74.11,1.07,1.07,0,0,1-.38-.2l-1.42-1.08c-.19.17-.4.36-.61.58l-.11.1c-.21.22-.41.43-.57.62l1.08,1.44a1,1,0,0,1,.06,1.08l-.06.08a8,8,0,0,0-1,2.3,1,1,0,0,1-.8.73l-1.82.24c0,.25,0,.54,0,.84v.15c0,.3,0,.59,0,.84l1.79.26a1,1,0,0,1,.82.81v0a8.28,8.28,0,0,0,.95,2.28,1,1,0,0,1,.08.8,1,1,0,0,1-.17.32l-1.08,1.41c.17.19.36.4.58.61l.1.11c.22.21.43.41.62.57l1.44-1.08a1,1,0,0,1,1.2,0,8,8,0,0,0,2.26.94,1,1,0,0,1,.72.8Z"/><path class="cls-5" d="M349.5,148.09a5.24,5.24,0,1,1,5.24-5.23A5.24,5.24,0,0,1,349.5,148.09Zm0-8.55a3.32,3.32,0,1,0,3.32,3.32A3.32,3.32,0,0,0,349.5,139.54Zm0,15.81h-.15a14.65,14.65,0,0,1-1.81-.11,1,1,0,0,1-.83-.82l-.27-1.95a9.25,9.25,0,0,1-1.72-.73l-1.54,1.16a1,1,0,0,1-1.16,0,14.73,14.73,0,0,1-1.36-1.2l-.1-.11a16.86,16.86,0,0,1-1.21-1.35,1,1,0,0,1,0-1.17l1.19-1.57a9.68,9.68,0,0,1-.71-1.73l-1.9-.27a1,1,0,0,1-.82-.83,14.65,14.65,0,0,1-.11-1.81v-.15a14.65,14.65,0,0,1,.11-1.81,1,1,0,0,1,.82-.83l1.95-.26a9.66,9.66,0,0,1,.73-1.72l-1.16-1.55a1,1,0,0,1,0-1.16,14.73,14.73,0,0,1,1.2-1.36l.11-.1a13.91,13.91,0,0,1,1.35-1.2,1,1,0,0,1,1.17,0l1.57,1.19a10,10,0,0,1,1.73-.7l.27-1.91a1,1,0,0,1,.83-.82,17.32,17.32,0,0,1,1.81-.11h.15a17.32,17.32,0,0,1,1.81.11,1,1,0,0,1,.83.82l.26,2a9.62,9.62,0,0,1,1.72.72l1.55-1.16a1,1,0,0,1,1.16,0,14.73,14.73,0,0,1,1.36,1.2l.1.11c.67.66,1.18,1.33,1.21,1.35a1,1,0,0,1,0,1.17l-1.19,1.57a9.64,9.64,0,0,1,.7,1.73l1.91.27a1,1,0,0,1,.82.83,14.65,14.65,0,0,1,.11,1.81V143a14.65,14.65,0,0,1-.11,1.81,1,1,0,0,1-.82.83l-1.95.26a9.75,9.75,0,0,1-.73,1.73l1.16,1.54a1,1,0,0,1,0,1.16,14.73,14.73,0,0,1-1.2,1.36l-.11.1a16.86,16.86,0,0,1-1.35,1.21,1,1,0,0,1-1.17,0l-1.57-1.19a10.8,10.8,0,0,1-1.73.7l-.27,1.91a1,1,0,0,1-.83.82A14.65,14.65,0,0,1,349.5,155.35Zm-1-1.95c.25,0,.54,0,.84,0h.15c.3,0,.59,0,.84,0l.25-1.79a1,1,0,0,1,.74-.81,7.89,7.89,0,0,0,2.39-1,1,1,0,0,1,.73-.11.91.91,0,0,1,.38.19l1.43,1.09c.19-.17.4-.36.61-.58l.11-.1c.21-.21.41-.43.57-.62l-1.08-1.44a1,1,0,0,1,0-1.09,8,8,0,0,0,1-2.31.94.94,0,0,1,.81-.78l1.82-.25c0-.25,0-.54,0-.84v-.15c0-.3,0-.59,0-.84l-1.79-.26a1,1,0,0,1-.8-.73,8,8,0,0,0-.95-2.36,1,1,0,0,1-.1-.21.94.94,0,0,1,.14-.9l1.11-1.46c-.17-.19-.36-.4-.58-.61l-.1-.11c-.22-.21-.43-.41-.62-.57l-1.44,1.08a1,1,0,0,1-1.15,0,8.22,8.22,0,0,0-2.31-1,1,1,0,0,1-.73-.8l-.24-1.82c-.25,0-.54,0-.84,0h-.15c-.3,0-.59,0-.84,0l-.26,1.79a1,1,0,0,1-.8.82,7.83,7.83,0,0,0-2.32,1,1,1,0,0,1-.74.11,1.07,1.07,0,0,1-.38-.2l-1.42-1.08c-.19.17-.4.36-.61.58l-.11.1c-.21.22-.41.43-.57.62l1.08,1.44a1,1,0,0,1,.06,1.08l-.06.08a8,8,0,0,0-1,2.3,1,1,0,0,1-.8.73l-1.82.24c0,.25,0,.54,0,.84v.15c0,.3,0,.59,0,.84l1.79.26a1,1,0,0,1,.82.81v0a8.28,8.28,0,0,0,.95,2.28,1,1,0,0,1,.08.8,1,1,0,0,1-.17.32l-1.08,1.41c.17.19.36.4.58.61l.1.11c.22.21.43.41.62.57l1.44-1.08a1,1,0,0,1,1.2,0,8,8,0,0,0,2.26.94,1,1,0,0,1,.72.8Z"/><path class="cls-5" d="M327.5,204.09a5.24,5.24,0,1,1,5.24-5.23A5.24,5.24,0,0,1,327.5,204.09Zm0-8.55a3.32,3.32,0,1,0,3.32,3.32A3.32,3.32,0,0,0,327.5,195.54Zm0,15.81h-.15a14.65,14.65,0,0,1-1.81-.11,1,1,0,0,1-.83-.82l-.27-1.95a9.25,9.25,0,0,1-1.72-.73l-1.54,1.16a1,1,0,0,1-1.16,0,14.73,14.73,0,0,1-1.36-1.2l-.1-.11a16.86,16.86,0,0,1-1.21-1.35,1,1,0,0,1,0-1.17l1.19-1.57a9.68,9.68,0,0,1-.71-1.73l-1.9-.27a1,1,0,0,1-.82-.83,14.65,14.65,0,0,1-.11-1.81v-.15a14.65,14.65,0,0,1,.11-1.81,1,1,0,0,1,.82-.83l1.95-.26a9.66,9.66,0,0,1,.73-1.72l-1.16-1.55a1,1,0,0,1,0-1.16,14.73,14.73,0,0,1,1.2-1.36l.11-.1a13.91,13.91,0,0,1,1.35-1.2,1,1,0,0,1,1.17,0l1.57,1.19a10,10,0,0,1,1.73-.7l.27-1.91a1,1,0,0,1,.83-.82,17.32,17.32,0,0,1,1.81-.11h.15a17.32,17.32,0,0,1,1.81.11,1,1,0,0,1,.83.82l.26,2a9.62,9.62,0,0,1,1.72.72l1.55-1.16a1,1,0,0,1,1.16,0,14.73,14.73,0,0,1,1.36,1.2l.1.11c.67.66,1.18,1.33,1.21,1.35a1,1,0,0,1,0,1.17l-1.19,1.57a9.64,9.64,0,0,1,.7,1.73l1.91.27a1,1,0,0,1,.82.83,14.65,14.65,0,0,1,.11,1.81V199a14.65,14.65,0,0,1-.11,1.81,1,1,0,0,1-.82.83l-1.95.26a9.75,9.75,0,0,1-.73,1.73l1.16,1.54a1,1,0,0,1,0,1.16,14.73,14.73,0,0,1-1.2,1.36l-.11.1a16.86,16.86,0,0,1-1.35,1.21,1,1,0,0,1-1.17,0l-1.57-1.19a10.8,10.8,0,0,1-1.73.7l-.27,1.91a1,1,0,0,1-.83.82A14.65,14.65,0,0,1,327.5,211.35Zm-1-1.95c.25,0,.54,0,.84,0h.15c.3,0,.59,0,.84,0l.25-1.79a1,1,0,0,1,.74-.81,7.89,7.89,0,0,0,2.39-1,1,1,0,0,1,.73-.11.91.91,0,0,1,.38.19l1.43,1.09c.19-.17.4-.36.61-.58l.11-.1c.21-.21.41-.43.57-.62l-1.08-1.44a1,1,0,0,1,0-1.09,8,8,0,0,0,1-2.31.94.94,0,0,1,.81-.78l1.82-.25c0-.25,0-.54,0-.84v-.15c0-.3,0-.59,0-.84l-1.79-.26a1,1,0,0,1-.8-.73,8,8,0,0,0-.95-2.36,1,1,0,0,1-.1-.21.94.94,0,0,1,.14-.9l1.11-1.46c-.17-.19-.36-.4-.58-.61l-.1-.11c-.22-.21-.43-.41-.62-.57l-1.44,1.08a1,1,0,0,1-1.15,0,8.22,8.22,0,0,0-2.31-1,1,1,0,0,1-.73-.8l-.24-1.82c-.25,0-.54,0-.84,0h-.15c-.3,0-.59,0-.84,0l-.26,1.79a1,1,0,0,1-.8.82,7.83,7.83,0,0,0-2.32,1,1,1,0,0,1-.74.11,1.07,1.07,0,0,1-.38-.2l-1.42-1.08c-.19.17-.4.36-.61.58l-.11.1c-.21.22-.41.43-.57.62l1.08,1.44a1,1,0,0,1,.06,1.08l-.06.08a8,8,0,0,0-1,2.3,1,1,0,0,1-.8.73l-1.82.24c0,.25,0,.54,0,.84v.15c0,.3,0,.59,0,.84l1.79.26a1,1,0,0,1,.82.81v0a8.28,8.28,0,0,0,.95,2.28,1,1,0,0,1,.08.8,1,1,0,0,1-.17.32l-1.08,1.41c.17.19.36.4.58.61l.1.11c.22.21.43.41.62.57l1.44-1.08a1,1,0,0,1,1.2,0,8,8,0,0,0,2.26.94,1,1,0,0,1,.72.8Z"/><path class="cls-3" d="M276.9,25.67a1,1,0,0,1-1.14,1.13h-17.6V41.08H271.5a1,1,0,0,1,1.14,1.13v7.1a1,1,0,0,1-1.14,1.14H258.16V73.1A1,1,0,0,1,257,74.23h-7.38a1,1,0,0,1-1.14-1.13V18.57a1,1,0,0,1,1.14-1.14h26.12a1.05,1.05,0,0,1,1.14,1.14Z"/><path class="cls-3" d="M293,64.86h16.89A1,1,0,0,1,311,66v7.1c0,.78-.35,1.13-1.14,1.13H284.43a1,1,0,0,1-1.14-1.13V18.57a1.05,1.05,0,0,1,1.14-1.14h7.38A1,1,0,0,1,293,18.57Z"/><path class="cls-3" d="M316,27.66c0-6.68,3.55-10.23,10.22-10.23h8c6.67,0,10.22,3.55,10.22,10.23V64c0,6.67-3.55,10.22-10.22,10.22h-8C319.5,74.23,316,70.68,316,64Zm16.4,37.41a2.52,2.52,0,0,0,2.84-2.84V29.43a2.55,2.55,0,0,0-2.84-2.84h-4.12a2.55,2.55,0,0,0-2.84,2.84v32.8a2.52,2.52,0,0,0,2.84,2.84Z"/><path class="cls-3" d="M351.45,27.66c0-6.68,3.55-10.23,10.22-10.23h8c6.67,0,10.22,3.55,10.22,10.23V64c0,6.67-3.55,10.22-10.22,10.22h-8c-6.67,0-10.22-3.55-10.22-10.22Zm16.4,37.41a2.52,2.52,0,0,0,2.84-2.84V29.43a2.55,2.55,0,0,0-2.84-2.84h-4.12a2.55,2.55,0,0,0-2.84,2.84v32.8a2.52,2.52,0,0,0,2.84,2.84Z"/><path class="cls-3" d="M416.13,45c0,4.76-1.77,7.88-5.18,9.37l4.9,18.6c.21.86-.22,1.28-1,1.28h-7.38a1.11,1.11,0,0,1-1.21-1l-4.75-18h-4.9V73.1a1,1,0,0,1-1.14,1.13h-7.38A1,1,0,0,1,387,73.1V18.57a1.05,1.05,0,0,1,1.14-1.14h17.82c6.67,0,10.22,3.55,10.22,10.23Zm-12.49.85A2.55,2.55,0,0,0,406.48,43V29.64a2.55,2.55,0,0,0-2.84-2.84h-7v19Z"/><path class="cls-3" d="M441,27.66c0-6.68,3.55-10.23,10.22-10.23h8c6.67,0,10.22,3.55,10.22,10.23V64c0,6.67-3.55,10.22-10.22,10.22h-8C444.53,74.23,441,70.68,441,64Zm16.4,37.41a2.52,2.52,0,0,0,2.84-2.84V29.43a2.55,2.55,0,0,0-2.84-2.84h-4.12a2.55,2.55,0,0,0-2.84,2.84v32.8a2.52,2.52,0,0,0,2.84,2.84Z"/><path class="cls-3" d="M505.66,17.43a1.05,1.05,0,0,1,1.14,1.14V73.1a1,1,0,0,1-1.14,1.13h-7a1.23,1.23,0,0,1-1.28-.92L486.49,43h-.35V73.1A1,1,0,0,1,485,74.23h-7.38a1,1,0,0,1-1.14-1.13V18.57a1.05,1.05,0,0,1,1.14-1.14h7a1.22,1.22,0,0,1,1.27.93l10.8,30.17h.42v-30a1,1,0,0,1,1.14-1.14Z"/><path class="cls-3" d="M542.23,25.67c0,.71-.29,1.21-1.14,1.21H523.34v14.2H536.9a1.06,1.06,0,0,1,1.14,1.2v7a1.07,1.07,0,0,1-1.14,1.21H523.34V64.86h17.75c.85,0,1.14.35,1.14,1.14v7.1c0,.71-.29,1.13-1.14,1.13H515a1,1,0,0,1-1.06-1.13V18.57A1,1,0,0,1,515,17.43h26.13c.85,0,1.14.43,1.14,1.14Z"/><line class="cls-11" x1="81.5" y1="317.85" x2="83" y2="317.85"/><line class="cls-12" x1="88.07" y1="317.85" x2="150.46" y2="317.85"/><line class="cls-11" x1="153" y1="317.85" x2="154.5" y2="317.85"/><path class="cls-3" d="M21.41,303.29c.21,0,.29.11.25.3l-2.23,9.25a.29.29,0,0,1-.31.25h-1.4a.28.28,0,0,1-.3-.25l-2.22-9.25c0-.19,0-.3.25-.3h1.28a.29.29,0,0,1,.31.25l1.38,6.33,1.4-6.33a.29.29,0,0,1,.31-.25Z"/><path class="cls-3" d="M22.09,305.3a1.8,1.8,0,0,1,2-2h1.57a1.8,1.8,0,0,1,2,2v5.77a1.8,1.8,0,0,1-2,2H24.11a1.81,1.81,0,0,1-2-2Zm3.28,6a.5.5,0,0,0,.56-.56v-5.07a.51.51,0,0,0-.56-.56h-.9a.51.51,0,0,0-.56.56v5.07a.5.5,0,0,0,.56.56Z"/><path class="cls-3" d="M31,311.24h2.77a.2.2,0,0,1,.22.23v1.4a.19.19,0,0,1-.22.22H29.31a.2.2,0,0,1-.22-.22v-9.36a.2.2,0,0,1,.22-.22h1.46a.2.2,0,0,1,.23.22Z"/><path class="cls-3" d="M40.43,303.29a.27.27,0,0,1,.28.28v7.5a1.8,1.8,0,0,1-2,2H37.13a1.81,1.81,0,0,1-2-2v-7.5a.28.28,0,0,1,.28-.28h1.35a.28.28,0,0,1,.28.28v7.11a.49.49,0,0,0,.56.56h.72a.49.49,0,0,0,.56-.56v-7.11a.28.28,0,0,1,.28-.28Z"/><path class="cls-3" d="M47.87,303.29a.2.2,0,0,1,.22.22v9.36a.2.2,0,0,1-.22.22H46.76a.24.24,0,0,1-.25-.18l-2.64-5.35v5.31a.19.19,0,0,1-.22.22H42.33a.2.2,0,0,1-.22-.22v-9.36a.2.2,0,0,1,.22-.22h1.11a.24.24,0,0,1,.25.18l2.64,5.35v-5.31a.2.2,0,0,1,.22-.22Z"/><path class="cls-3" d="M54.59,303.29a.2.2,0,0,1,.22.22v1.4a.2.2,0,0,1-.22.22H53v7.74a.19.19,0,0,1-.22.22H51.28a.2.2,0,0,1-.22-.22v-7.74H49.43a.2.2,0,0,1-.22-.22v-1.4a.2.2,0,0,1,.22-.22Z"/><path class="cls-3" d="M61.52,304.91c0,.14-.06.24-.23.24H57.83v2.16h2.64a.2.2,0,0,1,.22.23v1.39c0,.16-.08.24-.22.24H57.83v2.07h3.46c.17,0,.23.07.23.23v1.4c0,.14-.06.22-.23.22H56.14a.2.2,0,0,1-.21-.22v-9.36a.2.2,0,0,1,.21-.22h5.15c.17,0,.23.08.23.22Z"/><path class="cls-3" d="M68.5,304.91c0,.14,0,.24-.22.24H64.82v2.16h2.63a.21.21,0,0,1,.23.23v1.39a.21.21,0,0,1-.23.24H64.82v2.07h3.46c.17,0,.22.07.22.23v1.4c0,.14,0,.22-.22.22H63.12a.2.2,0,0,1-.21-.22v-9.36a.2.2,0,0,1,.21-.22h5.16c.17,0,.22.08.22.22Z"/><path class="cls-3" d="M75.36,308.12a1.85,1.85,0,0,1-.78,1.71l.73,3c0,.17,0,.25-.2.25H73.74a.22.22,0,0,1-.24-.19l-.67-2.76H71.58v2.73a.2.2,0,0,1-.22.22H70a.2.2,0,0,1-.22-.22v-9.36a.2.2,0,0,1,.22-.22h3.37a1.8,1.8,0,0,1,2,2Zm-2.38.21a.5.5,0,0,0,.56-.56v-2.12a.5.5,0,0,0-.56-.56h-1.4v3.24Z"/><path class="cls-3" d="M85.86,308.12a1.85,1.85,0,0,1-.78,1.71l.73,3c0,.17,0,.25-.2.25H84.24a.22.22,0,0,1-.24-.19l-.67-2.76H82.08v2.73a.2.2,0,0,1-.22.22H80.48a.2.2,0,0,1-.22-.22v-9.36a.2.2,0,0,1,.22-.22h3.37a1.8,1.8,0,0,1,2,2Zm-2.38.21a.5.5,0,0,0,.56-.56v-2.12a.5.5,0,0,0-.56-.56h-1.4v3.24Z"/><path class="cls-3" d="M87.26,305.3a1.8,1.8,0,0,1,2-2h1.57a1.8,1.8,0,0,1,2,2v5.77a1.8,1.8,0,0,1-2,2H89.28a1.81,1.81,0,0,1-2-2Zm3.28,6a.5.5,0,0,0,.56-.56v-5.07a.51.51,0,0,0-.56-.56h-.9a.51.51,0,0,0-.56.56v5.07a.5.5,0,0,0,.56.56Z"/><path class="cls-3" d="M94.26,305.3a1.8,1.8,0,0,1,2-2h1.57a1.8,1.8,0,0,1,2,2v5.77a1.8,1.8,0,0,1-2,2H96.28a1.81,1.81,0,0,1-2-2Zm3.28,6a.5.5,0,0,0,.56-.56v-5.07a.51.51,0,0,0-.56-.56h-.9a.51.51,0,0,0-.56.56v5.07a.5.5,0,0,0,.56.56Z"/><path class="cls-3" d="M109,303.29a.24.24,0,0,1,.28.28v9.24a.25.25,0,0,1-.28.28h-1.3a.25.25,0,0,1-.28-.28v-5.5h-.1L106,312.85a.29.29,0,0,1-.31.24h-.83a.29.29,0,0,1-.31-.24l-1.31-5.54h-.1v5.5a.25.25,0,0,1-.28.28h-1.29a.25.25,0,0,1-.28-.28v-9.24a.25.25,0,0,1,.28-.28h1.85a.29.29,0,0,1,.31.23l1.55,6.25,1.56-6.25a.29.29,0,0,1,.31-.23Z"/></g></svg>