<svg xmlns="http://www.w3.org/2000/svg" viewBox="0 0 783 819"><defs><style>.cls-1,.cls-10,.cls-3,.cls-5,.cls-8,.cls-9{fill:none;}.cls-1{stroke:#fff;}.cls-1,.cls-10,.cls-3,.cls-5,.cls-9{stroke-linecap:round;stroke-linejoin:round;}.cls-1,.cls-8{stroke-width:3px;}.cls-2{fill:#c0c9ff;}.cls-3,.cls-5,.cls-8{stroke:#30384f;}.cls-3{stroke-width:2px;}.cls-4{fill:#30384f;}.cls-5{stroke-width:2.09px;}.cls-6{fill:#ff395a;}.cls-7{fill:#fff;}.cls-8{stroke-miterlimit:10;}.cls-10,.cls-9{stroke:#ff395a;stroke-width:3.28px;}.cls-10{stroke-dasharray:3.04 5.07;}</style></defs><title>map</title><g id="chung_floor_2_copy" data-name="chung floor 2 copy"><path class="cls-1" d="M294.5,131.5v-14"/><path class="cls-1" d="M173.5,444.5H122.73"/><path class="cls-1" d="M442.5,272.5v167a5,5,0,0,1-5,5H302"/><path class="cls-1" d="M122.73,665.5h45.18a5,5,0,0,1,5,5v84a5,5,0,0,0,5,5H529.35a5,5,0,0,0,5-5l.13-44a5,5,0,0,1,5-5h71a5,5,0,0,0,5-5v-57a5,5,0,0,1,5-5h35a5,5,0,0,0,5-5V456a5,5,0,0,1,5-5h20c2.75,0,5-1.85,5-4.1V270.5a5,5,0,0,0-5-5h-9c-2.75,0-5-1.16-5-2.58V199.5a5,5,0,0,0-5-5h-42a5,5,0,0,1-5-5v-16a5,5,0,0,0-5-5H547c-.27,0-.5,1.35-.5,3v-22a5,5,0,0,0-5-5H424c-.27,0-.5,2.25-.5,5v2h0v-29a5,5,0,0,0-5-5h-247a5,5,0,0,0-5,5v6a5,5,0,0,1-5,5h-27a5,5,0,0,0-5,5v114a5,5,0,0,0,5,5h301"/><path class="cls-1" d="M122.73,472.5H168.5a5,5,0,0,1,5,5v155a5,5,0,0,1-5,5H122.73"/></g><g id="floor_2_copy" data-name="floor 2 copy"><rect class="cls-2" x="557.5" y="454.5" width="92" height="166" rx="5"/><rect class="cls-2" x="541" y="632" width="67" height="67" rx="5"/><rect class="cls-2" x="374" y="654" width="147" height="95" rx="5"/><rect class="cls-2" x="183" y="654" width="182" height="95" rx="5"/><rect class="cls-2" x="183" y="562.34" width="97" height="75.66" rx="5"/><rect class="cls-2" x="183" y="472.64" width="97" height="79.36" rx="5"/><rect class="cls-2" x="561.5" y="272.5" width="28" height="34" rx="5"/><rect class="cls-2" x="123" y="392" width="53" height="42" rx="5"/><rect class="cls-2" x="302" y="454" width="90" height="80" rx="5"/><rect class="cls-2" x="398" y="454" width="90" height="80" rx="5"/><rect class="cls-2" x="302" y="544" width="186" height="76" rx="5"/><rect class="cls-2" x="493" y="454" width="39" height="37.59" rx="5"/><rect class="cls-2" x="493" y="496.41" width="39" height="37.59" rx="5"/><rect class="cls-2" x="493" y="544" width="39" height="76" rx="5"/><rect class="cls-2" x="595" y="273" width="45" height="34" rx="5"/><rect class="cls-2" x="644" y="273" width="34" height="56" rx="5"/><path class="cls-2" d="M575,310v85a5,5,0,0,1-5,5h0a5,5,0,0,0-5,5v29a5,5,0,0,0,5,5H673a5,5,0,0,0,5-5V339a5,5,0,0,0-5-5H645a5,5,0,0,1-5-5V310"/><rect class="cls-2" x="452" y="273" width="85" height="81.02" rx="5"/><rect class="cls-2" x="452" y="357.98" width="85" height="81.02" rx="5"/><rect class="cls-2" x="135" y="141" width="48" height="51.33" rx="5"/><rect class="cls-2" x="135" y="197.67" width="48" height="51.33" rx="5"/><path class="cls-2" d="M312,130a5,5,0,0,1,5-5h88a5,5,0,0,1,5,5V247a5,5,0,0,1-5,5H267a5,5,0,0,1-5-5V232.49a5,5,0,0,1,5-5h18.07a5,5,0,0,0,5-5V165.65a5,5,0,0,0-5-5H267a5,5,0,0,1-5-5V141.14a5,5,0,0,1,5-5h40a5,5,0,0,0,5-5Z"/><rect class="cls-2" x="597.5" y="203.5" width="70" height="53" rx="5"/><path class="cls-1" d="M230,164H195a5,5,0,0,0-5,5v48a5,5,0,0,0,5,5h35"/><path class="cls-2" d="M418.5,252a5,5,0,0,1-5-5V166.09a5,5,0,0,1,5-5h12a4.8,4.8,0,0,0,5-4.54,4.81,4.81,0,0,1,5-4.55h83a5,5,0,0,1,5,5v32.05a5,5,0,0,1-5,5h-89a5,5,0,0,0-5,5V247a5,5,0,0,1-5,5Z"/><path class="cls-2" d="M536,228V189.73a5,5,0,0,1,5-5h.82a5,5,0,0,0,5-4.86,5,5,0,0,1,5-4.87h35.42a5,5,0,0,1,5,5v33.27a5,5,0,0,1-5,5H565a5,5,0,0,0-5,5V251a5,5,0,0,1-5,5H541a5,5,0,0,1-5-5V228"/><rect class="cls-2" x="509" y="196.9" width="24" height="59.1" rx="5"/><rect class="cls-2" x="432" y="196.9" width="29" height="55.1" rx="5"/><rect class="cls-2" x="465" y="196.9" width="18" height="55.1" rx="5"/><rect class="cls-2" x="487" y="196.9" width="18" height="55.1" rx="5"/><rect class="cls-2" x="183" y="392" width="97" height="42" rx="5"/></g><g id="floor_2_stuff" data-name="floor 2 stuff"><polygon class="cls-3" points="239.6 395.56 239.6 404.09 231.08 404.09 231.08 412.62 222.55 412.62 222.55 421.15 214.02 421.15 214.02 431.75 218.16 431.75 218.16 425.29 226.69 425.29 226.69 416.76 235.22 416.76 235.22 408.23 243.75 408.23 243.75 399.7 250.2 399.7 250.2 395.56 239.6 395.56"/><polygon class="cls-4" points="229.95 401.35 233.61 397.7 233.61 399.63 235.63 399.63 235.63 394.25 230.25 394.25 230.25 396.27 232.18 396.27 228.53 399.93 229.95 401.35"/><polygon class="cls-4" points="218.47 410.64 214.82 414.3 214.82 412.37 212.8 412.37 212.8 417.75 218.17 417.75 218.17 415.73 216.25 415.73 219.9 412.07 218.47 410.64"/><polygon class="cls-4" points="137.67 417.42 135.74 415.49 142.44 408.79 148.8 415.16 146.88 417.09 142.44 412.65 137.67 417.42"/><polygon class="cls-4" points="156.56 417.21 150.2 410.84 152.12 408.91 156.56 413.35 161.33 408.58 163.26 410.51 156.56 417.21"/><rect class="cls-5" x="133.83" y="397.33" width="31.34" height="31.34" rx="6.27"/><path class="cls-4" d="M307.74,191.3a.83.83,0,0,0-.46.8V195a.59.59,0,0,0,.66.66h3.57v-1.36a.6.6,0,0,1,.66-.66h3.16a.6.6,0,0,1,.67.66v5a.6.6,0,0,1-.67.66H303.45a.59.59,0,0,1-.66-.66v-9.73c0-.63.23-.89.86-1.22l7.86-4.23v-4.88a1.2,1.2,0,0,0-1.32-1.32H308.6a1.17,1.17,0,0,0-1.32,1.32v2.57a.49.49,0,0,1-.53.53h-3.43a.48.48,0,0,1-.53-.53v-3.5c0-3.1,1.65-4.75,4.76-4.75h3.69c3.07,0,4.76,1.65,4.76,4.75v7.79c0,.63-.27.89-.9,1.22Z"/><path class="cls-4" d="M319.29,178.33c0-3.1,1.65-4.75,4.76-4.75h3.69c3.1,0,4.76,1.65,4.76,4.75v16.9c0,3.1-1.66,4.75-4.76,4.75h-3.69c-3.11,0-4.76-1.65-4.76-4.75Zm7.63,17.4a1.17,1.17,0,0,0,1.32-1.32V179.16a1.18,1.18,0,0,0-1.32-1.32H325a1.18,1.18,0,0,0-1.32,1.32v15.25a1.17,1.17,0,0,0,1.32,1.32Z"/><path class="cls-4" d="M348,173.58a.6.6,0,0,1,.67.66v3a.6.6,0,0,1-.67.66h-7.42v5.18l7.85,2.47a.72.72,0,0,1,.57.73v9c0,3-1.62,4.62-4.63,4.62h-4c-3,0-4.62-1.61-4.62-4.62v-1.05a.59.59,0,0,1,.66-.66h3.17a.59.59,0,0,1,.66.66v1.32h3.6a.59.59,0,0,0,.66-.66v-6l-7.86-2.48a.7.7,0,0,1-.56-.72V174.24a.59.59,0,0,1,.66-.66Z"/><path class="cls-4" d="M366.12,173.58c.5,0,.69.3.53.76l-10.56,27.72a.71.71,0,0,1-.76.53h-3.1c-.5,0-.7-.3-.53-.76l10.59-27.72a.73.73,0,0,1,.76-.53Z"/><path class="cls-4" d="M369.65,178.33c0-3.1,1.65-4.75,4.75-4.75h3.7c3.1,0,4.75,1.65,4.75,4.75v16.9c0,3.1-1.65,4.75-4.75,4.75h-3.7c-3.1,0-4.75-1.65-4.75-4.75Zm7.62,17.4a1.17,1.17,0,0,0,1.32-1.32V179.16a1.18,1.18,0,0,0-1.32-1.32h-1.91a1.18,1.18,0,0,0-1.32,1.32v15.25a1.17,1.17,0,0,0,1.32,1.32Z"/><path class="cls-4" d="M394.73,183.78c3,0,4.62,1.62,4.62,4.62v7c0,3-1.61,4.62-4.62,4.62h-4c-3,0-4.62-1.61-4.62-4.62v-8.48a4.09,4.09,0,0,1,.33-1.65l4.69-11.15a.73.73,0,0,1,.76-.5h3.43c.49,0,.69.3.49.76l-4,9.44Zm-1.05,11.85a1.19,1.19,0,0,0,1.32-1.32v-4.85a1.19,1.19,0,0,0-1.32-1.32h-1.85a1.18,1.18,0,0,0-1.32,1.32v4.85a1.18,1.18,0,0,0,1.32,1.32Z"/><path class="cls-4" d="M373.19,578.8a.83.83,0,0,0-.46.8v2.87a.59.59,0,0,0,.66.66H377v-1.36a.59.59,0,0,1,.66-.66h3.17a.59.59,0,0,1,.66.66v5.05a.59.59,0,0,1-.66.66H368.9a.59.59,0,0,1-.66-.66v-9.73c0-.63.23-.89.86-1.22l7.85-4.23v-4.88a1.2,1.2,0,0,0-1.32-1.32h-1.58a1.17,1.17,0,0,0-1.32,1.32v2.57a.49.49,0,0,1-.53.53h-3.43a.47.47,0,0,1-.53-.53v-3.5c0-3.1,1.65-4.75,4.75-4.75h3.7c3.07,0,4.75,1.65,4.75,4.75v7.79c0,.63-.27.89-.89,1.22Z"/><path class="cls-4" d="M397.64,571.91a2.38,2.38,0,0,1-2.08,2.34v.06a2.39,2.39,0,0,1,2.08,2.35v6.07c0,3.1-1.68,4.75-4.78,4.75H389c-3,0-4.62-1.61-4.62-4.62v-1.09a.59.59,0,0,1,.66-.66h3.17a.59.59,0,0,1,.66.66v1.36h3.69a.59.59,0,0,0,.66-.66v-4.69a1.17,1.17,0,0,0-1.32-1.32H388a.59.59,0,0,1-.66-.66v-3a.59.59,0,0,1,.66-.66h3.89a1.17,1.17,0,0,0,1.32-1.28V566.1a.59.59,0,0,0-.66-.66H388.9v1.35a.59.59,0,0,1-.66.66h-3.17a.59.59,0,0,1-.66-.66v-1.35c0-2.84,1.61-4.36,4.62-4.36h3.83c3.1,0,4.78,1.65,4.78,4.75Z"/><path class="cls-4" d="M413.51,571.91a2.38,2.38,0,0,1-2.07,2.34v.06a2.39,2.39,0,0,1,2.07,2.35v6.07c0,3.1-1.68,4.75-4.78,4.75H404.9c-3,0-4.62-1.61-4.62-4.62v-1.09a.59.59,0,0,1,.66-.66h3.17a.59.59,0,0,1,.66.66v1.36h3.69a.6.6,0,0,0,.67-.66v-4.69a1.17,1.17,0,0,0-1.32-1.32h-3.9a.59.59,0,0,1-.66-.66v-3a.59.59,0,0,1,.66-.66h3.9a1.18,1.18,0,0,0,1.32-1.28V566.1a.6.6,0,0,0-.67-.66h-3.69v1.35a.59.59,0,0,1-.66.66h-3.17a.59.59,0,0,1-.66-.66v-1.35c0-2.84,1.62-4.36,4.62-4.36h3.83c3.1,0,4.78,1.65,4.78,4.75Z"/><polygon class="cls-6" points="464.75 261.67 452.73 261.67 457.37 257.03 455.27 254.93 447.05 263.15 455.27 271.37 457.37 269.27 452.73 264.63 464.75 264.63 464.75 261.67"/><path class="cls-7" d="M201.34,214h-4.4a1,1,0,0,1-1-1V201.67a1,1,0,0,1,1-1H205V192.6a1,1,0,0,1,1-1h8.08v-8.08a1,1,0,0,1,1-1h8.08v-8.08a1,1,0,0,1,1-1h11.28a1,1,0,0,1,1,1v4.41a1,1,0,0,1-1,1h-5.88v8.08a1,1,0,0,1-1,1H220.5V197a1,1,0,0,1-1,1h-8.08v8.08a1,1,0,0,1-1,1h-8.08V213A1,1,0,0,1,201.34,214Zm-3.4-2h2.4v-5.87a1,1,0,0,1,1-1h8.08V197a1,1,0,0,1,1-1h8.08v-8.07a1,1,0,0,1,1-1h8.07v-8.08a1,1,0,0,1,1-1h5.88v-2.41h-9.28v8.08a1,1,0,0,1-1,1h-8.08v8.08a1,1,0,0,1-1,1H207v8.07a1,1,0,0,1-1,1h-8.07Z"/><polygon class="cls-7" points="213.9 180.6 217.78 176.72 217.78 178.77 219.93 178.77 219.93 173.05 214.21 173.05 214.21 175.2 216.26 175.2 212.37 179.09 213.9 180.6"/><polygon class="cls-7" points="201.67 190.49 197.78 194.38 197.78 192.33 195.63 192.33 195.63 198.05 201.35 198.05 201.35 195.9 199.31 195.9 203.19 192.01 201.67 190.49"/><polygon class="cls-3" points="641.13 211.44 641.13 220.52 632.05 220.52 632.05 229.6 622.97 229.6 622.97 238.67 613.9 238.67 613.9 249.95 618.3 249.95 618.3 243.08 627.38 243.08 627.38 234 636.46 234 636.46 224.93 645.53 224.93 645.53 215.85 652.4 215.85 652.4 211.44 641.13 211.44"/><polygon class="cls-4" points="630.85 217.6 634.74 213.72 634.74 215.77 636.89 215.77 636.89 210.05 631.17 210.05 631.17 212.2 633.22 212.2 629.33 216.09 630.85 217.6"/><polygon class="cls-4" points="618.63 227.49 614.75 231.38 614.75 229.33 612.6 229.33 612.6 235.05 618.31 235.05 618.31 232.9 616.26 232.9 620.15 229.01 618.63 227.49"/><polygon class="cls-7" points="567.48 243.75 565.55 241.82 572.25 235.13 578.61 241.49 576.69 243.42 572.25 238.98 567.48 243.75"/><polygon class="cls-7" points="586.38 243.54 580.01 237.17 581.93 235.24 586.38 239.68 591.14 234.91 593.07 236.84 586.38 243.54"/><path class="cls-7" d="M588.71,256h-18.8a7.32,7.32,0,0,1-7.31-7.31v-18.8a7.32,7.32,0,0,1,7.31-7.31h18.8a7.32,7.32,0,0,1,7.31,7.31v18.8A7.32,7.32,0,0,1,588.71,256Zm-18.8-31.33a5.22,5.22,0,0,0-5.22,5.22v18.8a5.23,5.23,0,0,0,5.22,5.23h18.8a5.23,5.23,0,0,0,5.22-5.23v-18.8a5.22,5.22,0,0,0-5.22-5.22Z"/><path class="cls-4" d="M140.83,169.47a.83.83,0,0,0-.46.79v2.87a.59.59,0,0,0,.66.66h3.57v-1.35a.59.59,0,0,1,.66-.66h3.17a.6.6,0,0,1,.66.66v5.05a.6.6,0,0,1-.66.66H136.54a.6.6,0,0,1-.66-.66v-9.74c0-.63.24-.89.86-1.22l7.86-4.22v-4.89a1.2,1.2,0,0,0-1.32-1.32h-1.59a1.17,1.17,0,0,0-1.32,1.32V160a.49.49,0,0,1-.53.53h-3.43a.48.48,0,0,1-.53-.53V156.5c0-3.11,1.65-4.76,4.76-4.76h3.69c3.07,0,4.76,1.65,4.76,4.76v7.79c0,.62-.27.89-.9,1.22Z"/><path class="cls-4" d="M152.38,156.5c0-3.11,1.65-4.76,4.76-4.76h3.69c3.11,0,4.76,1.65,4.76,4.76v16.9c0,3.1-1.65,4.75-4.76,4.75h-3.69c-3.11,0-4.76-1.65-4.76-4.75ZM160,173.89a1.17,1.17,0,0,0,1.32-1.32V157.32A1.18,1.18,0,0,0,160,156h-1.92a1.19,1.19,0,0,0-1.32,1.32v15.25a1.17,1.17,0,0,0,1.32,1.32Z"/><path class="cls-4" d="M182.12,162.57a2.38,2.38,0,0,1-2.08,2.34V165a2.38,2.38,0,0,1,2.08,2.34v6.08c0,3.1-1.68,4.75-4.79,4.75H173.5c-3,0-4.62-1.62-4.62-4.62v-1.09a.59.59,0,0,1,.66-.66h3.17a.59.59,0,0,1,.66.66v1.35h3.7a.59.59,0,0,0,.66-.66v-4.69a1.17,1.17,0,0,0-1.32-1.32h-3.9a.59.59,0,0,1-.66-.66v-3a.59.59,0,0,1,.66-.66h3.9a1.17,1.17,0,0,0,1.32-1.29v-4.72a.59.59,0,0,0-.66-.66h-3.7v1.35a.59.59,0,0,1-.66.66h-3.17a.59.59,0,0,1-.66-.66V156.1c0-2.84,1.62-4.36,4.62-4.36h3.83c3.11,0,4.79,1.65,4.79,4.76Z"/><polygon class="cls-6" points="164.75 455.67 152.73 455.67 157.37 451.03 155.27 448.93 147.05 457.15 155.27 465.37 157.37 463.27 152.73 458.63 164.75 458.63 164.75 455.67"/><polygon class="cls-6" points="164.75 649.67 152.73 649.67 157.37 645.03 155.27 642.93 147.05 651.15 155.27 659.37 157.37 657.27 152.73 652.63 164.75 652.63 164.75 649.67"/><polygon class="cls-6" points="291.39 462 291.39 449.98 296.02 454.61 298.12 452.51 289.9 444.3 281.69 452.51 283.78 454.61 288.42 449.98 288.42 462 291.39 462"/><circle class="cls-8" cx="512.5" cy="504.95" r="3.88" transform="translate(-34.51 37.6) rotate(-4.07)"/><path class="cls-8" d="M516.86,510.47h-8.72c-1.94,0-3.2,2.62-2.33,4.86L510.73,528a1.86,1.86,0,0,0,3.54,0l4.92-12.71C520.06,513.09,518.8,510.47,516.86,510.47Z"/><circle class="cls-8" cx="512.5" cy="462.54" r="3.88" transform="translate(-31.5 37.49) rotate(-4.07)"/><path class="cls-8" d="M507,486.92h11c1.94,0,3.19-2.4,2.33-4.44l-5.78-13.43a1.89,1.89,0,0,0-1.78-1.28h-.41a1.89,1.89,0,0,0-1.78,1.27l-5.87,13.44C503.83,484.52,505.08,486.92,507,486.92Z"/><circle class="cls-8" cx="474" cy="214.2" r="3.88" transform="translate(-13.99 34.14) rotate(-4.07)"/><path class="cls-8" d="M478.36,219.71h-8.72c-1.94,0-3.2,2.63-2.33,4.86l4.92,12.71a1.86,1.86,0,0,0,3.54,0l4.92-12.71C481.56,222.34,480.3,219.71,478.36,219.71Z"/><circle class="cls-8" cx="496" cy="214.2" r="3.88" transform="translate(-13.94 35.7) rotate(-4.07)"/><path class="cls-8" d="M490.52,238.58h11c1.94,0,3.19-2.41,2.33-4.45L498,220.7a1.9,1.9,0,0,0-1.78-1.28h-.41a1.89,1.89,0,0,0-1.78,1.27l-5.87,13.44C487.33,236.17,488.58,238.58,490.52,238.58Z"/><path class="cls-7" d="M347.65,389a2,2,0,0,1-1.77-2.94c3.78-7.13,3-15.23-1.86-20.18l-.11-.13-17.68-17.67a15.35,15.35,0,0,0-11-4.32,20,20,0,0,0-9.31,2.39,2,2,0,0,1-.94.23,2,2,0,0,1-1.81-2.86,33.06,33.06,0,0,1,13.22-14.76,22.18,22.18,0,0,1,10.95-3,20.62,20.62,0,0,1,6.41,1l1.38.46.86-1.18C347.78,309.91,364.75,301,383.79,301c1.68,0,3.41.07,5.13.2a2,2,0,0,1,1.84,1.83c1.37,16.27-3.06,30.5-13.16,42.29a65.86,65.86,0,0,1-11.66,10.59l-1.19.86.46,1.39a21.36,21.36,0,0,1-1.93,17.44,32.93,32.93,0,0,1-14.78,13.21A1.89,1.89,0,0,1,347.65,389Zm11.4-28.69a82.24,82.24,0,0,1-8.21,4.05l-2,.86,1.06,1.93a20.24,20.24,0,0,1,2.39,10.38l-.18,5.07,3.59-3.58c5.21-5.2,7.45-11.35,6.33-17.34l-.52-2.75ZM383.86,305c-28.45,0-46.28,20.62-53.48,39.92l-.45,1.2L345.86,362l1.22-.48C359.4,356.73,388,341.73,387,307l-.06-1.91-1.9,0Zm-68.61,34.76a20.09,20.09,0,0,1,9.54,2.36l1.94,1,.85-2a75.79,75.79,0,0,1,4-8.15l1.4-2.46-2.79-.49a15.84,15.84,0,0,0-2.83-.25c-5,0-10.08,2.34-14.34,6.59L309.4,340l5.09-.18ZM315.09,379a2.05,2.05,0,0,1-2-2.05c0-1,.06-10,4.18-14.15a9.15,9.15,0,0,1,6.34-2.81,8.08,8.08,0,0,1,5.78,2.61,8.46,8.46,0,0,1,2.63,5.95,8.7,8.7,0,0,1-2.84,6.21c-4.13,4.12-13,4.24-14,4.24Zm8.39-15a4.87,4.87,0,0,0-3.36,1.67c-1.18,1.18-2.05,3.37-2.59,6.52l-.48,2.78,2.78-.47c3.15-.54,5.35-1.41,6.54-2.6a4.81,4.81,0,0,0,1.67-3.34,4.45,4.45,0,0,0-1.46-3.1A4.37,4.37,0,0,0,323.48,364Zm44.11-35a4.5,4.5,0,0,1,0-9,4.5,4.5,0,1,1,0,9Z"/><path class="cls-7" d="M157.78,277.33a.79.79,0,0,1,.85.94l-3.87,34.2a.83.83,0,0,1-.94.86h-4.41a.93.93,0,0,1-1-.81l-4.68-20.34L139,312.56a.93.93,0,0,1-1,.77h-4.5a.83.83,0,0,1-.94-.86l-3.69-34.2a.79.79,0,0,1,.85-.94H134a.87.87,0,0,1,.94.85l1.76,21.06h.22l4.46-21.1a.93.93,0,0,1,1-.81h2.7a.94.94,0,0,1,1,.81l4.41,21.1h.22l1.85-21.06a.87.87,0,0,1,.94-.85Z"/><path class="cls-7" d="M180.28,288.67a.66.66,0,0,1-.72.72h-4.5a.64.64,0,0,1-.72-.72v-3.6a1.62,1.62,0,0,0-1.8-1.8H170.2a1.59,1.59,0,0,0-1.8,1.8v20.52a1.6,1.6,0,0,0,1.8,1.8h2.34a1.6,1.6,0,0,0,1.8-1.8V302a.64.64,0,0,1,.72-.72h4.5a.66.66,0,0,1,.72.72v4.86c0,4.23-2.3,6.48-6.48,6.48h-5c-4.23,0-6.53-2.25-6.53-6.48v-23c0-4.23,2.3-6.48,6.53-6.48h5c4.18,0,6.48,2.25,6.48,6.48Z"/><path class="cls-7" d="M196.66,278.05a.66.66,0,0,1,.72-.72H202c.54,0,.77.27.77.72v34.56c0,.45-.23.72-.77.72h-4.63a.66.66,0,0,1-.72-.72V298.3H190.9v14.31a.66.66,0,0,1-.72.72h-4.64c-.54,0-.76-.27-.76-.72V278.05c0-.45.22-.72.76-.72h4.64a.66.66,0,0,1,.72.72v14.31h5.76Z"/><path class="cls-7" d="M218.53,278.05a.66.66,0,0,1,.72-.72h10.8c4.23,0,6.48,2.25,6.48,6.48v11c0,4.18-2.25,6.48-6.48,6.48h-5.4v11.34a.64.64,0,0,1-.72.72h-4.68a.66.66,0,0,1-.72-.72Zm10.08,17.28a1.62,1.62,0,0,0,1.8-1.8v-8.46a1.6,1.6,0,0,0-1.8-1.8h-4v12.06Z"/><path class="cls-7" d="M255.7,313.33a.69.69,0,0,1-.72-.63l-1.26-6.57h-8l-1.22,6.57a.69.69,0,0,1-.72.63H239c-.5,0-.72-.27-.59-.77l7.47-34.6a.7.7,0,0,1,.77-.63h6.25a.7.7,0,0,1,.77.63l7.47,34.6c.09.5-.09.77-.63.77Zm-6-28.13-2.88,15.71h5.76Z"/><path class="cls-7" d="M277.93,277.33a.64.64,0,0,1,.72.72v4.5a.64.64,0,0,1-.72.72h-5.22v29.34a.63.63,0,0,1-.72.72h-4.68a.64.64,0,0,1-.72-.72V283.27h-5.22a.66.66,0,0,1-.72-.72v-4.5a.66.66,0,0,1,.72-.72Z"/><path class="cls-7" d="M287.65,277.33a.66.66,0,0,1,.72.72v34.56a.66.66,0,0,1-.72.72H283a.64.64,0,0,1-.72-.72V278.05a.64.64,0,0,1,.72-.72Z"/><path class="cls-7" d="M292.87,283.81c0-4.23,2.25-6.48,6.48-6.48h5c4.23,0,6.48,2.25,6.48,6.48v23c0,4.23-2.25,6.48-6.48,6.48h-5c-4.23,0-6.48-2.25-6.48-6.48Zm10.39,23.71a1.59,1.59,0,0,0,1.8-1.8V284.93a1.62,1.62,0,0,0-1.8-1.8h-2.61a1.62,1.62,0,0,0-1.8,1.8v20.79a1.59,1.59,0,0,0,1.8,1.8Z"/><path class="cls-4" d="M298.93,207.14A1.67,1.67,0,0,1,300.8,209v.86a.19.19,0,0,1-.21.21h-1.31a.19.19,0,0,1-.21-.21v-.55a.47.47,0,0,0-.52-.52h-.71a.47.47,0,0,0-.52.52v1.11l3.14,1a.48.48,0,0,1,.34.48v2.45a1.67,1.67,0,0,1-1.87,1.87h-1.46a1.68,1.68,0,0,1-1.87-1.87v-.85c0-.14.08-.2.21-.2h1.31c.14,0,.21.06.21.2v.55a.47.47,0,0,0,.52.52h.7a.46.46,0,0,0,.52-.52v-1.31l-3.12-1a.46.46,0,0,1-.35-.48V209a1.68,1.68,0,0,1,1.87-1.87Z"/><path class="cls-4" d="M302.1,207.35a.19.19,0,0,1,.21-.21h3.12A1.67,1.67,0,0,1,307.3,209v2.55a1.68,1.68,0,0,1-1.87,1.87l-1.64,0v2.6c0,.13-.06.2-.21.2h-1.27a.19.19,0,0,1-.21-.21Zm3,4.41a.47.47,0,0,0,.52-.52v-1.9a.46.46,0,0,0-.52-.52h-1.3v2.94Z"/><path class="cls-4" d="M308.47,209a1.67,1.67,0,0,1,1.87-1.87h1.46a1.67,1.67,0,0,1,1.87,1.87v5.36a1.67,1.67,0,0,1-1.87,1.87h-1.46a1.67,1.67,0,0,1-1.87-1.87Zm3,5.55A.46.46,0,0,0,312,214v-4.7a.47.47,0,0,0-.52-.52h-.83a.47.47,0,0,0-.52.52V214a.46.46,0,0,0,.52.52Z"/><path class="cls-4" d="M320.31,207.14a.19.19,0,0,1,.21.21V216a.19.19,0,0,1-.21.21h-1a.23.23,0,0,1-.24-.17l-2.44-5V216a.19.19,0,0,1-.21.21h-1.22A.19.19,0,0,1,315,216v-8.68a.19.19,0,0,1,.21-.21h1a.23.23,0,0,1,.23.17l2.44,5v-4.93a.19.19,0,0,1,.21-.21Z"/><path class="cls-4" d="M325.15,207.14A1.67,1.67,0,0,1,327,209v.86a.19.19,0,0,1-.21.21H325.5a.19.19,0,0,1-.21-.21v-.55a.47.47,0,0,0-.52-.52h-.71a.47.47,0,0,0-.52.52v1.11l3.14,1a.48.48,0,0,1,.34.48v2.45a1.67,1.67,0,0,1-1.87,1.87h-1.46a1.68,1.68,0,0,1-1.87-1.87v-.85c0-.14.08-.2.21-.2h1.31c.15,0,.21.06.21.2v.55a.47.47,0,0,0,.52.52h.7a.46.46,0,0,0,.52-.52v-1.31l-3.12-1a.46.46,0,0,1-.35-.48V209a1.68,1.68,0,0,1,1.87-1.87Z"/><path class="cls-4" d="M328.32,209a1.67,1.67,0,0,1,1.87-1.87h1.46a1.67,1.67,0,0,1,1.87,1.87v5.36a1.67,1.67,0,0,1-1.87,1.87h-1.46a1.67,1.67,0,0,1-1.87-1.87Zm3,5.55a.46.46,0,0,0,.52-.52v-4.7a.47.47,0,0,0-.52-.52h-.83a.47.47,0,0,0-.52.52V214a.46.46,0,0,0,.52.52Z"/><path class="cls-4" d="M340,211.63a1.72,1.72,0,0,1-.73,1.58L340,216c0,.15,0,.23-.18.23h-1.28a.2.2,0,0,1-.22-.18l-.62-2.56h-1.16V216a.19.19,0,0,1-.21.21H335a.19.19,0,0,1-.21-.21v-8.68a.19.19,0,0,1,.21-.21h3.12A1.67,1.67,0,0,1,340,209Zm-2.21.19a.47.47,0,0,0,.52-.52v-2a.47.47,0,0,0-.52-.52h-1.3v3Z"/><path class="cls-4" d="M344.65,207.14a1.67,1.67,0,0,1,1.87,1.87v.86a.19.19,0,0,1-.21.21H345a.19.19,0,0,1-.21-.21v-.55a.47.47,0,0,0-.52-.52h-.71a.47.47,0,0,0-.52.52v1.11l3.14,1a.48.48,0,0,1,.34.48v2.45a1.67,1.67,0,0,1-1.87,1.87h-1.46a1.68,1.68,0,0,1-1.87-1.87v-.85c0-.14.08-.2.21-.2h1.31c.15,0,.21.06.21.2v.55a.47.47,0,0,0,.52.52h.7a.46.46,0,0,0,.52-.52v-1.31l-3.12-1a.46.46,0,0,1-.35-.48V209a1.68,1.68,0,0,1,1.87-1.87Z"/><path class="cls-4" d="M351.25,207.35a.19.19,0,0,1,.21-.21h1.34c.16,0,.22.08.22.21V216c0,.13-.06.21-.22.21h-1.34a.19.19,0,0,1-.21-.21v-3.46h-1.66V216a.19.19,0,0,1-.21.21H348a.19.19,0,0,1-.22-.21v-8.68a.19.19,0,0,1,.22-.21h1.34a.19.19,0,0,1,.21.21v3.51h1.66Z"/><path class="cls-4" d="M354.53,216.24a.19.19,0,0,1-.21-.21v-8.68a.19.19,0,0,1,.21-.21h1.35a.19.19,0,0,1,.21.21V216a.19.19,0,0,1-.21.21Z"/><path class="cls-4" d="M357.39,207.35a.19.19,0,0,1,.21-.21h3.12a1.67,1.67,0,0,1,1.87,1.87v2.55a1.68,1.68,0,0,1-1.87,1.87l-1.64,0v2.6a.18.18,0,0,1-.21.2H357.6a.19.19,0,0,1-.21-.21Zm3,4.41a.47.47,0,0,0,.52-.52v-1.9a.46.46,0,0,0-.52-.52h-1.3v2.94Z"/><path class="cls-4" d="M371.87,207.14a.19.19,0,0,1,.21.21v1.3a.19.19,0,0,1-.21.21h-1.51V216c0,.15-.06.21-.2.21H368.8c-.13,0-.2-.06-.2-.21v-7.17h-1.51a.19.19,0,0,1-.21-.21v-1.3a.19.19,0,0,1,.21-.21Z"/><path class="cls-4" d="M377,216.24a.19.19,0,0,1-.2-.18l-.42-1.64h-2.44l-.41,1.64a.19.19,0,0,1-.21.18H372c-.14,0-.21-.08-.17-.22l2.16-8.7a.2.2,0,0,1,.22-.18H376a.21.21,0,0,1,.22.18l2.16,8.7c0,.14,0,.22-.19.22Zm-1.84-6.86-.82,3.53h1.64Z"/><path class="cls-4" d="M384.66,210.77a.94.94,0,0,1-.82.92v0a.93.93,0,0,1,.82.92v1.73a1.68,1.68,0,0,1-1.88,1.87h-3.12a.19.19,0,0,1-.21-.21v-8.68a.19.19,0,0,1,.21-.21h3.12a1.68,1.68,0,0,1,1.88,1.87ZM383,209.3a.46.46,0,0,0-.52-.52h-1.43v2.07h1.43a.47.47,0,0,0,.52-.51Zm0,3.78a.46.46,0,0,0-.52-.52h-1.43v2h1.43a.46.46,0,0,0,.52-.52Z"/><path class="cls-4" d="M387.73,214.52h2.57a.19.19,0,0,1,.21.21V216c0,.15-.06.21-.21.21h-4.13A.19.19,0,0,1,386,216v-8.68a.19.19,0,0,1,.21-.21h1.35a.19.19,0,0,1,.21.21Z"/><path class="cls-4" d="M391.63,216.24a.19.19,0,0,1-.21-.21v-8.68a.19.19,0,0,1,.21-.21H393a.19.19,0,0,1,.21.21V216a.19.19,0,0,1-.21.21Z"/><path class="cls-4" d="M399.83,207.14a.19.19,0,0,1,.21.21V216a.19.19,0,0,1-.21.21h-1c-.12,0-.18-.05-.24-.17l-2.44-5V216a.19.19,0,0,1-.21.21H394.7a.19.19,0,0,1-.21-.21v-8.68a.19.19,0,0,1,.21-.21h1a.23.23,0,0,1,.23.17l2.44,5v-4.93a.19.19,0,0,1,.21-.21Z"/><path class="cls-4" d="M401.34,209a1.67,1.67,0,0,1,1.87-1.87h1.46a1.68,1.68,0,0,1,1.87,1.87v1a.19.19,0,0,1-.21.21h-1.22a.19.19,0,0,1-.21-.21v-.63a.47.47,0,0,0-.52-.52h-.83a.46.46,0,0,0-.52.52V214a.46.46,0,0,0,.52.52h.83a.46.46,0,0,0,.52-.52v-1.13h-.67a.19.19,0,0,1-.21-.21v-1.3c0-.14.06-.2.21-.2h2.1c.13,0,.21.06.21.2v3a1.68,1.68,0,0,1-1.87,1.87h-1.46a1.67,1.67,0,0,1-1.87-1.87Z"/><path class="cls-7" d="M267.18,28.32A1,1,0,0,1,266,29.45h-17.6V43.72h13.34a1.05,1.05,0,0,1,1.14,1.14V52a1,1,0,0,1-1.14,1.14H248.44V75.75a1,1,0,0,1-1.14,1.13h-7.38a1,1,0,0,1-1.14-1.13V21.22a1,1,0,0,1,1.14-1.14H266a1.05,1.05,0,0,1,1.14,1.14Z"/><path class="cls-7" d="M283.23,67.51h16.89a1,1,0,0,1,1.14,1.14v7.1c0,.78-.35,1.13-1.14,1.13H274.71a1,1,0,0,1-1.14-1.13V21.22a1.05,1.05,0,0,1,1.14-1.14h7.38a1,1,0,0,1,1.14,1.14Z"/><path class="cls-7" d="M306.23,30.31c0-6.68,3.55-10.23,10.22-10.23h8c6.67,0,10.22,3.55,10.22,10.23V66.66c0,6.67-3.55,10.22-10.22,10.22h-8c-6.67,0-10.22-3.55-10.22-10.22Zm16.4,37.41a2.52,2.52,0,0,0,2.84-2.84V32.08a2.55,2.55,0,0,0-2.84-2.84h-4.12a2.55,2.55,0,0,0-2.84,2.84v32.8a2.52,2.52,0,0,0,2.84,2.84Z"/><path class="cls-7" d="M341.73,30.31c0-6.68,3.55-10.23,10.22-10.23h8c6.67,0,10.22,3.55,10.22,10.23V66.66c0,6.67-3.55,10.22-10.22,10.22h-8c-6.67,0-10.22-3.55-10.22-10.22Zm16.4,37.41A2.52,2.52,0,0,0,361,64.88V32.08a2.55,2.55,0,0,0-2.84-2.84H354a2.55,2.55,0,0,0-2.84,2.84v32.8A2.52,2.52,0,0,0,354,67.72Z"/><path class="cls-7" d="M406.41,47.63c0,4.76-1.77,7.88-5.18,9.37l4.9,18.6c.21.86-.22,1.28-1,1.28h-7.38a1.11,1.11,0,0,1-1.21-1l-4.75-18h-4.9v17.9a1,1,0,0,1-1.14,1.13h-7.38a1,1,0,0,1-1.14-1.13V21.22a1.05,1.05,0,0,1,1.14-1.14h17.82c6.67,0,10.22,3.55,10.22,10.23Zm-12.49.85a2.54,2.54,0,0,0,2.83-2.84V32.29a2.55,2.55,0,0,0-2.83-2.84h-7v19Z"/><path class="cls-7" d="M457.1,20.08a1,1,0,0,1,1.14,1.14v7.1a1,1,0,0,1-1.14,1.13h-8.23v46.3c0,.78-.36,1.13-1.14,1.13h-7.38a1,1,0,0,1-1.14-1.13V29.45H431a1,1,0,0,1-1.14-1.13v-7.1A1.05,1.05,0,0,1,431,20.08Z"/><path class="cls-7" d="M509.5,20.08a1.25,1.25,0,0,1,1.35,1.49l-6.11,54a1.3,1.3,0,0,1-1.49,1.35h-7a1.47,1.47,0,0,1-1.56-1.28l-7.38-32.09-7.46,32.16a1.47,1.47,0,0,1-1.56,1.21h-7.1a1.31,1.31,0,0,1-1.49-1.35l-5.82-54a1.25,1.25,0,0,1,1.35-1.49H472a1.38,1.38,0,0,1,1.49,1.35l2.77,33.23h.36l7-33.3a1.48,1.48,0,0,1,1.56-1.28h4.26A1.48,1.48,0,0,1,491,21.36l7,33.3h.35l2.91-33.23a1.39,1.39,0,0,1,1.5-1.35Z"/><path class="cls-7" d="M515.82,30.31c0-6.68,3.55-10.23,10.22-10.23h8c6.67,0,10.22,3.55,10.22,10.23V66.66c0,6.67-3.55,10.22-10.22,10.22h-8c-6.67,0-10.22-3.55-10.22-10.22Zm16.4,37.41a2.52,2.52,0,0,0,2.84-2.84V32.08a2.55,2.55,0,0,0-2.84-2.84H528.1a2.55,2.55,0,0,0-2.84,2.84v32.8a2.52,2.52,0,0,0,2.84,2.84Z"/><path class="cls-4" d="M322.86,591.29a.23.23,0,0,1,.26-.25h1.64c.2,0,.28.09.28.25V602c0,.16-.08.26-.28.26h-1.64a.24.24,0,0,1-.26-.26v-4.25h-2.05V602a.24.24,0,0,1-.26.26H318.9a.24.24,0,0,1-.27-.26V591.29c0-.16.08-.25.27-.25h1.65a.23.23,0,0,1,.26.25v4.32h2.05Z"/><path class="cls-4" d="M332.31,602.24a.24.24,0,0,1-.25-.22l-.51-2h-3l-.5,2a.24.24,0,0,1-.25.22h-1.57c-.18,0-.26-.1-.21-.27l2.66-10.71a.24.24,0,0,1,.27-.22h2.22a.25.25,0,0,1,.28.22L334.09,602c.05.17,0,.27-.22.27ZM330,593.79l-1,4.35h2Z"/><path class="cls-4" d="M341.63,596.56a2.13,2.13,0,0,1-.9,2l.83,3.44c.05.19,0,.29-.22.29h-1.57a.25.25,0,0,1-.27-.22l-.77-3.16H337.3V602a.23.23,0,0,1-.25.26h-1.57a.24.24,0,0,1-.26-.26V591.29a.23.23,0,0,1,.26-.25h3.84a2.06,2.06,0,0,1,2.31,2.3Zm-2.72.24a.58.58,0,0,0,.64-.64v-2.42a.58.58,0,0,0-.64-.64H337.3v3.7Z"/><path class="cls-4" d="M343.22,591.29c0-.16.08-.25.26-.25h3.84a2.07,2.07,0,0,1,2.31,2.32v6.58a2.06,2.06,0,0,1-2.31,2.3h-3.84c-.18,0-.26-.08-.26-.26Zm3.66,8.84a.56.56,0,0,0,.63-.64V593.8a.57.57,0,0,0-.63-.65H345.4v7Z"/><path class="cls-4" d="M361.47,591c.22,0,.34.12.3.33L360.24,602a.32.32,0,0,1-.36.29h-1.72a.34.34,0,0,1-.36-.29l-1.47-6.56L354.84,602a.34.34,0,0,1-.35.29h-1.76a.31.31,0,0,1-.35-.3l-1.47-10.57c0-.21.07-.33.3-.33h1.5a.3.3,0,0,1,.34.3l.78,6.69h.08l1.57-6.72a.33.33,0,0,1,.36-.27h1a.32.32,0,0,1,.35.27l1.57,6.72h.08l.82-6.69a.3.3,0,0,1,.33-.3Z"/><path class="cls-4" d="M368.22,602.24c-.15,0-.22-.08-.26-.22l-.51-2h-3l-.49,2a.26.26,0,0,1-.26.22h-1.57c-.17,0-.25-.1-.21-.27l2.66-10.71a.25.25,0,0,1,.27-.22h2.23a.25.25,0,0,1,.27.22L370,602c0,.17,0,.27-.23.27ZM366,593.79l-1,4.35h2Z"/><path class="cls-4" d="M377.53,596.56a2.11,2.11,0,0,1-.9,2l.84,3.44c0,.19-.05.29-.23.29h-1.57a.26.26,0,0,1-.27-.22l-.77-3.16h-1.42V602a.24.24,0,0,1-.26.26h-1.57a.23.23,0,0,1-.25-.26V591.29a.23.23,0,0,1,.25-.25h3.85a2.06,2.06,0,0,1,2.3,2.3Zm-2.72.24a.58.58,0,0,0,.64-.64v-2.42a.58.58,0,0,0-.64-.64h-1.6v3.7Z"/><path class="cls-4" d="M385.52,592.89c0,.16-.07.28-.26.28h-3.95v2.46h3a.24.24,0,0,1,.26.27v1.59a.24.24,0,0,1-.26.27h-3v2.37h3.95c.19,0,.26.08.26.25V602a.23.23,0,0,1-.26.26h-5.89a.23.23,0,0,1-.24-.26V591.29a.22.22,0,0,1,.24-.25h5.89c.19,0,.26.09.26.25Z"/><path class="cls-4" d="M391.11,591.29c0-.16.08-.25.26-.25h3.84a2.08,2.08,0,0,1,2.31,2.32v6.58a2.07,2.07,0,0,1-2.31,2.3h-3.84c-.18,0-.26-.08-.26-.26Zm3.65,8.84a.57.57,0,0,0,.64-.64V593.8a.57.57,0,0,0-.64-.65h-1.47v7Z"/><path class="cls-4" d="M399.37,602.24a.23.23,0,0,1-.26-.26V591.29c0-.16.08-.25.26-.25H401a.23.23,0,0,1,.26.25V602a.24.24,0,0,1-.26.26Z"/><path class="cls-4" d="M407,591a2.06,2.06,0,0,1,2.3,2.3v1.06a.22.22,0,0,1-.25.25h-1.62a.23.23,0,0,1-.26-.25v-.68a.57.57,0,0,0-.64-.64h-.88a.58.58,0,0,0-.64.64v1.37l3.88,1.24a.58.58,0,0,1,.41.6v3a2.06,2.06,0,0,1-2.3,2.3h-1.8a2.07,2.07,0,0,1-2.3-2.3v-1c0-.18.09-.26.25-.26h1.62c.18,0,.26.08.26.26v.67a.58.58,0,0,0,.64.64h.86a.57.57,0,0,0,.64-.64V598l-3.84-1.25a.56.56,0,0,1-.43-.59v-2.77a2.07,2.07,0,0,1,2.3-2.3Z"/><path class="cls-4" d="M416.23,591c.18,0,.26.09.26.25v1.6a.23.23,0,0,1-.26.26h-1.85V602c0,.18-.08.26-.26.26h-1.66a.23.23,0,0,1-.26-.26v-8.83h-1.86a.23.23,0,0,1-.25-.26v-1.6a.23.23,0,0,1,.25-.25Z"/><path class="cls-4" d="M424.17,596.56a2.12,2.12,0,0,1-.89,2l.83,3.44c0,.19-.05.29-.23.29h-1.57A.25.25,0,0,1,422,602l-.77-3.16h-1.42V602a.24.24,0,0,1-.26.26H418a.24.24,0,0,1-.26-.26V591.29A.23.23,0,0,1,418,591h3.84a2.06,2.06,0,0,1,2.3,2.3Zm-2.72.24a.58.58,0,0,0,.64-.64v-2.42a.58.58,0,0,0-.64-.64h-1.6v3.7Z"/><path class="cls-4" d="M426,602.24a.23.23,0,0,1-.26-.26V591.29c0-.16.08-.25.26-.25h1.66a.23.23,0,0,1,.26.25V602a.24.24,0,0,1-.26.26Z"/><path class="cls-4" d="M436,595.5a1.16,1.16,0,0,1-1,1.14v0a1.15,1.15,0,0,1,1,1.14v2.13a2.07,2.07,0,0,1-2.32,2.3H429.8a.24.24,0,0,1-.26-.26V591.29a.23.23,0,0,1,.26-.25h3.84a2.07,2.07,0,0,1,2.32,2.3Zm-2-1.81a.57.57,0,0,0-.64-.64h-1.76v2.55h1.76a.57.57,0,0,0,.64-.63Zm0,4.66a.57.57,0,0,0-.64-.64h-1.76v2.51h1.76a.56.56,0,0,0,.64-.64Z"/><path class="cls-4" d="M443.64,591a.32.32,0,0,1,.32.32v8.58a2.06,2.06,0,0,1-2.3,2.3h-1.79a2.06,2.06,0,0,1-2.31-2.3v-8.58a.32.32,0,0,1,.32-.32h1.54a.32.32,0,0,1,.32.32v8.13a.57.57,0,0,0,.64.64h.83a.57.57,0,0,0,.64-.64v-8.13a.32.32,0,0,1,.32-.32Z"/><path class="cls-4" d="M451.39,591a.22.22,0,0,1,.25.25v1.6a.23.23,0,0,1-.25.26h-1.86V602c0,.18-.08.26-.26.26h-1.66a.23.23,0,0,1-.26-.26v-8.83H445.5a.24.24,0,0,1-.26-.26v-1.6a.23.23,0,0,1,.26-.25Z"/><path class="cls-4" d="M453,602.24a.23.23,0,0,1-.26-.26V591.29c0-.16.08-.25.26-.25h1.66a.23.23,0,0,1,.26.25V602a.24.24,0,0,1-.26.26Z"/><path class="cls-4" d="M456.54,593.34a2.06,2.06,0,0,1,2.3-2.3h1.79a2.06,2.06,0,0,1,2.31,2.3v6.6a2.06,2.06,0,0,1-2.31,2.3h-1.79a2.06,2.06,0,0,1-2.3-2.3Zm3.74,6.84a.57.57,0,0,0,.64-.64v-5.8a.58.58,0,0,0-.64-.64h-1a.58.58,0,0,0-.64.64v5.8a.57.57,0,0,0,.64.64Z"/><path class="cls-4" d="M471.12,591a.23.23,0,0,1,.25.25V602a.23.23,0,0,1-.25.26h-1.27a.29.29,0,0,1-.29-.21l-3-6.11V602a.23.23,0,0,1-.25.26h-1.51a.23.23,0,0,1-.25-.26V591.29a.23.23,0,0,1,.25-.25h1.27a.3.3,0,0,1,.29.2l3,6.12v-6.07c0-.16.08-.25.26-.25Z"/><path class="cls-7" d="M31.05,132.94a1.8,1.8,0,0,1,2,2v.93a.2.2,0,0,1-.22.22H31.43a.2.2,0,0,1-.22-.22v-.59a.49.49,0,0,0-.56-.56h-.77a.51.51,0,0,0-.56.56v1.19l3.39,1.09a.5.5,0,0,1,.36.52v2.63a1.81,1.81,0,0,1-2,2H29.49a1.81,1.81,0,0,1-2-2v-.91a.2.2,0,0,1,.22-.22h1.42a.19.19,0,0,1,.22.22v.59a.5.5,0,0,0,.56.56h.76a.5.5,0,0,0,.56-.56V139l-3.36-1.1a.49.49,0,0,1-.38-.51V135a1.81,1.81,0,0,1,2-2Z"/><path class="cls-7" d="M34.47,133.16a.2.2,0,0,1,.22-.22h3.36a1.8,1.8,0,0,1,2,2v2.75a1.81,1.81,0,0,1-2,2l-1.76,0v2.8c0,.14-.07.22-.23.22H34.69a.2.2,0,0,1-.22-.22Zm3.22,4.75a.5.5,0,0,0,.56-.56v-2a.5.5,0,0,0-.56-.56l-1.4,0v3.16Z"/><path class="cls-7" d="M41.33,135a1.8,1.8,0,0,1,2-2h1.56a1.8,1.8,0,0,1,2,2v5.77a1.81,1.81,0,0,1-2,2H43.35a1.81,1.81,0,0,1-2-2Zm3.28,6a.5.5,0,0,0,.56-.56V135.3a.51.51,0,0,0-.56-.56h-.9a.51.51,0,0,0-.56.56v5.07a.5.5,0,0,0,.56.56Z"/><path class="cls-7" d="M54.08,132.94a.2.2,0,0,1,.23.22v9.36a.2.2,0,0,1-.23.22H53a.25.25,0,0,1-.25-.18l-2.64-5.35v5.31a.2.2,0,0,1-.22.22H48.55a.2.2,0,0,1-.22-.22v-9.36a.2.2,0,0,1,.22-.22h1.11a.24.24,0,0,1,.25.18l2.63,5.35v-5.31c0-.14.07-.22.23-.22Z"/><path class="cls-7" d="M59.29,132.94a1.8,1.8,0,0,1,2,2v.93c0,.14-.07.22-.23.22H59.67a.2.2,0,0,1-.22-.22v-.59a.5.5,0,0,0-.56-.56h-.77a.51.51,0,0,0-.56.56v1.19L61,137.57a.51.51,0,0,1,.36.52v2.63a1.81,1.81,0,0,1-2,2H57.72a1.81,1.81,0,0,1-2-2v-.91a.2.2,0,0,1,.22-.22h1.41c.16,0,.23.07.23.22v.59a.5.5,0,0,0,.56.56h.76a.5.5,0,0,0,.56-.56V139l-3.37-1.1a.49.49,0,0,1-.37-.51V135a1.81,1.81,0,0,1,2-2Z"/><path class="cls-7" d="M62.71,135a1.8,1.8,0,0,1,2-2h1.57a1.8,1.8,0,0,1,2,2v5.77a1.81,1.81,0,0,1-2,2H64.72a1.8,1.8,0,0,1-2-2Zm3.27,6a.49.49,0,0,0,.56-.56V135.3a.5.5,0,0,0-.56-.56h-.89a.5.5,0,0,0-.56.56v5.07a.49.49,0,0,0,.56.56Z"/><path class="cls-7" d="M75.31,137.77a1.87,1.87,0,0,1-.79,1.71l.73,3c0,.17,0,.25-.19.25H73.68a.21.21,0,0,1-.23-.2l-.68-2.75H71.53v2.73a.21.21,0,0,1-.23.22H69.93a.2.2,0,0,1-.22-.22v-9.36a.2.2,0,0,1,.22-.22h3.36a1.8,1.8,0,0,1,2,2Zm-2.38.21a.51.51,0,0,0,.56-.56V135.3a.51.51,0,0,0-.56-.56h-1.4V138Z"/><path class="cls-7" d="M82.11,140.89h2.77a.21.21,0,0,1,.23.23v1.4c0,.15-.07.22-.23.22H80.43a.2.2,0,0,1-.22-.22v-9.36a.2.2,0,0,1,.22-.22h1.46a.2.2,0,0,1,.22.22Z"/><path class="cls-7" d="M86.09,135a1.8,1.8,0,0,1,2-2h1.57a1.8,1.8,0,0,1,2,2v5.77a1.81,1.81,0,0,1-2,2H88.1a1.8,1.8,0,0,1-2-2Zm3.27,6a.49.49,0,0,0,.56-.56V135.3a.5.5,0,0,0-.56-.56h-.89a.5.5,0,0,0-.56.56v5.07a.49.49,0,0,0,.56.56Z"/><path class="cls-7" d="M98.41,132.94a.28.28,0,0,1,.28.28v7.5a1.81,1.81,0,0,1-2,2H95.1a1.8,1.8,0,0,1-2-2v-7.5a.27.27,0,0,1,.28-.28h1.34a.27.27,0,0,1,.28.28v7.11a.5.5,0,0,0,.56.56h.73a.5.5,0,0,0,.56-.56v-7.11a.28.28,0,0,1,.28-.28Z"/><path class="cls-7" d="M105.84,132.94a.21.21,0,0,1,.23.22v9.36a.21.21,0,0,1-.23.22h-1.1a.27.27,0,0,1-.26-.18l-2.63-5.35v5.31a.2.2,0,0,1-.22.22h-1.32a.2.2,0,0,1-.22-.22v-9.36a.2.2,0,0,1,.22-.22h1.11a.25.25,0,0,1,.25.18l2.63,5.35v-5.31c0-.14.07-.22.23-.22Z"/><path class="cls-7" d="M107.46,135a1.8,1.8,0,0,1,2-2h1.57a1.81,1.81,0,0,1,2,2v1a.21.21,0,0,1-.23.22h-1.31c-.16,0-.23-.08-.23-.22v-.69a.5.5,0,0,0-.56-.56h-.89a.5.5,0,0,0-.56.56v5.07a.49.49,0,0,0,.56.56h.89a.49.49,0,0,0,.56-.56v-1.22h-.73a.2.2,0,0,1-.22-.22v-1.4a.19.19,0,0,1,.22-.22h2.27a.2.2,0,0,1,.23.22v3.19a1.82,1.82,0,0,1-2,2h-1.57a1.81,1.81,0,0,1-2-2Z"/><path class="cls-7" d="M120.05,134.56c0,.14,0,.24-.22.24h-3.46V137H119a.21.21,0,0,1,.23.23v1.39a.22.22,0,0,1-.23.24h-2.63v2.07h3.46c.17,0,.22.07.22.23v1.4c0,.14,0,.22-.22.22h-5.16a.2.2,0,0,1-.21-.22v-9.36a.2.2,0,0,1,.21-.22h5.16c.17,0,.22.08.22.22Z"/><line class="cls-9" x1="80" y1="148" x2="81.5" y2="148"/><line class="cls-10" x1="86.57" y1="148" x2="148.96" y2="148"/><line class="cls-9" x1="151.5" y1="148" x2="153" y2="148"/></g></svg>