<svg xmlns="http://www.w3.org/2000/svg" viewBox="0 0 1831.73 819.05"><defs><style>.cls-1,.cls-10,.cls-11,.cls-12,.cls-2,.cls-5,.cls-6,.cls-7,.cls-9{fill:none;}.cls-1,.cls-2{stroke:#fff;}.cls-1,.cls-11,.cls-2,.cls-5,.cls-6,.cls-7,.cls-9{stroke-linecap:round;stroke-linejoin:round;}.cls-1,.cls-10,.cls-11{stroke-width:3px;}.cls-2{stroke-width:2.96px;}.cls-3{fill:#fff;}.cls-4{fill:#c0c9ff;}.cls-10,.cls-11,.cls-5,.cls-6,.cls-7,.cls-9{stroke:#30384f;}.cls-5,.cls-6{stroke-width:3.28px;}.cls-6{stroke-dasharray:3.04 5.07;}.cls-7{stroke-width:2px;}.cls-8{fill:#30384f;}.cls-9{stroke-width:1.8px;}.cls-10{stroke-miterlimit:10;}</style></defs><title>map2020</title><g id="bourns"><g id="bourns-2" data-name="bourns"><path class="cls-1" d="M604.72,133.38v5.9a5,5,0,0,0,5,5h78.53a5,5,0,0,0,5-5v-5.72"/><path class="cls-1" d="M604.72,261.18v-5.9a5,5,0,0,1,5-5H628.2"/><path class="cls-1" d="M266.66,292.92h71.15a7.94,7.94,0,0,0,7.94-7.94V257.81a5,5,0,0,1,5-5h7.47a5,5,0,0,1,5,5V285a7.94,7.94,0,0,0,7.94,7.94H467.3a7.94,7.94,0,0,0,7.93-7.94V257.81a5,5,0,0,1,5-5h7.47a5,5,0,0,1,5,5V285a7.94,7.94,0,0,0,7.94,7.94h96.14a8,8,0,0,0,7.94-7.94v-2.91"/><path class="cls-1" d="M223.14,248.53l10.59.06V285a8,8,0,0,0,7.94,7.94h1.39"/><path class="cls-1" d="M604.72,112.49v-2.91a8,8,0,0,0-7.94-7.94H500.64a7.94,7.94,0,0,0-7.94,7.94v17.36H475.23V109.58a7.94,7.94,0,0,0-7.93-7.94H371.16a7.94,7.94,0,0,0-7.94,7.94v17.36H345.75V109.58a7.94,7.94,0,0,0-7.94-7.94H241.67a8,8,0,0,0-7.94,7.94V146h-103v12.89l-13.25,7.22v62.64l14.46,6V248l72.29.43"/><path class="cls-2" d="M693.25,113.09v-7.23a4.89,4.89,0,0,1,4.93-4.82H805A5,5,0,0,1,810,106v34.1a4.94,4.94,0,0,0,4.93,4.93h78.19a5,5,0,0,1,4.93,4.94V249a5,5,0,0,1-4.93,4.93H815a5,5,0,0,0-4.93,4.93v28.78a5.05,5.05,0,0,1-4.93,5l-10.86.18c-2.71.05-7.14.09-9.86.09H700.7a7.84,7.84,0,0,1-7.94-7.72v-2.83"/><path class="cls-1" d="M669.2,250.32h18.6c2.75,0,5,1.89,5,4.21v4.22"/></g><path class="cls-3" d="M865.36,355.13a2.38,2.38,0,0,1-2.08,2.34v.06a2.39,2.39,0,0,1,2.08,2.35V366c0,3.1-1.69,4.75-4.79,4.75h-7.92a.48.48,0,0,1-.53-.52V344.83a.47.47,0,0,1,.53-.53h7.92c3.1,0,4.79,1.65,4.79,4.75ZM861,350a1.17,1.17,0,0,0-1.32-1.32h-3v6.66h3A1.17,1.17,0,0,0,861,354Zm0,11a1.17,1.17,0,0,0-1.32-1.32h-3v6.67h3A1.17,1.17,0,0,0,861,365Z"/><path class="cls-3" d="M883.77,344.3c.5,0,.73.3.53.76l-6,14.69V370a.59.59,0,0,1-.66.66h-3.17a.59.59,0,0,1-.66-.66V359.75l-6-14.69c-.2-.46,0-.76.53-.76h3.3a.71.71,0,0,1,.76.53l3.7,9.47,3.69-9.47a.72.72,0,0,1,.76-.53Z"/><path class="cls-3" d="M898.69,344.3a.47.47,0,0,1,.52.53v3.3a.47.47,0,0,1-.52.53h-3.83v21.52c0,.36-.17.52-.53.52H890.9a.47.47,0,0,1-.53-.52V348.66h-3.83a.49.49,0,0,1-.53-.53v-3.3a.49.49,0,0,1,.53-.53Z"/><path class="cls-3" d="M914.69,348.13c0,.33-.13.56-.53.56h-8.25v6.6h6.31a.5.5,0,0,1,.53.56v3.27a.5.5,0,0,1-.53.56h-6.31v6.67h8.25c.4,0,.53.16.53.53v3.3c0,.33-.13.52-.53.52H902a.47.47,0,0,1-.5-.52V344.83a.48.48,0,0,1,.5-.53h12.14c.4,0,.53.2.53.53Z"/><path class="cls-3" d="M925.45,344.3c3.1,0,4.75,1.65,4.75,4.75v3.5a.47.47,0,0,1-.53.53h-3.43a.49.49,0,0,1-.53-.53V350a1.17,1.17,0,0,0-1.32-1.32h-1.58a1.2,1.2,0,0,0-1.32,1.32v4.55l7.85,2.58a1.21,1.21,0,0,1,.86,1.22V366c0,3.1-1.65,4.75-4.75,4.75h-3.7c-3.07,0-4.75-1.65-4.75-4.75v-3.46a.47.47,0,0,1,.53-.53H921c.36,0,.53.16.53.53V365a1.18,1.18,0,0,0,1.32,1.32h1.58a1.17,1.17,0,0,0,1.32-1.32v-4.39l-7.82-2.58a1.18,1.18,0,0,1-.89-1.22v-7.79c0-3.1,1.68-4.75,4.75-4.75Z"/><path class="cls-3" d="M941.75,344.83a.49.49,0,0,1,.53-.53h7.92c3.1,0,4.75,1.65,4.75,4.75v8.06c0,3.07-1.65,4.75-4.75,4.75h-4v8.32a.47.47,0,0,1-.53.52h-3.43a.48.48,0,0,1-.53-.52Zm7.39,12.67a1.18,1.18,0,0,0,1.32-1.32V350a1.17,1.17,0,0,0-1.32-1.32h-2.9v8.84Z"/><path class="cls-3" d="M969,370.7a.51.51,0,0,1-.53-.46l-.92-4.82h-5.88l-.89,4.82a.5.5,0,0,1-.53.46h-3.53c-.36,0-.53-.19-.43-.56l5.48-25.38a.52.52,0,0,1,.56-.46h4.59a.51.51,0,0,1,.56.46L973,370.14c.07.37-.07.56-.46.56Zm-4.39-20.62-2.11,11.51h4.22Z"/><path class="cls-3" d="M985.31,344.3a.47.47,0,0,1,.53.53v3.3a.47.47,0,0,1-.53.53h-3.83v21.52c0,.36-.16.52-.52.52h-3.44a.46.46,0,0,1-.52-.52V348.66h-3.83a.49.49,0,0,1-.53-.53v-3.3a.49.49,0,0,1,.53-.53Z"/><path class="cls-3" d="M992.44,344.3a.49.49,0,0,1,.53.53v25.35a.48.48,0,0,1-.53.52H989a.46.46,0,0,1-.53-.52V344.83a.47.47,0,0,1,.53-.53Z"/><path class="cls-3" d="M996.27,349.05c0-3.1,1.65-4.75,4.75-4.75h3.7c3.1,0,4.75,1.65,4.75,4.75V366c0,3.1-1.65,4.75-4.75,4.75H1001c-3.1,0-4.75-1.65-4.75-4.75Zm7.62,17.4a1.17,1.17,0,0,0,1.32-1.32V349.88a1.18,1.18,0,0,0-1.32-1.32H1002a1.18,1.18,0,0,0-1.32,1.32v15.25a1.17,1.17,0,0,0,1.32,1.32Z"/></g><g id="bourns-3" data-name="bourns"><path class="cls-4" d="M233.73,241.36V152.23a2.4,2.4,0,0,0-2.4-2.41H138.58a2.41,2.41,0,0,0-2.41,2.41v9.35a2.4,2.4,0,0,1-1.33,2.16l-11.79,5.89a2.41,2.41,0,0,0-1.33,2.16V223a2.41,2.41,0,0,0,1.4,2.19L136,231.08a2.43,2.43,0,0,1,1.4,2.19v8.09h0a2.4,2.4,0,0,0,2.4,2.41h91.55a2.4,2.4,0,0,0,2.4-2.41Z"/><rect class="cls-4" x="251.8" y="163.07" width="34.93" height="42.16" rx="5"/><rect class="cls-4" x="237.35" y="207.64" width="49.38" height="40.95" rx="5"/><path class="cls-4" d="M345.13,169.09c-2.75,0-5-1.35-5-3s-2.25-3-5-3H321a5,5,0,0,0-5,5v2.05a5,5,0,0,1-5,5H295.75a5,5,0,0,0-5,5v63.47a5,5,0,0,0,5,5h51.43a5,5,0,0,0,5-5V172.11c0-1.66-2.25-3-5-3Z"/><path class="cls-4" d="M370.83,161.87c-2.75,0-5,1.62-5,3.61s-2.17,3.61-4.82,3.61a4.93,4.93,0,0,0-4.82,5v69.5a4.93,4.93,0,0,0,4.82,5h51.61a5,5,0,0,0,5-5V166.87a5,5,0,0,0-5-5Z"/><path class="cls-4" d="M473.43,166.87a5,5,0,0,0-5-5h-41.8a5,5,0,0,0-5,5v76.72a5,5,0,0,0,5,5h32.16a5,5,0,0,0,5-5v-4.45a4.93,4.93,0,0,1,4.82-5,4.93,4.93,0,0,0,4.82-5Z"/><path class="cls-4" d="M559,229.14a5,5,0,0,1-5,5H495.29a7.08,7.08,0,0,1-6.4-4.8s-4.62-15.82-4.62-31.34c0-8.57,5-31.25,5-31.25a6.52,6.52,0,0,1,6.07-4.88H554a5,5,0,0,1,5,5Z"/><path class="cls-4" d="M580.81,199.21c-2.75,0-5-1.09-5-2.41s-2.25-2.41-5-2.41h-5.66a5,5,0,0,0-5,5V219.5a5,5,0,0,0,5,5h5.66a5,5,0,0,0,5-5v-5.66c0-2.75,1.08-5,2.41-5s2.41,2.25,2.41,5v5.66a5,5,0,0,0,5,5h.84a5,5,0,0,0,5-5V202.22c0-1.66-2.25-3-5-3Z"/><path class="cls-4" d="M585.63,171.5c-2.75,0-5,1.9-5,4.22s-.82,4.21-1.81,4.21-1.81-2.16-1.81-4.81a4.93,4.93,0,0,0-5-4.82h-6.86a5,5,0,0,0-5,5V187a5,5,0,0,0,5,5h12.47c.33,0,.6.81.6,1.81s.54,1.8,1.2,1.8h7.83c2.32,0,4.22-2.25,4.22-5V176.5a5,5,0,0,0-5-5Z"/><path class="cls-4" d="M619.17,198v-3c0-1.66,2.17-3.55,4.82-4.21a4.56,4.56,0,0,0,3.24-5.95l-2.86-8.58a7.44,7.44,0,0,0-6.59-4.75h-8.06c-2.75,0-5,1.9-5,4.22s-2.25,4.21-5,4.21h-.84c-2.75,0-5-1.62-5-3.61s.54-3.61,1.2-3.61,1.21-2.25,1.21-5V153.62a5,5,0,0,1,5-5h86.35a5,5,0,0,1,5,5v9.27a5,5,0,0,1-5,5H672.35a5,5,0,0,0-5,5v50.22a5,5,0,0,0,5,5h15.29a5,5,0,0,1,5,5v5.66a5,5,0,0,1-5,5H671.15c-2.75,0-5,1.36-5,3s-2.25,3-5,3H636.22c-2.75,0-5-1.36-5-3s-2.25-3-5-3H601.29a5,5,0,0,1-5-5V227.09c0-2.75-.55-5-1.21-5s-1.2-1.62-1.2-3.61,2.25-3.61,5-3.61h.84c2.75,0,5,.27,5,.6v4.82c0,2.31,2.25,4.21,5,4.21h8.06a7.43,7.43,0,0,0,6.59-4.74l2.86-8.58a4.56,4.56,0,0,0-3.24-6c-2.65-.66-4.82-2.56-4.82-4.22v-3"/><path class="cls-4" d="M242.35,254a5,5,0,0,0-5,5v24.35c0,2.14,1.35,3.88,3,3.88s3-1.74,3-3.88,2.25-3.87,5-3.87h12.89a4.75,4.75,0,0,1,5,4.43,4.76,4.76,0,0,0,5,4.43h65.88a4.76,4.76,0,0,0,5-4.43V259a5,5,0,0,0-5-5Z"/><rect class="cls-4" x="368.64" y="252.89" width="98.77" height="35.45" rx="5"/><rect class="cls-4" x="497.52" y="252.89" width="98.77" height="35.45" rx="5"/><rect class="cls-4" x="699.87" y="252.89" width="98.77" height="35.45" rx="5"/><path class="cls-4" d="M784.08,229.48a3,3,0,0,1-3-3V170.84a3,3,0,0,1,3-3h9.33a3,3,0,0,0,3-3V152.71a3,3,0,0,0-3-3H700.3a3,3,0,0,0-3,3v26.63a3,3,0,0,0,3,3h22.32a3,3,0,0,1,3,3V212a3,3,0,0,1-3,3H700.3a3,3,0,0,0-3,3v27.84a3,3,0,0,0,3,3h94.29a3,3,0,0,0,3-3V232.48a3,3,0,0,0-3-3Z"/><rect class="cls-4" x="801.05" y="169.59" width="20.48" height="57.99" rx="3"/><path class="cls-4" d="M883.57,194.49a3,3,0,0,0,3-3V151.62a3,3,0,0,0-3-3H804.05a3,3,0,0,0-3,3v11.2a3,3,0,0,0,3,3h14.47a2.94,2.94,0,0,0,3-2.87,4.07,4.07,0,0,1,2.9-3.65l2.64-.72a2.18,2.18,0,0,1,2.9,2.21v30.7a3,3,0,0,0,3,3Z"/><path class="cls-4" d="M883.57,201.3c1.65,0,3,.52,3,1.15V246.8a3,3,0,0,1-3,3H804.05a3,3,0,0,1-3-3V235.48a3,3,0,0,1,3-3h14.47a3,3,0,0,1,3,2.88,4.09,4.09,0,0,0,2.9,3.68l2.64.73a2.18,2.18,0,0,0,2.9-2.21V202.45c0-.63,1.35-1.15,3-1.15Z"/><line class="cls-5" x1="864.5" y1="230.85" x2="866" y2="230.85"/><line class="cls-6" x1="871.07" y1="230.85" x2="933.47" y2="230.85"/><line class="cls-5" x1="936" y1="230.85" x2="937.5" y2="230.85"/><path class="cls-3" d="M920.23,214.89a.2.2,0,0,1,.22.22v10.76a.2.2,0,0,1-.22.22h-1.39a.23.23,0,0,1-.25-.18l-2.14-6h-.08v5.94a.2.2,0,0,1-.22.22h-1.46a.2.2,0,0,1-.22-.22V215.11a.2.2,0,0,1,.22-.22h1.39a.23.23,0,0,1,.25.18l2.13,6h.09v-5.91a.2.2,0,0,1,.22-.22Z"/><path class="cls-3" d="M927.11,226.09a.22.22,0,0,1-.22-.19l-.39-2.05H924l-.37,2.05a.22.22,0,0,1-.23.19h-1.5c-.15,0-.22-.08-.18-.24l2.33-10.77a.21.21,0,0,1,.24-.19h1.94a.21.21,0,0,1,.24.19l2.33,10.77c0,.16,0,.24-.2.24Zm-1.86-8.75-.89,4.89h1.79Z"/><path class="cls-3" d="M930.05,215.11a.21.21,0,0,1,.23-.22h3.36a1.81,1.81,0,0,1,2,2v3.42a1.82,1.82,0,0,1-2,2H932v3.53c0,.14-.07.22-.23.22h-1.45a.21.21,0,0,1-.23-.22Zm3.14,5.38a.5.5,0,0,0,.56-.56v-2.64a.5.5,0,0,0-.56-.56H932v3.76Z"/><path class="cls-3" d="M946.31,220.32a1.81,1.81,0,0,1-1,1.85l1,3.67c0,.17,0,.25-.19.25H944.6a.22.22,0,0,1-.24-.19l-.94-3.56h-1v3.53a.21.21,0,0,1-.23.22h-1.45a.21.21,0,0,1-.23-.22V215.11a.21.21,0,0,1,.23-.22h3.51a1.8,1.8,0,0,1,2,2Zm-2.47.17a.5.5,0,0,0,.56-.56v-2.64a.5.5,0,0,0-.56-.56h-1.38v3.76Z"/><path class="cls-3" d="M947.43,216.9a1.8,1.8,0,0,1,2-2H951a1.8,1.8,0,0,1,2,2v7.17a1.81,1.81,0,0,1-2,2h-1.57a1.8,1.8,0,0,1-2-2Zm3.23,7.38a.49.49,0,0,0,.56-.56v-6.47a.5.5,0,0,0-.56-.56h-.81a.51.51,0,0,0-.56.56v6.47a.5.5,0,0,0,.56.56Z"/><path class="cls-3" d="M954.43,216.9a1.8,1.8,0,0,1,2-2H958a1.8,1.8,0,0,1,2,2v7.17a1.81,1.81,0,0,1-2,2h-1.57a1.8,1.8,0,0,1-2-2Zm3.23,7.38a.49.49,0,0,0,.56-.56v-6.47a.5.5,0,0,0-.56-.56h-.81a.51.51,0,0,0-.56.56v6.47a.5.5,0,0,0,.56.56Z"/><path class="cls-3" d="M969.13,214.89a.25.25,0,0,1,.28.28v10.64a.25.25,0,0,1-.28.28h-1.3a.25.25,0,0,1-.28-.28v-6.3h-.1l-1.39,6.33a.29.29,0,0,1-.31.25h-.68a.29.29,0,0,1-.31-.25l-1.39-6.33h-.09v6.3a.25.25,0,0,1-.28.28h-1.29a.25.25,0,0,1-.28-.28V215.17a.24.24,0,0,1,.28-.28h1.84a.29.29,0,0,1,.31.25l1.56,7,1.55-7a.29.29,0,0,1,.31-.25Z"/><path class="cls-3" d="M976.94,214.89c.21,0,.29.12.22.32a16.14,16.14,0,0,0,0,11.65c.07.2,0,.32-.22.32h-1.18a.31.31,0,0,1-.32-.22,16.07,16.07,0,0,1,0-11.85.31.31,0,0,1,.32-.22Z"/><path class="cls-3" d="M983.86,226.09a.22.22,0,0,1-.23-.19l-.39-2.05h-2.49l-.38,2.05a.22.22,0,0,1-.23.19h-1.49c-.16,0-.23-.08-.19-.24l2.33-10.77a.21.21,0,0,1,.24-.19H983a.21.21,0,0,1,.24.19l2.33,10.77c0,.16,0,.24-.2.24ZM982,217.34l-.89,4.89h1.79Z"/><path class="cls-3" d="M989.64,214.89a.2.2,0,0,1,.22.22v10.76a.2.2,0,0,1-.22.22h-1.46a.2.2,0,0,1-.22-.22V217l-.87.12a.24.24,0,0,1-.3-.26v-1.34a.26.26,0,0,1,.27-.29Z"/><path class="cls-3" d="M997.51,214.89c.22,0,.28.14.21.33l-4.09,10.63a.31.31,0,0,1-.33.23h-1.45c-.21,0-.3-.12-.23-.32l3.46-9h-3.32a.21.21,0,0,1-.22-.23v-1.4a.21.21,0,0,1,.22-.23Z"/><path class="cls-3" d="M1001.7,214.89a.21.21,0,0,1,.23.22v10.76a.21.21,0,0,1-.23.22h-1.45c-.16,0-.23-.08-.23-.22V217l-.86.12c-.19,0-.3-.07-.3-.26v-1.34a.26.26,0,0,1,.27-.29Z"/><path class="cls-3" d="M1004.9,214.89a.31.31,0,0,1,.32.22,16.07,16.07,0,0,1,0,11.85.31.31,0,0,1-.32.22h-1.18c-.21,0-.3-.12-.22-.32a16.14,16.14,0,0,0,0-11.65c-.08-.2,0-.32.22-.32Z"/><path class="cls-3" d="M267.9,25.67a1,1,0,0,1-1.13,1.13H249.16V41.08h13.35a1,1,0,0,1,1.13,1.13v7.1a1,1,0,0,1-1.13,1.14H249.16V73.1A1,1,0,0,1,248,74.23h-7.38a1,1,0,0,1-1.14-1.13V18.57a1,1,0,0,1,1.14-1.14h26.13a1,1,0,0,1,1.13,1.14Z"/><path class="cls-3" d="M284,64.86h16.9A1,1,0,0,1,302,66v7.1c0,.78-.35,1.13-1.13,1.13H275.43a1,1,0,0,1-1.14-1.13V18.57a1.05,1.05,0,0,1,1.14-1.14h7.38A1,1,0,0,1,284,18.57Z"/><path class="cls-3" d="M307,27.66c0-6.68,3.55-10.23,10.23-10.23h7.95c6.67,0,10.22,3.55,10.22,10.23V64c0,6.67-3.55,10.22-10.22,10.22h-7.95C310.5,74.23,307,70.68,307,64Zm16.4,37.41a2.52,2.52,0,0,0,2.84-2.84V29.43a2.55,2.55,0,0,0-2.84-2.84h-4.11a2.56,2.56,0,0,0-2.85,2.84v32.8a2.52,2.52,0,0,0,2.85,2.84Z"/><path class="cls-3" d="M342.45,27.66c0-6.68,3.55-10.23,10.23-10.23h7.95c6.67,0,10.22,3.55,10.22,10.23V64c0,6.67-3.55,10.22-10.22,10.22h-7.95c-6.68,0-10.23-3.55-10.23-10.22Zm16.4,37.41a2.52,2.52,0,0,0,2.84-2.84V29.43a2.55,2.55,0,0,0-2.84-2.84h-4.11a2.56,2.56,0,0,0-2.85,2.84v32.8a2.52,2.52,0,0,0,2.85,2.84Z"/><path class="cls-3" d="M407.13,45c0,4.76-1.77,7.88-5.18,9.37l4.9,18.6c.21.86-.21,1.28-1,1.28h-7.38a1.12,1.12,0,0,1-1.21-1l-4.75-18h-4.9V73.1a1,1,0,0,1-1.14,1.13h-7.38A1,1,0,0,1,378,73.1V18.57a1.05,1.05,0,0,1,1.14-1.14h17.82c6.67,0,10.22,3.55,10.22,10.23Zm-12.49.85A2.55,2.55,0,0,0,397.48,43V29.64a2.55,2.55,0,0,0-2.84-2.84h-7v19Z"/><path class="cls-3" d="M432,27.66c0-6.68,3.55-10.23,10.23-10.23h8c6.67,0,10.22,3.55,10.22,10.23V64c0,6.67-3.55,10.22-10.22,10.22h-8C435.53,74.23,432,70.68,432,64Zm16.4,37.41a2.52,2.52,0,0,0,2.84-2.84V29.43a2.55,2.55,0,0,0-2.84-2.84h-4.11a2.55,2.55,0,0,0-2.84,2.84v32.8a2.52,2.52,0,0,0,2.84,2.84Z"/><path class="cls-3" d="M496.66,17.43a1.05,1.05,0,0,1,1.14,1.14V73.1a1,1,0,0,1-1.14,1.13h-7a1.22,1.22,0,0,1-1.27-.92L477.49,43h-.35V73.1A1,1,0,0,1,476,74.23h-7.38a1,1,0,0,1-1.14-1.13V18.57a1.05,1.05,0,0,1,1.14-1.14h7a1.23,1.23,0,0,1,1.28.93l10.79,30.17h.42v-30a1,1,0,0,1,1.14-1.14Z"/><path class="cls-3" d="M533.23,25.67c0,.71-.29,1.21-1.14,1.21H514.34v14.2H527.9a1.06,1.06,0,0,1,1.14,1.2v7a1.07,1.07,0,0,1-1.14,1.21H514.34V64.86h17.75c.85,0,1.14.35,1.14,1.14v7.1c0,.71-.29,1.13-1.14,1.13H506a1,1,0,0,1-1.06-1.13V18.57A1,1,0,0,1,506,17.43h26.13c.85,0,1.14.43,1.14,1.14Z"/><path class="cls-3" d="M558.08,45.41A1.27,1.27,0,0,1,559.5,44h11.22a1.27,1.27,0,0,1,1.42,1.42v6.53a1.28,1.28,0,0,1-1.42,1.42H559.5a1.27,1.27,0,0,1-1.42-1.42Z"/><path class="cls-3" d="M625.45,40.72a5.11,5.11,0,0,1-4.47,5v.14a5.12,5.12,0,0,1,4.47,5V64c0,6.67-3.62,10.22-10.29,10.22h-17A1,1,0,0,1,597,73.1V18.57a1,1,0,0,1,1.14-1.14h17c6.67,0,10.29,3.55,10.29,10.23ZM616,29.64a2.52,2.52,0,0,0-2.84-2.84h-6.46V41.15h6.46A2.53,2.53,0,0,0,616,38.38Zm0,23.72a2.52,2.52,0,0,0-2.84-2.84h-6.46V64.86h6.46A2.52,2.52,0,0,0,616,62Z"/><path class="cls-3" d="M632.55,27.66c0-6.68,3.55-10.23,10.23-10.23h8C657.4,17.43,661,21,661,27.66V64c0,6.67-3.55,10.22-10.22,10.22h-8c-6.68,0-10.23-3.55-10.23-10.22ZM649,65.07a2.52,2.52,0,0,0,2.84-2.84V29.43A2.55,2.55,0,0,0,649,26.59h-4.12A2.55,2.55,0,0,0,642,29.43v32.8a2.52,2.52,0,0,0,2.84,2.84Z"/><path class="cls-3" d="M695,17.43a1.42,1.42,0,0,1,1.42,1.42V64c0,6.67-3.55,10.22-10.22,10.22h-8c-6.68,0-10.23-3.55-10.23-10.22V18.85a1.43,1.43,0,0,1,1.42-1.42h6.82a1.43,1.43,0,0,1,1.42,1.42V62a2.52,2.52,0,0,0,2.84,2.84h3.69A2.52,2.52,0,0,0,687.08,62V18.85a1.43,1.43,0,0,1,1.42-1.42Z"/><path class="cls-3" d="M732.74,45c0,4.76-1.78,7.88-5.19,9.37l4.9,18.6c.21.86-.21,1.28-1,1.28h-7.39a1.1,1.1,0,0,1-1.2-1l-4.76-18h-4.9V73.1a1,1,0,0,1-1.14,1.13h-7.38a1,1,0,0,1-1.14-1.13V18.57a1.05,1.05,0,0,1,1.14-1.14h17.82c6.68,0,10.23,3.55,10.23,10.23Zm-12.5.85A2.55,2.55,0,0,0,723.08,43V29.64a2.55,2.55,0,0,0-2.84-2.84h-7v19Z"/><path class="cls-3" d="M769,17.43a1,1,0,0,1,1.13,1.14V73.1A1,1,0,0,1,769,74.23h-7a1.22,1.22,0,0,1-1.28-.92L749.85,43h-.36V73.1a1,1,0,0,1-1.14,1.13H741a1,1,0,0,1-1.14-1.13V18.57A1.05,1.05,0,0,1,741,17.43h7a1.23,1.23,0,0,1,1.28.93l10.79,30.17h.43v-30a1,1,0,0,1,1.13-1.14Z"/><path class="cls-3" d="M795.43,17.43c6.67,0,10.22,3.55,10.22,10.23v7.52a1,1,0,0,1-1.13,1.14h-7.39A1,1,0,0,1,796,35.18V29.64a2.52,2.52,0,0,0-2.84-2.84h-3.41a2.58,2.58,0,0,0-2.84,2.84v9.8L803.81,45a2.61,2.61,0,0,1,1.84,2.63V64c0,6.67-3.55,10.22-10.22,10.22h-7.95c-6.61,0-10.23-3.55-10.23-10.22V56.55a1,1,0,0,1,1.14-1.13h7.38c.78,0,1.14.35,1.14,1.13V62a2.55,2.55,0,0,0,2.84,2.84h3.41A2.52,2.52,0,0,0,796,62V52.58L779.17,47a2.54,2.54,0,0,1-1.92-2.63V27.66c0-6.68,3.62-10.23,10.23-10.23Z"/><rect class="cls-4" x="242.58" y="108.83" width="94.42" height="35.04" rx="6.76"/><rect class="cls-4" x="372.04" y="108.83" width="94.42" height="35.04" rx="6.76"/><rect class="cls-4" x="501.5" y="108.83" width="94.42" height="35.04" rx="6.76"/><rect class="cls-4" x="702.02" y="108.83" width="100.26" height="35.04" rx="6.76"/></g><g id="chung_floor_1_copy" data-name="chung floor 1 copy"><g id="chung"><path class="cls-1" d="M1285.5,131.85v-14"/><path class="cls-1" d="M1662.5,260.69v2.58c0,1.42,2.25,2.58,5,2.58h9a5,5,0,0,1,5,5v182a5,5,0,0,0,5,5h105a5,5,0,0,1,5,5v88a13.37,13.37,0,0,0,3.25,8.25,6.47,6.47,0,0,1,.67,7.53l-31.34,51.94a6.73,6.73,0,0,0,1,7.82l1.43,1.43a3.78,3.78,0,0,1-.72,6.16l-49,30.24a10,10,0,0,0-4.26,7.63v10.5a4.78,4.78,0,0,1-5,4.5h-43c-2.75,0-5-1.12-5-2.5v-2.5"/><path class="cls-1" d="M1164.5,268.85v-6a5,5,0,0,0-5-5h-34a5,5,0,0,1-5-5v-114a5,5,0,0,1,5-5h27a5,5,0,0,0,5-5v-6a5,5,0,0,1,5-5h247a5,5,0,0,1,5,5v29h0v-2c0-2.75.23-5,.5-5h117.5a5,5,0,0,1,5,5v22c0-1.65.23-3,.5-3h67.5a5,5,0,0,1,5,5v16a5,5,0,0,0,5,5h42a5,5,0,0,1,5,5v44"/><path class="cls-1" d="M1533.5,750.27v4.79a4.92,4.92,0,0,1-5,4.79h-39"/><line class="cls-1" x1="1533.5" y1="705.12" x2="1533.5" y2="740.69"/><path class="cls-1" d="M1609.5,683.85v32a5,5,0,0,1-5,5h-47a5,5,0,0,1-5-5v-21h0a5,5,0,0,0-5-5h-9c-2.75,0-5,1.35-5,3v3"/><line class="cls-1" x1="1472.5" y1="759.85" x2="1429.5" y2="761.85"/><line class="cls-1" x1="1416.5" y1="761.85" x2="1366.5" y2="763.85"/><line class="cls-1" x1="1353.5" y1="763.85" x2="1290.5" y2="765.85"/><path class="cls-1" d="M1110.5,657.27v4.29c0,2.36,2.25,4.29,5,4.29h57a5,5,0,0,1,5,5v99.5a5,5,0,0,0,5,5H1262a14,14,0,0,0,8.54-3.53l6-6"/><path class="cls-1" d="M1110.5,465.12V469c0,2.12,2.25,3.86,5,3.86h44a5,5,0,0,1,5,5v155a5,5,0,0,1-5,5h-44c-2.75,0-5,1.44-5,3.2v3.2"/><path class="cls-1" d="M1164.5,295.85v144a5,5,0,0,1-5,5h-44c-2.75,0-5,1.49-5,3.3v3.31"/><path class="cls-1" d="M1609,668.35v-6a5,5,0,0,1,5-5h46a5,5,0,0,1,5,5v5.5"/></g></g><g id="floor_1_copy" data-name="floor 1 copy"><rect class="cls-4" x="1171" y="559.35" width="98" height="81" rx="5"/><rect class="cls-4" x="1171" y="472.35" width="98" height="81" rx="5"/><rect class="cls-4" x="1295" y="559.35" width="95" height="81" rx="5"/><rect class="cls-4" x="1295" y="472.35" width="95" height="81" rx="5"/><rect class="cls-4" x="1392" y="559.35" width="95" height="81" rx="5"/><rect class="cls-4" x="1392" y="472.35" width="95" height="81" rx="5"/><path class="cls-4" d="M1659,462.35h128a5,5,0,0,1,5,5v84a69,69,0,0,1-69,69h-64a5,5,0,0,1-5-5v-148a5,5,0,0,1,5-5Z"/><rect class="cls-4" x="1555" y="473.35" width="95" height="81" rx="5"/><rect class="cls-4" x="1555" y="558.35" width="95" height="81" rx="5"/><rect class="cls-4" x="1493" y="472.35" width="40" height="40" rx="5"/><rect class="cls-4" x="1493" y="515.85" width="40" height="40" rx="5"/><rect class="cls-4" x="1493" y="559.35" width="40" height="20" rx="5"/><rect class="cls-4" x="1493" y="582.85" width="40" height="26" rx="5"/><rect class="cls-4" x="1493" y="612.35" width="40" height="28" rx="5"/><rect class="cls-4" x="1172" y="417.35" width="94" height="52" rx="5"/><path class="cls-4" d="M1297,668.35a5,5,0,0,1,5-5h59a5,5,0,0,1,5,5v82a5.29,5.29,0,0,1-5,5.22l-59,2.56a4.76,4.76,0,0,1-5-4.78Z"/><path class="cls-4" d="M1370,668.35a5,5,0,0,1,5-5h48a5,5,0,0,1,5,5v80a5.22,5.22,0,0,1-5,5.17l-48,1.66a4.82,4.82,0,0,1-5-4.83Z"/><path class="cls-4" d="M1432,668.35a5,5,0,0,1,5-5h45a5,5,0,0,1,5,5v78a5.24,5.24,0,0,1-5,5.18l-45,1.64a4.8,4.8,0,0,1-5-4.82Z"/><path class="cls-4" d="M1181,695.35a5,5,0,0,1,5-5h101a5.12,5.12,0,0,1,5.08,5l.85,58a4.93,4.93,0,0,1-4.93,5h-22a5,5,0,0,0-5,5h0a5,5,0,0,1-5,5h-70a5,5,0,0,1-5-5Z"/><rect class="cls-4" x="1181" y="659.35" width="93" height="28" rx="5"/><rect class="cls-4" x="1490" y="667.35" width="40" height="40.48" rx="5"/><rect class="cls-4" x="1490" y="711.37" width="40" height="40.48" rx="5"/><path class="cls-4" d="M1254.13,283.22a3.8,3.8,0,0,1,3.87-4.87h87a5,5,0,0,1,5,5v72a5,5,0,0,1-5,5h-68a6.61,6.61,0,0,1-6.13-4.87Z"/><path class="cls-4" d="M1278,363.35a4,4,0,0,0-4,4.9l14,70.2a6.38,6.38,0,0,0,6,4.9h39a5,5,0,0,0,5-5v-70a5,5,0,0,0-5-5Z"/><rect class="cls-4" x="1340" y="363.35" width="96" height="80" rx="5"/><rect class="cls-4" x="1352" y="278.35" width="83" height="82" rx="5"/><rect class="cls-4" x="1438" y="278.35" width="95" height="82" rx="5"/><rect class="cls-4" x="1438" y="363.35" width="95" height="80" rx="5"/><rect class="cls-4" x="1124" y="138.35" width="54" height="113" rx="5"/><rect class="cls-4" x="1294" y="185.35" width="88" height="66" rx="5"/><path class="cls-4" d="M1294,132.35a5,5,0,0,1,5-5h102a5,5,0,0,1,5,5v71a5,5,0,0,1-5,5h-11a5,5,0,0,1-5-5v-17a5,5,0,0,0-5-5h-81a5,5,0,0,1-5-5Z"/><path class="cls-4" d="M1170,122.35a5,5,0,0,0-5,5v2a5,5,0,0,0,5,5h7a5,5,0,0,1,5,5v71a5,5,0,0,0,5,5h61a5,5,0,0,1,5,5v22a5,5,0,0,0,5,5h12a5,5,0,0,0,5-5v-43a5,5,0,0,1,5-5h6a5,5,0,0,0,5-5v-46a5,5,0,0,0-5-5h-1a5,5,0,0,1-5-5v-6a5,5,0,0,0-5-5Z"/><path class="cls-4" d="M1414,157.35a5,5,0,0,0-5,5v27a5,5,0,0,0,5,5h88.14a5,5,0,0,1,5,5v6a5,5,0,0,0,5,5h5.5a5,5,0,0,0,5-5v-20a5,5,0,0,1,5-5H1529a5,5,0,0,0,5-5v-19a5,5,0,0,0-5-5H1425.78c-2.75,0-5,1.35-5,3s-2.25,3-5,3Z"/><path class="cls-4" d="M1545,177.35a5,5,0,0,1,5-5h52a5,5,0,0,1,5,5v16c0,2.75-1.57,5-3.5,5s-3.5,2.25-3.5,5v10a5,5,0,0,1-5,5h-35a5,5,0,0,0-5,5v21a5,5,0,0,1-5,5h-20a5,5,0,0,1-5-5v-57a5,5,0,0,1,5-5h10a5,5,0,0,0,5-5Z"/><path class="cls-4" d="M1409,203.35a5,5,0,0,1,5-5h8a5,5,0,0,1,5,5v19a5,5,0,0,1-5,5h-15a5,5,0,0,1-5-5v-4c0-2.75,1.58-5,3.5-5s3.5-2.25,3.5-5Z"/><rect class="cls-4" x="1402" y="230.35" width="27" height="21" rx="5"/><rect class="cls-4" x="1430" y="199.35" width="22" height="39" rx="4.79"/><rect class="cls-4" x="1455.5" y="199.35" width="24" height="39" rx="5"/><rect class="cls-4" x="1482" y="199.35" width="24" height="39" rx="5"/><rect class="cls-4" x="1557" y="272.35" width="119" height="58" rx="5"/><rect class="cls-4" x="1557" y="336.35" width="119" height="115" rx="5"/><rect class="cls-4" x="1607" y="198.35" width="51.41" height="46" rx="4.51"/></g><g id="floor_1_stuff" data-name="floor 1 stuff"><polygon class="cls-3" points="1566.37 238.43 1564.53 236.58 1570.94 230.17 1577.03 236.27 1575.19 238.11 1570.94 233.86 1566.37 238.43"/><polygon class="cls-3" points="1584.46 238.23 1578.37 232.13 1580.21 230.28 1584.46 234.54 1589.03 229.97 1590.87 231.82 1584.46 238.23"/><path class="cls-3" d="M1586.7,250.2h-18a7,7,0,0,1-7-7v-18a7,7,0,0,1,7-7h18a7,7,0,0,1,7,7v18A7,7,0,0,1,1586.7,250.2Zm-18-30a5,5,0,0,0-5,5v18a5,5,0,0,0,5,5h18a5,5,0,0,0,5-5v-18a5,5,0,0,0-5-5Z"/><rect class="cls-7" x="1174.7" y="424.2" width="38.3" height="38.3" rx="7.66"/><polygon class="cls-8" points="1202.79 448.67 1194.73 440.62 1197.17 438.18 1202.79 443.8 1208.82 437.77 1211.25 440.2 1202.79 448.67"/><polygon class="cls-8" points="1178.89 448.94 1176.45 446.5 1184.92 438.03 1192.97 446.08 1190.53 448.52 1184.92 442.91 1178.89 448.94"/><path class="cls-3" d="M1178.06,338.41a1.65,1.65,0,0,1-1.45,1.63v0a1.66,1.66,0,0,1,1.45,1.63V346a3,3,0,0,1-3.34,3.31h-5.51a.34.34,0,0,1-.37-.37V331.24a.33.33,0,0,1,.37-.37h5.51a3,3,0,0,1,3.34,3.31Zm-3.06-3.58a.82.82,0,0,0-.92-.92H1172v4.64h2.09a.82.82,0,0,0,.92-.9Zm0,7.68a.82.82,0,0,0-.92-.92H1172v4.64h2.09a.82.82,0,0,0,.92-.92Z"/><path class="cls-3" d="M1190.89,330.87c.35,0,.51.21.37.53l-4.21,10.23v7.18a.41.41,0,0,1-.46.46h-2.21a.42.42,0,0,1-.46-.46v-7.18l-4.2-10.23c-.14-.32,0-.53.36-.53h2.3a.49.49,0,0,1,.53.37l2.58,6.6,2.57-6.6a.51.51,0,0,1,.53-.37Z"/><path class="cls-3" d="M1201.29,330.87a.33.33,0,0,1,.37.37v2.3a.33.33,0,0,1-.37.37h-2.67v15c0,.25-.11.37-.37.37h-2.39a.33.33,0,0,1-.36-.37v-15h-2.67a.34.34,0,0,1-.37-.37v-2.3a.34.34,0,0,1,.37-.37Z"/><path class="cls-3" d="M1212.44,333.54c0,.23-.09.39-.36.39h-5.75v4.6h4.39a.35.35,0,0,1,.37.39v2.27a.35.35,0,0,1-.37.4h-4.39v4.64h5.75c.27,0,.36.12.36.37v2.3c0,.23-.09.37-.36.37h-8.47a.33.33,0,0,1-.34-.37V331.24a.33.33,0,0,1,.34-.37h8.47c.27,0,.36.14.36.37Z"/><path class="cls-3" d="M1219.94,330.87a3,3,0,0,1,3.31,3.31v2.44a.33.33,0,0,1-.36.37h-2.4a.33.33,0,0,1-.36-.37v-1.79a.82.82,0,0,0-.92-.92h-1.11a.84.84,0,0,0-.92.92V338l5.48,1.79a.84.84,0,0,1,.59.85V346a3,3,0,0,1-3.31,3.31h-2.57a3,3,0,0,1-3.31-3.31v-2.42a.33.33,0,0,1,.36-.37h2.4c.25,0,.36.12.36.37v1.77a.83.83,0,0,0,.92.92h1.11a.82.82,0,0,0,.92-.92v-3.06l-5.45-1.79a.82.82,0,0,1-.62-.85v-5.43a3,3,0,0,1,3.31-3.31Z"/><path class="cls-3" d="M1178.37,260.6a.26.26,0,0,1-.28.29h-1.8a.26.26,0,0,1-.29-.29v-1.44a.65.65,0,0,0-.72-.72h-.94a.64.64,0,0,0-.72.72v8.21a.64.64,0,0,0,.72.72h.94a.64.64,0,0,0,.72-.72v-1.44a.25.25,0,0,1,.29-.28h1.8a.25.25,0,0,1,.28.28v1.95a2.32,2.32,0,0,1-2.59,2.59h-2a2.33,2.33,0,0,1-2.61-2.59v-9.22a2.33,2.33,0,0,1,2.61-2.59h2a2.32,2.32,0,0,1,2.59,2.59Z"/><path class="cls-3" d="M1184.93,256.36a.26.26,0,0,1,.28-.29h1.86c.22,0,.3.1.3.29v13.82c0,.18-.08.29-.3.29h-1.86a.26.26,0,0,1-.28-.29v-5.72h-2.31v5.72a.27.27,0,0,1-.29.29h-1.85c-.22,0-.31-.11-.31-.29V256.36c0-.19.09-.29.31-.29h1.85a.26.26,0,0,1,.29.29v5.72h2.31Z"/><path class="cls-3" d="M1196.36,258.16c0,.18-.07.3-.29.3h-4.5v3.6H1195c.18,0,.28.11.28.31v1.78c0,.2-.1.31-.28.31h-3.44v3.63h4.5c.22,0,.29.09.29.29v1.8c0,.18-.07.29-.29.29h-6.63a.26.26,0,0,1-.27-.29V256.36a.26.26,0,0,1,.27-.29h6.63c.22,0,.29.1.29.29Z"/><path class="cls-3" d="M1205.19,260.6a.26.26,0,0,1-.28.29h-1.8a.26.26,0,0,1-.29-.29v-1.44a.65.65,0,0,0-.72-.72h-.94a.64.64,0,0,0-.72.72v8.21a.64.64,0,0,0,.72.72h.94a.64.64,0,0,0,.72-.72v-1.44a.25.25,0,0,1,.29-.28h1.8a.25.25,0,0,1,.28.28v1.95a2.32,2.32,0,0,1-2.59,2.59h-2a2.33,2.33,0,0,1-2.61-2.59v-9.22a2.33,2.33,0,0,1,2.61-2.59h2a2.32,2.32,0,0,1,2.59,2.59Z"/><path class="cls-3" d="M1212.79,270.47a.39.39,0,0,1-.41-.27l-2.27-5.35-.67,1.28v4a.32.32,0,0,1-.36.36h-1.73a.32.32,0,0,1-.36-.36V256.43a.32.32,0,0,1,.36-.36h1.73a.32.32,0,0,1,.36.36V262l2.77-5.67a.43.43,0,0,1,.42-.27h1.89c.27,0,.38.18.25.43l-3.06,6.28,3.26,7.28c.13.23,0,.41-.27.41Z"/><path class="cls-3" d="M1216.64,263.16a.33.33,0,0,1,.36-.36h2.85a.32.32,0,0,1,.35.36v1.66a.32.32,0,0,1-.35.36H1217a.33.33,0,0,1-.36-.36Z"/><path class="cls-3" d="M1224.16,256.07a.26.26,0,0,1,.29.29v13.82a.26.26,0,0,1-.29.29h-1.87a.26.26,0,0,1-.29-.29V256.36a.25.25,0,0,1,.29-.29Z"/><path class="cls-3" d="M1233.65,256.07a.26.26,0,0,1,.29.29v13.82a.27.27,0,0,1-.29.29h-1.78a.3.3,0,0,1-.32-.23l-2.76-7.69h-.09v7.63a.26.26,0,0,1-.29.29h-1.87a.27.27,0,0,1-.29-.29V256.36a.26.26,0,0,1,.29-.29h1.78a.31.31,0,0,1,.33.23l2.73,7.65h.11v-7.59a.25.25,0,0,1,.29-.29Z"/><path class="cls-8" d="M1322.62,204.22a.49.49,0,0,1,.53.53V230.1a.49.49,0,0,1-.53.53h-3.44a.47.47,0,0,1-.52-.53V209.24l-2.05.26a.54.54,0,0,1-.69-.59v-3.17a.6.6,0,0,1,.62-.69Z"/><path class="cls-8" d="M1326.77,209c0-3.11,1.65-4.76,4.76-4.76h3.69c3.11,0,4.76,1.65,4.76,4.76v16.9c0,3.1-1.65,4.75-4.76,4.75h-3.69c-3.11,0-4.76-1.65-4.76-4.75Zm7.63,17.39a1.17,1.17,0,0,0,1.32-1.32V209.8a1.18,1.18,0,0,0-1.32-1.32h-1.92a1.19,1.19,0,0,0-1.32,1.32v15.25a1.17,1.17,0,0,0,1.32,1.32Z"/><path class="cls-8" d="M1347.89,220.43c-3,0-4.62-1.62-4.62-4.62v-7c0-3,1.62-4.62,4.62-4.62h4c3,0,4.62,1.62,4.62,4.62v8.49a4.16,4.16,0,0,1-.33,1.65l-4.69,11.15a.73.73,0,0,1-.76.5h-3.43c-.5,0-.7-.3-.5-.76l4-9.44Zm1.06-11.85a1.18,1.18,0,0,0-1.32,1.32v4.85a1.18,1.18,0,0,0,1.32,1.32h1.85a1.18,1.18,0,0,0,1.32-1.32V209.9a1.18,1.18,0,0,0-1.32-1.32Z"/><path class="cls-8" d="M1219.94,712.9a.49.49,0,0,1,.53.53v25.34a.49.49,0,0,1-.53.53h-3.43a.48.48,0,0,1-.53-.53V717.92l-2,.26a.55.55,0,0,1-.7-.59v-3.17a.62.62,0,0,1,.63-.7Z"/><path class="cls-8" d="M1239.78,727.36a.59.59,0,0,1,.66.65v2.84a.59.59,0,0,1-.66.66h-1.36v7.13a.59.59,0,0,1-.66.66h-2.87a.59.59,0,0,1-.66-.66v-7.19h-9.47a.59.59,0,0,1-.66-.66v-2.94a1.33,1.33,0,0,1,.23-.79l8.48-13.73a.83.83,0,0,1,.79-.43h3.47c.53,0,.73.33.43.79l-8.29,13.73h5v-4a.59.59,0,0,1,.66-.66h2.87a.59.59,0,0,1,.66.66v3.9Z"/><path class="cls-8" d="M1256,723.72a2.38,2.38,0,0,1-2.08,2.35v.06a2.39,2.39,0,0,1,2.08,2.35v6.07c0,3.1-1.68,4.75-4.79,4.75h-3.83c-3,0-4.62-1.61-4.62-4.62v-1.09a.59.59,0,0,1,.66-.66h3.17a.59.59,0,0,1,.66.66V735h3.7a.6.6,0,0,0,.66-.66V729.6a1.17,1.17,0,0,0-1.32-1.32h-3.9a.6.6,0,0,1-.66-.66v-3a.6.6,0,0,1,.66-.66h3.9a1.17,1.17,0,0,0,1.32-1.28v-4.72a.59.59,0,0,0-.66-.66h-3.7v1.35a.59.59,0,0,1-.66.66h-3.17a.59.59,0,0,1-.66-.66v-1.35c0-2.84,1.62-4.36,4.62-4.36h3.83c3.11,0,4.79,1.65,4.79,4.75Z"/><path class="cls-8" d="M1316.36,695.93a.48.48,0,0,1,.52.53v25.35a.48.48,0,0,1-.52.53h-3.44a.47.47,0,0,1-.52-.53V701l-2.05.26a.54.54,0,0,1-.69-.59v-3.17a.61.61,0,0,1,.62-.7Z"/><path class="cls-8" d="M1336.19,710.39a.59.59,0,0,1,.66.66v2.84a.6.6,0,0,1-.66.66h-1.35v7.12a.6.6,0,0,1-.66.67h-2.87a.61.61,0,0,1-.67-.67v-7.19h-9.47a.59.59,0,0,1-.66-.66v-2.94a1.42,1.42,0,0,1,.23-.79l8.49-13.73a.82.82,0,0,1,.79-.43h3.46c.53,0,.73.33.43.79l-8.28,13.73h5v-4a.6.6,0,0,1,.67-.66h2.87a.59.59,0,0,1,.66.66v3.9Z"/><path class="cls-8" d="M1345.1,713.65a.83.83,0,0,0-.46.8v2.87a.59.59,0,0,0,.66.66h3.56v-1.36a.6.6,0,0,1,.66-.66h3.17a.6.6,0,0,1,.66.66v5a.6.6,0,0,1-.66.67h-11.88a.6.6,0,0,1-.66-.67v-9.73c0-.63.23-.89.86-1.22l7.85-4.23v-4.88a1.2,1.2,0,0,0-1.32-1.32H1346a1.17,1.17,0,0,0-1.32,1.32v2.57a.49.49,0,0,1-.53.53h-3.43a.47.47,0,0,1-.53-.53v-3.5c0-3.1,1.65-4.75,4.75-4.75h3.7c3.07,0,4.75,1.65,4.75,4.75v7.79c0,.63-.26.89-.89,1.22Z"/><path class="cls-8" d="M1387.17,694.43a.49.49,0,0,1,.53.53v25.35a.48.48,0,0,1-.53.52h-3.43a.47.47,0,0,1-.53-.52V699.45l-2,.26a.55.55,0,0,1-.7-.59V696a.62.62,0,0,1,.63-.7Z"/><path class="cls-8" d="M1407,708.89a.59.59,0,0,1,.66.66v2.83a.59.59,0,0,1-.66.66h-1.36v7.13a.59.59,0,0,1-.66.66h-2.87a.59.59,0,0,1-.66-.66V713H1392a.59.59,0,0,1-.66-.66v-2.94a1.33,1.33,0,0,1,.23-.79l8.48-13.73a.83.83,0,0,1,.79-.43h3.47c.53,0,.73.33.43.79L1396.44,709h5v-4a.59.59,0,0,1,.66-.66H1405a.59.59,0,0,1,.66.66v3.9Z"/><path class="cls-8" d="M1416.67,694.43a.49.49,0,0,1,.53.53v25.35a.48.48,0,0,1-.53.52h-3.43a.47.47,0,0,1-.53-.52V699.45l-2,.26a.55.55,0,0,1-.7-.59V696a.62.62,0,0,1,.63-.7Z"/><path class="cls-8" d="M1445.91,693.43a.48.48,0,0,1,.52.53v25.35a.47.47,0,0,1-.52.52h-3.44a.46.46,0,0,1-.52-.52V698.45l-2,.26a.54.54,0,0,1-.69-.59V695a.62.62,0,0,1,.62-.7Z"/><path class="cls-8" d="M1463.3,704.26a2.38,2.38,0,0,1-2.08,2.34v.07a2.37,2.37,0,0,1,2.08,2.34v6.07c0,3.1-1.68,4.75-4.79,4.75h-3.83c-3,0-4.62-1.61-4.62-4.62v-1.09a.6.6,0,0,1,.66-.66h3.17a.6.6,0,0,1,.66.66v1.36h3.7a.59.59,0,0,0,.66-.66v-4.69a1.17,1.17,0,0,0-1.32-1.32h-3.9a.6.6,0,0,1-.66-.66v-3a.6.6,0,0,1,.66-.66h3.9a1.17,1.17,0,0,0,1.32-1.28v-4.72a.59.59,0,0,0-.66-.66h-3.7v1.35a.59.59,0,0,1-.66.66h-3.17a.59.59,0,0,1-.66-.66v-1.35c0-2.84,1.62-4.36,4.62-4.36h3.83c3.11,0,4.79,1.65,4.79,4.75Z"/><path class="cls-8" d="M1471.22,709.64c-3,0-4.62-1.62-4.62-4.63v-7c0-3,1.61-4.62,4.62-4.62h4c3,0,4.62,1.62,4.62,4.62v8.48a4.09,4.09,0,0,1-.33,1.65l-4.69,11.16a.72.72,0,0,1-.76.49h-3.43c-.49,0-.69-.29-.49-.75l4-9.44Zm1-11.85a1.19,1.19,0,0,0-1.32,1.32V704a1.19,1.19,0,0,0,1.32,1.32h1.85a1.18,1.18,0,0,0,1.32-1.32v-4.85a1.18,1.18,0,0,0-1.32-1.32Z"/><path class="cls-8" d="M1328.92,497.93a.49.49,0,0,1,.53.53v25.35a.48.48,0,0,1-.53.52h-3.43a.47.47,0,0,1-.53-.52V503l-2,.26a.55.55,0,0,1-.7-.59v-3.17a.62.62,0,0,1,.63-.7Z"/><path class="cls-8" d="M1338,515.65a.83.83,0,0,0-.46.8v2.87a.59.59,0,0,0,.66.66h3.56v-1.36a.6.6,0,0,1,.66-.66h3.17a.6.6,0,0,1,.66.66v5a.59.59,0,0,1-.66.66h-11.88a.59.59,0,0,1-.66-.66v-9.73c0-.63.23-.89.86-1.22l7.85-4.23v-4.88a1.2,1.2,0,0,0-1.32-1.32h-1.58a1.17,1.17,0,0,0-1.32,1.32v2.57a.49.49,0,0,1-.53.53h-3.43a.48.48,0,0,1-.53-.53v-3.5c0-3.1,1.65-4.75,4.75-4.75h3.7c3.07,0,4.75,1.65,4.75,4.75v7.79c0,.63-.26.89-.89,1.22Z"/><path class="cls-8" d="M1354.2,514.14c-3,0-4.62-1.62-4.62-4.63v-7c0-3,1.62-4.62,4.62-4.62h4c3,0,4.62,1.62,4.62,4.62V511a4.09,4.09,0,0,1-.33,1.65l-4.68,11.16a.74.74,0,0,1-.76.49h-3.44c-.49,0-.69-.29-.49-.75l4-9.44Zm1.06-11.85a1.18,1.18,0,0,0-1.32,1.32v4.85a1.18,1.18,0,0,0,1.32,1.32h1.85a1.19,1.19,0,0,0,1.32-1.32v-4.85a1.19,1.19,0,0,0-1.32-1.32Z"/><path class="cls-8" d="M1425.54,497.93a.49.49,0,0,1,.53.53v25.35a.49.49,0,0,1-.53.53h-3.43a.48.48,0,0,1-.53-.53V503l-2,.26a.55.55,0,0,1-.7-.59v-3.17a.61.61,0,0,1,.63-.69Z"/><path class="cls-8" d="M1434.65,515.65a.83.83,0,0,0-.46.8v2.87a.59.59,0,0,0,.66.66h3.56v-1.35a.6.6,0,0,1,.66-.67h3.17a.6.6,0,0,1,.66.67v5a.6.6,0,0,1-.66.67h-11.88a.6.6,0,0,1-.66-.67v-9.73c0-.63.23-.89.86-1.22l7.85-4.23v-4.88a1.2,1.2,0,0,0-1.32-1.32h-1.58a1.17,1.17,0,0,0-1.32,1.32v2.57a.49.49,0,0,1-.53.53h-3.43a.48.48,0,0,1-.53-.53v-3.5c0-3.1,1.65-4.75,4.75-4.75h3.7c3.07,0,4.75,1.65,4.75,4.75v7.79c0,.63-.26.89-.89,1.22Z"/><path class="cls-8" d="M1460.26,497.93c.53,0,.66.33.5.79l-9.64,25a.71.71,0,0,1-.76.53l-3.43,0c-.5,0-.7-.3-.53-.76l8.15-21.26h-7.82a.49.49,0,0,1-.53-.53v-3.3a.51.51,0,0,1,.53-.56Z"/><path class="cls-8" d="M1328.91,584.93a.48.48,0,0,1,.52.53v25.35a.48.48,0,0,1-.52.53h-3.44a.47.47,0,0,1-.52-.53V590l-2,.26a.54.54,0,0,1-.69-.59v-3.17a.6.6,0,0,1,.62-.69Z"/><path class="cls-8" d="M1346.3,595.76a2.38,2.38,0,0,1-2.08,2.34v.07a2.37,2.37,0,0,1,2.08,2.34v6.07c0,3.1-1.68,4.76-4.79,4.76h-3.83c-3,0-4.62-1.62-4.62-4.63v-1.08a.6.6,0,0,1,.66-.67h3.17a.6.6,0,0,1,.66.67V607h3.7a.59.59,0,0,0,.66-.66v-4.69a1.17,1.17,0,0,0-1.32-1.32h-3.9a.6.6,0,0,1-.66-.66v-3a.6.6,0,0,1,.66-.66h3.9a1.18,1.18,0,0,0,1.32-1.29V590a.59.59,0,0,0-.66-.66h-3.7v1.35a.59.59,0,0,1-.66.66h-3.17a.59.59,0,0,1-.66-.66v-1.35c0-2.84,1.62-4.36,4.62-4.36h3.83c3.11,0,4.79,1.65,4.79,4.75Z"/><path class="cls-8" d="M1361.81,584.93a.59.59,0,0,1,.66.66v3a.59.59,0,0,1-.66.66h-7.43v5.18l7.86,2.48a.7.7,0,0,1,.56.72v9c0,3-1.62,4.63-4.62,4.63h-4c-3,0-4.62-1.62-4.62-4.63v-1.05a.59.59,0,0,1,.66-.66h3.17a.6.6,0,0,1,.66.66V607h3.59a.59.59,0,0,0,.66-.66v-6l-7.85-2.48a.69.69,0,0,1-.56-.72V585.59a.59.59,0,0,1,.66-.66Z"/><path class="cls-8" d="M1206.41,497.93a.48.48,0,0,1,.52.53v25.35a.47.47,0,0,1-.52.52H1203a.46.46,0,0,1-.52-.52V503l-2,.26a.54.54,0,0,1-.69-.59v-3.17a.62.62,0,0,1,.62-.7Z"/><path class="cls-8" d="M1223.8,508.76a2.38,2.38,0,0,1-2.08,2.34v.07a2.37,2.37,0,0,1,2.08,2.34v6.07c0,3.1-1.68,4.75-4.79,4.75h-3.83c-3,0-4.62-1.61-4.62-4.62v-1.09a.6.6,0,0,1,.66-.66h3.17a.6.6,0,0,1,.66.66V520h3.7a.59.59,0,0,0,.66-.66v-4.69a1.17,1.17,0,0,0-1.32-1.32h-3.9a.6.6,0,0,1-.66-.66v-3a.6.6,0,0,1,.66-.66h3.9a1.17,1.17,0,0,0,1.32-1.28V503a.59.59,0,0,0-.66-.66h-3.7v1.35a.59.59,0,0,1-.66.66h-3.17a.59.59,0,0,1-.66-.66v-1.35c0-2.84,1.62-4.36,4.62-4.36H1219c3.11,0,4.79,1.65,4.79,4.75Z"/><path class="cls-8" d="M1232.05,515.65a.83.83,0,0,0-.46.8v2.87a.59.59,0,0,0,.66.66h3.56v-1.36a.6.6,0,0,1,.66-.66h3.17a.6.6,0,0,1,.66.66v5a.59.59,0,0,1-.66.66h-11.88a.59.59,0,0,1-.66-.66v-9.73c0-.63.23-.89.86-1.22l7.85-4.23v-4.88a1.2,1.2,0,0,0-1.32-1.32h-1.58a1.17,1.17,0,0,0-1.32,1.32v2.57a.49.49,0,0,1-.53.53h-3.43a.47.47,0,0,1-.53-.53v-3.5c0-3.1,1.65-4.75,4.75-4.75h3.7c3.07,0,4.75,1.65,4.75,4.75v7.79c0,.63-.27.89-.89,1.22Z"/><path class="cls-8" d="M1206.72,584.93a.49.49,0,0,1,.53.53v25.35a.49.49,0,0,1-.53.53h-3.43a.48.48,0,0,1-.53-.53V590l-2,.26a.54.54,0,0,1-.69-.59v-3.17a.61.61,0,0,1,.63-.69Z"/><path class="cls-8" d="M1224.11,595.76a2.38,2.38,0,0,1-2.08,2.34v.07a2.37,2.37,0,0,1,2.08,2.34v6.07c0,3.1-1.68,4.76-4.78,4.76h-3.83c-3,0-4.62-1.62-4.62-4.63v-1.08a.6.6,0,0,1,.66-.67h3.17a.6.6,0,0,1,.66.67V607h3.69a.59.59,0,0,0,.66-.66v-4.69a1.17,1.17,0,0,0-1.32-1.32h-3.89a.59.59,0,0,1-.66-.66v-3a.59.59,0,0,1,.66-.66h3.89a1.18,1.18,0,0,0,1.32-1.29V590a.59.59,0,0,0-.66-.66h-3.69v1.35a.59.59,0,0,1-.66.66h-3.17a.59.59,0,0,1-.66-.66v-1.35c0-2.84,1.61-4.36,4.62-4.36h3.83c3.1,0,4.78,1.65,4.78,4.75Z"/><path class="cls-8" d="M1240,595.76a2.38,2.38,0,0,1-2.07,2.34v.07a2.37,2.37,0,0,1,2.07,2.34v6.07c0,3.1-1.68,4.76-4.78,4.76h-3.83c-3,0-4.62-1.62-4.62-4.63v-1.08a.6.6,0,0,1,.66-.67h3.17a.6.6,0,0,1,.66.67V607h3.69a.6.6,0,0,0,.67-.66v-4.69a1.17,1.17,0,0,0-1.32-1.32h-3.9a.59.59,0,0,1-.66-.66v-3a.59.59,0,0,1,.66-.66h3.9a1.18,1.18,0,0,0,1.32-1.29V590a.6.6,0,0,0-.67-.66h-3.69v1.35a.59.59,0,0,1-.66.66h-3.17a.59.59,0,0,1-.66-.66v-1.35c0-2.84,1.62-4.36,4.62-4.36h3.83c3.1,0,4.78,1.65,4.78,4.75Z"/><path class="cls-8" d="M1339.39,140.37a.49.49,0,0,1,.53.53v25.34a.49.49,0,0,1-.53.53H1336a.47.47,0,0,1-.53-.53V145.39l-2,.26a.54.54,0,0,1-.69-.59v-3.17a.62.62,0,0,1,.63-.7Z"/><path class="cls-8" d="M1350.25,140.37a.48.48,0,0,1,.52.53v25.34a.48.48,0,0,1-.52.53h-3.44a.48.48,0,0,1-.53-.53V145.39l-2,.26a.55.55,0,0,1-.7-.59v-3.17a.62.62,0,0,1,.63-.7Z"/><path class="cls-8" d="M1354.4,145.12c0-3.1,1.65-4.75,4.76-4.75h3.69c3.1,0,4.75,1.65,4.75,4.75V162c0,3.1-1.65,4.75-4.75,4.75h-3.69c-3.11,0-4.76-1.65-4.76-4.75Zm7.63,17.39a1.17,1.17,0,0,0,1.32-1.32V146a1.19,1.19,0,0,0-1.32-1.32h-1.92a1.18,1.18,0,0,0-1.32,1.32v15.24a1.17,1.17,0,0,0,1.32,1.32Z"/><path class="cls-8" d="M1458.42,158.38a.49.49,0,0,1,.53.53v25.35a.48.48,0,0,1-.53.52H1455a.47.47,0,0,1-.53-.52V163.4l-2,.26a.55.55,0,0,1-.7-.59V159.9a.61.61,0,0,1,.63-.69Z"/><path class="cls-8" d="M1469.28,158.38a.49.49,0,0,1,.53.53v25.35a.48.48,0,0,1-.53.52h-3.43a.47.47,0,0,1-.53-.52V163.4l-2,.26a.54.54,0,0,1-.69-.59V159.9a.61.61,0,0,1,.63-.69Z"/><path class="cls-8" d="M1487.83,158.38c.53,0,.66.33.49.79l-9.63,25.05a.72.72,0,0,1-.76.53l-3.44,0c-.49,0-.69-.29-.52-.76l8.15-21.25h-7.82a.49.49,0,0,1-.53-.53v-3.3a.51.51,0,0,1,.53-.56Z"/><path class="cls-8" d="M1588.92,498.93a.49.49,0,0,1,.53.53v25.35a.49.49,0,0,1-.53.53h-3.43a.48.48,0,0,1-.53-.53V504l-2,.26a.55.55,0,0,1-.7-.59v-3.17a.61.61,0,0,1,.63-.69Z"/><path class="cls-8" d="M1598,516.65a.83.83,0,0,0-.46.8v2.87a.59.59,0,0,0,.66.66h3.56v-1.35a.6.6,0,0,1,.66-.67h3.17a.6.6,0,0,1,.66.67v5a.6.6,0,0,1-.66.67h-11.88a.6.6,0,0,1-.66-.67v-9.73c0-.63.23-.89.86-1.22l7.85-4.23v-4.88a1.2,1.2,0,0,0-1.32-1.32h-1.58a1.17,1.17,0,0,0-1.32,1.32v2.57a.49.49,0,0,1-.53.53h-3.43a.48.48,0,0,1-.53-.53v-3.5c0-3.1,1.65-4.75,4.75-4.75h3.7c3.07,0,4.75,1.65,4.75,4.75v7.79c0,.63-.26.89-.89,1.22Z"/><path class="cls-8" d="M1621.79,498.93a.59.59,0,0,1,.66.66v3a.59.59,0,0,1-.66.66h-7.42v5.18l7.85,2.48a.69.69,0,0,1,.56.72v9c0,3-1.61,4.63-4.62,4.63h-4c-3,0-4.62-1.62-4.62-4.63v-1.05a.59.59,0,0,1,.66-.66h3.17a.59.59,0,0,1,.66.66V521h3.6a.59.59,0,0,0,.66-.66v-6l-7.86-2.48a.7.7,0,0,1-.56-.72V499.59a.59.59,0,0,1,.66-.66Z"/><path class="cls-8" d="M1474.75,304.43a.48.48,0,0,1,.52.53v25.35a.47.47,0,0,1-.52.52h-3.44a.47.47,0,0,1-.53-.52V309.45l-2,.26a.54.54,0,0,1-.69-.59V306a.6.6,0,0,1,.62-.69Z"/><path class="cls-8" d="M1483.85,322.15a.83.83,0,0,0-.46.8v2.87a.59.59,0,0,0,.66.66h3.56v-1.36a.6.6,0,0,1,.66-.66h3.17a.6.6,0,0,1,.66.66v5.05a.59.59,0,0,1-.66.66h-11.88a.59.59,0,0,1-.66-.66v-9.73c0-.63.23-.89.86-1.22l7.85-4.23v-4.88a1.2,1.2,0,0,0-1.32-1.32h-1.58a1.17,1.17,0,0,0-1.32,1.32v2.57a.49.49,0,0,1-.53.53h-3.43a.48.48,0,0,1-.53-.53v-3.5c0-3.1,1.65-4.75,4.75-4.75h3.7c3.07,0,4.75,1.65,4.75,4.75V317c0,.63-.26.89-.89,1.22Z"/><path class="cls-8" d="M1502.1,304.43a.49.49,0,0,1,.53.53v25.35a.48.48,0,0,1-.53.52h-3.43a.47.47,0,0,1-.53-.52V309.45l-2,.26a.55.55,0,0,1-.7-.59V306a.61.61,0,0,1,.63-.69Z"/><path class="cls-8" d="M1374.42,388.43a.49.49,0,0,1,.53.53v25.35a.48.48,0,0,1-.53.52H1371a.47.47,0,0,1-.53-.52V393.45l-2,.26a.55.55,0,0,1-.7-.59V390a.61.61,0,0,1,.63-.69Z"/><path class="cls-8" d="M1383.53,406.15a.83.83,0,0,0-.46.8v2.87a.59.59,0,0,0,.66.66h3.56v-1.36a.6.6,0,0,1,.66-.66h3.17a.6.6,0,0,1,.66.66v5.05a.59.59,0,0,1-.66.66h-11.88a.59.59,0,0,1-.66-.66v-9.73c0-.63.23-.89.86-1.22l7.85-4.23v-4.88a1.2,1.2,0,0,0-1.32-1.32h-1.58a1.17,1.17,0,0,0-1.32,1.32v2.57a.49.49,0,0,1-.53.53h-3.43a.48.48,0,0,1-.53-.53v-3.5c0-3.1,1.65-4.75,4.75-4.75h3.7c3.07,0,4.75,1.65,4.75,4.75V401c0,.63-.26.89-.89,1.22Z"/><path class="cls-8" d="M1408.31,399.26a2.38,2.38,0,0,1-2.07,2.34v.07a2.37,2.37,0,0,1,2.07,2.34v6.07c0,3.1-1.68,4.75-4.78,4.75h-3.66c-3.11,0-4.79-1.65-4.79-4.75V404a2.37,2.37,0,0,1,2.08-2.34v-.07a2.38,2.38,0,0,1-2.08-2.34v-6.08c0-3.1,1.68-4.75,4.79-4.75h3.66c3.1,0,4.78,1.65,4.78,4.75Zm-4.38-5.15a1.17,1.17,0,0,0-1.32-1.32h-1.82a1.17,1.17,0,0,0-1.32,1.32v4.06a1.17,1.17,0,0,0,1.32,1.28h1.82a1.18,1.18,0,0,0,1.32-1.28Zm0,11a1.17,1.17,0,0,0-1.32-1.32h-1.82a1.17,1.17,0,0,0-1.32,1.32v4a1.17,1.17,0,0,0,1.32,1.32h1.82a1.17,1.17,0,0,0,1.32-1.32Z"/><path class="cls-8" d="M1471.91,388.43a.49.49,0,0,1,.53.53v25.35a.48.48,0,0,1-.53.52h-3.44a.46.46,0,0,1-.52-.52V393.45l-2,.26a.54.54,0,0,1-.69-.59V390a.6.6,0,0,1,.62-.69Z"/><path class="cls-8" d="M1481,406.15a.83.83,0,0,0-.47.8v2.87a.59.59,0,0,0,.66.66h3.57v-1.36a.6.6,0,0,1,.66-.66h3.17a.6.6,0,0,1,.66.66v5.05a.59.59,0,0,1-.66.66h-11.89a.6.6,0,0,1-.66-.66v-9.73c0-.63.24-.89.86-1.22l7.86-4.23v-4.88a1.2,1.2,0,0,0-1.32-1.32h-1.59a1.17,1.17,0,0,0-1.32,1.32v2.57a.49.49,0,0,1-.53.53h-3.43a.48.48,0,0,1-.53-.53v-3.5c0-3.1,1.65-4.75,4.76-4.75h3.69c3.07,0,4.76,1.65,4.76,4.75V401c0,.63-.27.89-.9,1.22Z"/><path class="cls-8" d="M1501.15,398.63c3,0,4.62,1.62,4.62,4.62v7c0,3-1.62,4.62-4.62,4.62h-4c-3,0-4.62-1.61-4.62-4.62v-8.48a4.12,4.12,0,0,1,.33-1.65l4.69-11.15a.73.73,0,0,1,.76-.5h3.43c.5,0,.7.3.5.76l-4,9.44Zm-1.06,11.85a1.18,1.18,0,0,0,1.32-1.32v-4.85a1.18,1.18,0,0,0-1.32-1.32h-1.85a1.18,1.18,0,0,0-1.32,1.32v4.85a1.18,1.18,0,0,0,1.32,1.32Z"/><polygon class="cls-9" points="1641.18 203.13 1641.18 212.04 1632.26 212.04 1632.26 220.96 1623.35 220.96 1623.35 229.87 1614.43 229.87 1614.43 240.96 1618.76 240.96 1618.76 234.2 1627.67 234.2 1627.67 225.29 1636.59 225.29 1636.59 216.37 1645.51 216.37 1645.51 207.45 1652.26 207.45 1652.26 203.13 1641.18 203.13"/><polygon class="cls-8" points="1631.09 209.18 1634.9 205.35 1634.9 207.37 1637.02 207.36 1637.01 201.75 1631.39 201.75 1631.39 203.86 1633.41 203.86 1629.59 207.68 1631.09 209.18"/><polygon class="cls-8" points="1619.09 218.9 1615.27 222.72 1615.27 220.71 1613.16 220.71 1613.16 226.32 1618.78 226.32 1618.78 224.21 1616.76 224.21 1620.58 220.39 1619.09 218.9"/><polygon class="cls-7" points="1248.72 421.93 1248.72 431.81 1238.83 431.81 1238.83 441.7 1228.95 441.7 1228.95 451.59 1219.06 451.59 1219.06 463.87 1223.86 463.87 1223.86 456.38 1233.74 456.38 1233.74 446.5 1243.63 446.5 1243.63 436.61 1253.52 436.61 1253.52 426.73 1261 426.73 1261 421.93 1248.72 421.93"/><polygon class="cls-8" points="1237.53 428.64 1241.76 424.41 1241.76 426.64 1244.11 426.64 1244.11 420.41 1237.88 420.41 1237.88 422.75 1240.11 422.75 1235.87 426.99 1237.53 428.64"/><polygon class="cls-8" points="1224.22 439.41 1219.98 443.64 1219.98 441.41 1217.64 441.41 1217.64 447.64 1223.87 447.64 1223.87 445.3 1221.64 445.3 1225.87 441.06 1224.22 439.41"/><polygon class="cls-3" points="1279.52 435.88 1277.13 424.1 1282.6 427.72 1284.24 425.25 1274.55 418.82 1268.13 428.51 1270.6 430.15 1274.22 424.69 1276.61 436.47 1279.52 435.88"/><polygon class="cls-3" points="1140.16 457.02 1128.14 457.02 1132.77 452.38 1130.67 450.28 1122.46 458.5 1130.67 466.72 1132.77 464.62 1128.14 459.98 1140.16 459.98 1140.16 457.02"/><polygon class="cls-3" points="1140.16 649.02 1128.14 649.02 1132.77 644.38 1130.67 642.28 1122.46 650.5 1130.67 658.72 1132.77 656.62 1128.14 651.98 1140.16 651.98 1140.16 649.02"/><polygon class="cls-3" points="1630.16 674.02 1618.14 674.02 1622.77 669.38 1620.67 667.28 1612.46 675.5 1620.67 683.72 1622.77 681.62 1618.14 676.98 1630.16 676.98 1630.16 674.02"/><polygon class="cls-3" points="1644.76 674.02 1656.78 674.02 1652.14 669.38 1654.24 667.28 1662.46 675.5 1654.24 683.72 1652.14 681.62 1656.78 676.98 1644.76 676.98 1644.76 674.02"/><polygon class="cls-3" points="1282.12 782.35 1282.12 770.33 1277.49 774.96 1275.39 772.87 1283.61 764.65 1291.82 772.87 1289.72 774.96 1285.09 770.33 1285.09 782.35 1282.12 782.35"/><polygon class="cls-3" points="1359.12 781.35 1359.12 769.33 1354.49 773.96 1352.39 771.87 1360.61 763.65 1368.82 771.87 1366.72 773.96 1362.09 769.33 1362.09 781.35 1359.12 781.35"/><polygon class="cls-3" points="1422.12 779.35 1422.12 767.33 1417.49 771.96 1415.39 769.87 1423.61 761.65 1431.82 769.87 1429.72 771.96 1425.09 767.33 1425.09 779.35 1422.12 779.35"/><polygon class="cls-3" points="1479.12 776.35 1479.12 764.33 1474.49 768.96 1472.39 766.87 1480.61 758.65 1488.82 766.87 1486.72 768.96 1482.09 764.33 1482.09 776.35 1479.12 776.35"/><polygon class="cls-3" points="1644.76 251.02 1656.78 251.02 1652.14 246.38 1654.24 244.28 1662.46 252.5 1654.24 260.72 1652.14 258.62 1656.78 253.98 1644.76 253.98 1644.76 251.02"/><polygon class="cls-3" points="1548 699.67 1539.48 699.67 1542.77 696.38 1541.28 694.9 1535.46 700.72 1541.28 706.54 1542.77 705.06 1539.48 701.77 1548 701.77 1548 699.67"/><polygon class="cls-3" points="1548 743.84 1539.48 743.84 1542.77 740.56 1541.28 739.07 1535.46 744.89 1541.28 750.72 1542.77 749.23 1539.48 745.95 1548 745.95 1548 743.84"/><polygon class="cls-3" points="1143.76 280.02 1155.78 280.02 1151.14 275.38 1153.24 273.28 1161.46 281.5 1153.24 289.72 1151.14 287.62 1155.78 282.98 1143.76 282.98 1143.76 280.02"/><circle class="cls-10" cx="1513" cy="525.6" r="3.88" transform="translate(-33.45 108.58) rotate(-4.07)"/><path class="cls-10" d="M1517.37,531.11h-8.73c-1.94,0-3.2,2.63-2.33,4.86l4.92,12.72a1.86,1.86,0,0,0,3.54,0L1519.7,536C1520.56,533.74,1519.3,531.11,1517.37,531.11Z"/><circle class="cls-10" cx="1513" cy="482.1" r="3.88" transform="translate(-30.37 108.47) rotate(-4.07)"/><path class="cls-10" d="M1507.52,506.48h11c1.94,0,3.2-2.4,2.33-4.45L1515,488.6a1.89,1.89,0,0,0-1.78-1.27h-.41a1.88,1.88,0,0,0-1.77,1.26L1505.19,502C1504.33,504.08,1505.59,506.48,1507.52,506.48Z"/><circle class="cls-11" cx="1510" cy="677.34" r="3.88" transform="translate(-44.22 108.75) rotate(-4.07)"/><path class="cls-11" d="M1514.37,682.85h-8.73c-1.94,0-3.2,2.63-2.33,4.86l4.92,12.72a1.86,1.86,0,0,0,3.54,0l4.93-12.72C1517.56,685.48,1516.3,682.85,1514.37,682.85Z"/><circle class="cls-10" cx="1510" cy="721.36" r="3.88" transform="translate(-47.34 108.86) rotate(-4.07)"/><path class="cls-10" d="M1504.52,745.74h11c1.94,0,3.2-2.4,2.33-4.44L1512,727.86a1.89,1.89,0,0,0-1.78-1.27h-.41a1.88,1.88,0,0,0-1.77,1.26l-5.88,13.45C1501.33,743.34,1502.59,745.74,1504.52,745.74Z"/><circle class="cls-10" cx="1467.5" cy="208.6" r="3.88" transform="translate(-11.1 104.55) rotate(-4.07)"/><path class="cls-10" d="M1471.87,214.11h-8.73c-1.94,0-3.2,2.63-2.33,4.86l4.92,12.72a1.86,1.86,0,0,0,3.54,0L1474.2,219C1475.06,216.74,1473.8,214.11,1471.87,214.11Z"/><circle class="cls-10" cx="1494" cy="208.6" r="3.88" transform="matrix(1, -0.07, 0.07, 1, -11.03, 106.43)"/><path class="cls-10" d="M1488.52,233h11c1.94,0,3.2-2.4,2.33-4.45L1496,215.1a1.89,1.89,0,0,0-1.78-1.27h-.41a1.88,1.88,0,0,0-1.77,1.26l-5.88,13.44C1485.33,230.58,1486.59,233,1488.52,233Z"/><path class="cls-3" d="M1258,350.48,1245.54,338a.48.48,0,0,1,0-.7l12.55-12.73a.51.51,0,0,1,.36-.15h.08a.5.5,0,0,1,.37.29c.73,1.58.89,4.19-2.53,7.61l-5.31,5.31a1.07,1.07,0,0,0,1.52,1.52l5.3-5.32c4.2-4.19,4.78-8.83,1.51-12.1a1,1,0,0,0-.74-.31,1.06,1.06,0,0,0-.78.32l-13.84,14a.53.53,0,0,1-.36.15h0a.47.47,0,0,1-.35-.15l-2.08-2.08a.5.5,0,0,1,0-.71l.38-.38a4.8,4.8,0,0,0,0-6.79l-5.22-5.17a1.06,1.06,0,0,0-.75-.31,1,1,0,0,0-.76.32,1.06,1.06,0,0,0-.31.75,1,1,0,0,0,.32.76l5.21,5.17a2.66,2.66,0,0,1,0,3.76l-.38.38a.48.48,0,0,1-.7,0l-6.73-6.72a1.05,1.05,0,0,0-1.51,0,1.07,1.07,0,0,0,0,1.51l6.72,6.72a.5.5,0,0,1,0,.71l-.33.34a2.64,2.64,0,0,1-1.88.77,2.61,2.61,0,0,1-1.88-.78l-5.22-5.17a1.07,1.07,0,0,0-.76-.31,1.06,1.06,0,0,0-1.07,1.07,1.07,1.07,0,0,0,.32.76l5.22,5.17a4.78,4.78,0,0,0,6.78,0l.34-.33a.48.48,0,0,1,.7,0l2.1,2.09a.51.51,0,0,1,0,.71l-12.32,12.49a1.07,1.07,0,0,0,0,1.52,1.06,1.06,0,0,0,.75.31,1.07,1.07,0,0,0,.76-.32l12.31-12.48a.47.47,0,0,1,.35-.15h0a.5.5,0,0,1,.35.14L1256.53,352a1.05,1.05,0,0,0,1.51,0,1.07,1.07,0,0,0,0-1.51Z"/><path class="cls-12" d="M1254.48,262.16a2.14,2.14,0,1,0,2.14-2.13A2.14,2.14,0,0,0,1254.48,262.16Z"/><path class="cls-12" d="M1242.14,269.22h8.24c.95-1.6,3.47-2.42,4.36-2.72a1.13,1.13,0,0,1,.31-.06.52.52,0,0,1,.21,0l1.36.48,1.36-.48a.86.86,0,0,1,.27-.05.78.78,0,0,1,.26,0,10.54,10.54,0,0,1,3.89,2.14V257.48h-20.26Zm14.48-10.79a3.73,3.73,0,1,1-3.74,3.73A3.74,3.74,0,0,1,1256.62,258.43ZM1245,259.62h4.65a.8.8,0,0,1,0,1.6H1245a.8.8,0,1,1,0-1.6Zm0,2.93h4.65a.8.8,0,0,1,0,1.6H1245a.8.8,0,0,1,0-1.6Zm0,2.93h2.69a.8.8,0,1,1,0,1.6H1245a.8.8,0,1,1,0-1.6Z"/><path class="cls-12" d="M1256.36,268.57l-1.37-.46a6.82,6.82,0,0,0-2.26,1.11h7.78a6.82,6.82,0,0,0-2.26-1.11l-1.36.46a.92.92,0,0,1-.28.05A.7.7,0,0,1,1256.36,268.57Z"/><path class="cls-3" d="M1245,261h4.65a.55.55,0,0,0,.55-.55.54.54,0,0,0-.55-.55H1245a.55.55,0,0,0-.55.55A.55.55,0,0,0,1245,261Z"/><path class="cls-3" d="M1253.13,262.16a3.49,3.49,0,1,0,3.49-3.48A3.49,3.49,0,0,0,1253.13,262.16Zm3.49-2.38a2.38,2.38,0,1,1-2.39,2.38A2.38,2.38,0,0,1,1256.62,259.78Z"/><path class="cls-3" d="M1262.78,255.6h-21a1.52,1.52,0,0,0-1.51,1.51v12.48a1.52,1.52,0,0,0,1.51,1.51h21a1.52,1.52,0,0,0,1.51-1.51V257.11A1.52,1.52,0,0,0,1262.78,255.6Zm-2,13.71a.25.25,0,0,1-.23.16h-7.78a.26.26,0,0,1-.23-.16.25.25,0,0,1,.07-.28,6.58,6.58,0,0,1,2.18-1.1l.16-.06h.16l1.37.47a.47.47,0,0,0,.17,0,.79.79,0,0,0,.2,0l1.36-.46h.17l.17.07a6.46,6.46,0,0,1,2.16,1.09A.25.25,0,0,1,1260.74,269.31Zm1.91-.7a.24.24,0,0,1-.16.23l-.09,0a.25.25,0,0,1-.18-.08,10.33,10.33,0,0,0-3.79-2.07l-.18,0-.18,0-1.36.48-.09,0-.08,0-1.36-.48-.13,0a.8.8,0,0,0-.23.05l-.07,0c-.9.3-3.27,1.1-4.15,2.58a.26.26,0,0,1-.22.13h-8.24a.25.25,0,0,1-.25-.25V257.48a.25.25,0,0,1,.25-.25h20.26a.25.25,0,0,1,.25.25Z"/><path class="cls-3" d="M1245,266.83h2.69a.55.55,0,0,0,.55-.55.55.55,0,0,0-.55-.55H1245a.55.55,0,0,0-.55.55A.55.55,0,0,0,1245,266.83Z"/><path class="cls-3" d="M1245,263.9h4.65a.55.55,0,0,0,0-1.1H1245a.55.55,0,0,0,0,1.1Z"/><polygon class="cls-7" points="1236.72 171.93 1236.72 181.81 1226.83 181.81 1226.83 191.7 1216.95 191.7 1216.95 201.59 1207.06 201.59 1207.06 213.87 1211.86 213.87 1211.86 206.38 1221.74 206.38 1221.74 196.5 1231.63 196.5 1231.63 186.61 1241.52 186.61 1241.52 176.73 1249 176.73 1249 171.93 1236.72 171.93"/><polygon class="cls-8" points="1225.53 178.64 1229.76 174.41 1229.76 176.64 1232.11 176.64 1232.11 170.41 1225.88 170.41 1225.88 172.75 1228.11 172.75 1223.87 176.99 1225.53 178.64"/><polygon class="cls-8" points="1212.22 189.41 1207.98 193.64 1207.98 191.41 1205.64 191.41 1205.64 197.64 1211.87 197.64 1211.87 195.3 1209.64 195.3 1213.87 191.06 1212.22 189.41"/><path class="cls-8" d="M1280,691.74a9.08,9.08,0,0,0-9,9.1,8.23,8.23,0,0,0,3.61,7.17V711a1.3,1.3,0,0,0,1.28,1.2h.11l8.25-.67a1.25,1.25,0,0,0,1.16-1.2V708a8.92,8.92,0,0,0,3.6-7.19A9.08,9.08,0,0,0,1280,691.74Zm3.59,14.55a1.15,1.15,0,0,0-.59,1.06v1.83l-6,.47v-2.3a1.17,1.17,0,0,0-.54-1,5.85,5.85,0,0,1-3-5.47,6.59,6.59,0,1,1,13.17,0A6,6,0,0,1,1283.59,706.29Zm1.7,7.75a1.19,1.19,0,0,1-1.1,1.28l-8.2.6h-.09a1.2,1.2,0,0,1-1.19-1.11,1.21,1.21,0,0,1,1.11-1.29l8.2-.59A1.18,1.18,0,0,1,1285.29,714Zm-2.61,3.79a1.2,1.2,0,0,1-1.1,1.29l-3,.23h-.09a1.2,1.2,0,0,1-.09-2.4l3-.23A1.2,1.2,0,0,1,1282.68,717.83Zm2.1-17a1,1,0,0,1-1,.94h-.11a1.06,1.06,0,0,1-.94-1.15,2.29,2.29,0,0,0-1.5-2.39,1.06,1.06,0,0,1-.63-1.34,1,1,0,0,1,1.33-.64A4.4,4.4,0,0,1,1284.78,700.82Z"/><path class="cls-8" d="M1355,664.74a9.08,9.08,0,0,0-9,9.1,8.23,8.23,0,0,0,3.61,7.17V684a1.3,1.3,0,0,0,1.28,1.2h.11l8.25-.67a1.25,1.25,0,0,0,1.16-1.2V681a8.92,8.92,0,0,0,3.6-7.19A9.08,9.08,0,0,0,1355,664.74Zm3.59,14.55a1.15,1.15,0,0,0-.59,1.06v1.83l-6,.47v-2.3a1.17,1.17,0,0,0-.54-1,5.85,5.85,0,0,1-3-5.47,6.59,6.59,0,1,1,13.17,0A6,6,0,0,1,1358.59,679.29Zm1.7,7.75a1.19,1.19,0,0,1-1.1,1.28l-8.2.6h-.09a1.2,1.2,0,0,1-1.19-1.11,1.21,1.21,0,0,1,1.11-1.29l8.2-.59A1.18,1.18,0,0,1,1360.29,687Zm-2.61,3.79a1.2,1.2,0,0,1-1.1,1.29l-3,.23h-.09a1.2,1.2,0,0,1-.09-2.4l3-.23A1.2,1.2,0,0,1,1357.68,690.83Zm2.1-17a1,1,0,0,1-1,.94h-.11a1.06,1.06,0,0,1-.94-1.15,2.29,2.29,0,0,0-1.5-2.39,1.06,1.06,0,0,1-.63-1.34,1,1,0,0,1,1.33-.64A4.4,4.4,0,0,1,1359.78,673.82Z"/><path class="cls-8" d="M1417,664.74a9.08,9.08,0,0,0-9,9.1,8.23,8.23,0,0,0,3.61,7.17V684a1.3,1.3,0,0,0,1.28,1.2h.11l8.25-.67a1.25,1.25,0,0,0,1.16-1.2V681a8.92,8.92,0,0,0,3.6-7.19A9.08,9.08,0,0,0,1417,664.74Zm3.59,14.55a1.15,1.15,0,0,0-.59,1.06v1.83l-6,.47v-2.3a1.17,1.17,0,0,0-.54-1,5.85,5.85,0,0,1-3-5.47,6.59,6.59,0,1,1,13.17,0A6,6,0,0,1,1420.59,679.29Zm1.7,7.75a1.19,1.19,0,0,1-1.1,1.28l-8.2.6h-.09a1.2,1.2,0,0,1-1.19-1.11,1.21,1.21,0,0,1,1.11-1.29l8.2-.59A1.18,1.18,0,0,1,1422.29,687Zm-2.61,3.79a1.2,1.2,0,0,1-1.1,1.29l-3,.23h-.09a1.2,1.2,0,0,1-.09-2.4l3-.23A1.2,1.2,0,0,1,1419.68,690.83Zm2.1-17a1,1,0,0,1-1,.94h-.11a1.06,1.06,0,0,1-.94-1.15,2.29,2.29,0,0,0-1.5-2.39,1.06,1.06,0,0,1-.63-1.34,1,1,0,0,1,1.33-.64A4.4,4.4,0,0,1,1421.78,673.82Z"/><path class="cls-12" d="M1242.73,383.42c4.92-1.93,16.35-7.92,16-21.76h-.46c-11.34,0-18.44,8.23-21.32,15.95Zm6.88-16.46a2.69,2.69,0,0,1,3.8,3.8,2.69,2.69,0,1,1-3.8-3.8Z"/><path class="cls-12" d="M1246,390.82a7.29,7.29,0,0,0,2.39-6.43,35.15,35.15,0,0,1-3.48,1.72A9.12,9.12,0,0,1,1246,390.82Z"/><path class="cls-12" d="M1233.9,387.86a1.33,1.33,0,0,0,.45-.8,1.06,1.06,0,0,0-.36-.69,1,1,0,0,0-.7-.36,1.22,1.22,0,0,0-.81.45,4.67,4.67,0,0,0-.83,2.24A4.53,4.53,0,0,0,1233.9,387.86Z"/><path class="cls-12" d="M1229.89,374.36a9.16,9.16,0,0,1,4.33,1.07,31.35,31.35,0,0,1,1.69-3.45,5.19,5.19,0,0,0-1-.09,7.66,7.66,0,0,0-5.33,2.48Z"/><path class="cls-3" d="M1236,384.39a3.65,3.65,0,0,0-2.62-1.18,4.11,4.11,0,0,0-2.85,1.26c-1.75,1.76-1.82,5.37-1.82,6.08a1.18,1.18,0,0,0,1.14,1.17h.06c.42,0,4.2-.05,6-1.85a3.91,3.91,0,0,0,1.27-2.79A3.83,3.83,0,0,0,1236,384.39Zm-1.72,3.83a5.14,5.14,0,0,1-2.52,1h-.08a.52.52,0,0,1-.36-.14.55.55,0,0,1-.14-.44,5.24,5.24,0,0,1,1-2.52,1.68,1.68,0,0,1,1.16-.59,1.48,1.48,0,0,1,1,.5,1.53,1.53,0,0,1,.51,1.05A1.71,1.71,0,0,1,1234.25,388.22Z"/><path class="cls-3" d="M1261.4,360a1.16,1.16,0,0,0-1.06-1.06c-.72-.05-1.44-.08-2.14-.08a24.36,24.36,0,0,0-20,10.49.49.49,0,0,1-.4.21.41.41,0,0,1-.16,0,8.89,8.89,0,0,0-2.75-.44,9.43,9.43,0,0,0-4.68,1.28,13.88,13.88,0,0,0-5.59,6.24,1.14,1.14,0,0,0,.24,1.33,1.19,1.19,0,0,0,.8.32,1.1,1.1,0,0,0,.53-.14,8,8,0,0,1,3.7-.95,6,6,0,0,1,4.3,1.69l7.29,7.28a.2.2,0,0,0,.06.07c1.91,1.91,2.21,5.12.71,8a1.16,1.16,0,0,0,1,1.69,1.17,1.17,0,0,0,.49-.11,13.92,13.92,0,0,0,6.25-5.59,9.15,9.15,0,0,0,.83-7.47.49.49,0,0,1,.18-.56,28.11,28.11,0,0,0,4.87-4.42A23.25,23.25,0,0,0,1261.4,360Zm-25.06,12.23a32.37,32.37,0,0,0-1.66,3.4.47.47,0,0,1-.29.28.51.51,0,0,1-.17,0,.53.53,0,0,1-.24-.06,8.66,8.66,0,0,0-4.09-1h-.34a.51.51,0,0,1-.36-.86,8.22,8.22,0,0,1,5.69-2.62,7,7,0,0,1,1.12.09.51.51,0,0,1,.36.28A.5.5,0,0,1,1236.34,372.22Zm10,18.95a.47.47,0,0,1-.35.15.52.52,0,0,1-.5-.52,8.57,8.57,0,0,0-1-4.45.53.53,0,0,1,0-.41.5.5,0,0,1,.28-.29,37.42,37.42,0,0,0,3.42-1.69.45.45,0,0,1,.25-.07.54.54,0,0,1,.21.05.51.51,0,0,1,.28.36A7.69,7.69,0,0,1,1246.35,391.17Zm-3.43-7.28a.58.58,0,0,1-.19,0,.52.52,0,0,1-.35-.14l-5.82-5.82a.5.5,0,0,1-.12-.53c2.94-7.87,10.21-16.27,21.79-16.27h.47a.5.5,0,0,1,.49.49C1259.59,375.8,1247.94,381.92,1242.92,383.89Z"/><path class="cls-3" d="M1249.32,368.86a2.18,2.18,0,0,0,3.73,1.54,2.18,2.18,0,0,0-1.54-3.72,2.19,2.19,0,0,0-1.54.63A2.22,2.22,0,0,0,1249.32,368.86Z"/><path class="cls-3" d="M1251.51,369.55a.72.72,0,0,1-.69-.69.68.68,0,0,1,.21-.48.66.66,0,0,1,.48-.2.68.68,0,0,1,.68.68.66.66,0,0,1-.2.48A.68.68,0,0,1,1251.51,369.55Z"/><path class="cls-8" d="M1254.5,579.09a5.24,5.24,0,1,1,5.24-5.23A5.24,5.24,0,0,1,1254.5,579.09Zm0-8.55a3.32,3.32,0,1,0,3.32,3.32A3.32,3.32,0,0,0,1254.5,570.54Zm0,15.81h-.15a14.65,14.65,0,0,1-1.81-.11,1,1,0,0,1-.83-.82l-.26-1.95a9.06,9.06,0,0,1-1.73-.73l-1.54,1.16a1,1,0,0,1-1.16,0,14.73,14.73,0,0,1-1.36-1.2l-.1-.11a13.91,13.91,0,0,1-1.2-1.35,1,1,0,0,1,0-1.17l1.19-1.57a9,9,0,0,1-.7-1.73l-1.91-.27a1,1,0,0,1-.82-.83,17.32,17.32,0,0,1-.11-1.81v-.15a17.32,17.32,0,0,1,.11-1.81,1,1,0,0,1,.82-.83l2-.26a10.45,10.45,0,0,1,.73-1.72l-1.16-1.55a1,1,0,0,1,0-1.16,16.73,16.73,0,0,1,1.2-1.36l.11-.1a17.24,17.24,0,0,1,1.35-1.2,1,1,0,0,1,1.17,0l1.57,1.19a10.27,10.27,0,0,1,1.73-.7l.27-1.91a1,1,0,0,1,.83-.82,17.32,17.32,0,0,1,1.81-.11h.15a17.32,17.32,0,0,1,1.81.11,1,1,0,0,1,.83.82l.27,2a9.93,9.93,0,0,1,1.72.72l1.54-1.16a1,1,0,0,1,1.16,0,14.73,14.73,0,0,1,1.36,1.2l.11.11a17.59,17.59,0,0,1,1.2,1.35,1,1,0,0,1,0,1.17l-1.19,1.57a9.68,9.68,0,0,1,.71,1.73l1.9.27a1,1,0,0,1,.82.83,14.65,14.65,0,0,1,.11,1.81V574a14.65,14.65,0,0,1-.11,1.81,1,1,0,0,1-.82.83l-2,.26a9.75,9.75,0,0,1-.73,1.73l1.16,1.54a1,1,0,0,1,0,1.16,14.73,14.73,0,0,1-1.2,1.36l-.1.1a18.06,18.06,0,0,1-1.36,1.21,1,1,0,0,1-1.17,0l-1.57-1.19a10.44,10.44,0,0,1-1.73.7l-.27,1.91a1,1,0,0,1-.83.82A14.28,14.28,0,0,1,1254.5,586.35Zm-1-2c.24,0,.53,0,.83,0h.15c.3,0,.6,0,.84,0l.26-1.79a1,1,0,0,1,.73-.81,7.89,7.89,0,0,0,2.39-1,1,1,0,0,1,.73-.11.91.91,0,0,1,.38.19l1.43,1.09c.19-.17.4-.36.62-.58l.1-.1c.21-.21.41-.43.58-.62l-1.09-1.44a1,1,0,0,1,0-1.09,8,8,0,0,0,1-2.31.94.94,0,0,1,.81-.78l1.82-.25c0-.25,0-.54,0-.84v-.15c0-.3,0-.59,0-.84l-1.79-.26a1,1,0,0,1-.8-.73,8,8,0,0,0-1-2.36,1,1,0,0,1-.1-.21.94.94,0,0,1,.14-.9l1.11-1.46c-.17-.19-.36-.4-.57-.61l-.11-.11c-.21-.21-.43-.41-.61-.57l-1.45,1.08a1,1,0,0,1-1.15,0,8.1,8.1,0,0,0-2.31-1,1,1,0,0,1-.72-.8l-.25-1.82c-.25,0-.54,0-.84,0h-.15c-.3,0-.59,0-.84,0l-.25,1.79a1,1,0,0,1-.81.82,7.83,7.83,0,0,0-2.32,1,1,1,0,0,1-.74.11,1.07,1.07,0,0,1-.38-.2l-1.42-1.08c-.19.17-.4.36-.61.58l-.11.1c-.21.22-.41.43-.57.62l1.09,1.44a1,1,0,0,1,0,1.08l-.06.08a8.3,8.3,0,0,0-1,2.3,1,1,0,0,1-.8.73l-1.82.24c0,.25,0,.54,0,.84v.15c0,.3,0,.59,0,.84l1.8.26a1,1,0,0,1,.81.81v0a8,8,0,0,0,.94,2.28,1,1,0,0,1,.09.8,1,1,0,0,1-.18.32l-1.07,1.41c.16.19.36.4.57.61l.1.11c.22.21.43.41.62.57l1.44-1.08a1,1,0,0,1,1.2,0,8.13,8.13,0,0,0,2.26.94,1,1,0,0,1,.73.8Z"/><path class="cls-8" d="M1254.5,492.09a5.24,5.24,0,1,1,5.24-5.23A5.24,5.24,0,0,1,1254.5,492.09Zm0-8.55a3.32,3.32,0,1,0,3.32,3.32A3.32,3.32,0,0,0,1254.5,483.54Zm0,15.81h-.15a14.65,14.65,0,0,1-1.81-.11,1,1,0,0,1-.83-.82l-.26-1.95a9.06,9.06,0,0,1-1.73-.73l-1.54,1.16a1,1,0,0,1-1.16,0,14.73,14.73,0,0,1-1.36-1.2l-.1-.11a13.91,13.91,0,0,1-1.2-1.35,1,1,0,0,1,0-1.17l1.19-1.57a9,9,0,0,1-.7-1.73l-1.91-.27a1,1,0,0,1-.82-.83,17.32,17.32,0,0,1-.11-1.81v-.15a17.32,17.32,0,0,1,.11-1.81,1,1,0,0,1,.82-.83l2-.26a10.45,10.45,0,0,1,.73-1.72l-1.16-1.55a1,1,0,0,1,0-1.16,16.73,16.73,0,0,1,1.2-1.36l.11-.1a17.24,17.24,0,0,1,1.35-1.2,1,1,0,0,1,1.17,0l1.57,1.19a10.27,10.27,0,0,1,1.73-.7l.27-1.91a1,1,0,0,1,.83-.82,17.32,17.32,0,0,1,1.81-.11h.15a17.32,17.32,0,0,1,1.81.11,1,1,0,0,1,.83.82l.27,2a9.93,9.93,0,0,1,1.72.72l1.54-1.16a1,1,0,0,1,1.16,0,14.73,14.73,0,0,1,1.36,1.2l.11.11a17.59,17.59,0,0,1,1.2,1.35,1,1,0,0,1,0,1.17l-1.19,1.57a9.68,9.68,0,0,1,.71,1.73l1.9.27a1,1,0,0,1,.82.83,14.65,14.65,0,0,1,.11,1.81V487a14.65,14.65,0,0,1-.11,1.81,1,1,0,0,1-.82.83l-2,.26a9.75,9.75,0,0,1-.73,1.73l1.16,1.54a1,1,0,0,1,0,1.16,14.73,14.73,0,0,1-1.2,1.36l-.1.1a18.06,18.06,0,0,1-1.36,1.21,1,1,0,0,1-1.17,0l-1.57-1.19a10.44,10.44,0,0,1-1.73.7l-.27,1.91a1,1,0,0,1-.83.82A14.28,14.28,0,0,1,1254.5,499.35Zm-1-2c.24,0,.53,0,.83,0h.15c.3,0,.6,0,.84,0l.26-1.79a1,1,0,0,1,.73-.81,7.89,7.89,0,0,0,2.39-1,1,1,0,0,1,.73-.11.91.91,0,0,1,.38.19l1.43,1.09c.19-.17.4-.36.62-.58l.1-.1c.21-.21.41-.43.58-.62l-1.09-1.44a1,1,0,0,1,0-1.09,8,8,0,0,0,1-2.31.94.94,0,0,1,.81-.78l1.82-.25c0-.25,0-.54,0-.84v-.15c0-.3,0-.59,0-.84l-1.79-.26a1,1,0,0,1-.8-.73,8,8,0,0,0-1-2.36,1,1,0,0,1-.1-.21.94.94,0,0,1,.14-.9l1.11-1.46c-.17-.19-.36-.4-.57-.61l-.11-.11c-.21-.21-.43-.41-.61-.57l-1.45,1.08a1,1,0,0,1-1.15,0,8.1,8.1,0,0,0-2.31-1,1,1,0,0,1-.72-.8l-.25-1.82c-.25,0-.54,0-.84,0h-.15c-.3,0-.59,0-.84,0l-.25,1.79a1,1,0,0,1-.81.82,7.83,7.83,0,0,0-2.32.95,1,1,0,0,1-.74.11,1.07,1.07,0,0,1-.38-.2l-1.42-1.08c-.19.17-.4.36-.61.58l-.11.1c-.21.22-.41.43-.57.62l1.09,1.44a1,1,0,0,1,0,1.08l-.06.08a8.3,8.3,0,0,0-1,2.3,1,1,0,0,1-.8.73l-1.82.24c0,.25,0,.54,0,.84v.15c0,.3,0,.59,0,.84l1.8.26a1,1,0,0,1,.81.81v0a8,8,0,0,0,.94,2.28,1,1,0,0,1,.09.8,1,1,0,0,1-.18.32l-1.07,1.41c.16.19.36.4.57.61l.1.11c.22.21.43.41.62.57l1.44-1.08a1,1,0,0,1,1.2,0,8.13,8.13,0,0,0,2.26.94,1,1,0,0,1,.73.8Z"/><path class="cls-8" d="M1375.5,579.09a5.24,5.24,0,1,1,5.24-5.23A5.24,5.24,0,0,1,1375.5,579.09Zm0-8.55a3.32,3.32,0,1,0,3.32,3.32A3.32,3.32,0,0,0,1375.5,570.54Zm0,15.81h-.15a14.65,14.65,0,0,1-1.81-.11,1,1,0,0,1-.83-.82l-.26-1.95a9.06,9.06,0,0,1-1.73-.73l-1.54,1.16a1,1,0,0,1-1.16,0,14.73,14.73,0,0,1-1.36-1.2l-.1-.11a13.91,13.91,0,0,1-1.2-1.35,1,1,0,0,1,0-1.17l1.19-1.57a9,9,0,0,1-.7-1.73l-1.91-.27a1,1,0,0,1-.82-.83,17.32,17.32,0,0,1-.11-1.81v-.15a17.32,17.32,0,0,1,.11-1.81,1,1,0,0,1,.82-.83l2-.26a10.45,10.45,0,0,1,.73-1.72l-1.16-1.55a1,1,0,0,1,0-1.16,16.73,16.73,0,0,1,1.2-1.36l.11-.1a17.24,17.24,0,0,1,1.35-1.2,1,1,0,0,1,1.17,0l1.57,1.19a10.27,10.27,0,0,1,1.73-.7l.27-1.91a1,1,0,0,1,.83-.82,17.32,17.32,0,0,1,1.81-.11h.15a17.32,17.32,0,0,1,1.81.11,1,1,0,0,1,.83.82l.27,2a9.93,9.93,0,0,1,1.72.72l1.54-1.16a1,1,0,0,1,1.16,0,14.73,14.73,0,0,1,1.36,1.2l.11.11a17.59,17.59,0,0,1,1.2,1.35,1,1,0,0,1,0,1.17l-1.19,1.57a9.68,9.68,0,0,1,.71,1.73l1.9.27a1,1,0,0,1,.82.83,14.65,14.65,0,0,1,.11,1.81V574a14.65,14.65,0,0,1-.11,1.81,1,1,0,0,1-.82.83l-2,.26a9.75,9.75,0,0,1-.73,1.73l1.16,1.54a1,1,0,0,1,0,1.16,14.73,14.73,0,0,1-1.2,1.36l-.1.1a18.06,18.06,0,0,1-1.36,1.21,1,1,0,0,1-1.17,0l-1.57-1.19a10.44,10.44,0,0,1-1.73.7l-.27,1.91a1,1,0,0,1-.83.82A14.28,14.28,0,0,1,1375.5,586.35Zm-1-2c.24,0,.53,0,.83,0h.15c.3,0,.6,0,.84,0l.26-1.79a1,1,0,0,1,.73-.81,7.89,7.89,0,0,0,2.39-1,1,1,0,0,1,.73-.11.91.91,0,0,1,.38.19l1.43,1.09c.19-.17.4-.36.62-.58l.1-.1c.21-.21.41-.43.58-.62l-1.09-1.44a1,1,0,0,1,0-1.09,8,8,0,0,0,1-2.31.94.94,0,0,1,.81-.78l1.82-.25c0-.25,0-.54,0-.84v-.15c0-.3,0-.59,0-.84l-1.79-.26a1,1,0,0,1-.8-.73,8,8,0,0,0-1-2.36,1,1,0,0,1-.1-.21.94.94,0,0,1,.14-.9l1.11-1.46c-.17-.19-.36-.4-.57-.61l-.11-.11c-.21-.21-.43-.41-.61-.57l-1.45,1.08a1,1,0,0,1-1.15,0,8.1,8.1,0,0,0-2.31-1,1,1,0,0,1-.72-.8l-.25-1.82c-.25,0-.54,0-.84,0h-.15c-.3,0-.59,0-.84,0l-.25,1.79a1,1,0,0,1-.81.82,7.83,7.83,0,0,0-2.32,1,1,1,0,0,1-.74.11,1.07,1.07,0,0,1-.38-.2l-1.42-1.08c-.19.17-.4.36-.61.58l-.11.1c-.21.22-.41.43-.57.62l1.09,1.44a1,1,0,0,1,0,1.08l-.06.08a8.3,8.3,0,0,0-1,2.3,1,1,0,0,1-.8.73l-1.82.24c0,.25,0,.54,0,.84v.15c0,.3,0,.59,0,.84l1.8.26a1,1,0,0,1,.81.81v0a8,8,0,0,0,.94,2.28,1,1,0,0,1,.09.8,1,1,0,0,1-.18.32l-1.07,1.41c.16.19.36.4.57.61l.1.11c.22.21.43.41.62.57l1.44-1.08a1,1,0,0,1,1.2,0,8.13,8.13,0,0,0,2.26.94,1,1,0,0,1,.73.8Z"/><path class="cls-8" d="M1375.5,492.09a5.24,5.24,0,1,1,5.24-5.23A5.24,5.24,0,0,1,1375.5,492.09Zm0-8.55a3.32,3.32,0,1,0,3.32,3.32A3.32,3.32,0,0,0,1375.5,483.54Zm0,15.81h-.15a14.65,14.65,0,0,1-1.81-.11,1,1,0,0,1-.83-.82l-.26-1.95a9.06,9.06,0,0,1-1.73-.73l-1.54,1.16a1,1,0,0,1-1.16,0,14.73,14.73,0,0,1-1.36-1.2l-.1-.11a13.91,13.91,0,0,1-1.2-1.35,1,1,0,0,1,0-1.17l1.19-1.57a9,9,0,0,1-.7-1.73l-1.91-.27a1,1,0,0,1-.82-.83,17.32,17.32,0,0,1-.11-1.81v-.15a17.32,17.32,0,0,1,.11-1.81,1,1,0,0,1,.82-.83l2-.26a10.45,10.45,0,0,1,.73-1.72l-1.16-1.55a1,1,0,0,1,0-1.16,16.73,16.73,0,0,1,1.2-1.36l.11-.1a17.24,17.24,0,0,1,1.35-1.2,1,1,0,0,1,1.17,0l1.57,1.19a10.27,10.27,0,0,1,1.73-.7l.27-1.91a1,1,0,0,1,.83-.82,17.32,17.32,0,0,1,1.81-.11h.15a17.32,17.32,0,0,1,1.81.11,1,1,0,0,1,.83.82l.27,2a9.93,9.93,0,0,1,1.72.72l1.54-1.16a1,1,0,0,1,1.16,0,14.73,14.73,0,0,1,1.36,1.2l.11.11a17.59,17.59,0,0,1,1.2,1.35,1,1,0,0,1,0,1.17l-1.19,1.57a9.68,9.68,0,0,1,.71,1.73l1.9.27a1,1,0,0,1,.82.83,14.65,14.65,0,0,1,.11,1.81V487a14.65,14.65,0,0,1-.11,1.81,1,1,0,0,1-.82.83l-2,.26a9.75,9.75,0,0,1-.73,1.73l1.16,1.54a1,1,0,0,1,0,1.16,14.73,14.73,0,0,1-1.2,1.36l-.1.1a18.06,18.06,0,0,1-1.36,1.21,1,1,0,0,1-1.17,0l-1.57-1.19a10.44,10.44,0,0,1-1.73.7l-.27,1.91a1,1,0,0,1-.83.82A14.28,14.28,0,0,1,1375.5,499.35Zm-1-2c.24,0,.53,0,.83,0h.15c.3,0,.6,0,.84,0l.26-1.79a1,1,0,0,1,.73-.81,7.89,7.89,0,0,0,2.39-1,1,1,0,0,1,.73-.11.91.91,0,0,1,.38.19l1.43,1.09c.19-.17.4-.36.62-.58l.1-.1c.21-.21.41-.43.58-.62l-1.09-1.44a1,1,0,0,1,0-1.09,8,8,0,0,0,1-2.31.94.94,0,0,1,.81-.78l1.82-.25c0-.25,0-.54,0-.84v-.15c0-.3,0-.59,0-.84l-1.79-.26a1,1,0,0,1-.8-.73,8,8,0,0,0-1-2.36,1,1,0,0,1-.1-.21.94.94,0,0,1,.14-.9l1.11-1.46c-.17-.19-.36-.4-.57-.61l-.11-.11c-.21-.21-.43-.41-.61-.57l-1.45,1.08a1,1,0,0,1-1.15,0,8.1,8.1,0,0,0-2.31-1,1,1,0,0,1-.72-.8l-.25-1.82c-.25,0-.54,0-.84,0h-.15c-.3,0-.59,0-.84,0l-.25,1.79a1,1,0,0,1-.81.82,7.83,7.83,0,0,0-2.32.95,1,1,0,0,1-.74.11,1.07,1.07,0,0,1-.38-.2l-1.42-1.08c-.19.17-.4.36-.61.58l-.11.1c-.21.22-.41.43-.57.62l1.09,1.44a1,1,0,0,1,0,1.08l-.06.08a8.3,8.3,0,0,0-1,2.3,1,1,0,0,1-.8.73l-1.82.24c0,.25,0,.54,0,.84v.15c0,.3,0,.59,0,.84l1.8.26a1,1,0,0,1,.81.81v0a8,8,0,0,0,.94,2.28,1,1,0,0,1,.09.8,1,1,0,0,1-.18.32l-1.07,1.41c.16.19.36.4.57.61l.1.11c.22.21.43.41.62.57l1.44-1.08a1,1,0,0,1,1.2,0,8.13,8.13,0,0,0,2.26.94,1,1,0,0,1,.73.8Z"/><path class="cls-8" d="M1472.5,492.09a5.24,5.24,0,1,1,5.24-5.23A5.24,5.24,0,0,1,1472.5,492.09Zm0-8.55a3.32,3.32,0,1,0,3.32,3.32A3.32,3.32,0,0,0,1472.5,483.54Zm0,15.81h-.15a14.65,14.65,0,0,1-1.81-.11,1,1,0,0,1-.83-.82l-.26-1.95a9.06,9.06,0,0,1-1.73-.73l-1.54,1.16a1,1,0,0,1-1.16,0,14.73,14.73,0,0,1-1.36-1.2l-.1-.11a13.91,13.91,0,0,1-1.2-1.35,1,1,0,0,1,0-1.17l1.19-1.57a9,9,0,0,1-.7-1.73l-1.91-.27a1,1,0,0,1-.82-.83,17.32,17.32,0,0,1-.11-1.81v-.15a17.32,17.32,0,0,1,.11-1.81,1,1,0,0,1,.82-.83l2-.26a10.45,10.45,0,0,1,.73-1.72l-1.16-1.55a1,1,0,0,1,0-1.16,16.73,16.73,0,0,1,1.2-1.36l.11-.1a17.24,17.24,0,0,1,1.35-1.2,1,1,0,0,1,1.17,0l1.57,1.19a10.27,10.27,0,0,1,1.73-.7l.27-1.91a1,1,0,0,1,.83-.82,17.32,17.32,0,0,1,1.81-.11h.15a17.32,17.32,0,0,1,1.81.11,1,1,0,0,1,.83.82l.27,2a9.93,9.93,0,0,1,1.72.72l1.54-1.16a1,1,0,0,1,1.16,0,14.73,14.73,0,0,1,1.36,1.2l.11.11a17.59,17.59,0,0,1,1.2,1.35,1,1,0,0,1,0,1.17l-1.19,1.57a9.68,9.68,0,0,1,.71,1.73l1.9.27a1,1,0,0,1,.82.83,14.65,14.65,0,0,1,.11,1.81V487a14.65,14.65,0,0,1-.11,1.81,1,1,0,0,1-.82.83l-2,.26a9.75,9.75,0,0,1-.73,1.73l1.16,1.54a1,1,0,0,1,0,1.16,14.73,14.73,0,0,1-1.2,1.36l-.1.1a18.06,18.06,0,0,1-1.36,1.21,1,1,0,0,1-1.17,0l-1.57-1.19a10.44,10.44,0,0,1-1.73.7l-.27,1.91a1,1,0,0,1-.83.82A14.28,14.28,0,0,1,1472.5,499.35Zm-1-2c.24,0,.53,0,.83,0h.15c.3,0,.6,0,.84,0l.26-1.79a1,1,0,0,1,.73-.81,7.89,7.89,0,0,0,2.39-1,1,1,0,0,1,.73-.11.91.91,0,0,1,.38.19l1.43,1.09c.19-.17.4-.36.62-.58l.1-.1c.21-.21.41-.43.58-.62l-1.09-1.44a1,1,0,0,1,0-1.09,8,8,0,0,0,1-2.31.94.94,0,0,1,.81-.78l1.82-.25c0-.25,0-.54,0-.84v-.15c0-.3,0-.59,0-.84l-1.79-.26a1,1,0,0,1-.8-.73,8,8,0,0,0-1-2.36,1,1,0,0,1-.1-.21.94.94,0,0,1,.14-.9l1.11-1.46c-.17-.19-.36-.4-.57-.61l-.11-.11c-.21-.21-.43-.41-.61-.57l-1.45,1.08a1,1,0,0,1-1.15,0,8.1,8.1,0,0,0-2.31-1,1,1,0,0,1-.72-.8l-.25-1.82c-.25,0-.54,0-.84,0h-.15c-.3,0-.59,0-.84,0l-.25,1.79a1,1,0,0,1-.81.82,7.83,7.83,0,0,0-2.32.95,1,1,0,0,1-.74.11,1.07,1.07,0,0,1-.38-.2l-1.42-1.08c-.19.17-.4.36-.61.58l-.11.1c-.21.22-.41.43-.57.62l1.09,1.44a1,1,0,0,1,0,1.08l-.06.08a8.3,8.3,0,0,0-1,2.3,1,1,0,0,1-.8.73l-1.82.24c0,.25,0,.54,0,.84v.15c0,.3,0,.59,0,.84l1.8.26a1,1,0,0,1,.81.81v0a8,8,0,0,0,.94,2.28,1,1,0,0,1,.09.8,1,1,0,0,1-.18.32l-1.07,1.41c.16.19.36.4.57.61l.1.11c.22.21.43.41.62.57l1.44-1.08a1,1,0,0,1,1.2,0,8.13,8.13,0,0,0,2.26.94,1,1,0,0,1,.73.8Z"/><path class="cls-8" d="M1635.5,492.09a5.24,5.24,0,1,1,5.24-5.23A5.24,5.24,0,0,1,1635.5,492.09Zm0-8.55a3.32,3.32,0,1,0,3.32,3.32A3.32,3.32,0,0,0,1635.5,483.54Zm0,15.81h-.15a14.65,14.65,0,0,1-1.81-.11,1,1,0,0,1-.83-.82l-.26-1.95a9.06,9.06,0,0,1-1.73-.73l-1.54,1.16a1,1,0,0,1-1.16,0,14.73,14.73,0,0,1-1.36-1.2l-.1-.11a13.91,13.91,0,0,1-1.2-1.35,1,1,0,0,1,0-1.17l1.19-1.57a9,9,0,0,1-.7-1.73l-1.91-.27a1,1,0,0,1-.82-.83,17.32,17.32,0,0,1-.11-1.81v-.15a17.32,17.32,0,0,1,.11-1.81,1,1,0,0,1,.82-.83l2-.26a10.45,10.45,0,0,1,.73-1.72l-1.16-1.55a1,1,0,0,1,0-1.16,16.73,16.73,0,0,1,1.2-1.36l.11-.1a17.24,17.24,0,0,1,1.35-1.2,1,1,0,0,1,1.17,0l1.57,1.19a10.27,10.27,0,0,1,1.73-.7l.27-1.91a1,1,0,0,1,.83-.82,17.32,17.32,0,0,1,1.81-.11h.15a17.32,17.32,0,0,1,1.81.11,1,1,0,0,1,.83.82l.27,2a9.93,9.93,0,0,1,1.72.72l1.54-1.16a1,1,0,0,1,1.16,0,14.73,14.73,0,0,1,1.36,1.2l.11.11a17.59,17.59,0,0,1,1.2,1.35,1,1,0,0,1,0,1.17l-1.19,1.57a9.68,9.68,0,0,1,.71,1.73l1.9.27a1,1,0,0,1,.82.83,14.65,14.65,0,0,1,.11,1.81V487a14.65,14.65,0,0,1-.11,1.81,1,1,0,0,1-.82.83l-2,.26a9.75,9.75,0,0,1-.73,1.73l1.16,1.54a1,1,0,0,1,0,1.16,14.73,14.73,0,0,1-1.2,1.36l-.1.1a18.06,18.06,0,0,1-1.36,1.21,1,1,0,0,1-1.17,0l-1.57-1.19a10.44,10.44,0,0,1-1.73.7l-.27,1.91a1,1,0,0,1-.83.82A14.28,14.28,0,0,1,1635.5,499.35Zm-1-2c.24,0,.53,0,.83,0h.15c.3,0,.6,0,.84,0l.26-1.79a1,1,0,0,1,.73-.81,7.89,7.89,0,0,0,2.39-1,1,1,0,0,1,.73-.11.91.91,0,0,1,.38.19l1.43,1.09c.19-.17.4-.36.62-.58l.1-.1c.21-.21.41-.43.58-.62l-1.09-1.44a1,1,0,0,1,0-1.09,8,8,0,0,0,1-2.31.94.94,0,0,1,.81-.78l1.82-.25c0-.25,0-.54,0-.84v-.15c0-.3,0-.59,0-.84l-1.79-.26a1,1,0,0,1-.8-.73,8,8,0,0,0-1-2.36,1,1,0,0,1-.1-.21.94.94,0,0,1,.14-.9l1.11-1.46c-.17-.19-.36-.4-.57-.61l-.11-.11c-.21-.21-.43-.41-.61-.57l-1.45,1.08a1,1,0,0,1-1.15,0,8.1,8.1,0,0,0-2.31-1,1,1,0,0,1-.72-.8l-.25-1.82c-.25,0-.54,0-.84,0h-.15c-.3,0-.59,0-.84,0l-.25,1.79a1,1,0,0,1-.81.82,7.83,7.83,0,0,0-2.32.95,1,1,0,0,1-.74.11,1.07,1.07,0,0,1-.38-.2l-1.42-1.08c-.19.17-.4.36-.61.58l-.11.1c-.21.22-.41.43-.57.62l1.09,1.44a1,1,0,0,1,0,1.08l-.06.08a8.3,8.3,0,0,0-1,2.3,1,1,0,0,1-.8.73l-1.82.24c0,.25,0,.54,0,.84v.15c0,.3,0,.59,0,.84l1.8.26a1,1,0,0,1,.81.81v0a8,8,0,0,0,.94,2.28,1,1,0,0,1,.09.8,1,1,0,0,1-.18.32l-1.07,1.41c.16.19.36.4.57.61l.1.11c.22.21.43.41.62.57l1.44-1.08a1,1,0,0,1,1.2,0,8.13,8.13,0,0,0,2.26.94,1,1,0,0,1,.73.8Z"/><path class="cls-8" d="M1421.5,383.09a5.24,5.24,0,1,1,5.24-5.23A5.24,5.24,0,0,1,1421.5,383.09Zm0-8.55a3.32,3.32,0,1,0,3.32,3.32A3.32,3.32,0,0,0,1421.5,374.54Zm0,15.81h-.15a14.65,14.65,0,0,1-1.81-.11,1,1,0,0,1-.83-.82l-.26-1.95a9.06,9.06,0,0,1-1.73-.73l-1.54,1.16a1,1,0,0,1-1.16,0,14.73,14.73,0,0,1-1.36-1.2l-.1-.11a13.91,13.91,0,0,1-1.2-1.35,1,1,0,0,1,0-1.17l1.19-1.57a9,9,0,0,1-.7-1.73l-1.91-.27a1,1,0,0,1-.82-.83,17.32,17.32,0,0,1-.11-1.81v-.15a17.32,17.32,0,0,1,.11-1.81,1,1,0,0,1,.82-.83l2-.26a10.45,10.45,0,0,1,.73-1.72l-1.16-1.55a1,1,0,0,1,0-1.16,16.73,16.73,0,0,1,1.2-1.36l.11-.1a17.24,17.24,0,0,1,1.35-1.2,1,1,0,0,1,1.17,0l1.57,1.19a10.27,10.27,0,0,1,1.73-.7l.27-1.91a1,1,0,0,1,.83-.82,17.32,17.32,0,0,1,1.81-.11h.15a17.32,17.32,0,0,1,1.81.11,1,1,0,0,1,.83.82l.27,2a9.93,9.93,0,0,1,1.72.72l1.54-1.16a1,1,0,0,1,1.16,0,14.73,14.73,0,0,1,1.36,1.2l.11.11a17.59,17.59,0,0,1,1.2,1.35,1,1,0,0,1,0,1.17l-1.19,1.57a9.68,9.68,0,0,1,.71,1.73l1.9.27a1,1,0,0,1,.82.83,14.65,14.65,0,0,1,.11,1.81V378a14.65,14.65,0,0,1-.11,1.81,1,1,0,0,1-.82.83l-2,.26a9.75,9.75,0,0,1-.73,1.73l1.16,1.54a1,1,0,0,1,0,1.16,14.73,14.73,0,0,1-1.2,1.36l-.1.1a18.06,18.06,0,0,1-1.36,1.21,1,1,0,0,1-1.17,0l-1.57-1.19a10.44,10.44,0,0,1-1.73.7l-.27,1.91a1,1,0,0,1-.83.82A14.28,14.28,0,0,1,1421.5,390.35Zm-1-2c.24,0,.53,0,.83,0h.15c.3,0,.6,0,.84,0l.26-1.79a1,1,0,0,1,.73-.81,7.89,7.89,0,0,0,2.39-1,1,1,0,0,1,.73-.11.91.91,0,0,1,.38.19l1.43,1.09c.19-.17.4-.36.62-.58l.1-.1c.21-.21.41-.43.58-.62l-1.09-1.44a1,1,0,0,1,0-1.09,8,8,0,0,0,1-2.31.94.94,0,0,1,.81-.78l1.82-.25c0-.25,0-.54,0-.84v-.15c0-.3,0-.59,0-.84l-1.79-.26a1,1,0,0,1-.8-.73,8,8,0,0,0-1-2.36,1,1,0,0,1-.1-.21.94.94,0,0,1,.14-.9l1.11-1.46c-.17-.19-.36-.4-.57-.61l-.11-.11c-.21-.21-.43-.41-.61-.57l-1.45,1.08a1,1,0,0,1-1.15,0,8.1,8.1,0,0,0-2.31-1,1,1,0,0,1-.72-.8l-.25-1.82c-.25,0-.54,0-.84,0h-.15c-.3,0-.59,0-.84,0l-.25,1.79a1,1,0,0,1-.81.82,7.83,7.83,0,0,0-2.32.95,1,1,0,0,1-.74.11,1.07,1.07,0,0,1-.38-.2l-1.42-1.08c-.19.17-.4.36-.61.58l-.11.1c-.21.22-.41.43-.57.62l1.09,1.44a1,1,0,0,1,0,1.08l-.06.08a8.3,8.3,0,0,0-1,2.3,1,1,0,0,1-.8.73l-1.82.24c0,.25,0,.54,0,.84v.15c0,.3,0,.59,0,.84l1.8.26a1,1,0,0,1,.81.81v0a8,8,0,0,0,.94,2.28,1,1,0,0,1,.09.8,1,1,0,0,1-.18.32l-1.07,1.41c.16.19.36.4.57.61l.1.11c.22.21.43.41.62.57l1.44-1.08a1,1,0,0,1,1.2,0,8.13,8.13,0,0,0,2.26.94,1,1,0,0,1,.73.8Z"/><path class="cls-8" d="M1518.5,383.09a5.24,5.24,0,1,1,5.24-5.23A5.24,5.24,0,0,1,1518.5,383.09Zm0-8.55a3.32,3.32,0,1,0,3.32,3.32A3.32,3.32,0,0,0,1518.5,374.54Zm0,15.81h-.15a14.65,14.65,0,0,1-1.81-.11,1,1,0,0,1-.83-.82l-.26-1.95a9.06,9.06,0,0,1-1.73-.73l-1.54,1.16a1,1,0,0,1-1.16,0,14.73,14.73,0,0,1-1.36-1.2l-.1-.11a13.91,13.91,0,0,1-1.2-1.35,1,1,0,0,1,0-1.17l1.19-1.57a9,9,0,0,1-.7-1.73l-1.91-.27a1,1,0,0,1-.82-.83,17.32,17.32,0,0,1-.11-1.81v-.15a17.32,17.32,0,0,1,.11-1.81,1,1,0,0,1,.82-.83l2-.26a10.45,10.45,0,0,1,.73-1.72l-1.16-1.55a1,1,0,0,1,0-1.16,16.73,16.73,0,0,1,1.2-1.36l.11-.1a17.24,17.24,0,0,1,1.35-1.2,1,1,0,0,1,1.17,0l1.57,1.19a10.27,10.27,0,0,1,1.73-.7l.27-1.91a1,1,0,0,1,.83-.82,17.32,17.32,0,0,1,1.81-.11h.15a17.32,17.32,0,0,1,1.81.11,1,1,0,0,1,.83.82l.27,2a9.93,9.93,0,0,1,1.72.72l1.54-1.16a1,1,0,0,1,1.16,0,14.73,14.73,0,0,1,1.36,1.2l.11.11a17.59,17.59,0,0,1,1.2,1.35,1,1,0,0,1,0,1.17l-1.19,1.57a9.68,9.68,0,0,1,.71,1.73l1.9.27a1,1,0,0,1,.82.83,14.65,14.65,0,0,1,.11,1.81V378a14.65,14.65,0,0,1-.11,1.81,1,1,0,0,1-.82.83l-2,.26a9.75,9.75,0,0,1-.73,1.73l1.16,1.54a1,1,0,0,1,0,1.16,14.73,14.73,0,0,1-1.2,1.36l-.1.1a18.06,18.06,0,0,1-1.36,1.21,1,1,0,0,1-1.17,0l-1.57-1.19a10.44,10.44,0,0,1-1.73.7l-.27,1.91a1,1,0,0,1-.83.82A14.28,14.28,0,0,1,1518.5,390.35Zm-1-2c.24,0,.53,0,.83,0h.15c.3,0,.6,0,.84,0l.26-1.79a1,1,0,0,1,.73-.81,7.89,7.89,0,0,0,2.39-1,1,1,0,0,1,.73-.11.91.91,0,0,1,.38.19l1.43,1.09c.19-.17.4-.36.62-.58l.1-.1c.21-.21.41-.43.58-.62l-1.09-1.44a1,1,0,0,1,0-1.09,8,8,0,0,0,1-2.31.94.94,0,0,1,.81-.78l1.82-.25c0-.25,0-.54,0-.84v-.15c0-.3,0-.59,0-.84l-1.79-.26a1,1,0,0,1-.8-.73,8,8,0,0,0-1-2.36,1,1,0,0,1-.1-.21.94.94,0,0,1,.14-.9l1.11-1.46c-.17-.19-.36-.4-.57-.61l-.11-.11c-.21-.21-.43-.41-.61-.57l-1.45,1.08a1,1,0,0,1-1.15,0,8.1,8.1,0,0,0-2.31-1,1,1,0,0,1-.72-.8l-.25-1.82c-.25,0-.54,0-.84,0h-.15c-.3,0-.59,0-.84,0l-.25,1.79a1,1,0,0,1-.81.82,7.83,7.83,0,0,0-2.32.95,1,1,0,0,1-.74.11,1.07,1.07,0,0,1-.38-.2l-1.42-1.08c-.19.17-.4.36-.61.58l-.11.1c-.21.22-.41.43-.57.62l1.09,1.44a1,1,0,0,1,0,1.08l-.06.08a8.3,8.3,0,0,0-1,2.3,1,1,0,0,1-.8.73l-1.82.24c0,.25,0,.54,0,.84v.15c0,.3,0,.59,0,.84l1.8.26a1,1,0,0,1,.81.81v0a8,8,0,0,0,.94,2.28,1,1,0,0,1,.09.8,1,1,0,0,1-.18.32l-1.07,1.41c.16.19.36.4.57.61l.1.11c.22.21.43.41.62.57l1.44-1.08a1,1,0,0,1,1.2,0,8.13,8.13,0,0,0,2.26.94,1,1,0,0,1,.73.8Z"/><path class="cls-8" d="M1518.5,298.09a5.24,5.24,0,1,1,5.24-5.23A5.24,5.24,0,0,1,1518.5,298.09Zm0-8.55a3.32,3.32,0,1,0,3.32,3.32A3.32,3.32,0,0,0,1518.5,289.54Zm0,15.81h-.15a14.65,14.65,0,0,1-1.81-.11,1,1,0,0,1-.83-.82l-.26-1.95a9.06,9.06,0,0,1-1.73-.73l-1.54,1.16a1,1,0,0,1-1.16,0,14.73,14.73,0,0,1-1.36-1.2l-.1-.11a13.91,13.91,0,0,1-1.2-1.35,1,1,0,0,1,0-1.17l1.19-1.57a9,9,0,0,1-.7-1.73l-1.91-.27a1,1,0,0,1-.82-.83,17.32,17.32,0,0,1-.11-1.81v-.15a17.32,17.32,0,0,1,.11-1.81,1,1,0,0,1,.82-.83l2-.26a10.45,10.45,0,0,1,.73-1.72l-1.16-1.55a1,1,0,0,1,0-1.16,16.73,16.73,0,0,1,1.2-1.36l.11-.1a17.24,17.24,0,0,1,1.35-1.2,1,1,0,0,1,1.17,0l1.57,1.19a10.27,10.27,0,0,1,1.73-.7l.27-1.91a1,1,0,0,1,.83-.82,17.32,17.32,0,0,1,1.81-.11h.15a17.32,17.32,0,0,1,1.81.11,1,1,0,0,1,.83.82l.27,2a9.93,9.93,0,0,1,1.72.72l1.54-1.16a1,1,0,0,1,1.16,0,14.73,14.73,0,0,1,1.36,1.2l.11.11a17.59,17.59,0,0,1,1.2,1.35,1,1,0,0,1,0,1.17l-1.19,1.57a9.68,9.68,0,0,1,.71,1.73l1.9.27a1,1,0,0,1,.82.83,14.65,14.65,0,0,1,.11,1.81V293a14.65,14.65,0,0,1-.11,1.81,1,1,0,0,1-.82.83l-2,.26a9.75,9.75,0,0,1-.73,1.73l1.16,1.54a1,1,0,0,1,0,1.16,14.73,14.73,0,0,1-1.2,1.36l-.1.1a18.06,18.06,0,0,1-1.36,1.21,1,1,0,0,1-1.17,0l-1.57-1.19a10.44,10.44,0,0,1-1.73.7l-.27,1.91a1,1,0,0,1-.83.82A14.28,14.28,0,0,1,1518.5,305.35Zm-1-2c.24,0,.53,0,.83,0h.15c.3,0,.6,0,.84,0l.26-1.79a1,1,0,0,1,.73-.81,7.89,7.89,0,0,0,2.39-1,1,1,0,0,1,.73-.11.91.91,0,0,1,.38.19l1.43,1.09c.19-.17.4-.36.62-.58l.1-.1c.21-.21.41-.43.58-.62l-1.09-1.44a1,1,0,0,1,0-1.09,8,8,0,0,0,1-2.31.94.94,0,0,1,.81-.78l1.82-.25c0-.25,0-.54,0-.84v-.15c0-.3,0-.59,0-.84l-1.79-.26a1,1,0,0,1-.8-.73,8,8,0,0,0-1-2.36,1,1,0,0,1-.1-.21.94.94,0,0,1,.14-.9l1.11-1.46c-.17-.19-.36-.4-.57-.61l-.11-.11c-.21-.21-.43-.41-.61-.57l-1.45,1.08a1,1,0,0,1-1.15,0,8.1,8.1,0,0,0-2.31-1,1,1,0,0,1-.72-.8l-.25-1.82c-.25,0-.54,0-.84,0h-.15c-.3,0-.59,0-.84,0l-.25,1.79a1,1,0,0,1-.81.82,7.83,7.83,0,0,0-2.32.95,1,1,0,0,1-.74.11,1.07,1.07,0,0,1-.38-.2l-1.42-1.08c-.19.17-.4.36-.61.58l-.11.1c-.21.22-.41.43-.57.62l1.09,1.44a1,1,0,0,1,0,1.08l-.06.08a8.3,8.3,0,0,0-1,2.3,1,1,0,0,1-.8.73l-1.82.24c0,.25,0,.54,0,.84v.15c0,.3,0,.59,0,.84l1.8.26a1,1,0,0,1,.81.81v0a8,8,0,0,0,.94,2.28,1,1,0,0,1,.09.8,1,1,0,0,1-.18.32l-1.07,1.41c.16.19.36.4.57.61l.1.11c.22.21.43.41.62.57l1.44-1.08a1,1,0,0,1,1.2,0,8.13,8.13,0,0,0,2.26.94,1,1,0,0,1,.73.8Z"/><path class="cls-8" d="M1518.5,171.09a5.24,5.24,0,1,1,5.24-5.23A5.24,5.24,0,0,1,1518.5,171.09Zm0-8.55a3.32,3.32,0,1,0,3.32,3.32A3.32,3.32,0,0,0,1518.5,162.54Zm0,15.81h-.15a14.65,14.65,0,0,1-1.81-.11,1,1,0,0,1-.83-.82l-.26-1.95a9.06,9.06,0,0,1-1.73-.73l-1.54,1.16a1,1,0,0,1-1.16,0,14.73,14.73,0,0,1-1.36-1.2l-.1-.11a13.91,13.91,0,0,1-1.2-1.35,1,1,0,0,1,0-1.17l1.19-1.57a9,9,0,0,1-.7-1.73l-1.91-.27a1,1,0,0,1-.82-.83,17.32,17.32,0,0,1-.11-1.81v-.15a17.32,17.32,0,0,1,.11-1.81,1,1,0,0,1,.82-.83l2-.26a10.45,10.45,0,0,1,.73-1.72l-1.16-1.55a1,1,0,0,1,0-1.16,16.73,16.73,0,0,1,1.2-1.36l.11-.1a17.24,17.24,0,0,1,1.35-1.2,1,1,0,0,1,1.17,0l1.57,1.19a10.27,10.27,0,0,1,1.73-.7l.27-1.91a1,1,0,0,1,.83-.82,17.32,17.32,0,0,1,1.81-.11h.15a17.32,17.32,0,0,1,1.81.11,1,1,0,0,1,.83.82l.27,2a9.93,9.93,0,0,1,1.72.72l1.54-1.16a1,1,0,0,1,1.16,0,14.73,14.73,0,0,1,1.36,1.2l.11.11a17.59,17.59,0,0,1,1.2,1.35,1,1,0,0,1,0,1.17l-1.19,1.57a9.68,9.68,0,0,1,.71,1.73l1.9.27a1,1,0,0,1,.82.83,14.65,14.65,0,0,1,.11,1.81V166a14.65,14.65,0,0,1-.11,1.81,1,1,0,0,1-.82.83l-2,.26a9.75,9.75,0,0,1-.73,1.73l1.16,1.54a1,1,0,0,1,0,1.16,14.73,14.73,0,0,1-1.2,1.36l-.1.1a18.06,18.06,0,0,1-1.36,1.21,1,1,0,0,1-1.17,0l-1.57-1.19a10.44,10.44,0,0,1-1.73.7l-.27,1.91a1,1,0,0,1-.83.82A14.28,14.28,0,0,1,1518.5,178.35Zm-1-1.95c.24,0,.53,0,.83,0h.15c.3,0,.6,0,.84,0l.26-1.79a1,1,0,0,1,.73-.81,7.89,7.89,0,0,0,2.39-1,1,1,0,0,1,.73-.11.91.91,0,0,1,.38.19l1.43,1.09c.19-.17.4-.36.62-.58l.1-.1c.21-.21.41-.43.58-.62l-1.09-1.44a1,1,0,0,1,0-1.09,8,8,0,0,0,1-2.31.94.94,0,0,1,.81-.78l1.82-.25c0-.25,0-.54,0-.84v-.15c0-.3,0-.59,0-.84l-1.79-.26a1,1,0,0,1-.8-.73,8,8,0,0,0-1-2.36,1,1,0,0,1-.1-.21.94.94,0,0,1,.14-.9l1.11-1.46c-.17-.19-.36-.4-.57-.61l-.11-.11c-.21-.21-.43-.41-.61-.57l-1.45,1.08a1,1,0,0,1-1.15,0,8.1,8.1,0,0,0-2.31-1,1,1,0,0,1-.72-.8l-.25-1.82c-.25,0-.54,0-.84,0h-.15c-.3,0-.59,0-.84,0l-.25,1.79a1,1,0,0,1-.81.82,7.83,7.83,0,0,0-2.32,1,1,1,0,0,1-.74.11,1.07,1.07,0,0,1-.38-.2l-1.42-1.08c-.19.17-.4.36-.61.58l-.11.1c-.21.22-.41.43-.57.62l1.09,1.44a1,1,0,0,1,0,1.08l-.06.08a8.3,8.3,0,0,0-1,2.3,1,1,0,0,1-.8.73l-1.82.24c0,.25,0,.54,0,.84v.15c0,.3,0,.59,0,.84l1.8.26a1,1,0,0,1,.81.81v0a8,8,0,0,0,.94,2.28,1,1,0,0,1,.09.8,1,1,0,0,1-.18.32l-1.07,1.41c.16.19.36.4.57.61l.1.11c.22.21.43.41.62.57l1.44-1.08a1,1,0,0,1,1.2,0,8.13,8.13,0,0,0,2.26.94,1,1,0,0,1,.73.8Z"/><path class="cls-8" d="M1390.5,148.09a5.24,5.24,0,1,1,5.24-5.23A5.24,5.24,0,0,1,1390.5,148.09Zm0-8.55a3.32,3.32,0,1,0,3.32,3.32A3.32,3.32,0,0,0,1390.5,139.54Zm0,15.81h-.15a14.65,14.65,0,0,1-1.81-.11,1,1,0,0,1-.83-.82l-.26-1.95a9.06,9.06,0,0,1-1.73-.73l-1.54,1.16a1,1,0,0,1-1.16,0,14.73,14.73,0,0,1-1.36-1.2l-.1-.11a13.91,13.91,0,0,1-1.2-1.35,1,1,0,0,1,0-1.17l1.19-1.57a9,9,0,0,1-.7-1.73l-1.91-.27a1,1,0,0,1-.82-.83,17.32,17.32,0,0,1-.11-1.81v-.15a17.32,17.32,0,0,1,.11-1.81,1,1,0,0,1,.82-.83l2-.26a10.45,10.45,0,0,1,.73-1.72l-1.16-1.55a1,1,0,0,1,0-1.16,16.73,16.73,0,0,1,1.2-1.36l.11-.1a17.24,17.24,0,0,1,1.35-1.2,1,1,0,0,1,1.17,0l1.57,1.19a10.27,10.27,0,0,1,1.73-.7l.27-1.91a1,1,0,0,1,.83-.82,17.32,17.32,0,0,1,1.81-.11h.15a17.32,17.32,0,0,1,1.81.11,1,1,0,0,1,.83.82l.27,2a9.93,9.93,0,0,1,1.72.72l1.54-1.16a1,1,0,0,1,1.16,0,14.73,14.73,0,0,1,1.36,1.2l.11.11a17.59,17.59,0,0,1,1.2,1.35,1,1,0,0,1,0,1.17l-1.19,1.57a9.68,9.68,0,0,1,.71,1.73l1.9.27a1,1,0,0,1,.82.83,14.65,14.65,0,0,1,.11,1.81V143a14.65,14.65,0,0,1-.11,1.81,1,1,0,0,1-.82.83l-2,.26a9.75,9.75,0,0,1-.73,1.73l1.16,1.54a1,1,0,0,1,0,1.16,14.73,14.73,0,0,1-1.2,1.36l-.1.1a18.06,18.06,0,0,1-1.36,1.21,1,1,0,0,1-1.17,0l-1.57-1.19a10.44,10.44,0,0,1-1.73.7l-.27,1.91a1,1,0,0,1-.83.82A14.28,14.28,0,0,1,1390.5,155.35Zm-1-1.95c.24,0,.53,0,.83,0h.15c.3,0,.6,0,.84,0l.26-1.79a1,1,0,0,1,.73-.81,7.89,7.89,0,0,0,2.39-1,1,1,0,0,1,.73-.11.91.91,0,0,1,.38.19l1.43,1.09c.19-.17.4-.36.62-.58l.1-.1c.21-.21.41-.43.58-.62l-1.09-1.44a1,1,0,0,1,0-1.09,8,8,0,0,0,1-2.31.94.94,0,0,1,.81-.78l1.82-.25c0-.25,0-.54,0-.84v-.15c0-.3,0-.59,0-.84l-1.79-.26a1,1,0,0,1-.8-.73,8,8,0,0,0-1-2.36,1,1,0,0,1-.1-.21.94.94,0,0,1,.14-.9l1.11-1.46c-.17-.19-.36-.4-.57-.61l-.11-.11c-.21-.21-.43-.41-.61-.57l-1.45,1.08a1,1,0,0,1-1.15,0,8.1,8.1,0,0,0-2.31-1,1,1,0,0,1-.72-.8l-.25-1.82c-.25,0-.54,0-.84,0h-.15c-.3,0-.59,0-.84,0l-.25,1.79a1,1,0,0,1-.81.82,7.83,7.83,0,0,0-2.32,1,1,1,0,0,1-.74.11,1.07,1.07,0,0,1-.38-.2l-1.42-1.08c-.19.17-.4.36-.61.58l-.11.1c-.21.22-.41.43-.57.62l1.09,1.44a1,1,0,0,1,0,1.08l-.06.08a8.3,8.3,0,0,0-1,2.3,1,1,0,0,1-.8.73l-1.82.24c0,.25,0,.54,0,.84v.15c0,.3,0,.59,0,.84l1.8.26a1,1,0,0,1,.81.81v0a8,8,0,0,0,.94,2.28,1,1,0,0,1,.09.8,1,1,0,0,1-.18.32l-1.07,1.41c.16.19.36.4.57.61l.1.11c.22.21.43.41.62.57l1.44-1.08a1,1,0,0,1,1.2,0,8.13,8.13,0,0,0,2.26.94,1,1,0,0,1,.73.8Z"/><path class="cls-8" d="M1368.5,204.09a5.24,5.24,0,1,1,5.24-5.23A5.24,5.24,0,0,1,1368.5,204.09Zm0-8.55a3.32,3.32,0,1,0,3.32,3.32A3.32,3.32,0,0,0,1368.5,195.54Zm0,15.81h-.15a14.65,14.65,0,0,1-1.81-.11,1,1,0,0,1-.83-.82l-.26-1.95a9.06,9.06,0,0,1-1.73-.73l-1.54,1.16a1,1,0,0,1-1.16,0,14.73,14.73,0,0,1-1.36-1.2l-.1-.11a13.91,13.91,0,0,1-1.2-1.35,1,1,0,0,1,0-1.17l1.19-1.57a9,9,0,0,1-.7-1.73l-1.91-.27a1,1,0,0,1-.82-.83,17.32,17.32,0,0,1-.11-1.81v-.15a17.32,17.32,0,0,1,.11-1.81,1,1,0,0,1,.82-.83l2-.26a10.45,10.45,0,0,1,.73-1.72l-1.16-1.55a1,1,0,0,1,0-1.16,16.73,16.73,0,0,1,1.2-1.36l.11-.1a17.24,17.24,0,0,1,1.35-1.2,1,1,0,0,1,1.17,0l1.57,1.19a10.27,10.27,0,0,1,1.73-.7l.27-1.91a1,1,0,0,1,.83-.82,17.32,17.32,0,0,1,1.81-.11h.15a17.32,17.32,0,0,1,1.81.11,1,1,0,0,1,.83.82l.27,2a9.93,9.93,0,0,1,1.72.72l1.54-1.16a1,1,0,0,1,1.16,0,14.73,14.73,0,0,1,1.36,1.2l.11.11a17.59,17.59,0,0,1,1.2,1.35,1,1,0,0,1,0,1.17l-1.19,1.57a9.68,9.68,0,0,1,.71,1.73l1.9.27a1,1,0,0,1,.82.83,14.65,14.65,0,0,1,.11,1.81V199a14.65,14.65,0,0,1-.11,1.81,1,1,0,0,1-.82.83l-2,.26a9.75,9.75,0,0,1-.73,1.73l1.16,1.54a1,1,0,0,1,0,1.16,14.73,14.73,0,0,1-1.2,1.36l-.1.1a18.06,18.06,0,0,1-1.36,1.21,1,1,0,0,1-1.17,0l-1.57-1.19a10.44,10.44,0,0,1-1.73.7l-.27,1.91a1,1,0,0,1-.83.82A14.28,14.28,0,0,1,1368.5,211.35Zm-1-1.95c.24,0,.53,0,.83,0h.15c.3,0,.6,0,.84,0l.26-1.79a1,1,0,0,1,.73-.81,7.89,7.89,0,0,0,2.39-1,1,1,0,0,1,.73-.11.91.91,0,0,1,.38.19l1.43,1.09c.19-.17.4-.36.62-.58l.1-.1c.21-.21.41-.43.58-.62l-1.09-1.44a1,1,0,0,1,0-1.09,8,8,0,0,0,1-2.31.94.94,0,0,1,.81-.78l1.82-.25c0-.25,0-.54,0-.84v-.15c0-.3,0-.59,0-.84l-1.79-.26a1,1,0,0,1-.8-.73,8,8,0,0,0-1-2.36,1,1,0,0,1-.1-.21.94.94,0,0,1,.14-.9l1.11-1.46c-.17-.19-.36-.4-.57-.61l-.11-.11c-.21-.21-.43-.41-.61-.57l-1.45,1.08a1,1,0,0,1-1.15,0,8.1,8.1,0,0,0-2.31-1,1,1,0,0,1-.72-.8l-.25-1.82c-.25,0-.54,0-.84,0h-.15c-.3,0-.59,0-.84,0l-.25,1.79a1,1,0,0,1-.81.82,7.83,7.83,0,0,0-2.32,1,1,1,0,0,1-.74.11,1.07,1.07,0,0,1-.38-.2l-1.42-1.08c-.19.17-.4.36-.61.58l-.11.1c-.21.22-.41.43-.57.62l1.09,1.44a1,1,0,0,1,0,1.08l-.06.08a8.3,8.3,0,0,0-1,2.3,1,1,0,0,1-.8.73l-1.82.24c0,.25,0,.54,0,.84v.15c0,.3,0,.59,0,.84l1.8.26a1,1,0,0,1,.81.81v0a8,8,0,0,0,.94,2.28,1,1,0,0,1,.09.8,1,1,0,0,1-.18.32l-1.07,1.41c.16.19.36.4.57.61l.1.11c.22.21.43.41.62.57l1.44-1.08a1,1,0,0,1,1.2,0,8.13,8.13,0,0,0,2.26.94,1,1,0,0,1,.73.8Z"/><path class="cls-3" d="M1217.9,25.67a1,1,0,0,1-1.13,1.13h-17.61V41.08h13.35a1,1,0,0,1,1.13,1.13v7.1a1,1,0,0,1-1.13,1.14h-13.35V73.1a1,1,0,0,1-1.14,1.13h-7.38a1,1,0,0,1-1.14-1.13V18.57a1,1,0,0,1,1.14-1.14h26.13a1,1,0,0,1,1.13,1.14Z"/><path class="cls-3" d="M1234,64.86h16.9A1,1,0,0,1,1252,66v7.1c0,.78-.35,1.13-1.13,1.13h-25.42a1,1,0,0,1-1.14-1.13V18.57a1.05,1.05,0,0,1,1.14-1.14h7.38a1,1,0,0,1,1.14,1.14Z"/><path class="cls-3" d="M1257,27.66c0-6.68,3.55-10.23,10.23-10.23h8c6.67,0,10.22,3.55,10.22,10.23V64c0,6.67-3.55,10.22-10.22,10.22h-8c-6.68,0-10.23-3.55-10.23-10.22Zm16.4,37.41a2.52,2.52,0,0,0,2.84-2.84V29.43a2.55,2.55,0,0,0-2.84-2.84h-4.11a2.56,2.56,0,0,0-2.85,2.84v32.8a2.52,2.52,0,0,0,2.85,2.84Z"/><path class="cls-3" d="M1292.45,27.66c0-6.68,3.55-10.23,10.23-10.23h8c6.67,0,10.22,3.55,10.22,10.23V64c0,6.67-3.55,10.22-10.22,10.22h-8c-6.68,0-10.23-3.55-10.23-10.22Zm16.4,37.41a2.52,2.52,0,0,0,2.84-2.84V29.43a2.55,2.55,0,0,0-2.84-2.84h-4.11a2.56,2.56,0,0,0-2.85,2.84v32.8a2.52,2.52,0,0,0,2.85,2.84Z"/><path class="cls-3" d="M1357.13,45c0,4.76-1.77,7.88-5.18,9.37l4.9,18.6c.21.86-.21,1.28-1,1.28h-7.38a1.12,1.12,0,0,1-1.21-1l-4.75-18h-4.9V73.1a1,1,0,0,1-1.14,1.13h-7.38A1,1,0,0,1,1328,73.1V18.57a1.05,1.05,0,0,1,1.14-1.14h17.82c6.67,0,10.22,3.55,10.22,10.23Zm-12.49.85a2.55,2.55,0,0,0,2.84-2.84V29.64a2.55,2.55,0,0,0-2.84-2.84h-7v19Z"/><path class="cls-3" d="M1382,27.66c0-6.68,3.55-10.23,10.23-10.23h8c6.67,0,10.22,3.55,10.22,10.23V64c0,6.67-3.55,10.22-10.22,10.22h-8c-6.68,0-10.23-3.55-10.23-10.22Zm16.4,37.41a2.52,2.52,0,0,0,2.84-2.84V29.43a2.55,2.55,0,0,0-2.84-2.84h-4.11a2.55,2.55,0,0,0-2.84,2.84v32.8a2.52,2.52,0,0,0,2.84,2.84Z"/><path class="cls-3" d="M1446.66,17.43a1.05,1.05,0,0,1,1.14,1.14V73.1a1,1,0,0,1-1.14,1.13h-7a1.22,1.22,0,0,1-1.27-.92L1427.49,43h-.35V73.1a1,1,0,0,1-1.14,1.13h-7.38a1,1,0,0,1-1.14-1.13V18.57a1.05,1.05,0,0,1,1.14-1.14h7a1.23,1.23,0,0,1,1.28.93l10.79,30.17h.42v-30a1,1,0,0,1,1.14-1.14Z"/><path class="cls-3" d="M1483.23,25.67c0,.71-.29,1.21-1.14,1.21h-17.75v14.2h13.56a1.06,1.06,0,0,1,1.14,1.2v7a1.07,1.07,0,0,1-1.14,1.21h-13.56V64.86h17.75c.85,0,1.14.35,1.14,1.14v7.1c0,.71-.29,1.13-1.14,1.13H1456a1,1,0,0,1-1.06-1.13V18.57a1,1,0,0,1,1.06-1.14h26.13c.85,0,1.14.43,1.14,1.14Z"/><path class="cls-3" d="M1508.08,45.41A1.27,1.27,0,0,1,1509.5,44h11.22a1.27,1.27,0,0,1,1.42,1.42v6.53a1.28,1.28,0,0,1-1.42,1.42H1509.5a1.27,1.27,0,0,1-1.42-1.42Z"/><path class="cls-3" d="M1592.57,17.43a1.24,1.24,0,0,1,1.34,1.49l-6.1,54a1.31,1.31,0,0,1-1.49,1.35h-7A1.47,1.47,0,0,1,1577.8,73l-7.39-32.09L1563,73a1.47,1.47,0,0,1-1.56,1.21h-7.1a1.3,1.3,0,0,1-1.49-1.35l-5.83-54a1.25,1.25,0,0,1,1.35-1.49h6.75a1.38,1.38,0,0,1,1.49,1.35L1559.34,52h.35l7-33.3a1.48,1.48,0,0,1,1.56-1.28h4.26a1.49,1.49,0,0,1,1.57,1.28l7,33.3h.36l2.91-33.23a1.38,1.38,0,0,1,1.49-1.35Z"/><path class="cls-3" d="M1628.07,35.32a1.05,1.05,0,0,1-1.14,1.14h-7.1a1,1,0,0,1-1.14-1.14V29.64a2.55,2.55,0,0,0-2.84-2.84h-3.69a2.52,2.52,0,0,0-2.84,2.84V62a2.52,2.52,0,0,0,2.84,2.84h3.69a2.52,2.52,0,0,0,2.84-2.84V56.34a1,1,0,0,1,1.14-1.14h7.1a1.05,1.05,0,0,1,1.14,1.14V64c0,6.67-3.62,10.22-10.23,10.22h-7.95c-6.67,0-10.29-3.55-10.29-10.22V27.66c0-6.68,3.62-10.23,10.29-10.23h7.95c6.61,0,10.23,3.55,10.23,10.23Z"/><path class="cls-3" d="M1653.91,18.57a1.05,1.05,0,0,1,1.14-1.14h7.31c.85,0,1.21.43,1.21,1.14V73.1c0,.71-.36,1.13-1.21,1.13h-7.31a1,1,0,0,1-1.14-1.13V50.52h-9.09V73.1a1,1,0,0,1-1.13,1.13h-7.32c-.85,0-1.2-.42-1.2-1.13V18.57c0-.71.35-1.14,1.2-1.14h7.32a1,1,0,0,1,1.13,1.14V41.15h9.09Z"/><line class="cls-5" x1="1122.5" y1="317.85" x2="1124" y2="317.85"/><line class="cls-6" x1="1129.07" y1="317.85" x2="1191.47" y2="317.85"/><line class="cls-5" x1="1194" y1="317.85" x2="1195.5" y2="317.85"/><path class="cls-3" d="M1062.41,303.29c.21,0,.29.11.25.3l-2.23,9.25a.28.28,0,0,1-.3.25h-1.4a.29.29,0,0,1-.31-.25l-2.22-9.25c0-.19,0-.3.26-.3h1.27a.29.29,0,0,1,.31.25l1.39,6.33,1.4-6.33a.28.28,0,0,1,.3-.25Z"/><path class="cls-3" d="M1063.09,305.3a1.8,1.8,0,0,1,2-2h1.57a1.81,1.81,0,0,1,2,2v5.77a1.81,1.81,0,0,1-2,2h-1.57a1.81,1.81,0,0,1-2-2Zm3.28,6a.5.5,0,0,0,.56-.56v-5.07a.51.51,0,0,0-.56-.56h-.9a.51.51,0,0,0-.56.56v5.07a.5.5,0,0,0,.56.56Z"/><path class="cls-3" d="M1072,311.24h2.77a.2.2,0,0,1,.22.23v1.4a.19.19,0,0,1-.22.22h-4.45a.2.2,0,0,1-.23-.22v-9.36a.21.21,0,0,1,.23-.22h1.45c.16,0,.23.08.23.22Z"/><path class="cls-3" d="M1081.44,303.29a.28.28,0,0,1,.28.28v7.5a1.81,1.81,0,0,1-2,2h-1.57a1.81,1.81,0,0,1-2-2v-7.5a.28.28,0,0,1,.28-.28h1.35a.28.28,0,0,1,.28.28v7.11a.49.49,0,0,0,.56.56h.73a.5.5,0,0,0,.56-.56v-7.11a.27.27,0,0,1,.28-.28Z"/><path class="cls-3" d="M1088.87,303.29a.2.2,0,0,1,.22.22v9.36a.2.2,0,0,1-.22.22h-1.11a.25.25,0,0,1-.25-.18l-2.63-5.35v5.31c0,.14-.07.22-.23.22h-1.31a.21.21,0,0,1-.23-.22v-9.36a.21.21,0,0,1,.23-.22h1.1a.25.25,0,0,1,.26.18l2.63,5.35v-5.31a.2.2,0,0,1,.22-.22Z"/><path class="cls-3" d="M1095.59,303.29a.2.2,0,0,1,.22.22v1.4a.2.2,0,0,1-.22.22H1094v7.74a.19.19,0,0,1-.22.22h-1.46a.2.2,0,0,1-.22-.22v-7.74h-1.63a.2.2,0,0,1-.22-.22v-1.4a.2.2,0,0,1,.22-.22Z"/><path class="cls-3" d="M1102.52,304.91c0,.14-.06.24-.23.24h-3.46v2.16h2.64a.2.2,0,0,1,.22.23v1.39c0,.16-.08.24-.22.24h-2.64v2.07h3.46c.17,0,.23.07.23.23v1.4c0,.14-.06.22-.23.22h-5.15a.2.2,0,0,1-.21-.22v-9.36a.2.2,0,0,1,.21-.22h5.15c.17,0,.23.08.23.22Z"/><path class="cls-3" d="M1109.5,304.91c0,.14,0,.24-.22.24h-3.46v2.16h2.63a.21.21,0,0,1,.23.23v1.39a.21.21,0,0,1-.23.24h-2.63v2.07h3.46c.17,0,.22.07.22.23v1.4c0,.14,0,.22-.22.22h-5.15a.2.2,0,0,1-.21-.22v-9.36a.2.2,0,0,1,.21-.22h5.15c.17,0,.22.08.22.22Z"/><path class="cls-3" d="M1116.37,308.12a1.86,1.86,0,0,1-.79,1.71l.73,3c0,.17,0,.25-.2.25h-1.37a.22.22,0,0,1-.24-.19l-.67-2.76h-1.25v2.73a.2.2,0,0,1-.22.22H1111a.21.21,0,0,1-.23-.22v-9.36a.21.21,0,0,1,.23-.22h3.36a1.81,1.81,0,0,1,2,2Zm-2.39.21a.5.5,0,0,0,.56-.56v-2.12a.5.5,0,0,0-.56-.56h-1.4v3.24Z"/><path class="cls-3" d="M1126.87,308.12a1.86,1.86,0,0,1-.79,1.71l.73,3c0,.17,0,.25-.2.25h-1.37a.22.22,0,0,1-.24-.19l-.67-2.76h-1.25v2.73a.2.2,0,0,1-.22.22h-1.37a.21.21,0,0,1-.23-.22v-9.36a.21.21,0,0,1,.23-.22h3.36a1.81,1.81,0,0,1,2,2Zm-2.39.21a.5.5,0,0,0,.56-.56v-2.12a.5.5,0,0,0-.56-.56h-1.4v3.24Z"/><path class="cls-3" d="M1128.26,305.3a1.8,1.8,0,0,1,2-2h1.57a1.81,1.81,0,0,1,2,2v5.77a1.81,1.81,0,0,1-2,2h-1.57a1.81,1.81,0,0,1-2-2Zm3.28,6a.5.5,0,0,0,.56-.56v-5.07a.51.51,0,0,0-.56-.56h-.9a.51.51,0,0,0-.56.56v5.07a.5.5,0,0,0,.56.56Z"/><path class="cls-3" d="M1135.26,305.3a1.8,1.8,0,0,1,2-2h1.57a1.81,1.81,0,0,1,2,2v5.77a1.81,1.81,0,0,1-2,2h-1.57a1.81,1.81,0,0,1-2-2Zm3.28,6a.5.5,0,0,0,.56-.56v-5.07a.51.51,0,0,0-.56-.56h-.9a.51.51,0,0,0-.56.56v5.07a.5.5,0,0,0,.56.56Z"/><path class="cls-3" d="M1150,303.29a.25.25,0,0,1,.28.28v9.24a.25.25,0,0,1-.28.28h-1.31a.25.25,0,0,1-.28-.28v-5.5h-.09l-1.32,5.54a.29.29,0,0,1-.31.24h-.83a.28.28,0,0,1-.3-.24l-1.32-5.54h-.1v5.5a.25.25,0,0,1-.28.28h-1.29a.25.25,0,0,1-.28-.28v-9.24a.25.25,0,0,1,.28-.28h1.85a.29.29,0,0,1,.31.23l1.55,6.25,1.56-6.25a.29.29,0,0,1,.31-.23Z"/><line class="cls-5" x1="1466.5" y1="800.85" x2="1466.5" y2="799.35"/><line class="cls-6" x1="1466.5" y1="794.28" x2="1466.5" y2="731.89"/><line class="cls-5" x1="1466.5" y1="729.35" x2="1466.5" y2="727.85"/><path class="cls-3" d="M1321.47,795.9a1.8,1.8,0,0,1,2-2h1.57a1.8,1.8,0,0,1,2,2v7.17a1.8,1.8,0,0,1-2,2h-1.57a1.81,1.81,0,0,1-2-2Zm3.24,7.38a.5.5,0,0,0,.56-.56v-6.47a.51.51,0,0,0-.56-.56h-.82a.51.51,0,0,0-.56.56v6.47a.5.5,0,0,0,.56.56Z"/><path class="cls-3" d="M1334.23,799.32a1.8,1.8,0,0,1-1,1.85l1,3.67c0,.17,0,.25-.2.25h-1.45a.22.22,0,0,1-.24-.19l-.94-3.56h-1v3.53a.2.2,0,0,1-.22.22h-1.46a.2.2,0,0,1-.22-.22V794.11a.2.2,0,0,1,.22-.22h3.52a1.8,1.8,0,0,1,2,2Zm-2.47.17a.5.5,0,0,0,.56-.56v-2.64a.5.5,0,0,0-.56-.56h-1.39v3.76Z"/><path class="cls-3" d="M1340.47,805.09a.2.2,0,0,1-.22-.19l-.4-2h-2.49l-.38,2a.22.22,0,0,1-.22.19h-1.5c-.15,0-.22-.08-.18-.24l2.32-10.77a.21.21,0,0,1,.24-.19h1.95a.22.22,0,0,1,.24.19l2.32,10.77c0,.16,0,.24-.2.24Zm-1.86-8.75-.9,4.89h1.79Z"/><path class="cls-3" d="M1348.75,797.42a.21.21,0,0,1-.23.22h-1.4a.2.2,0,0,1-.22-.22v-1.13a.51.51,0,0,0-.56-.56h-.73a.5.5,0,0,0-.56.56v6.39a.49.49,0,0,0,.56.56h.73a.5.5,0,0,0,.56-.56v-1.12a.2.2,0,0,1,.22-.22h1.4a.21.21,0,0,1,.23.22v1.51a1.82,1.82,0,0,1-2,2h-1.57a1.81,1.81,0,0,1-2-2V795.9a1.81,1.81,0,0,1,2-2h1.57a1.81,1.81,0,0,1,2,2Z"/><path class="cls-3" d="M1352.05,803.24h3.33c.16,0,.22.09.22.23v1.4c0,.15-.06.22-.22.22h-5a.2.2,0,0,1-.23-.22V794.11a.21.21,0,0,1,.23-.22h1.45c.16,0,.23.08.23.22Z"/><path class="cls-3" d="M1362.31,795.51c0,.14-.06.24-.22.24h-3.51v2.8h2.68c.14,0,.22.08.22.24v1.38c0,.16-.08.24-.22.24h-2.68v2.83h3.51c.16,0,.22.07.22.23v1.4a.19.19,0,0,1-.22.22h-5.16a.2.2,0,0,1-.21-.22V794.11a.2.2,0,0,1,.21-.22h5.16a.19.19,0,0,1,.22.22Z"/><path class="cls-3" d="M1368.89,793.89a.2.2,0,0,1,.22.22v10.76a.2.2,0,0,1-.22.22h-1.46a.2.2,0,0,1-.22-.22V794.11a.2.2,0,0,1,.22-.22Z"/><path class="cls-3" d="M1376.27,793.89a.2.2,0,0,1,.22.22v10.76a.2.2,0,0,1-.22.22h-1.39a.24.24,0,0,1-.25-.18l-2.14-6h-.07v5.94c0,.14-.07.22-.23.22h-1.45a.21.21,0,0,1-.23-.22V794.11a.21.21,0,0,1,.23-.22h1.38a.23.23,0,0,1,.25.18l2.13,5.95h.09v-5.91a.2.2,0,0,1,.22-.22Z"/><path class="cls-3" d="M1383,793.89a.2.2,0,0,1,.22.22v1.4a.2.2,0,0,1-.22.22h-1.63v9.14a.19.19,0,0,1-.22.22h-1.46a.2.2,0,0,1-.22-.22v-9.14h-1.63a.2.2,0,0,1-.22-.22v-1.4a.2.2,0,0,1,.22-.22Z"/><path class="cls-3" d="M1389.78,795.51c0,.14-.06.24-.23.24h-3.5v2.8h2.68c.14,0,.22.08.22.24v1.38c0,.16-.08.24-.22.24h-2.68v2.83h3.5c.17,0,.23.07.23.23v1.4c0,.14-.06.22-.23.22h-5.15a.2.2,0,0,1-.21-.22V794.11a.2.2,0,0,1,.21-.22h5.15c.17,0,.23.08.23.22Z"/><path class="cls-3" d="M1396.79,799.32a1.81,1.81,0,0,1-1,1.85l1,3.67c0,.17,0,.25-.2.25h-1.46a.21.21,0,0,1-.23-.19l-.94-3.56h-1v3.53a.2.2,0,0,1-.22.22h-1.46a.2.2,0,0,1-.22-.22V794.11a.2.2,0,0,1,.22-.22h3.52a1.8,1.8,0,0,1,2,2Zm-2.46.17a.51.51,0,0,0,.56-.56v-2.64a.51.51,0,0,0-.56-.56h-1.39v3.76Z"/><path class="cls-3" d="M1404.13,793.89c.21,0,.29.11.25.3L1402,804.84a.29.29,0,0,1-.31.25h-1.4a.28.28,0,0,1-.3-.25l-2.36-10.65c0-.19,0-.3.26-.3h1.33a.28.28,0,0,1,.3.25l1.47,7.51,1.49-7.51a.29.29,0,0,1,.31-.25Z"/><path class="cls-3" d="M1407.19,793.89a.21.21,0,0,1,.23.22v10.76a.21.21,0,0,1-.23.22h-1.45c-.16,0-.23-.08-.23-.22V794.11c0-.14.07-.22.23-.22Z"/><path class="cls-3" d="M1414.4,795.51c0,.14-.05.24-.22.24h-3.5v2.8h2.67a.21.21,0,0,1,.23.24v1.38a.21.21,0,0,1-.23.24h-2.67v2.83h3.5c.17,0,.22.07.22.23v1.4c0,.14-.05.22-.22.22H1409a.2.2,0,0,1-.21-.22V794.11a.2.2,0,0,1,.21-.22h5.15c.17,0,.22.08.22.22Z"/><path class="cls-3" d="M1424.37,793.89a.24.24,0,0,1,.27.29l-1.2,10.65a.26.26,0,0,1-.3.26h-1.37a.29.29,0,0,1-.31-.25l-1.46-6.33-1.47,6.34a.29.29,0,0,1-.31.24h-1.4a.25.25,0,0,1-.29-.26l-1.15-10.65a.24.24,0,0,1,.27-.29H1417a.26.26,0,0,1,.29.26l.55,6.56h.07l1.39-6.57a.28.28,0,0,1,.3-.25h.84a.29.29,0,0,1,.31.25l1.37,6.57h.07l.58-6.56a.26.26,0,0,1,.29-.26Z"/><path class="cls-3" d="M1435.29,799.32a1.81,1.81,0,0,1-1,1.85l1,3.67c0,.17,0,.25-.2.25h-1.46a.21.21,0,0,1-.23-.19l-.94-3.56h-1v3.53a.2.2,0,0,1-.22.22h-1.46a.2.2,0,0,1-.22-.22V794.11a.2.2,0,0,1,.22-.22h3.52a1.8,1.8,0,0,1,2,2Zm-2.46.17a.51.51,0,0,0,.56-.56v-2.64a.51.51,0,0,0-.56-.56h-1.39v3.76Z"/><path class="cls-3" d="M1436.41,795.9a1.8,1.8,0,0,1,2-2H1440a1.8,1.8,0,0,1,2,2v7.17a1.8,1.8,0,0,1-2,2h-1.57a1.81,1.81,0,0,1-2-2Zm3.24,7.38a.49.49,0,0,0,.55-.56v-6.47a.5.5,0,0,0-.55-.56h-.82a.51.51,0,0,0-.56.56v6.47a.5.5,0,0,0,.56.56Z"/><path class="cls-3" d="M1443.41,795.9a1.8,1.8,0,0,1,2-2H1447a1.8,1.8,0,0,1,2,2v7.17a1.8,1.8,0,0,1-2,2h-1.57a1.81,1.81,0,0,1-2-2Zm3.24,7.38a.49.49,0,0,0,.55-.56v-6.47a.5.5,0,0,0-.55-.56h-.82a.51.51,0,0,0-.56.56v6.47a.5.5,0,0,0,.56.56Z"/><path class="cls-3" d="M1458.11,793.89a.24.24,0,0,1,.28.28v10.64a.25.25,0,0,1-.28.28h-1.3a.25.25,0,0,1-.28-.28v-6.3h-.1l-1.38,6.33a.29.29,0,0,1-.31.25h-.69a.29.29,0,0,1-.31-.25l-1.38-6.33h-.1v6.3a.25.25,0,0,1-.28.28h-1.29a.25.25,0,0,1-.28-.28V794.17a.25.25,0,0,1,.28-.28h1.85a.29.29,0,0,1,.31.25l1.55,7,1.56-7a.28.28,0,0,1,.3-.25Z"/></g></svg>