<svg xmlns="http://www.w3.org/2000/svg" viewBox="0 0 1831.73 819.05"><defs><style>.cls-1,.cls-10,.cls-2,.cls-4,.cls-5,.cls-7,.cls-9{fill:none;}.cls-1,.cls-2{stroke:#fff;}.cls-1,.cls-2,.cls-4,.cls-5,.cls-7,.cls-9{stroke-linecap:round;stroke-linejoin:round;}.cls-1,.cls-10{stroke-width:3px;}.cls-2{stroke-width:2.96px;}.cls-3{fill:#c0c9ff;}.cls-10,.cls-4,.cls-5,.cls-7,.cls-9{stroke:#30384f;}.cls-4,.cls-5{stroke-width:3.28px;}.cls-5{stroke-dasharray:3.04 5.07;}.cls-6{fill:#fff;}.cls-7{stroke-width:2px;}.cls-8{fill:#30384f;}.cls-9{stroke-width:2.09px;}.cls-10{stroke-miterlimit:10;}</style></defs><title>map2020</title><g id="bourns_copy_2" data-name="bourns copy 2"><g id="bourns-3" data-name="bourns"><path class="cls-1" d="M747.58,133.05V139a5,5,0,0,0,5,5h78.53a5,5,0,0,0,5-5v-5.72"/><path class="cls-1" d="M649.41,433.15H610.87c-49.38-22.88-93.68-2.12-93.68-2.12a26.73,26.73,0,0,1-9.53,2.12H491.81a5,5,0,0,1-5-5V403.22a5,5,0,0,0-5-5H446a5,5,0,0,0-5,5v6.87a5,5,0,0,1-5,5H385.63"/><path class="cls-1" d="M771.07,250v178.2a5,5,0,0,1-5,5H673.5"/><path class="cls-1" d="M747.58,260.86V255a5,5,0,0,1,5-5h18.49"/><path class="cls-1" d="M409.53,292.59h71.15a7.94,7.94,0,0,0,7.94-7.94V257.48a5,5,0,0,1,5-5h7.46a5,5,0,0,1,5,5v27.17a7.93,7.93,0,0,0,7.94,7.94h96.14a7.94,7.94,0,0,0,7.94-7.94V257.48a5,5,0,0,1,5-5h7.46a5,5,0,0,1,5,5v27.17a7.94,7.94,0,0,0,7.94,7.94h96.14a7.93,7.93,0,0,0,7.94-7.94v-2.91"/><path class="cls-1" d="M366,248.2l10.6.07v36.38a7.93,7.93,0,0,0,7.94,7.94h1.38"/><path class="cls-1" d="M747.58,112.17v-2.91a7.93,7.93,0,0,0-7.94-7.94H643.5a7.94,7.94,0,0,0-7.94,7.94v17.35H618.1V109.26a7.94,7.94,0,0,0-7.94-7.94H514a7.93,7.93,0,0,0-7.94,7.94v17.35H488.62V109.26a7.94,7.94,0,0,0-7.94-7.94H384.54a7.93,7.93,0,0,0-7.94,7.94v36.38h-103v12.89l-13.25,7.23v62.63l14.46,6v13.25l72.29.43"/><path class="cls-2" d="M836.11,112.76v-7.23a4.88,4.88,0,0,1,4.93-4.81H947.89a4.93,4.93,0,0,1,4.93,4.93v34.1a5,5,0,0,0,4.93,4.93h78.19a5,5,0,0,1,4.93,4.93v99a5,5,0,0,1-4.93,4.93H957.88a4.94,4.94,0,0,0-4.93,4.93v28.79a5,5,0,0,1-4.93,5l-10.86.19c-2.71,0-7.15.08-9.86.08H843.57a7.83,7.83,0,0,1-7.94-7.72V282"/><path class="cls-1" d="M812.06,250h18.61c2.75,0,5,1.9,5,4.22v4.21"/><path class="cls-1" d="M1199.83,441.19v-4.58a4.82,4.82,0,0,0-5-4.58l-376.64-.16a5.05,5.05,0,0,1-5-5L812.06,250"/><line class="cls-1" x1="1199.86" y1="673.33" x2="1199.86" y2="457.57"/><path class="cls-1" d="M395.27,432H307.52a5,5,0,0,0-5,5V611.24a4.93,4.93,0,0,0,4.82,5,4.93,4.93,0,0,1,4.82,5v11.68a5,5,0,0,0,5,5h63.47a5,5,0,0,1,5,5v44.2a5,5,0,0,0,5,5h12.89a5,5,0,0,1,5,5v45.4a5,5,0,0,0,5,5H1176.8a5,5,0,0,0,5-5v-43a5,5,0,0,1,5-5h8.06c2.75,0,5-1.24,5-2.76V689"/></g></g><g id="bourns_copy" data-name="bourns copy"><path class="cls-3" d="M663.05,585.06c0,1.93,0,5.76,0,8.51V606.4a5,5,0,0,1-5,5H469a5,5,0,0,1-5-5v-148H655.92a5,5,0,0,1,5,5v14.91a13.86,13.86,0,0,0,3.54,8.53l17.24,17.25a13.91,13.91,0,0,1,3.54,8.54v41.8a13.86,13.86,0,0,1-3.54,8.53L666.63,578C664.69,580,663.07,583.13,663.05,585.06Z"/><rect class="cls-3" x="816.32" y="459.27" width="81.44" height="71.49" rx="3.67"/><rect class="cls-3" x="1095.33" y="459.27" width="81.44" height="71.49" rx="3.67"/><rect class="cls-3" x="902.41" y="459.27" width="91.81" height="71.49" rx="3.89"/><rect class="cls-3" x="998.87" y="459.27" width="91.81" height="71.49" rx="3.89"/><rect class="cls-3" x="816.32" y="534" width="81.44" height="71.49" rx="3.67"/><rect class="cls-3" x="1095.33" y="534" width="81.44" height="71.49" rx="3.67"/><rect class="cls-3" x="902.41" y="534" width="91.81" height="71.49" rx="3.89"/><rect class="cls-3" x="998.87" y="534" width="91.81" height="71.49" rx="3.89"/><path class="cls-3" d="M671.85,458.38a5,5,0,0,0-5,5v13.06a13.65,13.65,0,0,0,3.59,8.49l11.81,11.48c2,1.92,3.58,1.24,3.58-1.51V463.38a5,5,0,0,0-5-5Z"/><path class="cls-3" d="M671.85,611.4a5,5,0,0,1-5-5V593.34a13.65,13.65,0,0,1,3.59-8.49l11.81-11.48c2-1.92,3.58-1.24,3.58,1.51V606.4a5,5,0,0,1-5,5Z"/><rect class="cls-3" x="688.2" y="458.38" width="80.66" height="75.92" rx="5.15"/><rect class="cls-3" x="688.2" y="536.67" width="80.66" height="74.73" rx="5.15"/><rect class="cls-3" x="313.35" y="437.03" width="46.26" height="33.21" rx="5"/><rect class="cls-3" x="363.18" y="437.02" width="15.42" height="21.35" rx="5"/><rect class="cls-3" x="405.88" y="438.21" width="24.91" height="18.98" rx="5"/><rect class="cls-3" x="353.69" y="472.61" width="26.1" height="21.35" rx="5"/><rect class="cls-3" x="382.16" y="472.61" width="29.66" height="21.35" rx="5"/><path class="cls-3" d="M407.07,459.56a4.9,4.9,0,0,1-4.75-5V442a5,5,0,0,0-5-5H387.16a5,5,0,0,0-5,5v23.22c0,2.75,1.86,5,4.15,5h20.76a4.89,4.89,0,0,0,4.74-5v-.68A4.89,4.89,0,0,0,407.07,459.56Z"/><path class="cls-3" d="M429.35,507c2.75,0,5-1.87,5-4.15V477.61c0-2.75-1.07-5-2.37-5s-2.38-2.25-2.38-5v-3.05a5,5,0,0,0-5-5h-5.42a5,5,0,0,0-5,5v25.59a5,5,0,0,1-5,5H356.31a5,5,0,0,1-5-5V477.61a5,5,0,0,0-5-5h-28a5,5,0,0,0-5,5v52.87a5,5,0,0,0,5,5h1.87a5,5,0,0,0,5-5V512a5,5,0,0,1,5-5h99.13Z"/><rect class="cls-3" x="363.18" y="460.75" width="15.42" height="9.49" rx="4"/><rect class="cls-3" x="328.77" y="509.39" width="17.79" height="26.1" rx="5"/><rect class="cls-3" x="349.34" y="509.39" width="20.17" height="26.1" rx="5"/><rect class="cls-3" x="372.27" y="509.39" width="20.17" height="26.1" rx="5"/><rect class="cls-3" x="395.2" y="509.39" width="39.15" height="26.1" rx="5"/><path class="cls-3" d="M373.85,578.44a5,5,0,0,0-5-5h-.67a5,5,0,0,1-5-5V541.67a5,5,0,0,0-5-5H318.35a5,5,0,0,0-5,5V604a5,5,0,0,0,5,5h39.83a5,5,0,0,0,5-5V591.49a5,5,0,0,1,5-5h.67a5,5,0,0,0,5-5Z"/><rect class="cls-3" x="365.55" y="536.67" width="18.98" height="35.59" rx="5"/><rect class="cls-3" x="386.9" y="536.67" width="48.64" height="35.59" rx="5"/><rect class="cls-3" x="375.04" y="573.44" width="60.5" height="13.05" rx="5"/><rect class="cls-3" x="364.36" y="587.68" width="35.59" height="22.54" rx="5"/><rect class="cls-3" x="401.14" y="587.68" width="34.4" height="22.54" rx="5"/><path class="cls-3" d="M753.75,675a5,5,0,0,0,5-5V663.9a5,5,0,0,0-5-5H731.58a5,5,0,0,0-5,5v15.42c0,2.38-2.25,4.33-5,4.33h-4.85a5,5,0,0,0-5,5v30.83a5,5,0,0,0,5,5h18.46a5,5,0,0,0,5-5V688.65c0-2.75-.83-5-1.85-5s-1.86-1.95-1.86-4.33,2.25-4.34,5-4.34Z"/><path class="cls-3" d="M738.89,659.45c.37,0,.88.82,1.15,1.83l.67,2.59c.11.43.34,1.52.36,1.52s.11-.34.22-.75.7-2.35,1-3.36.84-1.83,1.14-1.83.8.81,1.11,1.8.66,2.16.79,2.6.41,1.54.42,1.54a4.5,4.5,0,0,0,.18-.74c.09-.41.63-2.4.91-3.4s.8-1.8,1.16-1.8.12,1.62-.52,3.59-1.42,3.6-1.75,3.6-.84-.78-1.14-1.72-.66-2.06-.78-2.47-.42-1.6-.42-1.6-.11.36-.22.8-.71,2.34-1,3.28-.85,1.71-1.17,1.71-1.09-1.62-1.68-3.6S738.52,659.45,738.89,659.45Z"/><path class="cls-3" d="M817,675a5,5,0,0,1-5-5V663.9a5,5,0,0,1,5-5h22.18a5,5,0,0,1,5,5v15.42c0,2.38,2.25,4.33,5,4.33H854a5,5,0,0,1,5,5v30.83a5,5,0,0,1-5,5H835.53a5,5,0,0,1-5-5V688.65c0-2.75.83-5,1.85-5s1.86-1.95,1.86-4.33-2.25-4.34-5-4.34Z"/><rect class="cls-3" x="324.03" y="614.96" width="66.43" height="14.23" rx="5"/><path class="cls-3" d="M436.72,620a5,5,0,0,0-5-5H401.39a5,5,0,0,0-5,5v58.8a5,5,0,0,0,5,5h7.93a5,5,0,0,0,5-5V636.29a5,5,0,0,1,5-5h12.4a5,5,0,0,0,5-5Z"/><rect class="cls-3" x="418.93" y="633.94" width="37.96" height="102.02" rx="5"/><rect class="cls-3" x="460.45" y="633.94" width="107.95" height="102.02" rx="5"/><rect class="cls-3" x="571.95" y="633.94" width="139.98" height="102.02" rx="5"/><path class="cls-3" d="M735.65,638.94a5,5,0,0,0-5-5H720.49a5,5,0,0,0-5,5v43.38a5,5,0,0,0,5,5h5.42a5,5,0,0,0,5-5v-9c0-2.75,1.07-5,2.37-5s2.37-2.25,2.37-5Z"/><rect class="cls-3" x="739.21" y="633.94" width="24.91" height="20.17" rx="5"/><rect class="cls-3" x="739.21" y="656.48" width="24.91" height="13.05" rx="5"/><rect class="cls-3" x="749.89" y="688.51" width="13.05" height="47.45" rx="5"/><path class="cls-3" d="M816.57,688.51c-2.75,0-5-1.6-5-3.56s-2.25-3.56-5-3.56h-22a5,5,0,0,0-5,5v11.35a5,5,0,0,1-5,5h-3a5,5,0,0,0-5,5V731a5,5,0,0,0,5,5H822a5,5,0,0,0,5-5V693.51a5,5,0,0,0-5-5Z"/><path class="cls-3" d="M830.81,641.06c-2.75,0-5-1.6-5-3.56s-2.25-3.56-5-3.56H819a5,5,0,0,0-5,5v10.17a4.89,4.89,0,0,0,4.74,5h12.79a5,5,0,0,0,5-5v-3.05a5,5,0,0,0-5-5Z"/><rect class="cls-3" x="813.95" y="656.48" width="22.54" height="11.86" rx="5"/><path class="cls-3" d="M856.06,633.94c-2.29,0-4.15,1.6-4.15,3.56s-2.25,3.56-5,3.56h-3a5,5,0,0,0-5,5v17.28c0,2.75,1.6,5,3.56,5s3.55,2.25,3.55,5v9c0,2.75,1.34,5,3,5h8.3c1.63,0,3-2.25,3-5V638.94C860.21,636.19,858.34,633.94,856.06,633.94Z"/><path class="cls-3" d="M1114.06,638.94a5,5,0,0,0-5-5H1023a5,5,0,0,0-5,5v17.28a5,5,0,0,1-5,5H992.14a5,5,0,0,1-5-5V638.94a5,5,0,0,0-5-5H870a5,5,0,0,0-5,5v92a5,5,0,0,0,5,5h84.9a5,5,0,0,0,5-5V686.39a5,5,0,0,1,5-5H1013a5,5,0,0,1,5,5V731a5,5,0,0,0,5,5h28a5,5,0,0,0,5-5V686.39a4.75,4.75,0,1,1,9.49,0V731a5,5,0,0,0,5,5h37.45a5,5,0,0,0,5-5V686.39c0-2.75.26-5,.59-5s.59-2.25.59-5Z"/><rect class="cls-3" x="991.29" y="633.94" width="22.54" height="24.91" rx="5"/><path class="cls-3" d="M992.14,709.86a5,5,0,0,1-5-5v-16.1a5,5,0,0,0-5-5H968.41a5,5,0,0,0-5,5V731a5,5,0,0,0,5,5h42.2a5,5,0,0,0,5-5v-16.1a5,5,0,0,0-5-5Z"/><rect class="cls-3" x="990.69" y="683.76" width="23.72" height="23.72" rx="5"/><rect class="cls-3" x="1117.62" y="633.94" width="43.89" height="102.02" rx="5"/><path class="cls-3" d="M1178.12,633.94h-9.49a4.89,4.89,0,0,0-4.74,5v32.7a4.75,4.75,0,1,0,9.49,0V671c0-2.75.8-5,1.77-5s1.78,2.25,1.78,5v4.23a5,5,0,0,1-5,5h-3c-2.75,0-5,1.07-5,2.38s2.25,2.37,5,2.37h11.6c1.31,0,2.37-2.25,2.37-5v-41A4.89,4.89,0,0,0,1178.12,633.94Z"/><path class="cls-3" d="M376.6,241V151.91a2.41,2.41,0,0,0-2.41-2.41H281.44a2.41,2.41,0,0,0-2.41,2.41v9.35a2.4,2.4,0,0,1-1.33,2.15l-11.79,5.9a2.42,2.42,0,0,0-1.33,2.15v51.17a2.41,2.41,0,0,0,1.4,2.19l12.86,5.94a2.4,2.4,0,0,1,1.4,2.18V241h0a2.41,2.41,0,0,0,2.41,2.41h91.54A2.41,2.41,0,0,0,376.6,241Z"/><rect class="cls-3" x="394.67" y="162.75" width="34.93" height="42.16" rx="5"/><rect class="cls-3" x="380.21" y="207.31" width="49.38" height="40.95" rx="5"/><path class="cls-3" d="M488,168.77c-2.75,0-5-1.36-5-3s-2.25-3-5-3H463.9a5,5,0,0,0-5,5v2a5,5,0,0,1-5,5H438.61a5,5,0,0,0-5,5v63.48a5,5,0,0,0,5,5H490a5,5,0,0,0,5-5V171.78c0-1.66-2.25-3-5-3Z"/><path class="cls-3" d="M513.69,161.54c-2.75,0-5,1.63-5,3.62s-2.17,3.61-4.82,3.61a4.93,4.93,0,0,0-4.82,5v69.5a4.93,4.93,0,0,0,4.82,5h51.61a5,5,0,0,0,5-5V166.54a5,5,0,0,0-5-5Z"/><path class="cls-3" d="M616.29,166.54a5,5,0,0,0-5-5H569.5a5,5,0,0,0-5,5v76.73a5,5,0,0,0,5,5h32.16a5,5,0,0,0,5-5v-4.46a4.92,4.92,0,0,1,4.81-5,4.93,4.93,0,0,0,4.82-5Z"/><path class="cls-3" d="M701.81,228.81a5,5,0,0,1-5,5H638.15a7.08,7.08,0,0,1-6.4-4.8s-4.62-15.81-4.62-31.33c0-8.57,5-31.25,5-31.25a6.5,6.5,0,0,1,6.06-4.89h58.66a5,5,0,0,1,5,5Z"/><path class="cls-3" d="M723.67,198.88c-2.75,0-5-1.08-5-2.41s-2.25-2.41-5-2.41H708a5,5,0,0,0-5,5v20.12a5,5,0,0,0,5,5h5.66a5,5,0,0,0,5-5v-5.66c0-2.75,1.09-5,2.41-5s2.41,2.25,2.41,5v5.66a5,5,0,0,0,5,5h.84a5,5,0,0,0,5-5V201.89c0-1.65-2.25-3-5-3Z"/><path class="cls-3" d="M728.49,171.18c-2.75,0-5,1.89-5,4.21s-.81,4.22-1.81,4.22-1.8-2.17-1.8-4.82a4.93,4.93,0,0,0-5-4.82H708a5,5,0,0,0-5,5v11.68a5,5,0,0,0,5,5h12.47c.33,0,.6.82.6,1.81s.54,1.81,1.21,1.81h7.82c2.32,0,4.22-2.25,4.22-5V176.18a5,5,0,0,0-5-5Z"/><path class="cls-3" d="M762,197.68v-3c0-1.66,2.17-3.56,4.82-4.22a4.56,4.56,0,0,0,3.24-5.95l-2.86-8.58a7.42,7.42,0,0,0-6.58-4.74h-8.07c-2.75,0-5,1.89-5,4.21s-2.25,4.22-5,4.22h-.84c-2.75,0-5-1.63-5-3.61s.54-3.62,1.2-3.62,1.21-2.25,1.21-5V153.29a5,5,0,0,1,5-5h86.36a5,5,0,0,1,5,5v9.27a5,5,0,0,1-5,5h-15.3a5,5,0,0,0-5,5v50.23a5,5,0,0,0,5,5h15.3a5,5,0,0,1,5,5v5.66a5,5,0,0,1-5,5H814c-2.75,0-5,1.35-5,3s-2.25,3-5,3H779.08c-2.75,0-5-1.36-5-3s-2.25-3-5-3H744.15a5,5,0,0,1-5-5V226.77c0-2.75-.54-5-1.21-5s-1.2-1.63-1.2-3.62,2.25-3.61,5-3.61h.84c2.75,0,5,.27,5,.6V220c0,2.32,2.25,4.22,5,4.22h8.07a7.43,7.43,0,0,0,6.58-4.75l2.86-8.58a4.56,4.56,0,0,0-3.24-5.95c-2.65-.66-4.82-2.56-4.82-4.21v-3"/><path class="cls-3" d="M385.21,253.67a5,5,0,0,0-5,5V283c0,2.13,1.36,3.88,3,3.88s3-1.75,3-3.88,2.25-3.88,5-3.88h12.89a4.75,4.75,0,0,1,5,4.43,4.75,4.75,0,0,0,5,4.43H480a4.75,4.75,0,0,0,5-4.43V258.67a5,5,0,0,0-5-5Z"/><rect class="cls-3" x="511.5" y="252.56" width="98.77" height="35.45" rx="5"/><rect class="cls-3" x="640.38" y="252.56" width="98.77" height="35.45" rx="5"/><rect class="cls-3" x="842.73" y="252.56" width="98.77" height="35.45" rx="5"/><path class="cls-3" d="M926.94,229.16a3,3,0,0,1-3-3V170.51a3,3,0,0,1,3-3h9.34a3,3,0,0,0,3-3V152.38a3,3,0,0,0-3-3H843.17a3,3,0,0,0-3,3V179a3,3,0,0,0,3,3h22.31a3,3,0,0,1,3,3v26.63a3,3,0,0,1-3,3H843.17a3,3,0,0,0-3,3V245.5a3,3,0,0,0,3,3h94.29a3,3,0,0,0,3-3V232.16a3,3,0,0,0-3-3Z"/><rect class="cls-3" x="943.91" y="169.27" width="20.48" height="57.99" rx="3"/><path class="cls-3" d="M1026.43,199a3,3,0,0,0,3-3V151.29a3,3,0,0,0-3-3H946.91a3,3,0,0,0-3,3v13a3,3,0,0,0,3,3h14.48a3,3,0,0,0,3-3V164a4.3,4.3,0,0,1,2.87-3.87l2.69-.81a2.11,2.11,0,0,1,2.87,2.14V196a3,3,0,0,0,3,3Z"/><path class="cls-3" d="M1026.43,195c1.65,0,3,.59,3,1.3v50.15a3,3,0,0,1-3,3H946.91a3,3,0,0,1-3-3V233a3,3,0,0,1,3-3h14.48a3,3,0,0,1,3,3v.48a4.33,4.33,0,0,0,2.87,3.88l2.69.83a2.1,2.1,0,0,0,2.87-2.12V196.32c0-.71,1.35-1.3,3-1.3Z"/><line class="cls-4" x1="1007.36" y1="230.52" x2="1008.86" y2="230.52"/><line class="cls-5" x1="1013.94" y1="230.52" x2="1076.33" y2="230.52"/><line class="cls-4" x1="1078.86" y1="230.52" x2="1080.36" y2="230.52"/><path class="cls-6" d="M1057.33,214.78c0-.14.07-.22.23-.22h3.36a1.81,1.81,0,0,1,2,2v7.16a1.81,1.81,0,0,1-2,2h-3.36c-.16,0-.23-.07-.23-.23Zm3.2,9.14a.5.5,0,0,0,.56-.56V217a.5.5,0,0,0-.56-.57h-1.29v7.51Z"/><path class="cls-6" d="M1069.92,216.18c0,.14-.05.24-.22.24h-3.5v2.8h2.67a.22.22,0,0,1,.23.24v1.39a.22.22,0,0,1-.23.24h-2.67v2.83h3.5c.17,0,.22.07.22.22v1.4c0,.14-.05.23-.22.23h-5.16a.21.21,0,0,1-.21-.23V214.78a.2.2,0,0,1,.21-.22h5.16c.17,0,.22.08.22.22Z"/><path class="cls-6" d="M1078.88,214.56a.25.25,0,0,1,.28.28v10.65a.25.25,0,0,1-.28.28h-1.3a.25.25,0,0,1-.28-.28v-6.31h-.1l-1.38,6.33a.3.3,0,0,1-.31.26h-.69a.3.3,0,0,1-.31-.26l-1.38-6.33h-.1v6.31a.25.25,0,0,1-.28.28h-1.29a.25.25,0,0,1-.28-.28V214.84a.25.25,0,0,1,.28-.28h1.85a.29.29,0,0,1,.31.25l1.55,7,1.56-7a.28.28,0,0,1,.3-.25Z"/><path class="cls-6" d="M1080.56,216.58a1.81,1.81,0,0,1,2-2h1.56a1.81,1.81,0,0,1,2,2v7.17a1.81,1.81,0,0,1-2,2h-1.56a1.81,1.81,0,0,1-2-2Zm3.23,7.38a.49.49,0,0,0,.56-.56v-6.47a.5.5,0,0,0-.56-.56H1083a.5.5,0,0,0-.56.56v6.47a.5.5,0,0,0,.56.56Z"/><path class="cls-6" d="M1096.82,220a1.8,1.8,0,0,1-1,1.85l1,3.67c0,.17,0,.26-.2.26h-1.45a.22.22,0,0,1-.24-.2l-.94-3.56h-1v3.53a.21.21,0,0,1-.22.23h-1.46a.21.21,0,0,1-.22-.23V214.78a.2.2,0,0,1,.22-.22h3.52a1.81,1.81,0,0,1,2,2Zm-2.47.17a.5.5,0,0,0,.56-.56V217a.5.5,0,0,0-.56-.56H1093v3.75Z"/><path class="cls-6" d="M1097.93,216.58a1.81,1.81,0,0,1,2-2h1.57a1.81,1.81,0,0,1,2,2v7.17a1.81,1.81,0,0,1-2,2H1100a1.81,1.81,0,0,1-2-2Zm3.24,7.38a.5.5,0,0,0,.56-.56v-6.47a.5.5,0,0,0-.56-.56h-.81a.5.5,0,0,0-.56.56v6.47a.49.49,0,0,0,.56.56Z"/><path class="cls-6" d="M1104.93,216.58a1.81,1.81,0,0,1,2-2h1.57a1.81,1.81,0,0,1,2,2v7.17a1.81,1.81,0,0,1-2,2H1107a1.81,1.81,0,0,1-2-2Zm3.24,7.38a.5.5,0,0,0,.56-.56v-6.47a.5.5,0,0,0-.56-.56h-.81a.5.5,0,0,0-.56.56v6.47a.49.49,0,0,0,.56.56Z"/><path class="cls-6" d="M1119.64,214.56a.25.25,0,0,1,.28.28v10.65a.25.25,0,0,1-.28.28h-1.31a.25.25,0,0,1-.28-.28v-6.31H1118l-1.39,6.33a.3.3,0,0,1-.31.26h-.69a.29.29,0,0,1-.3-.26l-1.39-6.33h-.1v6.31a.25.25,0,0,1-.28.28h-1.29a.25.25,0,0,1-.28-.28V214.84a.25.25,0,0,1,.28-.28h1.85a.29.29,0,0,1,.31.25l1.55,7,1.56-7a.29.29,0,0,1,.31-.25Z"/><path class="cls-6" d="M1126.91,222.08a.35.35,0,0,0-.19.34v1.22a.25.25,0,0,0,.28.28h1.51v-.58a.25.25,0,0,1,.28-.28h1.35a.25.25,0,0,1,.28.28v2.15a.25.25,0,0,1-.28.28h-5.05a.25.25,0,0,1-.28-.28v-4.14c0-.26.1-.37.37-.51l3.33-1.8V217a.51.51,0,0,0-.56-.56h-.67a.49.49,0,0,0-.56.56v1.09a.22.22,0,0,1-.23.23H1125a.21.21,0,0,1-.23-.23v-1.48a1.81,1.81,0,0,1,2-2h1.57a1.82,1.82,0,0,1,2,2v3.3c0,.27-.12.38-.38.52Z"/><path class="cls-6" d="M1138,214.56c.21,0,.29.13.22.32a16.07,16.07,0,0,0,0,11.66c.07.19,0,.32-.22.32h-1.18a.3.3,0,0,1-.32-.23,16,16,0,0,1,0-11.85.3.3,0,0,1,.32-.22Z"/><path class="cls-6" d="M1144.86,225.77c-.12,0-.19-.07-.22-.2l-.39-2h-2.5l-.37,2a.22.22,0,0,1-.23.2h-1.5c-.15,0-.22-.09-.18-.24l2.33-10.77a.21.21,0,0,1,.23-.2h2a.22.22,0,0,1,.24.2l2.32,10.77c0,.15,0,.24-.19.24ZM1143,217l-.9,4.89h1.8Z"/><path class="cls-6" d="M1149.9,222.08a.35.35,0,0,0-.19.34v1.22a.25.25,0,0,0,.28.28h1.51v-.58a.25.25,0,0,1,.28-.28h1.34a.25.25,0,0,1,.28.28v2.15a.25.25,0,0,1-.28.28h-5a.25.25,0,0,1-.28-.28v-4.14c0-.26.1-.37.36-.51l3.34-1.8V217a.51.51,0,0,0-.56-.56h-.67a.49.49,0,0,0-.56.56v1.09a.22.22,0,0,1-.23.23H1148a.21.21,0,0,1-.23-.23v-1.48a1.81,1.81,0,0,1,2-2h1.57a1.81,1.81,0,0,1,2,2v3.3c0,.27-.11.38-.37.52Z"/><path class="cls-6" d="M1158.44,218.89a1.75,1.75,0,0,1,2,2v3a1.76,1.76,0,0,1-2,2h-1.68a1.77,1.77,0,0,1-2-2v-3.6a1.75,1.75,0,0,1,.14-.7l2-4.73a.31.31,0,0,1,.32-.21h1.46c.21,0,.29.13.21.32l-1.7,4Zm-.45,5a.5.5,0,0,0,.56-.56V221.3a.5.5,0,0,0-.56-.56h-.78a.5.5,0,0,0-.56.56v2.06a.51.51,0,0,0,.56.56Z"/><path class="cls-6" d="M1167,214.56a.25.25,0,0,1,.28.28v1.29a.25.25,0,0,1-.28.28h-3.15v2.2l3.34,1a.29.29,0,0,1,.23.31v3.83a1.76,1.76,0,0,1-2,2h-1.68a1.77,1.77,0,0,1-2-2v-.44a.25.25,0,0,1,.28-.28h1.35a.25.25,0,0,1,.28.28v.56h1.52a.25.25,0,0,0,.28-.28v-2.57l-3.33-1a.29.29,0,0,1-.24-.31v-4.87a.25.25,0,0,1,.28-.28Z"/><path class="cls-6" d="M1170.23,214.56a.3.3,0,0,1,.32.22,16.07,16.07,0,0,1,0,11.85.3.3,0,0,1-.32.23h-1.18c-.21,0-.29-.13-.22-.32a16.07,16.07,0,0,0,0-11.66c-.07-.19,0-.32.22-.32Z"/><path class="cls-6" d="M444.77,25.34a1.05,1.05,0,0,1-1.14,1.14H426V40.75h13.35a1.05,1.05,0,0,1,1.14,1.14V49a1,1,0,0,1-1.14,1.13H426V72.77a1,1,0,0,1-1.13,1.14H417.5a1,1,0,0,1-1.13-1.14V18.24a1,1,0,0,1,1.13-1.13h26.13a1,1,0,0,1,1.14,1.13Z"/><path class="cls-6" d="M460.81,64.53h16.9a1,1,0,0,1,1.14,1.14v7.1a1,1,0,0,1-1.14,1.14H452.29a1,1,0,0,1-1.13-1.14V18.24a1,1,0,0,1,1.13-1.13h7.39a1,1,0,0,1,1.13,1.13Z"/><path class="cls-6" d="M483.82,27.33c0-6.67,3.55-10.22,10.22-10.22H502c6.67,0,10.23,3.55,10.23,10.22V63.68c0,6.68-3.56,10.23-10.23,10.23H494c-6.67,0-10.22-3.55-10.22-10.23Zm16.4,37.42a2.52,2.52,0,0,0,2.84-2.84V29.11a2.55,2.55,0,0,0-2.84-2.84H496.1a2.55,2.55,0,0,0-2.84,2.84v32.8a2.52,2.52,0,0,0,2.84,2.84Z"/><path class="cls-6" d="M519.32,27.33c0-6.67,3.55-10.22,10.22-10.22h8c6.67,0,10.23,3.55,10.23,10.22V63.68c0,6.68-3.56,10.23-10.23,10.23h-8c-6.67,0-10.22-3.55-10.22-10.23Zm16.4,37.42a2.52,2.52,0,0,0,2.84-2.84V29.11a2.55,2.55,0,0,0-2.84-2.84H531.6a2.55,2.55,0,0,0-2.84,2.84v32.8a2.52,2.52,0,0,0,2.84,2.84Z"/><path class="cls-6" d="M584,44.65c0,4.76-1.78,7.89-5.19,9.38l4.9,18.6c.22.85-.21,1.28-1,1.28h-7.39a1.11,1.11,0,0,1-1.2-1l-4.76-18h-4.9V72.77a1,1,0,0,1-1.13,1.14H556a1,1,0,0,1-1.13-1.14V18.24A1,1,0,0,1,556,17.11h17.82c6.68,0,10.23,3.55,10.23,10.22Zm-12.5.86a2.55,2.55,0,0,0,2.84-2.84V29.32a2.55,2.55,0,0,0-2.84-2.84h-7v19Z"/><path class="cls-6" d="M634.69,17.11a1,1,0,0,1,1.14,1.13v7.1a1,1,0,0,1-1.14,1.14h-8.24V72.77c0,.78-.35,1.14-1.13,1.14h-7.39a1,1,0,0,1-1.13-1.14V26.48h-8.24a1,1,0,0,1-1.13-1.14v-7.1a1,1,0,0,1,1.13-1.13Z"/><path class="cls-6" d="M687.09,17.11a1.25,1.25,0,0,1,1.35,1.49l-6.11,54a1.31,1.31,0,0,1-1.49,1.35h-7a1.48,1.48,0,0,1-1.56-1.28l-7.39-32.09L657.48,72.7a1.48,1.48,0,0,1-1.56,1.21h-7.1a1.31,1.31,0,0,1-1.49-1.35l-5.83-54a1.25,1.25,0,0,1,1.35-1.49h6.75a1.38,1.38,0,0,1,1.49,1.35l2.77,33.22h.35l7-33.3a1.47,1.47,0,0,1,1.56-1.27h4.27a1.47,1.47,0,0,1,1.56,1.27l7,33.3h.36l2.91-33.22a1.38,1.38,0,0,1,1.49-1.35Z"/><path class="cls-6" d="M693.41,27.33c0-6.67,3.55-10.22,10.22-10.22h8c6.67,0,10.23,3.55,10.23,10.22V63.68c0,6.68-3.56,10.23-10.23,10.23h-8c-6.67,0-10.22-3.55-10.22-10.23Zm16.4,37.42a2.52,2.52,0,0,0,2.84-2.84V29.11a2.55,2.55,0,0,0-2.84-2.84h-4.12a2.55,2.55,0,0,0-2.84,2.84v32.8a2.52,2.52,0,0,0,2.84,2.84Z"/><path class="cls-6" d="M746.66,45.08a1.27,1.27,0,0,1,1.41-1.42h11.22a1.27,1.27,0,0,1,1.42,1.42v6.53A1.27,1.27,0,0,1,759.29,53H748.07a1.27,1.27,0,0,1-1.41-1.42Z"/><path class="cls-6" d="M814,40.39a5.12,5.12,0,0,1-4.47,5v.14a5.11,5.11,0,0,1,4.47,5V63.68c0,6.68-3.62,10.23-10.29,10.23h-17a1.05,1.05,0,0,1-1.14-1.14V18.24a1,1,0,0,1,1.14-1.13h17c6.67,0,10.29,3.55,10.29,10.22Zm-9.44-11.07a2.52,2.52,0,0,0-2.84-2.84h-6.46V40.82h6.46a2.53,2.53,0,0,0,2.84-2.77Zm0,23.71a2.52,2.52,0,0,0-2.84-2.84h-6.46V64.53h6.46a2.52,2.52,0,0,0,2.84-2.84Z"/><path class="cls-6" d="M821.13,27.33c0-6.67,3.55-10.22,10.23-10.22h7.95c6.67,0,10.22,3.55,10.22,10.22V63.68c0,6.68-3.55,10.23-10.22,10.23h-7.95c-6.68,0-10.23-3.55-10.23-10.23Zm16.4,37.42a2.52,2.52,0,0,0,2.84-2.84V29.11a2.55,2.55,0,0,0-2.84-2.84h-4.11a2.55,2.55,0,0,0-2.84,2.84v32.8a2.52,2.52,0,0,0,2.84,2.84Z"/><path class="cls-6" d="M883.61,17.11A1.43,1.43,0,0,1,885,18.53V63.68c0,6.68-3.55,10.23-10.22,10.23h-7.95c-6.68,0-10.23-3.55-10.23-10.23V18.53a1.43,1.43,0,0,1,1.42-1.42h6.82a1.43,1.43,0,0,1,1.42,1.42V61.69a2.52,2.52,0,0,0,2.84,2.84h3.69a2.52,2.52,0,0,0,2.84-2.84V18.53a1.43,1.43,0,0,1,1.42-1.42Z"/><path class="cls-6" d="M921.31,44.65c0,4.76-1.77,7.89-5.18,9.38l4.9,18.6c.21.85-.21,1.28-1,1.28h-7.39a1.11,1.11,0,0,1-1.2-1l-4.76-18h-4.9V72.77a1.05,1.05,0,0,1-1.14,1.14h-7.38a1.05,1.05,0,0,1-1.14-1.14V18.24a1,1,0,0,1,1.14-1.13h17.82c6.67,0,10.22,3.55,10.22,10.22Zm-12.49.86a2.55,2.55,0,0,0,2.84-2.84V29.32a2.55,2.55,0,0,0-2.84-2.84h-7v19Z"/><path class="cls-6" d="M957.59,17.11a1,1,0,0,1,1.14,1.13V72.77a1.05,1.05,0,0,1-1.14,1.14h-7a1.22,1.22,0,0,1-1.27-.93L938.42,42.67h-.35v30.1a1,1,0,0,1-1.14,1.14h-7.38a1.05,1.05,0,0,1-1.14-1.14V18.24a1,1,0,0,1,1.14-1.13h7a1.23,1.23,0,0,1,1.28.92L948.65,48.2h.42v-30a1,1,0,0,1,1.14-1.13Z"/><path class="cls-6" d="M984,17.11c6.68,0,10.23,3.55,10.23,10.22v7.53A1,1,0,0,1,993.09,36h-7.38a1,1,0,0,1-1.14-1.13V29.32a2.52,2.52,0,0,0-2.84-2.84h-3.41a2.57,2.57,0,0,0-2.83,2.84v9.8l16.89,5.53a2.61,2.61,0,0,1,1.85,2.63v16.4c0,6.68-3.55,10.23-10.23,10.23h-8c-6.6,0-10.22-3.55-10.22-10.23V56.23A1,1,0,0,1,967,55.09h7.38a1,1,0,0,1,1.14,1.14v5.46a2.54,2.54,0,0,0,2.83,2.84h3.41a2.52,2.52,0,0,0,2.84-2.84V52.25l-16.82-5.54a2.52,2.52,0,0,1-1.92-2.62V27.33c0-6.67,3.62-10.22,10.22-10.22Z"/><rect class="cls-3" x="385.44" y="108.5" width="94.42" height="35.04" rx="6.76"/><rect class="cls-3" x="514.9" y="108.5" width="94.42" height="35.04" rx="6.76"/><rect class="cls-3" x="644.36" y="108.5" width="94.42" height="35.04" rx="6.76"/><rect class="cls-3" x="844.88" y="108.5" width="100.26" height="35.04" rx="6.76"/></g><g id="chung_floor_2_copy" data-name="chung floor 2 copy"><path class="cls-1" d="M1388.36,131.52v-14"/><path class="cls-1" d="M1267.36,444.52H1216.6"/><path class="cls-1" d="M1536.36,272.52v167a5,5,0,0,1-5,5H1395.87"/><path class="cls-1" d="M1216.6,665.52h45.18a5,5,0,0,1,5,5v84a5,5,0,0,0,5,5h351.43a5,5,0,0,0,5-5l.12-44a5,5,0,0,1,5-5h71a5,5,0,0,0,5-5v-57a5,5,0,0,1,5-5h35a5,5,0,0,0,5-5V456a5,5,0,0,1,5-5h20c2.75,0,5-1.85,5-4.11V270.52a5,5,0,0,0-5-5h-9c-2.75,0-5-1.16-5-2.58V199.52a5,5,0,0,0-5-5h-42a5,5,0,0,1-5-5v-16a5,5,0,0,0-5-5h-67.5c-.27,0-.5,1.35-.5,3v-22a5,5,0,0,0-5-5h-117.5c-.27,0-.5,2.25-.5,5v2h0v-29a5,5,0,0,0-5-5h-247a5,5,0,0,0-5,5v6a5,5,0,0,1-5,5h-27a5,5,0,0,0-5,5v114a5,5,0,0,0,5,5h301"/><path class="cls-1" d="M1216.6,472.52h45.76a5,5,0,0,1,5,5v155a5,5,0,0,1-5,5H1216.6"/></g><g id="floor_2_copy" data-name="floor 2 copy"><rect class="cls-3" x="1651.36" y="454.52" width="92" height="166" rx="5"/><rect class="cls-3" x="1634.86" y="632.02" width="67" height="67" rx="5"/><rect class="cls-3" x="1467.86" y="654.02" width="147" height="95" rx="5"/><rect class="cls-3" x="1276.86" y="654.02" width="182" height="95" rx="5"/><rect class="cls-3" x="1276.86" y="562.37" width="97" height="75.66" rx="5"/><rect class="cls-3" x="1276.86" y="472.66" width="97" height="79.36" rx="5"/><rect class="cls-3" x="1655.36" y="272.52" width="28" height="34" rx="5"/><rect class="cls-3" x="1216.86" y="392.02" width="53" height="42" rx="5"/><rect class="cls-3" x="1395.86" y="454.02" width="90" height="80" rx="5"/><rect class="cls-3" x="1491.86" y="454.02" width="90" height="80" rx="5"/><rect class="cls-3" x="1395.86" y="544.02" width="186" height="76" rx="5"/><rect class="cls-3" x="1586.86" y="454.02" width="39" height="37.59" rx="5"/><rect class="cls-3" x="1586.86" y="496.43" width="39" height="37.59" rx="5"/><rect class="cls-3" x="1586.86" y="544.02" width="39" height="76" rx="5"/><rect class="cls-3" x="1688.86" y="273.02" width="45" height="34" rx="5"/><rect class="cls-3" x="1737.86" y="273.02" width="34" height="56" rx="5"/><path class="cls-3" d="M1668.86,310v85a5,5,0,0,1-5,5h0a5,5,0,0,0-5,5v29a5,5,0,0,0,5,5h103a5,5,0,0,0,5-5V339a5,5,0,0,0-5-5h-28a5,5,0,0,1-5-5V310"/><rect class="cls-3" x="1545.86" y="273.02" width="85" height="81.02" rx="5"/><rect class="cls-3" x="1545.86" y="358" width="85" height="81.02" rx="5"/><rect class="cls-3" x="1228.86" y="141.02" width="48" height="51.33" rx="5"/><rect class="cls-3" x="1228.86" y="197.7" width="48" height="51.33" rx="5"/><path class="cls-3" d="M1405.87,130a5,5,0,0,1,5-5h88a5,5,0,0,1,5,5V247a5,5,0,0,1-5,5h-138a5,5,0,0,1-5-5v-14.5a5,5,0,0,1,5-5h18.07a5,5,0,0,0,5-5V165.67a5,5,0,0,0-5-5h-18.07a5,5,0,0,1-5-5v-14.5a5,5,0,0,1,5-5h40a5,5,0,0,0,5-5Z"/><rect class="cls-3" x="1691.36" y="203.52" width="70" height="53" rx="5"/><path class="cls-1" d="M1323.86,164h-35a5,5,0,0,0-5,5v48a5,5,0,0,0,5,5h35"/><path class="cls-3" d="M1512.36,252a5,5,0,0,1-5-5v-80.9a5,5,0,0,1,5-5h12a4.81,4.81,0,0,0,5-4.55,4.81,4.81,0,0,1,5-4.55h83a5,5,0,0,1,5,5v32.06a5,5,0,0,1-5,5h-89a5,5,0,0,0-5,5V247a5,5,0,0,1-5,5Z"/><path class="cls-3" d="M1629.86,228V189.76a5,5,0,0,1,5-5h.82a5,5,0,0,0,5-4.87,5,5,0,0,1,5-4.87h35.43a5,5,0,0,1,5,5v33.27a5,5,0,0,1-5,5h-22.25a5,5,0,0,0-5,5V251a5,5,0,0,1-5,5h-14a5,5,0,0,1-5-5V228"/><rect class="cls-3" x="1602.86" y="196.92" width="24" height="59.1" rx="5"/><rect class="cls-3" x="1525.86" y="196.92" width="29" height="55.1" rx="5"/><rect class="cls-3" x="1558.86" y="196.92" width="18" height="55.1" rx="5"/><rect class="cls-3" x="1580.86" y="196.92" width="18" height="55.1" rx="5"/><rect class="cls-3" x="1276.86" y="392.02" width="97" height="42" rx="5"/></g><g id="floor_2_stuff" data-name="floor 2 stuff"><polygon class="cls-7" points="1333.47 395.59 1333.47 404.12 1324.94 404.12 1324.94 412.65 1316.41 412.65 1316.41 421.17 1307.88 421.17 1307.88 431.77 1312.03 431.77 1312.03 425.31 1320.55 425.31 1320.55 416.79 1329.08 416.79 1329.08 408.26 1337.61 408.26 1337.61 399.73 1344.07 399.73 1344.07 395.59 1333.47 395.59"/><polygon class="cls-8" points="1323.82 401.38 1327.47 397.73 1327.47 399.65 1329.49 399.65 1329.49 394.28 1324.12 394.28 1324.12 396.3 1326.04 396.3 1322.39 399.95 1323.82 401.38"/><polygon class="cls-8" points="1312.34 410.67 1308.68 414.32 1308.68 412.4 1306.66 412.4 1306.66 417.77 1312.04 417.77 1312.04 415.75 1310.11 415.75 1313.76 412.1 1312.34 410.67"/><polygon class="cls-8" points="1231.53 417.44 1229.61 415.51 1236.3 408.82 1242.67 415.19 1240.74 417.11 1236.3 412.67 1231.53 417.44"/><polygon class="cls-8" points="1250.43 417.23 1244.06 410.86 1245.99 408.94 1250.43 413.38 1255.2 408.61 1257.13 410.54 1250.43 417.23"/><rect class="cls-9" x="1227.7" y="397.36" width="31.34" height="31.34" rx="6.27"/><path class="cls-8" d="M1401.61,191.33a.83.83,0,0,0-.46.79V195a.59.59,0,0,0,.66.66h3.56V194.3a.59.59,0,0,1,.66-.66h3.17a.59.59,0,0,1,.66.66v5a.59.59,0,0,1-.66.66h-11.88a.59.59,0,0,1-.66-.66v-9.74c0-.62.23-.89.86-1.22l7.85-4.22v-4.89a1.2,1.2,0,0,0-1.32-1.32h-1.58a1.17,1.17,0,0,0-1.32,1.32v2.58a.48.48,0,0,1-.53.52h-3.43a.46.46,0,0,1-.53-.52v-3.5c0-3.1,1.65-4.75,4.75-4.75h3.7c3.07,0,4.75,1.65,4.75,4.75v7.79c0,.62-.26.89-.89,1.22Z"/><path class="cls-8" d="M1413.16,178.36c0-3.1,1.65-4.75,4.75-4.75h3.7c3.1,0,4.75,1.65,4.75,4.75v16.9c0,3.1-1.65,4.75-4.75,4.75h-3.7c-3.1,0-4.75-1.65-4.75-4.75Zm7.62,17.39a1.17,1.17,0,0,0,1.32-1.32V179.18a1.18,1.18,0,0,0-1.32-1.32h-1.91a1.18,1.18,0,0,0-1.32,1.32v15.25a1.17,1.17,0,0,0,1.32,1.32Z"/><path class="cls-8" d="M1441.87,173.61a.59.59,0,0,1,.66.66v3a.59.59,0,0,1-.66.66h-7.43v5.18l7.86,2.48a.69.69,0,0,1,.56.72v9c0,3-1.62,4.62-4.62,4.62h-4c-3,0-4.62-1.62-4.62-4.62v-1.06a.59.59,0,0,1,.66-.66h3.17a.59.59,0,0,1,.66.66v1.32h3.59a.59.59,0,0,0,.66-.66v-6l-7.85-2.47a.71.71,0,0,1-.56-.73V174.27a.59.59,0,0,1,.66-.66Z"/><path class="cls-8" d="M1460,173.61c.49,0,.69.29.52.75L1450,202.09a.72.72,0,0,1-.76.53h-3.1c-.49,0-.69-.3-.53-.76l10.6-27.73a.71.71,0,0,1,.76-.52Z"/><path class="cls-8" d="M1463.52,178.36c0-3.1,1.65-4.75,4.75-4.75H1472c3.11,0,4.76,1.65,4.76,4.75v16.9c0,3.1-1.65,4.75-4.76,4.75h-3.69c-3.1,0-4.75-1.65-4.75-4.75Zm7.62,17.39a1.17,1.17,0,0,0,1.32-1.32V179.18a1.18,1.18,0,0,0-1.32-1.32h-1.91a1.18,1.18,0,0,0-1.32,1.32v15.25a1.17,1.17,0,0,0,1.32,1.32Z"/><path class="cls-8" d="M1488.6,183.8c3,0,4.62,1.62,4.62,4.62v7c0,3-1.62,4.62-4.62,4.62h-4c-3,0-4.62-1.62-4.62-4.62v-8.48a3.93,3.93,0,0,1,.33-1.65L1485,174.1a.73.73,0,0,1,.76-.49h3.43c.5,0,.7.29.5.75l-4,9.44Zm-1.06,11.85a1.18,1.18,0,0,0,1.32-1.32v-4.85a1.18,1.18,0,0,0-1.32-1.32h-1.85a1.18,1.18,0,0,0-1.32,1.32v4.85a1.18,1.18,0,0,0,1.32,1.32Z"/><polygon class="cls-6" points="1558.62 261.69 1546.6 261.69 1551.23 257.06 1549.13 254.96 1540.92 263.17 1549.13 271.39 1551.23 269.29 1546.6 264.66 1558.62 264.66 1558.62 261.69"/><path class="cls-6" d="M1295.21,214h-4.41a1,1,0,0,1-1-1V201.7a1,1,0,0,1,1-1h8.08v-8.08a1,1,0,0,1,1-1H1308v-8.08a1,1,0,0,1,1-1H1317v-8.07a1,1,0,0,1,1-1h11.28a1,1,0,0,1,1,1v4.4a1,1,0,0,1-1,1h-5.87V188a1,1,0,0,1-1,1h-8.08V197a1,1,0,0,1-1,1h-8.08v8.07a1,1,0,0,1-1,1h-8.07V213A1,1,0,0,1,1295.21,214Zm-3.41-2h2.41V206.1a1,1,0,0,1,1-1h8.07V197a1,1,0,0,1,1-1h8.08V188a1,1,0,0,1,1-1h8.08v-8.08a1,1,0,0,1,1-1h5.87v-2.4H1319v8.07a1,1,0,0,1-1,1H1310v8.08a1,1,0,0,1-1,1h-8.07v8.08a1,1,0,0,1-1,1h-8.08Z"/><polygon class="cls-6" points="1307.76 180.63 1311.65 176.74 1311.65 178.79 1313.8 178.79 1313.8 173.07 1308.08 173.07 1308.08 175.22 1310.13 175.22 1306.24 179.11 1307.76 180.63"/><polygon class="cls-6" points="1295.54 190.52 1291.65 194.41 1291.65 192.36 1289.5 192.36 1289.5 198.07 1295.22 198.07 1295.22 195.93 1293.17 195.93 1297.06 192.04 1295.54 190.52"/><polygon class="cls-7" points="1734.99 211.47 1734.99 220.54 1725.91 220.54 1725.91 229.62 1716.84 229.62 1716.84 238.7 1707.76 238.7 1707.76 249.98 1712.17 249.98 1712.17 243.1 1721.24 243.1 1721.24 234.03 1730.32 234.03 1730.32 224.95 1739.4 224.95 1739.4 215.88 1746.27 215.88 1746.27 211.47 1734.99 211.47"/><polygon class="cls-8" points="1724.72 217.63 1728.61 213.74 1728.61 215.79 1730.76 215.79 1730.76 210.07 1725.04 210.07 1725.04 212.22 1727.09 212.22 1723.2 216.11 1724.72 217.63"/><polygon class="cls-8" points="1712.5 227.52 1708.61 231.41 1708.61 229.36 1706.46 229.36 1706.46 235.07 1712.18 235.07 1712.18 232.93 1710.13 232.93 1714.02 229.04 1712.5 227.52"/><polygon class="cls-6" points="1661.34 243.77 1659.41 241.84 1666.11 235.15 1672.48 241.52 1670.55 243.44 1666.11 239 1661.34 243.77"/><polygon class="cls-6" points="1680.24 243.56 1673.87 237.19 1675.8 235.27 1680.24 239.71 1685.01 234.94 1686.94 236.87 1680.24 243.56"/><path class="cls-6" d="M1682.58,256.07h-18.81a7.32,7.32,0,0,1-7.31-7.31V230a7.32,7.32,0,0,1,7.31-7.32h18.81a7.32,7.32,0,0,1,7.31,7.32v18.8A7.32,7.32,0,0,1,1682.58,256.07Zm-18.81-31.34a5.23,5.23,0,0,0-5.22,5.23v18.8a5.22,5.22,0,0,0,5.22,5.22h18.81a5.22,5.22,0,0,0,5.22-5.22V230a5.23,5.23,0,0,0-5.22-5.23Z"/><path class="cls-8" d="M1234.7,169.49a.83.83,0,0,0-.46.79v2.88a.6.6,0,0,0,.66.66h3.56v-1.36a.59.59,0,0,1,.66-.66h3.17a.59.59,0,0,1,.66.66v5a.59.59,0,0,1-.66.66h-11.88a.59.59,0,0,1-.66-.66v-9.73c0-.63.23-.9.86-1.23l7.85-4.22v-4.88a1.2,1.2,0,0,0-1.32-1.32h-1.58a1.17,1.17,0,0,0-1.32,1.32V160a.49.49,0,0,1-.53.53h-3.43a.47.47,0,0,1-.53-.53v-3.5c0-3.1,1.65-4.75,4.75-4.75h3.7c3.07,0,4.75,1.65,4.75,4.75v7.79c0,.63-.26.89-.89,1.22Z"/><path class="cls-8" d="M1246.25,156.52c0-3.1,1.65-4.75,4.75-4.75h3.7c3.1,0,4.75,1.65,4.75,4.75v16.9c0,3.1-1.65,4.75-4.75,4.75H1251c-3.1,0-4.75-1.65-4.75-4.75Zm7.62,17.39a1.17,1.17,0,0,0,1.32-1.32V157.35a1.18,1.18,0,0,0-1.32-1.32H1252a1.18,1.18,0,0,0-1.32,1.32v15.24a1.17,1.17,0,0,0,1.32,1.32Z"/><path class="cls-8" d="M1276,162.59a2.38,2.38,0,0,1-2.08,2.35V165a2.39,2.39,0,0,1,2.08,2.35v6.07c0,3.1-1.68,4.75-4.78,4.75h-3.83c-3,0-4.62-1.61-4.62-4.62v-1.09a.59.59,0,0,1,.66-.66h3.17a.59.59,0,0,1,.66.66v1.36h3.69a.6.6,0,0,0,.66-.66v-4.69a1.17,1.17,0,0,0-1.32-1.32h-3.89a.59.59,0,0,1-.66-.66v-3a.59.59,0,0,1,.66-.66h3.89a1.17,1.17,0,0,0,1.32-1.29v-4.71a.59.59,0,0,0-.66-.66h-3.69v1.35a.59.59,0,0,1-.66.66h-3.17a.59.59,0,0,1-.66-.66v-1.35c0-2.84,1.62-4.36,4.62-4.36h3.83c3.1,0,4.78,1.65,4.78,4.75Z"/><polygon class="cls-6" points="1258.62 455.69 1246.6 455.69 1251.23 451.06 1249.13 448.96 1240.92 457.17 1249.13 465.39 1251.23 463.29 1246.6 458.66 1258.62 458.66 1258.62 455.69"/><polygon class="cls-6" points="1258.62 649.69 1246.6 649.69 1251.23 645.05 1249.13 642.96 1240.92 651.17 1249.13 659.39 1251.23 657.29 1246.6 652.66 1258.62 652.66 1258.62 649.69"/><polygon class="cls-6" points="1385.25 462.02 1385.25 450 1389.89 454.64 1391.98 452.54 1383.77 444.32 1375.55 452.54 1377.65 454.64 1382.28 450 1382.28 462.02 1385.25 462.02"/><circle class="cls-10" cx="1606.37" cy="504.98" r="3.88" transform="translate(-31.76 115.14) rotate(-4.07)"/><path class="cls-10" d="M1610.73,510.49H1602c-1.94,0-3.19,2.63-2.33,4.86l4.93,12.72a1.85,1.85,0,0,0,3.53,0l4.93-12.72C1613.92,513.12,1612.67,510.49,1610.73,510.49Z"/><circle class="cls-10" cx="1606.36" cy="462.57" r="3.88" transform="translate(-28.75 115.04) rotate(-4.07)"/><path class="cls-10" d="M1600.88,487h11c1.93,0,3.19-2.4,2.32-4.45l-5.78-13.43a1.88,1.88,0,0,0-1.78-1.27h-.4a1.88,1.88,0,0,0-1.78,1.26l-5.87,13.44C1597.69,484.55,1599,487,1600.88,487Z"/><circle class="cls-10" cx="1567.87" cy="214.22" r="3.88" transform="translate(-11.24 111.68) rotate(-4.07)"/><path class="cls-10" d="M1572.23,219.73h-8.73c-1.94,0-3.19,2.63-2.33,4.87l4.93,12.71a1.85,1.85,0,0,0,3.53,0l4.93-12.71C1575.42,222.36,1574.17,219.73,1572.23,219.73Z"/><path class="cls-6" d="M1441.52,389a2,2,0,0,1-1.77-2.93c3.77-7.14,3-15.23-1.86-20.18l-.11-.13-17.69-17.67a15.34,15.34,0,0,0-11-4.33,20.11,20.11,0,0,0-9.31,2.39,2,2,0,0,1-.93.23,2,2,0,0,1-1.38-.55,2,2,0,0,1-.43-2.3,33,33,0,0,1,13.22-14.76,22.05,22.05,0,0,1,11-3,20.56,20.56,0,0,1,6.4,1l1.39.45.85-1.18c11.78-16.17,28.75-25.08,47.78-25.08,1.69,0,3.41.07,5.13.21a2,2,0,0,1,1.84,1.82c1.38,16.27-3,30.5-13.16,42.3a65.77,65.77,0,0,1-11.65,10.58l-1.2.86.47,1.4a21.41,21.41,0,0,1-1.93,17.44,33,33,0,0,1-14.78,13.21A2.06,2.06,0,0,1,1441.52,389Zm11.39-28.69a80,80,0,0,1-8.2,4.05l-2,.86,1,1.94a20.1,20.1,0,0,1,2.39,10.38l-.17,5.06,3.59-3.58c5.2-5.19,7.45-11.35,6.32-17.34l-.51-2.75Zm24.82-55.3c-28.45,0-46.28,20.62-53.49,39.91l-.45,1.21,15.94,15.92,1.21-.48c12.33-4.84,40.88-19.84,39.9-54.61l0-1.9-1.91,0Zm-68.62,34.75a20.18,20.18,0,0,1,9.54,2.36l1.95,1.05.85-2a70.58,70.58,0,0,1,4-8.15l1.4-2.47L1424,330a16.73,16.73,0,0,0-2.83-.25c-5,0-10.08,2.34-14.33,6.59l-3.6,3.6,5.08-.18ZM1409,379a2,2,0,0,1-2-2c0-1,.06-10,4.18-14.15a9.18,9.18,0,0,1,6.33-2.81,8.08,8.08,0,0,1,5.79,2.62,8.46,8.46,0,0,1,2.63,5.94,8.74,8.74,0,0,1-2.85,6.22c-4.12,4.12-13,4.23-14,4.23Zm8.4-15a4.91,4.91,0,0,0-3.37,1.67c-1.17,1.18-2,3.37-2.59,6.52l-.47,2.78,2.78-.47c3.15-.53,5.35-1.4,6.54-2.59a4.85,4.85,0,0,0,1.67-3.35,4.49,4.49,0,0,0-1.46-3.1A4.39,4.39,0,0,0,1417.35,364Zm44.1-35a4.49,4.49,0,1,1,3.19-1.32A4.53,4.53,0,0,1,1461.45,329Z"/><path class="cls-6" d="M1251.64,277.35a.8.8,0,0,1,.86.95l-3.87,34.2a.83.83,0,0,1-1,.85h-4.41a.94.94,0,0,1-1-.81l-4.68-20.34-4.72,20.39a.94.94,0,0,1-1,.76h-4.5a.83.83,0,0,1-1-.85l-3.69-34.2a.8.8,0,0,1,.86-.95h4.27a.89.89,0,0,1,.95.86l1.75,21.06h.23l4.45-21.11a.94.94,0,0,1,1-.81h2.7a.93.93,0,0,1,1,.81l4.41,21.11h.23l1.84-21.06a.89.89,0,0,1,.95-.86Z"/><path class="cls-6" d="M1274.14,288.69a.66.66,0,0,1-.72.72h-4.5a.64.64,0,0,1-.72-.72v-3.6a1.62,1.62,0,0,0-1.8-1.8h-2.34a1.6,1.6,0,0,0-1.8,1.8v20.52a1.59,1.59,0,0,0,1.8,1.8h2.34a1.59,1.59,0,0,0,1.8-1.8V302a.64.64,0,0,1,.72-.72h4.5a.66.66,0,0,1,.72.72v4.86c0,4.23-2.29,6.48-6.48,6.48h-5c-4.23,0-6.52-2.25-6.52-6.48v-23c0-4.23,2.29-6.48,6.52-6.48h5c4.19,0,6.48,2.25,6.48,6.48Z"/><path class="cls-6" d="M1290.52,278.07a.66.66,0,0,1,.72-.72h4.64c.54,0,.76.27.76.72v34.56c0,.45-.22.72-.76.72h-4.64a.66.66,0,0,1-.72-.72V298.32h-5.76v14.31a.66.66,0,0,1-.72.72h-4.63c-.54,0-.77-.27-.77-.72V278.07c0-.45.23-.72.77-.72H1284a.66.66,0,0,1,.72.72v14.31h5.76Z"/><path class="cls-6" d="M1312.39,278.07a.66.66,0,0,1,.72-.72h10.8c4.23,0,6.48,2.25,6.48,6.48v11c0,4.19-2.25,6.48-6.48,6.48h-5.4v11.34a.64.64,0,0,1-.72.72h-4.68a.66.66,0,0,1-.72-.72Zm10.08,17.28a1.61,1.61,0,0,0,1.8-1.8v-8.46a1.59,1.59,0,0,0-1.8-1.8h-4v12.06Z"/><path class="cls-6" d="M1349.56,313.35a.69.69,0,0,1-.72-.63l-1.26-6.57h-8l-1.21,6.57a.69.69,0,0,1-.72.63h-4.82c-.49,0-.72-.27-.58-.76l7.47-34.61a.7.7,0,0,1,.76-.63h6.26a.7.7,0,0,1,.76.63l7.47,34.61c.09.49-.09.76-.63.76Zm-6-28.12-2.88,15.7h5.76Z"/><path class="cls-6" d="M1371.79,277.35a.64.64,0,0,1,.72.72v4.5a.64.64,0,0,1-.72.72h-5.22v29.34c0,.5-.22.72-.72.72h-4.68a.64.64,0,0,1-.72-.72V283.29h-5.21a.67.67,0,0,1-.73-.72v-4.5a.67.67,0,0,1,.73-.72Z"/><path class="cls-6" d="M1381.51,277.35a.67.67,0,0,1,.73.72v34.56a.67.67,0,0,1-.73.72h-4.68a.64.64,0,0,1-.72-.72V278.07a.64.64,0,0,1,.72-.72Z"/><path class="cls-6" d="M1386.73,283.83c0-4.23,2.25-6.48,6.48-6.48h5c4.23,0,6.48,2.25,6.48,6.48v23c0,4.23-2.25,6.48-6.48,6.48h-5c-4.23,0-6.48-2.25-6.48-6.48Zm10.4,23.72a1.6,1.6,0,0,0,1.8-1.8V285a1.62,1.62,0,0,0-1.8-1.8h-2.61a1.62,1.62,0,0,0-1.8,1.8v20.79a1.6,1.6,0,0,0,1.8,1.8Z"/><path class="cls-8" d="M1392.79,207.17a1.68,1.68,0,0,1,1.88,1.87v.86a.18.18,0,0,1-.21.2h-1.32a.18.18,0,0,1-.2-.2v-.55a.46.46,0,0,0-.52-.52h-.72a.47.47,0,0,0-.52.52v1.1l3.15,1a.47.47,0,0,1,.34.48v2.44a1.68,1.68,0,0,1-1.88,1.88h-1.45a1.68,1.68,0,0,1-1.87-1.88v-.84a.18.18,0,0,1,.2-.21H1391a.19.19,0,0,1,.21.21v.54a.46.46,0,0,0,.51.52h.71a.46.46,0,0,0,.52-.52v-1.31l-3.12-1a.46.46,0,0,1-.35-.48V209a1.68,1.68,0,0,1,1.87-1.87Z"/><path class="cls-8" d="M1396,207.37a.18.18,0,0,1,.2-.2h3.12a1.68,1.68,0,0,1,1.88,1.87v2.55a1.69,1.69,0,0,1-1.88,1.87h-1.63v2.6a.19.19,0,0,1-.21.21h-1.28a.19.19,0,0,1-.2-.21Zm3,4.41a.47.47,0,0,0,.52-.52v-1.9a.46.46,0,0,0-.52-.52l-1.3,0v2.93Z"/><path class="cls-8" d="M1402.34,209a1.67,1.67,0,0,1,1.87-1.87h1.45a1.68,1.68,0,0,1,1.88,1.87v5.35a1.68,1.68,0,0,1-1.88,1.88h-1.45a1.68,1.68,0,0,1-1.87-1.88Zm3,5.55a.46.46,0,0,0,.52-.52v-4.71a.47.47,0,0,0-.52-.52h-.83a.47.47,0,0,0-.52.52v4.71a.46.46,0,0,0,.52.52Z"/><path class="cls-8" d="M1414.18,207.17a.19.19,0,0,1,.21.2v8.69a.19.19,0,0,1-.21.21h-1a.23.23,0,0,1-.23-.17l-2.45-5v4.93c0,.13-.06.21-.2.21H1409a.19.19,0,0,1-.2-.21v-8.69a.18.18,0,0,1,.2-.2h1a.23.23,0,0,1,.23.16l2.45,5v-4.93c0-.13.06-.2.21-.2Z"/><path class="cls-8" d="M1419,207.17a1.67,1.67,0,0,1,1.87,1.87v.86a.18.18,0,0,1-.21.2h-1.32a.18.18,0,0,1-.2-.2v-.55a.46.46,0,0,0-.52-.52h-.72a.47.47,0,0,0-.52.52v1.1l3.15,1a.47.47,0,0,1,.34.48v2.44a1.68,1.68,0,0,1-1.87,1.88h-1.46a1.68,1.68,0,0,1-1.87-1.88v-.84a.19.19,0,0,1,.2-.21h1.32a.19.19,0,0,1,.21.21v.54a.46.46,0,0,0,.52.52h.7a.46.46,0,0,0,.52-.52v-1.31l-3.12-1a.46.46,0,0,1-.35-.48V209a1.68,1.68,0,0,1,1.87-1.87Z"/><path class="cls-8" d="M1422.19,209a1.67,1.67,0,0,1,1.87-1.87h1.46a1.67,1.67,0,0,1,1.87,1.87v5.35a1.68,1.68,0,0,1-1.87,1.88h-1.46a1.68,1.68,0,0,1-1.87-1.88Zm3,5.55a.46.46,0,0,0,.52-.52v-4.71a.47.47,0,0,0-.52-.52h-.83a.47.47,0,0,0-.52.52v4.71a.46.46,0,0,0,.52.52Z"/><path class="cls-8" d="M1433.89,211.65a1.74,1.74,0,0,1-.73,1.59l.67,2.79c0,.16,0,.24-.18.24h-1.27a.2.2,0,0,1-.22-.19l-.63-2.56h-1.15v2.54a.19.19,0,0,1-.21.21h-1.28a.19.19,0,0,1-.2-.21v-8.69a.18.18,0,0,1,.2-.2H1432a1.67,1.67,0,0,1,1.87,1.87Zm-2.21.2a.47.47,0,0,0,.52-.52v-2a.47.47,0,0,0-.52-.52h-1.3v3Z"/><path class="cls-8" d="M1438.52,207.17a1.67,1.67,0,0,1,1.87,1.87v.86a.18.18,0,0,1-.21.2h-1.32a.18.18,0,0,1-.2-.2v-.55a.46.46,0,0,0-.52-.52h-.72a.47.47,0,0,0-.52.52v1.1l3.15,1a.47.47,0,0,1,.34.48v2.44a1.68,1.68,0,0,1-1.87,1.88h-1.46a1.68,1.68,0,0,1-1.87-1.88v-.84a.19.19,0,0,1,.2-.21h1.32a.19.19,0,0,1,.21.21v.54a.46.46,0,0,0,.52.52h.7a.46.46,0,0,0,.52-.52v-1.31l-3.12-1a.46.46,0,0,1-.35-.48V209a1.68,1.68,0,0,1,1.87-1.87Z"/><path class="cls-8" d="M1445.12,207.37a.19.19,0,0,1,.21-.2h1.34c.15,0,.22.07.22.2v8.69a.19.19,0,0,1-.22.21h-1.34a.19.19,0,0,1-.21-.21V212.6h-1.67v3.46a.19.19,0,0,1-.2.21h-1.34c-.16,0-.22-.08-.22-.21v-8.69c0-.13.06-.2.22-.2h1.34a.18.18,0,0,1,.2.2v3.51h1.67Z"/><path class="cls-8" d="M1448.39,216.27c-.14,0-.2-.08-.2-.21v-8.69a.18.18,0,0,1,.2-.2h1.36a.18.18,0,0,1,.2.2v8.69a.19.19,0,0,1-.2.21Z"/><path class="cls-8" d="M1451.26,207.37a.18.18,0,0,1,.2-.2h3.12a1.67,1.67,0,0,1,1.87,1.87v2.55a1.69,1.69,0,0,1-1.87,1.87H1453v2.6a.19.19,0,0,1-.21.21h-1.28a.19.19,0,0,1-.2-.21Zm3,4.41a.47.47,0,0,0,.52-.52v-1.9a.46.46,0,0,0-.52-.52l-1.3,0v2.93Z"/><path class="cls-8" d="M1465.74,207.17a.18.18,0,0,1,.21.2v1.3a.19.19,0,0,1-.21.21h-1.51v7.18a.19.19,0,0,1-.21.21h-1.35a.19.19,0,0,1-.21-.21v-7.18H1461a.19.19,0,0,1-.21-.21v-1.3a.19.19,0,0,1,.21-.2Z"/><path class="cls-8" d="M1470.82,216.27c-.12,0-.18-.07-.21-.19l-.41-1.63h-2.45l-.4,1.63c0,.12-.09.19-.21.19h-1.27c-.15,0-.21-.08-.17-.23l2.16-8.69a.2.2,0,0,1,.22-.18h1.8a.21.21,0,0,1,.23.18l2.15,8.69c0,.15,0,.23-.18.23ZM1469,209.4l-.82,3.54h1.64Z"/><path class="cls-8" d="M1478.53,210.79a1,1,0,0,1-.82.93v0a.94.94,0,0,1,.82.92v1.73a1.69,1.69,0,0,1-1.89,1.88h-3.12a.19.19,0,0,1-.2-.21v-8.69a.18.18,0,0,1,.2-.2h3.12a1.69,1.69,0,0,1,1.89,1.87Zm-1.65-1.47a.47.47,0,0,0-.52-.52h-1.43v2.07h1.43a.46.46,0,0,0,.52-.51Zm0,3.79a.46.46,0,0,0-.52-.52h-1.43v2h1.43a.46.46,0,0,0,.52-.52Z"/><path class="cls-8" d="M1481.6,214.55h2.57a.19.19,0,0,1,.21.21v1.3a.19.19,0,0,1-.21.21H1480a.19.19,0,0,1-.21-.21v-8.69a.19.19,0,0,1,.21-.2h1.35a.18.18,0,0,1,.21.2Z"/><path class="cls-8" d="M1485.5,216.27a.19.19,0,0,1-.21-.21v-8.69c0-.13.06-.2.21-.2h1.35a.19.19,0,0,1,.21.2v8.69a.19.19,0,0,1-.21.21Z"/><path class="cls-8" d="M1493.7,207.17a.19.19,0,0,1,.21.2v8.69a.19.19,0,0,1-.21.21h-1a.24.24,0,0,1-.23-.17l-2.45-5v4.93c0,.13-.06.21-.2.21h-1.23a.19.19,0,0,1-.2-.21v-8.69a.18.18,0,0,1,.2-.2h1a.25.25,0,0,1,.24.16l2.44,5v-4.93c0-.13.06-.2.21-.2Z"/><path class="cls-8" d="M1495.21,209a1.67,1.67,0,0,1,1.87-1.87h1.45a1.69,1.69,0,0,1,1.88,1.87v1a.19.19,0,0,1-.21.21H1499a.19.19,0,0,1-.21-.21v-.64a.47.47,0,0,0-.52-.52h-.83a.46.46,0,0,0-.52.52v4.71a.46.46,0,0,0,.52.52h.83a.46.46,0,0,0,.52-.52v-1.13h-.68a.19.19,0,0,1-.21-.21v-1.3a.19.19,0,0,1,.21-.21h2.11a.19.19,0,0,1,.21.21v3a1.69,1.69,0,0,1-1.88,1.88h-1.45a1.68,1.68,0,0,1-1.87-1.88Z"/><path class="cls-6" d="M1265,28.34a1,1,0,0,1-1.13,1.14H1246.3V43.75h13.35a1,1,0,0,1,1.13,1.14V52a1,1,0,0,1-1.13,1.13H1246.3V75.77a1.05,1.05,0,0,1-1.14,1.14h-7.38a1,1,0,0,1-1.13-1.14V21.24a1,1,0,0,1,1.13-1.13h26.13a1,1,0,0,1,1.13,1.13Z"/><path class="cls-6" d="M1281.09,67.53H1298a1,1,0,0,1,1.14,1.14v7.1a1,1,0,0,1-1.14,1.14h-25.42a1,1,0,0,1-1.13-1.14V21.24a1,1,0,0,1,1.13-1.13H1280a1,1,0,0,1,1.13,1.13Z"/><path class="cls-6" d="M1304.09,30.33c0-6.67,3.56-10.22,10.23-10.22h8c6.67,0,10.22,3.55,10.22,10.22V66.68c0,6.68-3.55,10.23-10.22,10.23h-8c-6.67,0-10.23-3.55-10.23-10.23Zm16.41,37.42a2.52,2.52,0,0,0,2.84-2.84V32.11a2.55,2.55,0,0,0-2.84-2.84h-4.12a2.55,2.55,0,0,0-2.84,2.84v32.8a2.52,2.52,0,0,0,2.84,2.84Z"/><path class="cls-6" d="M1339.59,30.33c0-6.67,3.56-10.22,10.23-10.22h8c6.67,0,10.22,3.55,10.22,10.22V66.68c0,6.68-3.55,10.23-10.22,10.23h-8c-6.67,0-10.23-3.55-10.23-10.23ZM1356,67.75a2.52,2.52,0,0,0,2.84-2.84V32.11a2.55,2.55,0,0,0-2.84-2.84h-4.12a2.55,2.55,0,0,0-2.84,2.84v32.8a2.52,2.52,0,0,0,2.84,2.84Z"/><path class="cls-6" d="M1404.28,47.65c0,4.76-1.78,7.89-5.19,9.38l4.9,18.6c.21.85-.21,1.28-1,1.28h-7.39a1.11,1.11,0,0,1-1.2-1l-4.76-18h-4.9V75.77a1.05,1.05,0,0,1-1.14,1.14h-7.38a1.05,1.05,0,0,1-1.14-1.14V21.24a1,1,0,0,1,1.14-1.13h17.82c6.68,0,10.23,3.55,10.23,10.22Zm-12.5.86a2.55,2.55,0,0,0,2.84-2.84V32.32a2.55,2.55,0,0,0-2.84-2.84h-7v19Z"/><path class="cls-6" d="M1455,20.11a1,1,0,0,1,1.14,1.13v7.1a1,1,0,0,1-1.14,1.14h-8.24V75.77c0,.78-.35,1.14-1.13,1.14h-7.39a1,1,0,0,1-1.13-1.14V29.48h-8.24a1.05,1.05,0,0,1-1.14-1.14v-7.1a1,1,0,0,1,1.14-1.13Z"/><path class="cls-6" d="M1507.37,20.11a1.24,1.24,0,0,1,1.34,1.49l-6.1,54a1.31,1.31,0,0,1-1.49,1.35h-7a1.48,1.48,0,0,1-1.56-1.28l-7.39-32.09-7.45,32.16a1.48,1.48,0,0,1-1.56,1.21h-7.1a1.31,1.31,0,0,1-1.49-1.35l-5.83-54a1.25,1.25,0,0,1,1.35-1.49h6.75a1.38,1.38,0,0,1,1.49,1.35l2.77,33.22h.35l7-33.3a1.47,1.47,0,0,1,1.56-1.27h4.26a1.48,1.48,0,0,1,1.57,1.27l6.95,33.3h.36l2.91-33.22a1.38,1.38,0,0,1,1.49-1.35Z"/><path class="cls-6" d="M1513.68,30.33c0-6.67,3.56-10.22,10.23-10.22h7.95c6.67,0,10.22,3.55,10.22,10.22V66.68c0,6.68-3.55,10.23-10.22,10.23h-7.95c-6.67,0-10.23-3.55-10.23-10.23Zm16.41,37.42a2.52,2.52,0,0,0,2.84-2.84V32.11a2.55,2.55,0,0,0-2.84-2.84H1526a2.55,2.55,0,0,0-2.84,2.84v32.8a2.52,2.52,0,0,0,2.84,2.84Z"/><path class="cls-6" d="M1566.93,48.08a1.28,1.28,0,0,1,1.42-1.42h11.22a1.27,1.27,0,0,1,1.42,1.42v6.53a1.27,1.27,0,0,1-1.42,1.42h-11.22a1.27,1.27,0,0,1-1.42-1.42Z"/><path class="cls-6" d="M1651.42,20.11a1.24,1.24,0,0,1,1.35,1.49l-6.1,54a1.31,1.31,0,0,1-1.49,1.35h-7a1.48,1.48,0,0,1-1.56-1.28l-7.39-32.09-7.45,32.16a1.49,1.49,0,0,1-1.57,1.21h-7.09a1.32,1.32,0,0,1-1.5-1.35l-5.82-54a1.25,1.25,0,0,1,1.35-1.49h6.75a1.38,1.38,0,0,1,1.49,1.35l2.77,33.22h.35l7-33.3a1.47,1.47,0,0,1,1.56-1.27h4.26a1.47,1.47,0,0,1,1.56,1.27l7,33.3h.36l2.91-33.22a1.38,1.38,0,0,1,1.49-1.35Z"/><path class="cls-6" d="M1686.92,38a1,1,0,0,1-1.13,1.13h-7.1a1,1,0,0,1-1.14-1.13V32.32a2.55,2.55,0,0,0-2.84-2.84H1671a2.52,2.52,0,0,0-2.84,2.84V64.69a2.52,2.52,0,0,0,2.84,2.84h3.69a2.52,2.52,0,0,0,2.84-2.84V59a1,1,0,0,1,1.14-1.13h7.1a1,1,0,0,1,1.13,1.13v7.67c0,6.68-3.62,10.23-10.22,10.23h-8c-6.68,0-10.3-3.55-10.3-10.23V30.33c0-6.67,3.62-10.22,10.3-10.22h8c6.6,0,10.22,3.55,10.22,10.22Z"/><path class="cls-6" d="M1712.77,21.24a1,1,0,0,1,1.13-1.13h7.32c.85,0,1.2.42,1.2,1.13V75.77c0,.71-.35,1.14-1.2,1.14h-7.32a1,1,0,0,1-1.13-1.14V53.19h-9.09V75.77a1.05,1.05,0,0,1-1.14,1.14h-7.31c-.85,0-1.21-.43-1.21-1.14V21.24c0-.71.36-1.13,1.21-1.13h7.31a1,1,0,0,1,1.14,1.13V43.82h9.09Z"/><path class="cls-6" d="M1124.92,133a1.81,1.81,0,0,1,2,2v.92a.21.21,0,0,1-.23.23h-1.41a.22.22,0,0,1-.23-.23v-.59a.5.5,0,0,0-.56-.56h-.77a.51.51,0,0,0-.56.56v1.19l3.39,1.1a.5.5,0,0,1,.37.52v2.63a1.81,1.81,0,0,1-2,2h-1.57a1.82,1.82,0,0,1-2-2v-.91a.21.21,0,0,1,.23-.23H1123c.16,0,.23.07.23.23v.59a.51.51,0,0,0,.56.56h.75a.5.5,0,0,0,.56-.56V139l-3.36-1.09a.5.5,0,0,1-.38-.52V135a1.82,1.82,0,0,1,2-2Z"/><path class="cls-6" d="M1128.33,133.18a.21.21,0,0,1,.23-.22h3.36a1.81,1.81,0,0,1,2,2v2.74a1.82,1.82,0,0,1-2,2h-1.77v2.81a.2.2,0,0,1-.22.22h-1.37a.22.22,0,0,1-.23-.23Zm3.22,4.75a.5.5,0,0,0,.56-.56v-2a.49.49,0,0,0-.56-.56h-1.4V138Z"/><path class="cls-6" d="M1135.19,135a1.81,1.81,0,0,1,2-2h1.57a1.81,1.81,0,0,1,2,2v5.77a1.81,1.81,0,0,1-2,2h-1.57a1.81,1.81,0,0,1-2-2Zm3.28,6a.49.49,0,0,0,.56-.56v-5.07a.5.5,0,0,0-.56-.56h-.9a.5.5,0,0,0-.56.56v5.07a.5.5,0,0,0,.56.56Z"/><path class="cls-6" d="M1148,133a.2.2,0,0,1,.22.22v9.36a.21.21,0,0,1-.22.23h-1.11c-.12,0-.19-.06-.25-.19l-2.63-5.35v5.31a.21.21,0,0,1-.23.23h-1.31a.22.22,0,0,1-.23-.23v-9.36a.21.21,0,0,1,.23-.22h1.1a.27.27,0,0,1,.26.18l2.63,5.35v-5.31a.2.2,0,0,1,.22-.22Z"/><path class="cls-6" d="M1153.16,133a1.8,1.8,0,0,1,2,2v.92a.2.2,0,0,1-.22.23h-1.42a.21.21,0,0,1-.22-.23v-.59a.5.5,0,0,0-.56-.56H1152a.51.51,0,0,0-.56.56v1.19l3.39,1.1a.49.49,0,0,1,.36.52v2.63a1.8,1.8,0,0,1-2,2h-1.57a1.82,1.82,0,0,1-2-2v-.91a.21.21,0,0,1,.23-.23h1.41c.15,0,.22.07.22.23v.59a.51.51,0,0,0,.56.56h.76a.5.5,0,0,0,.56-.56V139l-3.36-1.09a.5.5,0,0,1-.38-.52V135a1.82,1.82,0,0,1,2-2Z"/><path class="cls-6" d="M1156.57,135a1.81,1.81,0,0,1,2-2h1.57a1.8,1.8,0,0,1,2,2v5.77a1.8,1.8,0,0,1-2,2h-1.57a1.81,1.81,0,0,1-2-2Zm3.28,6a.5.5,0,0,0,.56-.56v-5.07a.5.5,0,0,0-.56-.56h-.9a.5.5,0,0,0-.56.56v5.07a.5.5,0,0,0,.56.56Z"/><path class="cls-6" d="M1169.17,137.79a1.84,1.84,0,0,1-.78,1.71l.73,3c0,.17,0,.26-.2.26h-1.37a.22.22,0,0,1-.24-.2l-.67-2.76h-1.25v2.73a.21.21,0,0,1-.22.23h-1.37a.22.22,0,0,1-.23-.23v-9.36a.21.21,0,0,1,.23-.22h3.36a1.8,1.8,0,0,1,2,2Zm-2.38.21a.5.5,0,0,0,.56-.56v-2.11a.5.5,0,0,0-.56-.56h-1.4V138Z"/><path class="cls-6" d="M1176,140.92h2.77a.2.2,0,0,1,.22.22v1.4c0,.16-.07.23-.22.23h-4.45a.21.21,0,0,1-.23-.23v-9.36a.21.21,0,0,1,.23-.22h1.45c.16,0,.23.08.23.22Z"/><path class="cls-6" d="M1180,135a1.81,1.81,0,0,1,2-2h1.57a1.8,1.8,0,0,1,2,2v5.77a1.8,1.8,0,0,1-2,2H1182a1.81,1.81,0,0,1-2-2Zm3.28,6a.5.5,0,0,0,.56-.56v-5.07a.5.5,0,0,0-.56-.56h-.9a.5.5,0,0,0-.56.56v5.07a.5.5,0,0,0,.56.56Z"/><path class="cls-6" d="M1192.27,133a.28.28,0,0,1,.28.28v7.51a1.8,1.8,0,0,1-2,2H1189a1.81,1.81,0,0,1-2-2v-7.51a.29.29,0,0,1,.28-.28h1.35a.29.29,0,0,1,.28.28v7.12a.5.5,0,0,0,.56.56h.73a.49.49,0,0,0,.55-.56v-7.12a.29.29,0,0,1,.29-.28Z"/><path class="cls-6" d="M1199.71,133a.2.2,0,0,1,.22.22v9.36a.21.21,0,0,1-.22.23h-1.11c-.12,0-.19-.06-.25-.19l-2.63-5.35v5.31a.21.21,0,0,1-.23.23h-1.31a.21.21,0,0,1-.23-.23v-9.36a.2.2,0,0,1,.23-.22h1.1a.25.25,0,0,1,.25.18l2.64,5.35v-5.31a.2.2,0,0,1,.22-.22Z"/><path class="cls-6" d="M1201.33,135a1.81,1.81,0,0,1,2-2h1.56a1.81,1.81,0,0,1,2,2v1a.21.21,0,0,1-.22.23h-1.32a.2.2,0,0,1-.22-.23v-.68a.5.5,0,0,0-.56-.56h-.9a.49.49,0,0,0-.56.56v5.07a.5.5,0,0,0,.56.56h.9a.5.5,0,0,0,.56-.56v-1.22h-.73c-.16,0-.23-.08-.23-.22v-1.41c0-.15.07-.22.23-.22h2.27a.2.2,0,0,1,.22.22v3.2a1.81,1.81,0,0,1-2,2h-1.56a1.81,1.81,0,0,1-2-2Z"/><path class="cls-6" d="M1213.92,134.59a.2.2,0,0,1-.23.23h-3.46V137h2.64c.14,0,.22.08.22.24v1.39a.2.2,0,0,1-.22.23h-2.64v2.08h3.46c.17,0,.23.07.23.22v1.4a.2.2,0,0,1-.23.23h-5.15a.21.21,0,0,1-.21-.23v-9.36a.2.2,0,0,1,.21-.22h5.15c.17,0,.23.08.23.22Z"/><line class="cls-4" x1="1173.86" y1="148.02" x2="1175.36" y2="148.02"/><line class="cls-5" x1="1180.44" y1="148.02" x2="1242.83" y2="148.02"/><line class="cls-4" x1="1245.36" y1="148.02" x2="1246.86" y2="148.02"/><path class="cls-8" d="M1495.55,139.91l-6.87-6.87a1.09,1.09,0,0,0-1.53,0,5.12,5.12,0,0,0-1.32,4.77l-3.1,3.11c-1.7-.51-6.1-1.41-9.33,1.83a1.07,1.07,0,0,0,0,1.53l4.68,4.69-6.9,6.9a1.09,1.09,0,0,0,0,1.53,1.07,1.07,0,0,0,.77.32,1.05,1.05,0,0,0,.77-.32l6.9-6.89,4.68,4.68a1.09,1.09,0,0,0,1.54,0c3.24-3.24,2.34-7.63,1.83-9.33l3.1-3.11a5.19,5.19,0,0,0,4.78-1.31A1.09,1.09,0,0,0,1495.55,139.91Zm-4.59.6a1.08,1.08,0,0,0-1.23.21l-4.08,4.08a1.1,1.1,0,0,0-.24,1.18,9.49,9.49,0,0,1,.58,2.82,6.41,6.41,0,0,1-1,4l-4.61-4.61h0l-4.61-4.61c2.91-2,6.65-.48,6.82-.42a1.07,1.07,0,0,0,1.18-.23l4.08-4.08a1.09,1.09,0,0,0,.22-1.23,2.52,2.52,0,0,1,0-2.12l5,5A2.49,2.49,0,0,1,1491,140.51Zm-6.44,5.88a4.38,4.38,0,0,1,.35,1.71,1,1,0,0,1-.95.92h0a.93.93,0,0,1-.92-1,2.37,2.37,0,0,0-.19-.89,1,1,0,0,1,1.74-.77Z"/><path class="cls-8" d="M1024.55,160.91l-6.87-6.87a1.09,1.09,0,0,0-1.53,0,5.12,5.12,0,0,0-1.32,4.77l-3.1,3.11c-1.7-.51-6.1-1.41-9.33,1.83a1.07,1.07,0,0,0,0,1.53l4.68,4.69-6.9,6.9a1.09,1.09,0,0,0,0,1.53,1.07,1.07,0,0,0,.77.32,1.05,1.05,0,0,0,.77-.32l6.9-6.89,4.68,4.68a1.09,1.09,0,0,0,1.54,0c3.24-3.24,2.34-7.63,1.83-9.33l3.1-3.11a5.19,5.19,0,0,0,4.78-1.31A1.09,1.09,0,0,0,1024.55,160.91Zm-4.59.6a1.08,1.08,0,0,0-1.23.21l-4.08,4.08a1.1,1.1,0,0,0-.24,1.18,9.49,9.49,0,0,1,.58,2.82,6.41,6.41,0,0,1-1,4l-4.61-4.61h0l-4.61-4.61c2.91-2,6.65-.48,6.82-.42a1.07,1.07,0,0,0,1.18-.23l4.08-4.08a1.09,1.09,0,0,0,.22-1.23,2.52,2.52,0,0,1,0-2.12l5,5A2.49,2.49,0,0,1,1020,161.51Zm-6.44,5.88a4.38,4.38,0,0,1,.35,1.71,1,1,0,0,1-1,.92h0a.93.93,0,0,1-.92-1,2.37,2.37,0,0,0-.19-.89,1,1,0,0,1,1.74-.77Z"/><circle class="cls-10" cx="1589.86" cy="214.22" r="3.88" transform="translate(-11.19 113.24) rotate(-4.07)"/><path class="cls-10" d="M1584.38,238.6h11c1.93,0,3.19-2.4,2.32-4.44l-5.78-13.43a1.88,1.88,0,0,0-1.78-1.28h-.4a1.89,1.89,0,0,0-1.78,1.27l-5.87,13.44C1581.19,236.2,1582.45,238.6,1584.38,238.6Z"/></g></svg>