<svg xmlns="http://www.w3.org/2000/svg" viewBox="0 0 696 331"><defs><style>.cls-1{fill:#fff;}.cls-2,.cls-3,.cls-4{fill:none;stroke:#fff;}.cls-2{stroke-miterlimit:10;stroke-width:2.82px;}.cls-3,.cls-4{stroke-linecap:round;stroke-linejoin:round;}.cls-3{stroke-width:1.6px;}.cls-4{stroke-width:2.11px;}</style></defs><title>map2020</title><g id="key_copy" data-name="key copy"><path class="cls-1" d="M17.32,106.94c0,2.23-.73,3.81-2.15,4.7l2,8.27c.12.46-.11.7-.54.7H12.86a.61.61,0,0,1-.66-.54l-1.84-7.59H6.93V120a.57.57,0,0,1-.62.62H2.54a.57.57,0,0,1-.61-.62V94.27a.56.56,0,0,1,.61-.61h9.24c3.62,0,5.54,1.92,5.54,5.54Zm-6.54.58A1.38,1.38,0,0,0,12.32,106v-5.82a1.38,1.38,0,0,0-1.54-1.54H6.93v8.9Z"/><path class="cls-1" d="M36.54,98.12c0,.39-.16.66-.62.66H26.41v5.93h7.24a.57.57,0,0,1,.61.65v3.81a.58.58,0,0,1-.61.66H26.41v5.69h9.51c.46,0,.62.2.62.62V120a.54.54,0,0,1-.62.62H21.75a.56.56,0,0,1-.57-.62V94.27a.55.55,0,0,1,.57-.61H35.92c.46,0,.62.23.62.61Z"/><path class="cls-1" d="M49.09,93.66c3.62,0,5.54,1.92,5.54,5.54v2.54a.55.55,0,0,1-.62.62H50.13a.57.57,0,0,1-.62-.62v-1.62A1.37,1.37,0,0,0,48,98.58H45.85a1.4,1.4,0,0,0-1.54,1.54v3.28l9.32,3a1.38,1.38,0,0,1,1,1.42v7.24c0,3.62-1.92,5.55-5.54,5.55H44.78c-3.59,0-5.55-1.93-5.55-5.55v-2.5a.55.55,0,0,1,.62-.62h3.89c.42,0,.61.2.61.62v1.62a1.38,1.38,0,0,0,1.54,1.54H48a1.37,1.37,0,0,0,1.54-1.54v-3.89l-9.24-3a1.39,1.39,0,0,1-1-1.43V99.2c0-3.62,2-5.54,5.55-5.54Z"/><path class="cls-1" d="M71.34,93.66a.55.55,0,0,1,.62.61v3.85a.55.55,0,0,1-.62.62H66.87V120c0,.42-.19.62-.61.62h-4a.55.55,0,0,1-.61-.62V98.74H57.17a.57.57,0,0,1-.61-.62V94.27a.56.56,0,0,1,.61-.61Z"/><path class="cls-1" d="M90.44,106.94c0,2.23-.74,3.81-2.16,4.7l2,8.27c.12.46-.11.7-.54.7H86a.61.61,0,0,1-.66-.54l-1.84-7.59H80V120a.57.57,0,0,1-.62.62H75.65A.57.57,0,0,1,75,120V94.27a.56.56,0,0,1,.61-.61h9.24c3.62,0,5.55,1.92,5.55,5.54Zm-6.55.58A1.38,1.38,0,0,0,85.43,106v-5.82a1.38,1.38,0,0,0-1.54-1.54H80v8.9Z"/><path class="cls-1" d="M94.29,99.2c0-3.62,1.92-5.54,5.54-5.54h4.31c3.62,0,5.55,1.92,5.55,5.54v15.86c0,3.62-1.93,5.55-5.55,5.55H99.83c-3.62,0-5.54-1.93-5.54-5.55Zm9,16.44a1.36,1.36,0,0,0,1.54-1.54V100.16a1.38,1.38,0,0,0-1.54-1.54h-2.46a1.38,1.38,0,0,0-1.54,1.54V114.1a1.37,1.37,0,0,0,1.54,1.54Z"/><path class="cls-1" d="M113.54,99.2c0-3.62,1.92-5.54,5.54-5.54h4.31c3.62,0,5.55,1.92,5.55,5.54v15.86c0,3.62-1.93,5.55-5.55,5.55h-4.31c-3.62,0-5.54-1.93-5.54-5.55Zm9,16.44a1.36,1.36,0,0,0,1.54-1.54V100.16a1.38,1.38,0,0,0-1.54-1.54h-2.46a1.38,1.38,0,0,0-1.54,1.54V114.1a1.37,1.37,0,0,0,1.54,1.54Z"/><path class="cls-1" d="M154,93.66a.69.69,0,0,1,.77.77v25.41a.69.69,0,0,1-.77.77h-3.58a.69.69,0,0,1-.77-.77V104.71h-.27L145.72,120a.8.8,0,0,1-.85.66H142.6a.8.8,0,0,1-.84-.66l-3.62-15.24h-.27v15.13a.69.69,0,0,1-.77.77h-3.54a.69.69,0,0,1-.77-.77V94.43a.69.69,0,0,1,.77-.77h5.08a.79.79,0,0,1,.84.65l4.28,17.17L148,94.31a.81.81,0,0,1,.85-.65Z"/><path class="cls-1" d="M168.44,93.66c3.62,0,5.54,1.92,5.54,5.54v2.54a.55.55,0,0,1-.62.62h-3.88a.57.57,0,0,1-.62-.62v-1.62a1.37,1.37,0,0,0-1.54-1.54H165.2a1.4,1.4,0,0,0-1.54,1.54v3.28l9.32,3a1.38,1.38,0,0,1,1,1.42v7.24c0,3.62-1.92,5.55-5.54,5.55h-4.31c-3.59,0-5.55-1.93-5.55-5.55v-2.5a.55.55,0,0,1,.62-.62h3.89c.42,0,.61.2.61.62v1.62a1.38,1.38,0,0,0,1.54,1.54h2.08a1.37,1.37,0,0,0,1.54-1.54v-3.89l-9.24-3a1.39,1.39,0,0,1-1-1.43V99.2c0-3.62,2-5.54,5.55-5.54Z"/><path class="cls-1" d="M319,78.88a1.57,1.57,0,0,1-1.64-1.06l-8.94-21.09-2.63,5V77.46a1.28,1.28,0,0,1-1.42,1.42h-6.82a1.28,1.28,0,0,1-1.42-1.42v-54a1.28,1.28,0,0,1,1.42-1.42h6.82a1.28,1.28,0,0,1,1.42,1.42v22l10.93-22.36a1.71,1.71,0,0,1,1.64-1.07h7.45c1.07,0,1.49.71,1,1.71L314.74,48.56l12.85,28.69c.49.92.07,1.63-1.07,1.63Z"/><path class="cls-1" d="M361.1,30.32c0,.71-.28,1.2-1.14,1.2H342.21v14.2h13.56a1.07,1.07,0,0,1,1.14,1.21v7a1.07,1.07,0,0,1-1.14,1.21H342.21V69.51H360c.86,0,1.14.35,1.14,1.14v7.1c0,.71-.28,1.13-1.14,1.13H333.84a1,1,0,0,1-1.07-1.13V23.22a1,1,0,0,1,1.07-1.14H360c.86,0,1.14.43,1.14,1.14Z"/><path class="cls-1" d="M400.72,22.08c1.06,0,1.56.64,1.13,1.63l-13,31.6V77.46a1.28,1.28,0,0,1-1.42,1.42h-6.82a1.28,1.28,0,0,1-1.42-1.42V55.31l-13-31.6c-.42-1,.07-1.63,1.14-1.63h7.1a1.55,1.55,0,0,1,1.63,1.14L384,43.59l8-20.37a1.56,1.56,0,0,1,1.64-1.14Z"/><circle class="cls-2" cx="191.33" cy="97.12" r="3.65" transform="translate(-6.4 13.81) rotate(-4.07)"/><path class="cls-2" d="M195.43,102.3h-8.21c-1.82,0-3,2.47-2.19,4.57l4.63,12a1.75,1.75,0,0,0,3.33,0l4.63-12C198.44,104.77,197.25,102.3,195.43,102.3Z"/><circle class="cls-2" cx="212.02" cy="97.12" r="3.65" transform="translate(-6.35 15.27) rotate(-4.07)"/><path class="cls-2" d="M206.86,120h10.31c1.82,0,3-2.26,2.19-4.18l-5.44-12.63a1.77,1.77,0,0,0-1.67-1.2h-.38a1.78,1.78,0,0,0-1.67,1.19l-5.53,12.64C203.86,117.78,205,120,206.86,120Z"/><polygon class="cls-3" points="140.6 188.5 140.6 195.76 133.34 195.76 133.34 203.03 126.08 203.03 126.08 210.29 118.81 210.29 118.81 219.31 122.34 219.31 122.34 213.81 129.6 213.81 129.6 206.55 136.86 206.55 136.86 199.29 144.12 199.29 144.12 192.03 149.62 192.03 149.62 188.5 140.6 188.5"/><polygon class="cls-1" points="132.38 193.43 135.49 190.32 135.49 191.96 137.21 191.96 137.21 187.39 132.63 187.39 132.63 189.11 134.27 189.11 131.16 192.22 132.38 193.43"/><polygon class="cls-1" points="122.6 201.34 119.49 204.45 119.49 202.81 117.77 202.81 117.77 207.39 122.35 207.39 122.35 205.67 120.71 205.67 123.82 202.56 122.6 201.34"/><polygon class="cls-1" points="161.8 158.18 159.85 156.23 166.63 149.46 173.07 155.9 171.12 157.85 166.63 153.36 161.8 158.18"/><polygon class="cls-1" points="180.92 157.97 174.48 151.53 176.43 149.58 180.92 154.07 185.74 149.25 187.69 151.2 180.92 157.97"/><rect class="cls-4" x="157.92" y="137.87" width="31.7" height="31.7" rx="6.34"/><path class="cls-1" d="M694.2,138.68a1.41,1.41,0,0,0-1.29-1.28,21,21,0,0,0-19.19,9,8.17,8.17,0,0,0-6.65.75,12.19,12.19,0,0,0-4.92,5.49,1.4,1.4,0,0,0,1.92,1.84,5.33,5.33,0,0,1,6.29.55l6.19,6.18,0,0a5.32,5.32,0,0,1,.56,6.28,1.39,1.39,0,0,0,.22,1.63,1.41,1.41,0,0,0,1,.43,1.37,1.37,0,0,0,.59-.13,12.27,12.27,0,0,0,5.5-4.92,8.17,8.17,0,0,0,.73-6.69,23.81,23.81,0,0,0,4.21-3.82A20.14,20.14,0,0,0,694.2,138.68Zm-27.48,12.25a6.2,6.2,0,0,1,5.4-2,24.83,24.83,0,0,0-1.43,2.94A7.72,7.72,0,0,0,666.72,150.93Zm14,14a7.81,7.81,0,0,0-.92-4,29.88,29.88,0,0,0,3-1.45A6.15,6.15,0,0,1,680.69,164.9Zm-2.77-6.28L673,153.68c2.48-6.64,8.64-13.73,18.5-13.54C691.8,151.89,682.1,157,677.92,158.62Zm9.06-14a2.3,2.3,0,0,1,.67,1.62,2.28,2.28,0,0,1-.67,1.61,2.28,2.28,0,0,1-3.89-1.61,2.35,2.35,0,0,1,.67-1.62,2.27,2.27,0,0,1,3.22,0Zm-19.75,14.57c-1.61,1.61-1.68,4.84-1.67,5.47a1.4,1.4,0,0,0,1.39,1.41h0c.72,0,3.82-.11,5.4-1.69a3.75,3.75,0,0,0,1.2-2.67,3.67,3.67,0,0,0-1.13-2.59A3.56,3.56,0,0,0,667.23,159.21Zm3.18,3.18a3.91,3.91,0,0,1-1.91.72,4,4,0,0,1,.71-1.91,1,1,0,0,1,.69-.38.88.88,0,0,1,.59.3,1,1,0,0,1,.31.59A1.08,1.08,0,0,1,670.41,162.39Z"/><path class="cls-1" d="M360.75,264.45a1.43,1.43,0,0,1,0,2,1.44,1.44,0,0,1-2,0L347.49,255.2,336.4,266.45a1.42,1.42,0,0,1-1,.42,1.36,1.36,0,0,1-1-.41,1.42,1.42,0,0,1,0-2l11.11-11.26-1.89-1.89-.3.3a4.77,4.77,0,0,1-6.75,0l-4.7-4.66a1.41,1.41,0,0,1,2-2l4.71,4.66a1.91,1.91,0,0,0,1.38.58,1.93,1.93,0,0,0,1.37-.57l.3-.3-6.06-6.06a1.42,1.42,0,0,1,0-2,1.4,1.4,0,0,1,2,0l6.06,6.06L344,247a2,2,0,0,0,0-2.74l-4.71-4.66a1.42,1.42,0,0,1,2-2l4.7,4.67a4.77,4.77,0,0,1,0,6.75l-.35.35,1.88,1.87L360,238.53a1.42,1.42,0,0,1,1-.42,1.37,1.37,0,0,1,1,.41c3.14,3.14,2.62,7.56-1.36,11.54l-4.78,4.79a1.4,1.4,0,0,1-2,0,1.42,1.42,0,0,1,0-2l4.78-4.79c2.88-2.88,2.81-5,2.19-6.35l-11.31,11.48Z"/><path class="cls-1" d="M355.09,306.56a6.09,6.09,0,1,0-6.1-6.09A6.1,6.1,0,0,0,355.09,306.56Zm0-9.57a3.48,3.48,0,1,1-3.49,3.48A3.48,3.48,0,0,1,355.09,297Zm-20.29.64a1.31,1.31,0,0,1,1.3-1.31h7.59a1.31,1.31,0,1,1,0,2.61H336.1A1.3,1.3,0,0,1,334.8,297.63Zm8.89,6.09H336.1a1.31,1.31,0,0,1,0-2.61h7.59a1.31,1.31,0,1,1,0,2.61Zm-1.9,3.48a1.31,1.31,0,0,1-1.31,1.3H336.1a1.31,1.31,0,0,1,0-2.61h4.38A1.31,1.31,0,0,1,341.79,307.2Zm26.21-15a2.87,2.87,0,0,0-2.87-2.87H330.85a2.87,2.87,0,0,0-2.87,2.87v20.36a2.86,2.86,0,0,0,2.87,2.87h34.28a2.86,2.86,0,0,0,2.87-2.87Zm-36.54.61h33.06V311c-1.74-1.84-5.09-3.06-6.35-3.49a1.33,1.33,0,0,0-.86,0l-2.22.78-2.22-.78a1.31,1.31,0,0,0-.85,0c-1.46.49-5.56,1.82-7.1,4.43H331.46ZM348.75,312a11.2,11.2,0,0,1,3.68-1.81l2.23.76a1.3,1.3,0,0,0,.87,0l2.22-.75a11.3,11.3,0,0,1,3.68,1.81Z"/><path class="cls-1" d="M603.65,184.88A10.74,10.74,0,0,0,593,195.64a9.73,9.73,0,0,0,4.26,8.47v3.48a1.52,1.52,0,0,0,1.51,1.41h.13l9.76-.79A1.47,1.47,0,0,0,610,206.8v-2.67a10.5,10.5,0,0,0,4.26-8.49A10.74,10.74,0,0,0,603.65,184.88Zm4.24,17.2a1.35,1.35,0,0,0-.69,1.25v2.16l-7.1.56v-2.72a1.36,1.36,0,0,0-.64-1.23,6.92,6.92,0,0,1-3.6-6.46,7.78,7.78,0,1,1,15.56,0A7.07,7.07,0,0,1,607.89,202.08Zm2,9.15a1.43,1.43,0,0,1-1.31,1.52l-9.68.71h-.11a1.42,1.42,0,0,1-.1-2.83l9.69-.71A1.42,1.42,0,0,1,609.91,211.23Zm-3.09,4.48a1.41,1.41,0,0,1-1.3,1.52l-3.51.28h-.11a1.42,1.42,0,0,1-.11-2.83l3.52-.27A1.41,1.41,0,0,1,606.82,215.71Zm2.48-20.1a1.23,1.23,0,0,1-1.22,1.12H608a1.24,1.24,0,0,1-1.1-1.36,2.72,2.72,0,0,0-1.78-2.82,1.25,1.25,0,0,1-.74-1.59,1.22,1.22,0,0,1,1.56-.75A5.19,5.19,0,0,1,609.3,195.61Z"/><path class="cls-1" d="M542.87,242.14l-8.93-8.93a1.42,1.42,0,0,0-2,0,6.71,6.71,0,0,0-1.7,6.21l-4,4c-2.21-.67-7.93-1.83-12.14,2.37a1.42,1.42,0,0,0,0,2l6.09,6.1-9,9a1.42,1.42,0,0,0,0,2,1.42,1.42,0,0,0,2,0l9-9,6.1,6.09a1.41,1.41,0,0,0,1,.41,1.44,1.44,0,0,0,1-.41c4.2-4.21,3-9.93,2.37-12.14l4-4a6.71,6.71,0,0,0,6.21-1.7A1.42,1.42,0,0,0,542.87,242.14Zm-6,.78a1.42,1.42,0,0,0-1.6.28L530,248.51a1.42,1.42,0,0,0-.31,1.53,12.67,12.67,0,0,1,.75,3.66,8.24,8.24,0,0,1-1.29,5.22l-6-6h0l-6-6c3.78-2.56,8.65-.63,8.87-.54a1.4,1.4,0,0,0,1.54-.31l5.31-5.31a1.42,1.42,0,0,0,.28-1.6,3.28,3.28,0,0,1,0-2.75l6.5,6.5A3.28,3.28,0,0,1,536.91,242.92Zm-8.38,7.65a5.68,5.68,0,0,1,.45,2.23,1.24,1.24,0,0,1-1.23,1.2h0a1.24,1.24,0,0,1-1.2-1.27,3.22,3.22,0,0,0-.24-1.15,1.24,1.24,0,0,1,2.26-1Z"/><path class="cls-1" d="M650,112.57a6.84,6.84,0,1,1,6.84-6.83A6.83,6.83,0,0,1,650,112.57Zm0-11.16a4.33,4.33,0,1,0,4.33,4.33A4.33,4.33,0,0,0,650,101.41ZM650,122h-.19a20.09,20.09,0,0,1-2.36-.14,1.24,1.24,0,0,1-1.08-1.07l-.35-2.54a13.18,13.18,0,0,1-2.26-1l-2,1.5a1.25,1.25,0,0,1-1.52,0,17.94,17.94,0,0,1-1.77-1.56l-.14-.14a20.7,20.7,0,0,1-1.57-1.77,1.26,1.26,0,0,1,0-1.53l1.54-2a13.35,13.35,0,0,1-.91-2.26l-2.49-.36a1.25,1.25,0,0,1-1.07-1.08,22.7,22.7,0,0,1-.14-2.36v-.19a22.7,22.7,0,0,1,.14-2.36,1.28,1.28,0,0,1,1.08-1.09l2.54-.35a14.2,14.2,0,0,1,1-2.24l-1.51-2a1.25,1.25,0,0,1,0-1.52,20.7,20.7,0,0,1,1.57-1.77l.13-.14c.88-.87,1.74-1.54,1.77-1.57a1.26,1.26,0,0,1,1.53,0l2,1.56a13.06,13.06,0,0,1,2.26-.92l.35-2.49a1.25,1.25,0,0,1,1.08-1.07,20.09,20.09,0,0,1,2.36-.14h.2a20.09,20.09,0,0,1,2.36.14,1.25,1.25,0,0,1,1.08,1.08l.35,2.54a13.45,13.45,0,0,1,2.24.95l2-1.51a1.25,1.25,0,0,1,1.52,0,20.7,20.7,0,0,1,1.77,1.57l.14.13a19.34,19.34,0,0,1,1.56,1.77,1.26,1.26,0,0,1,0,1.53l-1.55,2a13.35,13.35,0,0,1,.91,2.26l2.5.36a1.24,1.24,0,0,1,1.06,1.08,18.93,18.93,0,0,1,.15,2.36v.19a19,19,0,0,1-.15,2.37,1.25,1.25,0,0,1-1.07,1.08l-2.54.35a13.82,13.82,0,0,1-.95,2.24l1.51,2a1.26,1.26,0,0,1,0,1.52,22.58,22.58,0,0,1-1.57,1.77l-.14.13A20.7,20.7,0,0,1,659.6,119a1.25,1.25,0,0,1-1.52,0L656,117.42a12.57,12.57,0,0,1-2.26.91l-.35,2.5a1.26,1.26,0,0,1-1.09,1.07A19.69,19.69,0,0,1,650,122Zm-1.28-2.54c.32,0,.7,0,1.09,0H650c.4,0,.78,0,1.1,0l.33-2.34a1.27,1.27,0,0,1,1-1,10.44,10.44,0,0,0,3.12-1.26,1.27,1.27,0,0,1,.95-.14,1.13,1.13,0,0,1,.5.25l1.87,1.42c.24-.22.52-.47.8-.75l.13-.14c.28-.28.54-.56.75-.8l-1.41-1.88a1.25,1.25,0,0,1-.06-1.42,10.47,10.47,0,0,0,1.29-3,1.27,1.27,0,0,1,1.07-1l2.37-.32c0-.32,0-.7,0-1.1v-.19c0-.39,0-.77,0-1.1l-2.33-.33a1.25,1.25,0,0,1-1-1,10.59,10.59,0,0,0-1.24-3.08A1.11,1.11,0,0,1,659,100a1.25,1.25,0,0,1,.18-1.18l1.45-1.9c-.22-.25-.47-.53-.75-.8l-.14-.14c-.28-.28-.56-.54-.8-.75L657,96.64a1.25,1.25,0,0,1-1.49,0,10.51,10.51,0,0,0-3-1.26,1.27,1.27,0,0,1-.95-1L651.26,92c-.32,0-.7,0-1.09,0H650c-.39,0-.77,0-1.09,0l-.34,2.33a1.25,1.25,0,0,1-1,1.07,10.64,10.64,0,0,0-3,1.24,1.21,1.21,0,0,1-1,.14,1.33,1.33,0,0,1-.5-.26l-1.85-1.4c-.24.21-.52.47-.8.74l-.14.14c-.28.28-.53.56-.75.8l1.42,1.89a1.24,1.24,0,0,1,.07,1.4.41.41,0,0,1-.07.11,10.79,10.79,0,0,0-1.26,3,1.24,1.24,0,0,1-1,.94l-2.37.32c0,.33,0,.71,0,1.1v.19c0,.39,0,.78,0,1.1l2.34.33a1.25,1.25,0,0,1,1.06,1.07v0a10.49,10.49,0,0,0,1.23,3,1.29,1.29,0,0,1-.12,1.46l-1.4,1.84a10.71,10.71,0,0,0,.75.8l.13.14c.28.28.56.54.81.75l1.88-1.42a1.26,1.26,0,0,1,1.56,0,10.66,10.66,0,0,0,3,1.23,1.25,1.25,0,0,1,.94,1Z"/><path class="cls-1" d="M17.32,243.78a.57.57,0,0,1-.61.62H7.16V251H14.4a.57.57,0,0,1,.61.62v3.85a.54.54,0,0,1-.61.61H7.16v9.59a.57.57,0,0,1-.62.62h-4a.55.55,0,0,1-.62-.62V239.93a.55.55,0,0,1,.62-.61H16.71a.56.56,0,0,1,.61.61Z"/><path class="cls-1" d="M20,244.86c0-3.62,1.92-5.54,5.54-5.54h4.32c3.61,0,5.54,1.92,5.54,5.54v15.86c0,3.62-1.93,5.55-5.54,5.55H25.56c-3.62,0-5.54-1.93-5.54-5.55Zm9,16.44a1.37,1.37,0,0,0,1.54-1.54V245.82A1.38,1.38,0,0,0,29,244.28H26.56A1.38,1.38,0,0,0,25,245.82v13.94a1.37,1.37,0,0,0,1.54,1.54Z"/><path class="cls-1" d="M39.27,244.86c0-3.62,1.92-5.54,5.54-5.54h4.32c3.61,0,5.54,1.92,5.54,5.54v15.86c0,3.62-1.93,5.55-5.54,5.55H44.81c-3.62,0-5.54-1.93-5.54-5.55Zm9,16.44a1.37,1.37,0,0,0,1.54-1.54V245.82a1.38,1.38,0,0,0-1.54-1.54H45.81a1.38,1.38,0,0,0-1.54,1.54v13.94a1.37,1.37,0,0,0,1.54,1.54Z"/><path class="cls-1" d="M58.52,239.93a.55.55,0,0,1,.62-.61h9.24c3.61,0,5.54,2,5.54,5.58v15.82c0,3.62-1.93,5.55-5.54,5.55H59.14a.54.54,0,0,1-.62-.62Zm8.78,21.26a1.37,1.37,0,0,0,1.54-1.54V246a1.4,1.4,0,0,0-1.54-1.58H63.76v16.79Z"/><path class="cls-1" d="M93.9,235.47c.58,0,.81.35.62.88L82.2,268.69a.85.85,0,0,1-.89.62H77.69c-.57,0-.81-.35-.61-.89l12.36-32.34a.83.83,0,0,1,.88-.61Z"/><path class="cls-1" d="M107.88,239.32c3.62,0,5.54,1.92,5.54,5.54v2.54a.55.55,0,0,1-.62.62h-3.88a.57.57,0,0,1-.62-.62v-1.61a1.37,1.37,0,0,0-1.54-1.54h-2.12a1.4,1.4,0,0,0-1.54,1.54v3.27l9.32,3a1.38,1.38,0,0,1,1,1.43v7.23c0,3.62-1.92,5.55-5.54,5.55h-4.32c-3.58,0-5.54-1.93-5.54-5.55v-2.5a.55.55,0,0,1,.62-.62h3.88a.54.54,0,0,1,.62.62v1.62a1.38,1.38,0,0,0,1.54,1.54h2.08a1.37,1.37,0,0,0,1.54-1.54V256l-9.24-3a1.38,1.38,0,0,1-1-1.43v-6.66c0-3.62,2-5.54,5.54-5.54Z"/><path class="cls-1" d="M133.09,239.32a.57.57,0,0,1,.62.61v25.72a.57.57,0,0,1-.62.62h-3a.7.7,0,0,1-.69-.5l-7.24-14.71v14.59a.55.55,0,0,1-.61.62h-3.62a.57.57,0,0,1-.62-.62V239.93a.57.57,0,0,1,.62-.61h3a.69.69,0,0,1,.69.5l7.24,14.71v-14.6a.54.54,0,0,1,.61-.61Z"/><path class="cls-1" d="M151.23,266.27a.6.6,0,0,1-.62-.54l-1.23-4.85h-7.24L141,265.73a.6.6,0,0,1-.62.54h-3.77c-.42,0-.62-.23-.5-.66l6.39-25.75a.6.6,0,0,1,.65-.54h5.36a.6.6,0,0,1,.65.54l6.39,25.75c.12.43-.08.66-.54.66Zm-5.47-20.33-2.43,10.47h4.86Z"/><path class="cls-1" d="M172.9,249a.57.57,0,0,1-.61.62h-3.62a.55.55,0,0,1-.62-.62v-3.16a1.38,1.38,0,0,0-1.54-1.54h-2.46a1.37,1.37,0,0,0-1.54,1.54v14a1.37,1.37,0,0,0,1.54,1.54h2.46a1.37,1.37,0,0,0,1.54-1.54v-3.27a.55.55,0,0,1,.62-.62h3.62a.57.57,0,0,1,.61.62v4.15c0,3.62-2,5.55-5.54,5.55h-4.31c-3.62,0-5.59-1.93-5.59-5.55V244.86c0-3.62,2-5.54,5.59-5.54h4.31c3.58,0,5.54,1.92,5.54,5.54Z"/><path class="cls-1" d="M189.15,266.27a.9.9,0,0,1-.89-.58l-4.85-9.51L182,258.91v6.59a.69.69,0,0,1-.77.77h-3.7a.69.69,0,0,1-.77-.77V240.09a.69.69,0,0,1,.77-.77h3.7a.69.69,0,0,1,.77.77v10l5.93-10.2a1,1,0,0,1,.88-.58h4c.58,0,.85.42.54.92l-6.54,11.51,7,13.63c.27.5,0,.89-.58.89Z"/><path class="cls-1" d="M216.87,239.32c3.62,0,5.54,1.92,5.54,5.54v2.54a.55.55,0,0,1-.61.62h-3.89a.57.57,0,0,1-.62-.62v-1.61a1.37,1.37,0,0,0-1.54-1.54h-2.12a1.39,1.39,0,0,0-1.53,1.54v3.27l9.31,3a1.37,1.37,0,0,1,1,1.43v7.23c0,3.62-1.92,5.55-5.54,5.55h-4.31c-3.58,0-5.55-1.93-5.55-5.55v-2.5a.55.55,0,0,1,.62-.62h3.89c.42,0,.61.2.61.62v1.62a1.38,1.38,0,0,0,1.54,1.54h2.08a1.37,1.37,0,0,0,1.54-1.54V256l-9.24-3a1.38,1.38,0,0,1-1-1.43v-6.66c0-3.62,2-5.54,5.55-5.54Z"/><path class="cls-1" d="M239.12,239.32a.55.55,0,0,1,.62.61v3.85a.55.55,0,0,1-.62.62h-4.46v21.25a.54.54,0,0,1-.62.62h-4a.55.55,0,0,1-.62-.62V244.4H225a.57.57,0,0,1-.61-.62v-3.85a.56.56,0,0,1,.61-.61Z"/><path class="cls-1" d="M254.18,266.27a.6.6,0,0,1-.62-.54l-1.23-4.85h-7.24l-1.19,4.85a.6.6,0,0,1-.62.54h-3.77c-.43,0-.62-.23-.5-.66l6.39-25.75a.59.59,0,0,1,.65-.54h5.35a.6.6,0,0,1,.66.54l6.39,25.75c.11.43-.08.66-.54.66Zm-5.47-20.33-2.43,10.47h4.85Z"/><path class="cls-1" d="M272.5,239.32a.55.55,0,0,1,.62.61v3.85a.55.55,0,0,1-.62.62H268v21.25a.54.54,0,0,1-.62.62h-4a.55.55,0,0,1-.62-.62V244.4h-4.47a.57.57,0,0,1-.61-.62v-3.85a.56.56,0,0,1,.61-.61Z"/><path class="cls-1" d="M276.43,266.27a.55.55,0,0,1-.62-.62V239.93a.55.55,0,0,1,.62-.61h4a.57.57,0,0,1,.62.61v25.72a.57.57,0,0,1-.62.62Z"/><path class="cls-1" d="M284.9,244.86c0-3.62,1.92-5.54,5.54-5.54h4.31c3.62,0,5.55,1.92,5.55,5.54v15.86c0,3.62-1.93,5.55-5.55,5.55h-4.31c-3.62,0-5.54-1.93-5.54-5.55Zm9,16.44a1.37,1.37,0,0,0,1.54-1.54V245.82a1.38,1.38,0,0,0-1.54-1.54h-2.47a1.38,1.38,0,0,0-1.54,1.54v13.94a1.37,1.37,0,0,0,1.54,1.54Z"/><path class="cls-1" d="M320,239.32a.57.57,0,0,1,.62.61v25.72a.57.57,0,0,1-.62.62h-3a.69.69,0,0,1-.69-.5L309,251.06v14.59a.55.55,0,0,1-.62.62h-3.62a.57.57,0,0,1-.61-.62V239.93a.56.56,0,0,1,.61-.61h3.05a.69.69,0,0,1,.69.5l7.24,14.71v-14.6a.54.54,0,0,1,.61-.61Z"/><path class="cls-1" d="M17.36,297.57a.57.57,0,0,1-.61.62H13.13a.55.55,0,0,1-.62-.62v-3.15A1.38,1.38,0,0,0,11,292.88H8.51A1.37,1.37,0,0,0,7,294.42v14a1.37,1.37,0,0,0,1.54,1.54H11a1.37,1.37,0,0,0,1.54-1.54v-3.27a.55.55,0,0,1,.62-.62h3.62a.57.57,0,0,1,.61.62v4.16c0,3.62-2,5.54-5.54,5.54H7.51c-3.62,0-5.58-1.92-5.58-5.54V293.42c0-3.62,2-5.55,5.58-5.55h4.31c3.58,0,5.54,1.93,5.54,5.55Z"/><path class="cls-1" d="M31.38,288.49a.57.57,0,0,1,.61-.62h4c.46,0,.65.23.65.62V314.2c0,.39-.19.62-.65.62H32a.57.57,0,0,1-.61-.62V304H26.45V314.2a.57.57,0,0,1-.62.62h-4c-.46,0-.66-.23-.66-.62V288.49c0-.39.2-.62.66-.62h4a.57.57,0,0,1,.62.62v10.39h4.93Z"/><path class="cls-1" d="M55.82,292.34c0,.38-.15.65-.61.65H45.7v5.93h7.24a.58.58,0,0,1,.61.66v3.81a.57.57,0,0,1-.61.65H45.7v5.7h9.51c.46,0,.61.19.61.61v3.85c0,.39-.15.62-.61.62H41a.56.56,0,0,1-.58-.62V288.49a.56.56,0,0,1,.58-.62H55.21c.46,0,.61.23.61.62Z"/><path class="cls-1" d="M75.11,297.57a.57.57,0,0,1-.61.62H70.88a.55.55,0,0,1-.62-.62v-3.15a1.38,1.38,0,0,0-1.54-1.54H66.26a1.37,1.37,0,0,0-1.54,1.54v14a1.37,1.37,0,0,0,1.54,1.54h2.46a1.37,1.37,0,0,0,1.54-1.54v-3.27a.55.55,0,0,1,.62-.62H74.5a.57.57,0,0,1,.61.62v4.16c0,3.62-2,5.54-5.54,5.54H65.26c-3.62,0-5.59-1.92-5.59-5.54V293.42c0-3.62,2-5.55,5.59-5.55h4.31c3.58,0,5.54,1.93,5.54,5.55Z"/><path class="cls-1" d="M91.36,314.82a.89.89,0,0,1-.89-.58l-4.85-9.51-1.42,2.74v6.58a.69.69,0,0,1-.77.77h-3.7a.69.69,0,0,1-.77-.77V288.64a.69.69,0,0,1,.77-.77h3.7a.69.69,0,0,1,.77.77v10l5.93-10.2a1,1,0,0,1,.88-.58h4c.57,0,.84.43.53.93l-6.54,11.51,7,13.63c.27.5,0,.88-.58.88Z"/><path class="cls-1" d="M99.6,299.19a.69.69,0,0,1,.77-.77h6.08a.69.69,0,0,1,.77.77v3.54a.69.69,0,0,1-.77.77h-6.08a.69.69,0,0,1-.77-.77Z"/><path class="cls-1" d="M111.69,314.82a.55.55,0,0,1-.62-.62V288.49a.55.55,0,0,1,.62-.62h4a.57.57,0,0,1,.62.62V314.2a.57.57,0,0,1-.62.62Z"/><path class="cls-1" d="M136,287.87a.57.57,0,0,1,.62.62V314.2a.57.57,0,0,1-.62.62h-3a.68.68,0,0,1-.69-.5L125,299.61V314.2a.55.55,0,0,1-.62.62h-3.62a.57.57,0,0,1-.61-.62V288.49a.57.57,0,0,1,.61-.62h3a.71.71,0,0,1,.7.5l7.24,14.71V288.49a.55.55,0,0,1,.61-.62Z"/><path class="cls-1" d="M156.58,284c.57,0,.81.35.61.89l-12.32,32.34a.83.83,0,0,1-.88.61h-3.62c-.58,0-.81-.34-.62-.88l12.36-32.34A.84.84,0,0,1,153,284Z"/><path class="cls-1" d="M170.86,288.49a.57.57,0,0,1,.62-.62h4c.46,0,.66.23.66.62V314.2c0,.39-.2.62-.66.62h-4a.57.57,0,0,1-.62-.62V304h-4.93V314.2a.57.57,0,0,1-.61.62h-4c-.46,0-.65-.23-.65-.62V288.49c0-.39.19-.62.65-.62h4a.57.57,0,0,1,.61.62v10.39h4.93Z"/><path class="cls-1" d="M195.31,292.34c0,.38-.16.65-.62.65h-9.51v5.93h7.24a.58.58,0,0,1,.62.66v3.81a.58.58,0,0,1-.62.65h-7.24v5.7h9.51c.46,0,.62.19.62.61v3.85c0,.39-.16.62-.62.62H180.52a.56.56,0,0,1-.57-.62V288.49a.56.56,0,0,1,.57-.62h14.17c.46,0,.62.23.62.62Z"/><path class="cls-1" d="M204.39,309.74H212a.54.54,0,0,1,.61.61v3.85c0,.43-.19.62-.61.62H199.77a.55.55,0,0,1-.61-.62V288.49a.57.57,0,0,1,.61-.62h4a.55.55,0,0,1,.61.62Z"/><path class="cls-1" d="M216.48,288.49a.57.57,0,0,1,.62-.62h9.24c3.62,0,5.54,1.93,5.54,5.55V301c0,3.58-1.92,5.51-5.54,5.54l-4.85,0v7.7a.55.55,0,0,1-.62.62l-3.77,0a.57.57,0,0,1-.62-.62Zm8.86,13.05a1.38,1.38,0,0,0,1.54-1.54v-5.62a1.37,1.37,0,0,0-1.54-1.54l-3.85,0v8.7Z"/><path class="cls-1" d="M245.36,288.49a.55.55,0,0,1,.61-.62h9.24c3.62,0,5.55,2,5.55,5.58v15.83c0,3.62-1.93,5.54-5.55,5.54H246c-.42,0-.61-.19-.61-.62Zm8.78,21.25a1.37,1.37,0,0,0,1.54-1.54V294.53a1.4,1.4,0,0,0-1.54-1.58h-3.55v16.79Z"/><path class="cls-1" d="M280,292.34c0,.38-.16.65-.62.65h-9.51v5.93h7.24a.58.58,0,0,1,.62.66v3.81a.58.58,0,0,1-.62.65h-7.24v5.7h9.51c.46,0,.62.19.62.61v3.85c0,.39-.16.62-.62.62H265.19a.56.56,0,0,1-.58-.62V288.49a.56.56,0,0,1,.58-.62h14.16c.46,0,.62.23.62.62Z"/><path class="cls-1" d="M292.52,287.87c3.62,0,5.54,1.93,5.54,5.55V296a.54.54,0,0,1-.61.61h-3.89a.57.57,0,0,1-.62-.61v-1.62a1.37,1.37,0,0,0-1.54-1.54h-2.11a1.4,1.4,0,0,0-1.54,1.54v3.27l9.31,3a1.39,1.39,0,0,1,1,1.43v7.24c0,3.62-1.92,5.54-5.54,5.54h-4.31c-3.58,0-5.55-1.92-5.55-5.54v-2.51a.55.55,0,0,1,.62-.61h3.89c.42,0,.61.19.61.61v1.62a1.38,1.38,0,0,0,1.54,1.54h2.08a1.37,1.37,0,0,0,1.54-1.54V304.5l-9.24-3a1.37,1.37,0,0,1-1-1.42v-6.66c0-3.62,2-5.55,5.55-5.55Z"/><path class="cls-1" d="M314.31,314.82a.89.89,0,0,1-.89-.58l-4.85-9.51-1.42,2.74v6.58a.69.69,0,0,1-.77.77h-3.7a.69.69,0,0,1-.77-.77V288.64a.69.69,0,0,1,.77-.77h3.7a.69.69,0,0,1,.77.77v10l5.93-10.2a1,1,0,0,1,.88-.58H318c.57,0,.84.43.54.93L312,300.31l7,13.63c.27.5,0,.88-.58.88Z"/><path class="cls-1" d="M11.78,190.76c3.62,0,5.54,1.93,5.54,5.55v2.54a.54.54,0,0,1-.61.61H12.82a.57.57,0,0,1-.62-.61v-1.62a1.37,1.37,0,0,0-1.54-1.54H8.55A1.4,1.4,0,0,0,7,197.23v3.27l9.31,3a1.37,1.37,0,0,1,1,1.42v7.24c0,3.62-1.92,5.54-5.54,5.54H7.47c-3.58,0-5.55-1.92-5.55-5.54v-2.5a.55.55,0,0,1,.62-.62H6.43c.42,0,.61.19.61.62v1.61a1.38,1.38,0,0,0,1.54,1.54h2.08a1.36,1.36,0,0,0,1.54-1.54V207.4l-9.24-3a1.37,1.37,0,0,1-1-1.42v-6.66c0-3.62,2-5.55,5.55-5.55Z"/><path class="cls-1" d="M34,190.76a.55.55,0,0,1,.62.62v3.85a.55.55,0,0,1-.62.62H29.57V217.1c0,.42-.19.61-.62.61H25a.55.55,0,0,1-.62-.61V195.85H19.87a.57.57,0,0,1-.62-.62v-3.85a.57.57,0,0,1,.62-.62Z"/><path class="cls-1" d="M49.09,217.71a.59.59,0,0,1-.62-.54l-1.23-4.85H40l-1.19,4.85a.59.59,0,0,1-.62.54H34.42c-.42,0-.62-.23-.5-.65l6.39-25.76a.6.6,0,0,1,.65-.54h5.35a.61.61,0,0,1,.66.54l6.39,25.76c.12.42-.08.65-.54.65Zm-5.47-20.32-2.43,10.47h4.86Z"/><path class="cls-1" d="M57.1,217.71a.55.55,0,0,1-.62-.61V191.38a.55.55,0,0,1,.62-.62h4a.57.57,0,0,1,.61.62V217.1a.56.56,0,0,1-.61.61Z"/><path class="cls-1" d="M81,204.05c0,2.23-.73,3.81-2.15,4.69l2,8.28c.12.46-.12.69-.54.69H76.5a.61.61,0,0,1-.66-.54L74,209.59H70.57v7.51a.57.57,0,0,1-.62.61H66.18a.57.57,0,0,1-.62-.61V191.38a.58.58,0,0,1,.62-.62h9.24c3.62,0,5.54,1.93,5.54,5.55Zm-6.54.57A1.38,1.38,0,0,0,76,203.08v-5.81a1.38,1.38,0,0,0-1.54-1.54H70.57v8.89Z"/><path class="cls-1" d="M94.67,190.76c3.62,0,5.54,1.93,5.54,5.55v2.54a.54.54,0,0,1-.61.61H95.71a.57.57,0,0,1-.62-.61v-1.62a1.37,1.37,0,0,0-1.54-1.54H91.44a1.4,1.4,0,0,0-1.54,1.54v3.27l9.31,3a1.37,1.37,0,0,1,1,1.42v7.24c0,3.62-1.92,5.54-5.54,5.54H90.36c-3.58,0-5.55-1.92-5.55-5.54v-2.5a.55.55,0,0,1,.62-.62h3.89a.54.54,0,0,1,.62.62v1.61a1.38,1.38,0,0,0,1.54,1.54h2.07a1.36,1.36,0,0,0,1.54-1.54V207.4l-9.24-3a1.37,1.37,0,0,1-1-1.42v-6.66c0-3.62,2-5.55,5.55-5.55Z"/><path class="cls-1" d="M17.29,146.68c0,.38-.16.65-.62.65H7.16v5.93H14.4a.57.57,0,0,1,.61.65v3.82a.57.57,0,0,1-.61.65H7.16v5.7h9.51c.46,0,.62.19.62.61v3.85c0,.39-.16.62-.62.62H2.5a.56.56,0,0,1-.58-.62V142.83a.56.56,0,0,1,.58-.62H16.67c.46,0,.62.23.62.62Z"/><path class="cls-1" d="M26.37,164.08H34a.55.55,0,0,1,.62.61v3.85c0,.43-.19.62-.62.62H21.75a.55.55,0,0,1-.61-.62V142.83a.57.57,0,0,1,.61-.62h4a.55.55,0,0,1,.61.62Z"/><path class="cls-1" d="M53.44,146.68c0,.38-.16.65-.62.65H43.31v5.93h7.24a.58.58,0,0,1,.62.65v3.82a.58.58,0,0,1-.62.65H43.31v5.7h9.51c.46,0,.62.19.62.61v3.85c0,.39-.16.62-.62.62H38.65a.56.56,0,0,1-.57-.62V142.83a.56.56,0,0,1,.57-.62H52.82c.46,0,.62.23.62.62Z"/><path class="cls-1" d="M73.61,142.21c.58,0,.81.31.69.85l-6.12,25.41a.79.79,0,0,1-.85.69H63.49a.79.79,0,0,1-.85-.69l-6.08-25.41c-.12-.54.11-.85.69-.85h3.5a.81.81,0,0,1,.85.69l3.81,17.41,3.85-17.41a.81.81,0,0,1,.85-.69Z"/><path class="cls-1" d="M87.24,169.16a.59.59,0,0,1-.62-.54l-1.23-4.85H78.15L77,168.62a.59.59,0,0,1-.62.54H72.57c-.42,0-.61-.23-.5-.65l6.39-25.76a.61.61,0,0,1,.66-.54h5.35a.6.6,0,0,1,.65.54l6.39,25.76c.12.42-.07.65-.54.65Zm-5.47-20.33L79.35,159.3H84.2Z"/><path class="cls-1" d="M105.57,142.21a.55.55,0,0,1,.61.62v3.85a.54.54,0,0,1-.61.61H101.1v21.25c0,.43-.19.62-.62.62h-4a.55.55,0,0,1-.62-.62V147.29H91.4a.57.57,0,0,1-.62-.61v-3.85a.57.57,0,0,1,.62-.62Z"/><path class="cls-1" d="M108.88,147.75c0-3.61,1.92-5.54,5.54-5.54h4.31c3.62,0,5.55,1.93,5.55,5.54v15.87c0,3.61-1.93,5.54-5.55,5.54h-4.31c-3.62,0-5.54-1.93-5.54-5.54Zm9,16.44a1.37,1.37,0,0,0,1.54-1.54V148.72a1.38,1.38,0,0,0-1.54-1.54h-2.47a1.38,1.38,0,0,0-1.54,1.54v13.93a1.37,1.37,0,0,0,1.54,1.54Z"/><path class="cls-1" d="M143.53,155.49c0,2.24-.73,3.81-2.16,4.7l2,8.28c.12.46-.11.69-.54.69h-3.77a.6.6,0,0,1-.65-.54L136.56,161h-3.43v7.5a.57.57,0,0,1-.61.62h-3.78a.57.57,0,0,1-.61-.62V142.83a.57.57,0,0,1,.61-.62H138c3.62,0,5.55,1.93,5.55,5.54Zm-6.55.58a1.38,1.38,0,0,0,1.54-1.54v-5.81a1.38,1.38,0,0,0-1.54-1.54h-3.85v8.89Z"/><path class="cls-1" d="M410.09,94.27a.56.56,0,0,1,.61-.61h4c.46,0,.65.23.65.61V120a.56.56,0,0,1-.65.62h-4a.57.57,0,0,1-.61-.62V109.75h-4.93V120a.57.57,0,0,1-.62.62h-4a.56.56,0,0,1-.65-.62V94.27c0-.38.19-.61.65-.61h4a.57.57,0,0,1,.62.61v10.4h4.93Z"/><path class="cls-1" d="M432.84,120.61a.59.59,0,0,1-.61-.54L431,115.22h-7.23l-1.2,4.85a.59.59,0,0,1-.61.54h-3.78c-.42,0-.61-.24-.5-.66l6.39-25.75a.6.6,0,0,1,.66-.54h5.35a.6.6,0,0,1,.66.54L437.12,120c.11.42-.08.66-.54.66Zm-5.46-20.33L425,110.75h4.85Z"/><path class="cls-1" d="M454.52,103.36a.57.57,0,0,1-.62.61h-3.62a.54.54,0,0,1-.61-.61V100.2a1.38,1.38,0,0,0-1.54-1.54h-2.47a1.37,1.37,0,0,0-1.54,1.54v14a1.37,1.37,0,0,0,1.54,1.54h2.47a1.37,1.37,0,0,0,1.54-1.54V110.9a.54.54,0,0,1,.61-.61h3.62a.57.57,0,0,1,.62.61v4.16c0,3.62-2,5.55-5.55,5.55h-4.31c-3.62,0-5.58-1.93-5.58-5.55V99.2c0-3.62,2-5.54,5.58-5.54H449c3.58,0,5.55,1.92,5.55,5.54Z"/><path class="cls-1" d="M470.76,120.61a.88.88,0,0,1-.88-.58L465,110.52l-1.43,2.73v6.59a.69.69,0,0,1-.77.77h-3.69a.69.69,0,0,1-.77-.77V94.43a.69.69,0,0,1,.77-.77h3.69a.69.69,0,0,1,.77.77v10l5.93-10.21a1,1,0,0,1,.89-.57h4c.58,0,.85.42.54.92l-6.55,11.51,7,13.63c.27.5,0,.89-.58.89Z"/><path class="cls-1" d="M479.62,120.61A.56.56,0,0,1,479,120V94.27a.55.55,0,0,1,.62-.61h4a.57.57,0,0,1,.62.61V120a.57.57,0,0,1-.62.62Z"/><path class="cls-1" d="M503.91,93.66a.57.57,0,0,1,.62.61V120a.57.57,0,0,1-.62.62h-3a.69.69,0,0,1-.69-.51l-7.24-14.7V120a.55.55,0,0,1-.62.62h-3.61a.57.57,0,0,1-.62-.62V94.27a.57.57,0,0,1,.62-.61h3a.69.69,0,0,1,.69.5l7.24,14.7V94.27a.54.54,0,0,1,.61-.61Z"/><path class="cls-1" d="M508.38,99.2c0-3.62,1.92-5.54,5.54-5.54h4.31c3.58,0,5.55,1.92,5.55,5.54v2.85a.57.57,0,0,1-.62.62h-3.62a.55.55,0,0,1-.61-.62v-1.89a1.38,1.38,0,0,0-1.54-1.54h-2.47a1.37,1.37,0,0,0-1.54,1.54V114.1a1.37,1.37,0,0,0,1.54,1.54h2.47a1.37,1.37,0,0,0,1.54-1.54v-3.35h-2a.55.55,0,0,1-.62-.62v-3.85c0-.42.19-.61.62-.61h6.23a.55.55,0,0,1,.62.61v8.78c0,3.62-2,5.55-5.55,5.55h-4.31c-3.62,0-5.54-1.93-5.54-5.55Z"/><path class="cls-1" d="M552.65,106.94c0,2.23-.73,3.81-2.15,4.7l2,8.27c.11.46-.12.7-.54.7h-3.77a.61.61,0,0,1-.66-.54l-1.85-7.59h-3.42V120a.57.57,0,0,1-.62.62h-3.77a.58.58,0,0,1-.62-.62V94.27a.57.57,0,0,1,.62-.61h9.24c3.62,0,5.54,1.92,5.54,5.54Zm-6.54.58a1.38,1.38,0,0,0,1.54-1.54v-5.82a1.38,1.38,0,0,0-1.54-1.54h-3.85v8.9Z"/><path class="cls-1" d="M556.5,99.2c0-3.62,1.93-5.54,5.55-5.54h4.31c3.62,0,5.54,1.92,5.54,5.54v15.86c0,3.62-1.92,5.55-5.54,5.55h-4.31c-3.62,0-5.55-1.93-5.55-5.55Zm9,16.44a1.37,1.37,0,0,0,1.54-1.54V100.16a1.38,1.38,0,0,0-1.54-1.54h-2.46a1.38,1.38,0,0,0-1.54,1.54V114.1a1.37,1.37,0,0,0,1.54,1.54Z"/><path class="cls-1" d="M575.75,99.2c0-3.62,1.93-5.54,5.55-5.54h4.31c3.62,0,5.54,1.92,5.54,5.54v15.86c0,3.62-1.92,5.55-5.54,5.55H581.3c-3.62,0-5.55-1.93-5.55-5.55Zm9,16.44a1.37,1.37,0,0,0,1.54-1.54V100.16a1.38,1.38,0,0,0-1.54-1.54H582.3a1.38,1.38,0,0,0-1.54,1.54V114.1a1.37,1.37,0,0,0,1.54,1.54Z"/><path class="cls-1" d="M616.18,93.66a.69.69,0,0,1,.77.77v25.41a.69.69,0,0,1-.77.77H612.6a.69.69,0,0,1-.77-.77V104.71h-.27L607.94,120a.82.82,0,0,1-.85.66h-2.27A.82.82,0,0,1,604,120l-3.61-15.24h-.27v15.13a.69.69,0,0,1-.77.77h-3.55a.69.69,0,0,1-.77-.77V94.43a.69.69,0,0,1,.77-.77h5.09a.79.79,0,0,1,.84.65L606,111.48l4.27-17.17a.79.79,0,0,1,.85-.65Z"/><path class="cls-1" d="M399.92,239.93a.55.55,0,0,1,.62-.61h9.24c3.62,0,5.54,2,5.54,5.58v15.82c0,3.62-1.92,5.55-5.54,5.55h-9.24a.54.54,0,0,1-.62-.62Zm8.78,21.26a1.37,1.37,0,0,0,1.54-1.54V246a1.4,1.4,0,0,0-1.54-1.58h-3.54v16.79Z"/><path class="cls-1" d="M434.54,243.78c0,.39-.16.66-.62.66h-9.51v5.93h7.24a.57.57,0,0,1,.61.65v3.81a.58.58,0,0,1-.61.66h-7.24v5.7h9.51c.46,0,.62.19.62.61v3.85c0,.39-.16.62-.62.62H419.75a.56.56,0,0,1-.58-.62V239.93a.56.56,0,0,1,.58-.61h14.17c.46,0,.62.23.62.61Z"/><path class="cls-1" d="M459.56,239.32a.69.69,0,0,1,.77.77V265.5a.69.69,0,0,1-.77.77H456a.69.69,0,0,1-.77-.77V250.37h-.27l-3.62,15.24a.79.79,0,0,1-.85.66H448.2a.79.79,0,0,1-.84-.66l-3.62-15.24h-.27V265.5a.69.69,0,0,1-.77.77h-3.54a.69.69,0,0,1-.77-.77V240.09a.69.69,0,0,1,.77-.77h5.08a.79.79,0,0,1,.84.65l4.28,17.17L453.63,240a.81.81,0,0,1,.85-.65Z"/><path class="cls-1" d="M464.18,244.86c0-3.62,1.93-5.54,5.55-5.54H474c3.62,0,5.54,1.92,5.54,5.54v15.86c0,3.62-1.92,5.55-5.54,5.55h-4.31c-3.62,0-5.55-1.93-5.55-5.55Zm9,16.44a1.37,1.37,0,0,0,1.54-1.54V245.82a1.38,1.38,0,0,0-1.54-1.54h-2.46a1.38,1.38,0,0,0-1.54,1.54v13.94a1.37,1.37,0,0,0,1.54,1.54Z"/><path class="cls-1" d="M493.29,239.32c3.62,0,5.54,1.92,5.54,5.54v2.54a.55.55,0,0,1-.62.62h-3.88a.57.57,0,0,1-.62-.62v-1.61a1.37,1.37,0,0,0-1.54-1.54h-2.12a1.4,1.4,0,0,0-1.54,1.54v3.27l9.32,3a1.38,1.38,0,0,1,1,1.43v7.23c0,3.62-1.92,5.55-5.54,5.55H489c-3.58,0-5.54-1.93-5.54-5.55v-2.5a.55.55,0,0,1,.62-.62h3.89c.42,0,.61.2.61.62v1.62a1.38,1.38,0,0,0,1.54,1.54h2.08a1.37,1.37,0,0,0,1.54-1.54V256l-9.24-3a1.38,1.38,0,0,1-1-1.43v-6.66c0-3.62,2-5.54,5.54-5.54Z"/><path class="cls-1" d="M425.33,190.76c.54,0,.81.31.73.81L422.37,217a.76.76,0,0,1-.85.69h-4.16a.79.79,0,0,1-.84-.69L413,201.24,409.4,217a.81.81,0,0,1-.85.69h-4.24a.75.75,0,0,1-.84-.73l-3.55-25.41c-.07-.5.2-.81.74-.81h3.62a.74.74,0,0,1,.8.74L407,207.59h.19l3.78-16.17a.8.8,0,0,1,.84-.66h2.35a.82.82,0,0,1,.85.66l3.77,16.17h.19l2-16.09c.07-.5.3-.74.8-.74Z"/><path class="cls-1" d="M429.45,196.31c0-3.62,1.93-5.55,5.55-5.55h4.31c3.62,0,5.54,1.93,5.54,5.55v15.86c0,3.62-1.92,5.54-5.54,5.54H435c-3.62,0-5.55-1.92-5.55-5.54Zm9,16.44a1.37,1.37,0,0,0,1.54-1.54V197.27a1.38,1.38,0,0,0-1.54-1.54H436a1.38,1.38,0,0,0-1.54,1.54v13.94a1.37,1.37,0,0,0,1.54,1.54Z"/><path class="cls-1" d="M464.1,204.05c0,2.23-.73,3.81-2.15,4.69l2,8.28c.11.46-.12.69-.54.69h-3.77a.61.61,0,0,1-.66-.54l-1.84-7.58h-3.43v7.51a.57.57,0,0,1-.62.61h-3.77a.57.57,0,0,1-.62-.61V191.38a.58.58,0,0,1,.62-.62h9.24c3.62,0,5.54,1.93,5.54,5.55Zm-6.54.57a1.38,1.38,0,0,0,1.54-1.54v-5.81a1.38,1.38,0,0,0-1.54-1.54h-3.85v8.89Z"/><path class="cls-1" d="M480.35,217.71a.9.9,0,0,1-.89-.57l-4.85-9.51-1.42,2.73v6.58a.69.69,0,0,1-.77.77h-3.7a.69.69,0,0,1-.77-.77V191.53a.69.69,0,0,1,.77-.77h3.7a.69.69,0,0,1,.77.77v10l5.93-10.2a1,1,0,0,1,.88-.58h4.05c.57,0,.84.43.54.93L478,203.2l7,13.63c.27.5,0,.88-.58.88Z"/><path class="cls-1" d="M498.45,190.76c3.61,0,5.54,1.93,5.54,5.55v2.54a.55.55,0,0,1-.62.61h-3.89a.56.56,0,0,1-.61-.61v-1.62a1.37,1.37,0,0,0-1.54-1.54h-2.12a1.4,1.4,0,0,0-1.54,1.54v3.27l9.32,3a1.38,1.38,0,0,1,1,1.42v7.24c0,3.62-1.93,5.54-5.54,5.54h-4.32c-3.58,0-5.54-1.92-5.54-5.54v-2.5a.55.55,0,0,1,.62-.62h3.88c.43,0,.62.19.62.62v1.61a1.38,1.38,0,0,0,1.54,1.54h2.08a1.37,1.37,0,0,0,1.54-1.54V207.4l-9.24-3a1.37,1.37,0,0,1-1-1.42v-6.66c0-3.62,2-5.55,5.54-5.55Z"/><path class="cls-1" d="M518,191.38a.57.57,0,0,1,.62-.62h4c.47,0,.66.24.66.62V217.1c0,.38-.19.61-.66.61h-4a.57.57,0,0,1-.62-.61V206.86h-4.92V217.1a.57.57,0,0,1-.62.61h-4c-.46,0-.65-.23-.65-.61V191.38a.56.56,0,0,1,.65-.62h4a.58.58,0,0,1,.62.62v10.39H518Z"/><path class="cls-1" d="M527.09,196.31c0-3.62,1.92-5.55,5.54-5.55H537c3.61,0,5.54,1.93,5.54,5.55v15.86c0,3.62-1.93,5.54-5.54,5.54h-4.32c-3.62,0-5.54-1.92-5.54-5.54Zm9,16.44a1.37,1.37,0,0,0,1.54-1.54V197.27a1.38,1.38,0,0,0-1.54-1.54h-2.47a1.38,1.38,0,0,0-1.54,1.54v13.94a1.37,1.37,0,0,0,1.54,1.54Z"/><path class="cls-1" d="M546.34,191.38a.57.57,0,0,1,.62-.62h9.24c3.61,0,5.54,1.93,5.54,5.55v7.54c0,3.58-1.93,5.51-5.54,5.55l-4.86,0v7.7a.54.54,0,0,1-.61.61l-3.77,0a.57.57,0,0,1-.62-.61Zm8.85,13.05a1.38,1.38,0,0,0,1.54-1.54v-5.62a1.37,1.37,0,0,0-1.54-1.54l-3.85,0v8.7Z"/><path class="cls-1" d="M575.45,190.76c3.61,0,5.54,1.93,5.54,5.55v2.54a.55.55,0,0,1-.62.61h-3.89a.56.56,0,0,1-.61-.61v-1.62a1.37,1.37,0,0,0-1.54-1.54h-2.12a1.4,1.4,0,0,0-1.54,1.54v3.27l9.32,3a1.38,1.38,0,0,1,1,1.42v7.24c0,3.62-1.93,5.54-5.54,5.54h-4.32c-3.58,0-5.54-1.92-5.54-5.54v-2.5a.55.55,0,0,1,.62-.62h3.88c.43,0,.62.19.62.62v1.61a1.38,1.38,0,0,0,1.54,1.54h2.08a1.37,1.37,0,0,0,1.54-1.54V207.4l-9.24-3a1.37,1.37,0,0,1-1-1.42v-6.66c0-3.62,2-5.55,5.54-5.55Z"/><path class="cls-1" d="M414.36,169.16a.58.58,0,0,1-.61-.54l-1.24-4.85h-7.23l-1.2,4.85a.58.58,0,0,1-.61.54h-3.78c-.42,0-.61-.23-.5-.65l6.39-25.76a.61.61,0,0,1,.66-.54h5.35a.59.59,0,0,1,.65.54l6.39,25.76c.12.42-.07.65-.53.65Zm-5.46-20.33-2.43,10.47h4.85Z"/><path class="cls-1" d="M436,151.91a.57.57,0,0,1-.62.62H431.8a.55.55,0,0,1-.61-.62v-3.15a1.38,1.38,0,0,0-1.54-1.54h-2.47a1.36,1.36,0,0,0-1.54,1.54v14a1.37,1.37,0,0,0,1.54,1.54h2.47a1.37,1.37,0,0,0,1.54-1.54v-3.27a.55.55,0,0,1,.61-.62h3.62a.57.57,0,0,1,.62.62v4.16c0,3.61-2,5.54-5.55,5.54h-4.31c-3.62,0-5.58-1.93-5.58-5.54V147.75c0-3.61,2-5.54,5.58-5.54h4.31c3.58,0,5.55,1.93,5.55,5.54Z"/><path class="cls-1" d="M453.9,142.21a.55.55,0,0,1,.62.62v3.85a.55.55,0,0,1-.62.61h-4.47v21.25c0,.43-.19.62-.61.62h-4a.55.55,0,0,1-.61-.62V147.29h-4.47a.56.56,0,0,1-.61-.61v-3.85a.57.57,0,0,1,.61-.62Z"/><path class="cls-1" d="M457.83,169.16a.55.55,0,0,1-.62-.62V142.83a.55.55,0,0,1,.62-.62h4a.57.57,0,0,1,.62.62v25.71a.57.57,0,0,1-.62.62Z"/><path class="cls-1" d="M482.24,142.21c.57,0,.8.31.69.85l-6.12,25.41a.81.81,0,0,1-.85.69h-3.85a.81.81,0,0,1-.85-.69l-6.08-25.41c-.11-.54.12-.85.69-.85h3.51a.79.79,0,0,1,.84.69L474,160.31l3.85-17.41a.79.79,0,0,1,.84-.69Z"/><path class="cls-1" d="M486.66,169.16a.55.55,0,0,1-.61-.62V142.83a.55.55,0,0,1,.61-.62h4a.57.57,0,0,1,.61.62v25.71a.57.57,0,0,1-.61.62Z"/><path class="cls-1" d="M508.76,142.21a.55.55,0,0,1,.62.62v3.85a.55.55,0,0,1-.62.61H504.3v21.25a.54.54,0,0,1-.62.62h-4a.55.55,0,0,1-.62-.62V147.29h-4.47a.56.56,0,0,1-.61-.61v-3.85a.57.57,0,0,1,.61-.62Z"/><path class="cls-1" d="M512.69,169.16a.55.55,0,0,1-.62-.62V142.83a.55.55,0,0,1,.62-.62h4a.57.57,0,0,1,.62.62v25.71a.57.57,0,0,1-.62.62Z"/><path class="cls-1" d="M536.52,146.68c0,.38-.15.65-.62.65h-9.51v5.93h7.24a.58.58,0,0,1,.62.65v3.82a.58.58,0,0,1-.62.65h-7.24v5.7h9.51c.47,0,.62.19.62.61v3.85c0,.39-.15.62-.62.62H521.74a.56.56,0,0,1-.58-.62V142.83a.56.56,0,0,1,.58-.62H535.9c.47,0,.62.23.62.62Z"/><path class="cls-1" d="M549.07,142.21c3.62,0,5.55,1.93,5.55,5.54v2.55a.55.55,0,0,1-.62.61h-3.89a.56.56,0,0,1-.61-.61v-1.62a1.37,1.37,0,0,0-1.54-1.54h-2.12a1.4,1.4,0,0,0-1.54,1.54V152l9.31,3a1.4,1.4,0,0,1,1,1.43v7.24c0,3.61-1.93,5.54-5.55,5.54h-4.31c-3.58,0-5.54-1.93-5.54-5.54v-2.51a.54.54,0,0,1,.61-.61h3.89c.42,0,.62.19.62.61v1.62a1.38,1.38,0,0,0,1.54,1.54H548a1.37,1.37,0,0,0,1.54-1.54v-3.89l-9.25-3a1.36,1.36,0,0,1-1-1.42v-6.67c0-3.61,2-5.54,5.54-5.54Z"/><path class="cls-1" d="M583.49,155.49c0,2.24-.73,3.81-2.16,4.7l2,8.28c.11.46-.12.69-.54.69H579a.6.6,0,0,1-.65-.54L576.52,161H573.1v7.5a.57.57,0,0,1-.62.62h-3.77a.57.57,0,0,1-.62-.62V142.83a.57.57,0,0,1,.62-.62H578c3.62,0,5.54,1.93,5.54,5.54Zm-6.54.58a1.38,1.38,0,0,0,1.54-1.54v-5.81a1.38,1.38,0,0,0-1.54-1.54H573.1v8.89Z"/><path class="cls-1" d="M587.34,147.75c0-3.61,1.93-5.54,5.54-5.54h4.32c3.62,0,5.54,1.93,5.54,5.54v15.87c0,3.61-1.92,5.54-5.54,5.54h-4.32c-3.61,0-5.54-1.93-5.54-5.54Zm9,16.44a1.37,1.37,0,0,0,1.54-1.54V148.72a1.38,1.38,0,0,0-1.54-1.54h-2.46a1.38,1.38,0,0,0-1.54,1.54v13.93a1.36,1.36,0,0,0,1.54,1.54Z"/><path class="cls-1" d="M606.59,147.75c0-3.61,1.93-5.54,5.54-5.54h4.32c3.62,0,5.54,1.93,5.54,5.54v15.87c0,3.61-1.92,5.54-5.54,5.54h-4.32c-3.61,0-5.54-1.93-5.54-5.54Zm9,16.44a1.37,1.37,0,0,0,1.54-1.54V148.72a1.38,1.38,0,0,0-1.54-1.54h-2.46a1.38,1.38,0,0,0-1.54,1.54v13.93a1.36,1.36,0,0,0,1.54,1.54Z"/><path class="cls-1" d="M647,142.21a.69.69,0,0,1,.78.77v25.41a.69.69,0,0,1-.78.77h-3.58a.69.69,0,0,1-.77-.77V153.26h-.27l-3.61,15.25a.81.81,0,0,1-.85.65h-2.27a.81.81,0,0,1-.85-.65l-3.62-15.25h-.27v15.13a.69.69,0,0,1-.77.77h-3.54a.69.69,0,0,1-.77-.77V143a.69.69,0,0,1,.77-.77h5.08a.81.81,0,0,1,.85.66L636.81,160l4.28-17.17a.79.79,0,0,1,.84-.66Z"/></g></svg>