<?xml version="1.0" encoding="utf-8"?>
<!-- Generator: Adobe Illustrator 23.0.1, SVG Export Plug-In . SVG Version: 6.00 Build 0)  -->
<svg version="1.1" xmlns="http://www.w3.org/2000/svg" xmlns:xlink="http://www.w3.org/1999/xlink" x="0px" y="0px"
	 viewBox="0 0 696 331" style="enable-background:new 0 0 696 331;" xml:space="preserve">
<style type="text/css">
	.st0{display:none;}
	.st1{display:inline;}
	.st2{fill:#3964AE;stroke:#3964AE;stroke-width:1.6956;stroke-miterlimit:10;}
	.st3{fill:#CBCBCB;}
	.st4{fill:#496CB3;}
	.st5{fill:#979697;}
	.st6{fill:#FFFFFF;}
	.st7{enable-background:new    ;}
	.st8{fill:#4A6DB3;}
	.st9{opacity:0.6;fill:#496CB3;enable-background:new    ;}
	.st10{display:inline;fill:#CBCBCB;}
	.st11{display:inline;fill:#496CB3;}
	.st12{display:inline;opacity:0.6;fill:#496CB3;enable-background:new    ;}
	.st13{display:inline;fill:#4A6DB3;}
	.st14{display:inline;fill:#FFFFFF;}
	.st15{display:inline;fill:#F09E12;stroke:#A5A7AA;stroke-width:6.8808;stroke-miterlimit:10;}
	.st16{display:inline;fill:none;stroke:#EEEEEE;stroke-width:6.8808;stroke-miterlimit:10;}
	.st17{display:inline;fill:#89C550;stroke:#A5A7AA;stroke-width:6.8808;stroke-miterlimit:10;}
	.st18{display:inline;fill:#243351;stroke:#EEEEEE;stroke-width:6.8808;stroke-miterlimit:10;}
	.st19{display:inline;fill:#28282A;stroke:#A5A7AA;stroke-width:6.8808;stroke-miterlimit:10;}
	.st20{display:inline;fill:#596E9F;}
	.st21{display:inline;fill:#28282A;}
	.st22{fill:#EEEEEE;}
	.st23{fill:#EB1C24;}
	.st24{fill:#EEEEEE;stroke:#EEEEEE;stroke-width:0.6881;stroke-miterlimit:10;}
	.st25{display:inline;fill:#243351;}
	.st26{display:inline;fill:#28282A;stroke:#A5A7AA;stroke-width:5.3806;stroke-miterlimit:10;}
	.st27{fill:#EB1C24;stroke:#EEEEEE;stroke-width:0.5381;stroke-miterlimit:10;}
	.st28{display:inline;fill:#F09E12;stroke:#A5A7AA;stroke-width:5.3806;stroke-miterlimit:10;}
	.st29{display:inline;fill:#999999;}
	.st30{display:inline;fill:#243351;stroke:#A5A7AA;stroke-width:1.3762;stroke-miterlimit:10;}
	.st31{fill:#F38709;}
	.st32{fill:#EEEEEE;stroke:#EEEEEE;stroke-width:0.7843;stroke-miterlimit:10;}
	.st33{display:inline;fill:none;stroke:#F38709;stroke-width:3.2283;stroke-miterlimit:10;}
	.st34{fill:#89C550;}
	.st35{fill:#EEEEEE;stroke:#EEEEEE;stroke-width:0.6375;stroke-miterlimit:10;}
	.st36{display:inline;fill:none;stroke:#F38709;stroke-width:4.1285;stroke-miterlimit:10;}
	.st37{fill:#EEEEEE;stroke:#EEEEEE;stroke-width:0.6983;stroke-miterlimit:10;}
	.st38{fill:#EEEEEE;stroke:#EEEEEE;stroke-width:1.3762;stroke-miterlimit:10;}
	.st39{fill:#911E62;}
	.st40{display:inline;fill:#3964AE;stroke:#3964AE;stroke-width:1.6956;stroke-miterlimit:10;}
	.st41{fill:none;stroke:#000000;stroke-width:3;stroke-linecap:round;stroke-linejoin:round;stroke-miterlimit:10;}
	.st42{fill:none;stroke:#000000;stroke-width:2.9581;stroke-linecap:round;stroke-linejoin:round;stroke-miterlimit:10;}
	.st43{fill:#F12782;}
	.st44{fill:#FFBFFF;}
	.st45{fill:#231F20;}
	.st46{display:inline;fill:#FFBFFF;}
	.st47{fill:#C0C9FF;}
	.st48{fill:#30384F;}
	.st49{fill:none;stroke:#30384F;stroke-width:2;stroke-linecap:round;stroke-linejoin:round;stroke-miterlimit:10;}
	.st50{display:inline;fill:#30384F;}
	.st51{display:inline;fill:#FFC638;}
	.st52{fill:none;stroke:#30384F;stroke-width:1.8039;stroke-linecap:round;stroke-linejoin:round;stroke-miterlimit:10;}
	.st53{fill:#FF395A;}
	.st54{fill:none;stroke:#30384F;stroke-width:3;stroke-miterlimit:10;}
	.st55{fill:none;stroke:#30384F;stroke-width:3;stroke-linecap:round;stroke-linejoin:round;stroke-miterlimit:10;}
	.st56{display:none;fill:#30384F;}
	.st57{opacity:0.2;fill:#FFFF00;}
	.st58{fill:none;stroke:#000000;stroke-width:3;stroke-miterlimit:10;}
	.st59{fill:none;stroke:#30384F;stroke-width:2.0892;stroke-linecap:round;stroke-linejoin:round;stroke-miterlimit:10;}
	.st60{fill:none;stroke:#FF395A;stroke-width:3.2818;stroke-linecap:round;stroke-linejoin:round;}
	.st61{fill:none;stroke:#FF395A;stroke-width:3.2818;stroke-linecap:round;stroke-linejoin:round;stroke-dasharray:3.0435,5.0725;}
	.st62{opacity:0.33;}
	.st63{fill:url(#);}
	.st64{fill:none;stroke:#30384F;stroke-width:2.8212;stroke-miterlimit:10;}
	.st65{fill:none;stroke:#30384F;stroke-width:1.6;stroke-linecap:round;stroke-linejoin:round;stroke-miterlimit:10;}
	.st66{fill:none;stroke:#30384F;stroke-width:2.1133;stroke-linecap:round;stroke-linejoin:round;stroke-miterlimit:10;}
</style>
<g id="Layer_1" class="st0">
</g>
<g id="Layer_8">
</g>
<g id="bourns" class="st0">
</g>
<g id="chung" class="st0">
</g>
<g id="Layer_4" class="st0">
</g>
<g id="Layer_5" class="st0">
</g>
<g id="bourns_3_" class="st0">
</g>
<g id="bourns_1_" class="st0">
</g>
<g id="floor_1" class="st0">
</g>
<g id="chung_floor_1">
</g>
<g id="floor_1_copy">
</g>
<g id="floor_1_stuff">
</g>
<g id="Layer_12">
</g>
<g id="chung_floor_2">
</g>
<g id="floor_2_stuff">
</g>
<g id="key">
	<g>
		<g>
			<path class="st48" d="M17.325,106.938c0,2.233-0.731,3.812-2.156,4.697l2.002,8.277c0.116,0.462-0.115,0.693-0.539,0.693h-3.773
				c-0.385,0-0.578-0.192-0.655-0.539l-1.848-7.584H6.93v7.507c0,0.385-0.231,0.616-0.616,0.616H2.542
				c-0.385,0-0.616-0.231-0.616-0.616V94.273c0-0.385,0.231-0.616,0.616-0.616h9.239c3.619,0,5.544,1.925,5.544,5.544V106.938z
				 M10.78,107.516c1.001,0,1.54-0.539,1.54-1.54v-5.813c0-1.001-0.539-1.54-1.54-1.54H6.93v8.893H10.78z"/>
			<path class="st48" d="M36.536,98.123c0,0.385-0.154,0.655-0.616,0.655h-9.509v5.929h7.238c0.385,0,0.616,0.231,0.616,0.654v3.811
				c0,0.424-0.231,0.655-0.616,0.655h-7.238v5.698h9.509c0.462,0,0.616,0.192,0.616,0.616v3.85c0,0.385-0.154,0.616-0.616,0.616
				H21.753c-0.347,0-0.578-0.231-0.578-0.616V94.273c0-0.385,0.231-0.616,0.578-0.616H35.92c0.462,0,0.616,0.231,0.616,0.616V98.123
				z"/>
			<path class="st48" d="M49.087,93.657c3.619,0,5.544,1.925,5.544,5.544v2.541c0,0.385-0.193,0.616-0.616,0.616h-3.888
				c-0.385,0-0.616-0.231-0.616-0.616v-1.617c0-1.001-0.5-1.54-1.54-1.54h-2.118c-0.962,0-1.54,0.539-1.54,1.54v3.272l9.316,3.003
				c0.654,0.231,1.001,0.693,1.001,1.424v7.237c0,3.619-1.925,5.544-5.544,5.544h-4.312c-3.581,0-5.544-1.925-5.544-5.544v-2.502
				c0-0.424,0.231-0.616,0.616-0.616h3.888c0.423,0,0.616,0.192,0.616,0.616v1.617c0,1.04,0.578,1.54,1.54,1.54h2.079
				c1.001,0,1.54-0.5,1.54-1.54v-3.888l-9.239-3.003c-0.693-0.231-1.04-0.693-1.04-1.424v-6.66c0-3.619,1.963-5.544,5.544-5.544
				H49.087z"/>
			<path class="st48" d="M71.34,93.657c0.424,0,0.616,0.231,0.616,0.616v3.85c0,0.385-0.192,0.616-0.616,0.616h-4.466v21.25
				c0,0.424-0.192,0.616-0.616,0.616h-4.004c-0.385,0-0.616-0.192-0.616-0.616v-21.25h-4.466c-0.385,0-0.616-0.231-0.616-0.616
				v-3.85c0-0.385,0.231-0.616,0.616-0.616H71.34z"/>
			<path class="st48" d="M90.436,106.938c0,2.233-0.731,3.812-2.156,4.697l2.002,8.277c0.116,0.462-0.115,0.693-0.539,0.693H85.97
				c-0.385,0-0.578-0.192-0.655-0.539l-1.848-7.584h-3.426v7.507c0,0.385-0.231,0.616-0.616,0.616h-3.772
				c-0.385,0-0.616-0.231-0.616-0.616V94.273c0-0.385,0.231-0.616,0.616-0.616h9.239c3.619,0,5.544,1.925,5.544,5.544V106.938z
				 M83.891,107.516c1.001,0,1.54-0.539,1.54-1.54v-5.813c0-1.001-0.539-1.54-1.54-1.54h-3.85v8.893H83.891z"/>
			<path class="st48" d="M94.286,99.201c0-3.619,1.925-5.544,5.544-5.544h4.312c3.619,0,5.544,1.925,5.544,5.544v15.861
				c0,3.619-1.925,5.544-5.544,5.544H99.83c-3.619,0-5.544-1.925-5.544-5.544V99.201z M103.295,115.639c1.001,0,1.54-0.5,1.54-1.54
				v-13.936c0-1.001-0.539-1.54-1.54-1.54h-2.464c-1.001,0-1.54,0.539-1.54,1.54v13.936c0,1.04,0.539,1.54,1.54,1.54H103.295z"/>
			<path class="st48" d="M113.536,99.201c0-3.619,1.925-5.544,5.544-5.544h4.312c3.619,0,5.544,1.925,5.544,5.544v15.861
				c0,3.619-1.925,5.544-5.544,5.544h-4.312c-3.619,0-5.544-1.925-5.544-5.544V99.201z M122.545,115.639c1.001,0,1.54-0.5,1.54-1.54
				v-13.936c0-1.001-0.539-1.54-1.54-1.54h-2.464c-1.001,0-1.54,0.539-1.54,1.54v13.936c0,1.04,0.539,1.54,1.54,1.54H122.545z"/>
			<path class="st48" d="M153.96,93.657c0.5,0,0.77,0.27,0.77,0.77v25.409c0,0.5-0.27,0.77-0.77,0.77h-3.58
				c-0.5,0-0.77-0.27-0.77-0.77v-15.129h-0.27l-3.619,15.245c-0.116,0.423-0.385,0.654-0.847,0.654h-2.271
				c-0.462,0-0.731-0.231-0.847-0.654l-3.619-15.245h-0.269v15.129c0,0.5-0.27,0.77-0.77,0.77h-3.542c-0.5,0-0.77-0.27-0.77-0.77
				V94.427c0-0.5,0.27-0.77,0.77-0.77h5.082c0.462,0,0.731,0.231,0.847,0.655l4.273,17.17l4.273-17.17
				c0.116-0.424,0.385-0.655,0.847-0.655H153.96z"/>
			<path class="st48" d="M168.437,93.657c3.619,0,5.544,1.925,5.544,5.544v2.541c0,0.385-0.193,0.616-0.616,0.616h-3.888
				c-0.385,0-0.616-0.231-0.616-0.616v-1.617c0-1.001-0.5-1.54-1.54-1.54h-2.118c-0.962,0-1.54,0.539-1.54,1.54v3.272l9.316,3.003
				c0.654,0.231,1.001,0.693,1.001,1.424v7.237c0,3.619-1.925,5.544-5.544,5.544h-4.312c-3.581,0-5.544-1.925-5.544-5.544v-2.502
				c0-0.424,0.231-0.616,0.616-0.616h3.888c0.423,0,0.616,0.192,0.616,0.616v1.617c0,1.04,0.578,1.54,1.54,1.54h2.079
				c1.001,0,1.54-0.5,1.54-1.54v-3.888l-9.239-3.003c-0.693-0.231-1.04-0.693-1.04-1.424v-6.66c0-3.619,1.963-5.544,5.544-5.544
				H168.437z"/>
		</g>
	</g>
	<g>
		<path class="st48" d="M318.997,78.881c-0.852,0-1.349-0.355-1.633-1.065l-8.946-21.087l-2.627,5.041v15.691
			c0,0.923-0.497,1.42-1.42,1.42h-6.816c-0.923,0-1.42-0.497-1.42-1.42V23.502c0-0.923,0.497-1.42,1.42-1.42h6.816
			c0.923,0,1.42,0.497,1.42,1.42v22.01l10.934-22.365c0.355-0.71,0.852-1.065,1.633-1.065h7.455c1.065,0,1.491,0.71,0.994,1.704
			l-12.07,24.779l12.851,28.684c0.497,0.923,0.071,1.633-1.065,1.633H318.997z"/>
		<path class="st48" d="M361.1,30.318c0,0.71-0.284,1.207-1.136,1.207h-17.75v14.2h13.561c0.71,0,1.136,0.426,1.136,1.207v7.029
			c0,0.781-0.426,1.207-1.136,1.207h-13.561v14.342h17.75c0.852,0,1.136,0.355,1.136,1.136v7.1c0,0.71-0.284,1.136-1.136,1.136
			h-26.128c-0.639,0-1.065-0.426-1.065-1.136V23.218c0-0.71,0.426-1.136,1.065-1.136h26.128c0.852,0,1.136,0.426,1.136,1.136V30.318
			z"/>
		<path class="st48" d="M400.717,22.082c1.065,0,1.562,0.639,1.136,1.633L388.861,55.31v22.152c0,0.923-0.497,1.42-1.42,1.42h-6.816
			c-0.923,0-1.42-0.497-1.42-1.42V55.31l-12.993-31.595c-0.426-0.994,0.071-1.633,1.136-1.633h7.1c0.852,0,1.349,0.355,1.633,1.136
			l7.952,20.377l7.952-20.377c0.284-0.781,0.781-1.136,1.633-1.136H400.717z"/>
	</g>
	<g>
		<g>
			
				<ellipse transform="matrix(0.9975 -0.0709 0.0709 0.9975 -6.4031 13.8072)" class="st64" cx="191.327" cy="97.117" rx="3.646" ry="3.646"/>
			<path class="st64" d="M195.432,102.301h-8.209c-1.82,0-3.004,2.472-2.19,4.573l4.631,11.953c0.628,1.622,2.699,1.622,3.327,0
				l4.631-11.953C198.436,104.773,197.252,102.301,195.432,102.301z"/>
		</g>
		<g>
			
				<ellipse transform="matrix(0.9975 -0.0709 0.0709 0.9975 -6.3511 15.2738)" class="st64" cx="212.016" cy="97.117" rx="3.646" ry="3.646"/>
			<path class="st64" d="M206.862,120.044h10.308c1.82,0,3.004-2.26,2.19-4.18l-5.438-12.63c-0.25-0.72-0.921-1.202-1.674-1.202
				h-0.381c-0.749,0-1.417,0.477-1.67,1.192l-5.524,12.64C203.858,117.785,205.042,120.044,206.862,120.044z"/>
		</g>
	</g>
	<g>
		<g>
			<polygon class="st65" points="140.597,188.504 140.597,195.765 133.336,195.765 133.336,203.027 126.075,203.027 
				126.075,210.288 118.813,210.288 118.813,219.312 122.338,219.312 122.338,213.813 129.6,213.813 129.6,206.552 136.861,206.552 
				136.861,199.29 144.123,199.29 144.123,192.029 149.621,192.029 149.621,188.504 			"/>
		</g>
		<g>
			<polygon class="st48" points="132.38,193.434 135.49,190.324 135.49,191.962 137.21,191.962 137.21,187.387 132.635,187.387 
				132.635,189.107 134.274,189.107 131.164,192.217 			"/>
			<polygon class="st48" points="122.602,201.344 119.492,204.454 119.492,202.815 117.772,202.815 117.772,207.39 122.347,207.39 
				122.347,205.67 120.709,205.67 123.818,202.56 			"/>
		</g>
	</g>
	<g>
		<g>
			<polygon class="st48" points="161.802,158.183 159.852,156.233 166.625,149.461 173.067,155.902 171.117,157.852 166.625,153.36 
							"/>
			<polygon class="st48" points="180.918,157.971 174.476,151.529 176.426,149.579 180.918,154.071 185.741,149.249 
				187.691,151.198 			"/>
		</g>
		<path class="st66" d="M183.281,169.566h-19.02c-3.487,0-6.34-2.853-6.34-6.34v-19.02c0-3.487,2.853-6.34,6.34-6.34h19.02
			c3.487,0,6.34,2.853,6.34,6.34v19.02C189.621,166.713,186.768,169.566,183.281,169.566z"/>
	</g>
	<path id="XMLID_231_" class="st48" d="M694.198,138.681c-0.058-0.685-0.604-1.228-1.29-1.281
		c-8.86-0.689-15.241,3.599-19.184,9.014c-2.179-0.714-4.518-0.46-6.651,0.742c-2.055,1.157-3.805,3.108-4.928,5.492
		c-0.257,0.546-0.137,1.195,0.3,1.612c0.436,0.417,1.091,0.509,1.624,0.227c2.247-1.185,4.776-0.962,6.295,0.556l6.186,6.179
		c0.011,0.012,0.019,0.026,0.031,0.037c1.518,1.516,1.741,4.042,0.556,6.284c-0.282,0.534-0.191,1.188,0.226,1.624
		c0.271,0.284,0.64,0.434,1.015,0.434c0.202,0,0.406-0.044,0.597-0.133c2.386-1.122,4.338-2.87,5.497-4.923
		c1.21-2.144,1.462-4.497,0.731-6.685c1.591-1.142,3.015-2.429,4.212-3.826C693.087,149.748,694.697,144.582,694.198,138.681z
		 M666.717,150.93c1.493-1.491,3.409-2.381,5.405-2.031c-0.55,0.969-1.027,1.954-1.434,2.936
		C669.493,151.192,668.126,150.88,666.717,150.93z M680.694,164.902c0.049-1.423-0.269-2.8-0.924-4.001
		c1.019-0.432,2.005-0.92,2.951-1.456C683.098,161.46,682.202,163.396,680.694,164.902z M677.919,158.623l-4.946-4.941
		c2.479-6.64,8.636-13.735,18.498-13.543C691.802,151.892,682.098,156.983,677.919,158.623z M686.985,144.641
		c0.424,0.425,0.667,1.014,0.667,1.614c0,0.6-0.242,1.186-0.667,1.61c-0.424,0.424-1.014,0.67-1.614,0.67s-1.186-0.245-1.61-0.67
		c-0.424-0.424-0.67-1.011-0.67-1.61c0-0.6,0.246-1.189,0.67-1.614c0.421-0.424,1.01-0.667,1.61-0.667
		S686.56,144.217,686.985,144.641z M667.23,159.212c-1.613,1.611-1.676,4.838-1.672,5.464c0.005,0.769,0.626,1.418,1.395,1.418
		c0.014,0,0.029,0,0.045,0c0.722,0,3.823-0.118,5.4-1.693c0.996-0.995,1.205-2.009,1.205-2.676c0-0.934-0.401-1.855-1.13-2.582
		C670.697,157.369,668.51,157.934,667.23,159.212z M670.414,162.393c-0.346,0.345-1.122,0.58-1.914,0.714
		c0.137-0.799,0.376-1.573,0.713-1.909c0.229-0.229,0.448-0.382,0.684-0.382c0.182,0,0.375,0.091,0.592,0.307
		c0.195,0.195,0.306,0.41,0.306,0.591C670.796,161.961,670.588,162.219,670.414,162.393z"/>
	<path id="XMLID_274_" class="st48" d="M360.746,264.454c0.553,0.553,0.553,1.45,0,2.003c-0.276,0.276-0.639,0.415-1.001,0.415
		c-0.362,0-0.725-0.138-1.001-0.415l-11.252-11.255l-11.09,11.248c-0.277,0.281-0.643,0.422-1.008,0.422
		c-0.359,0-0.718-0.136-0.994-0.408c-0.557-0.549-0.563-1.446-0.014-2.003l11.104-11.262l-1.888-1.888l-0.301,0.301
		c-0.901,0.902-2.1,1.398-3.375,1.398c-1.275,0-2.473-0.497-3.375-1.398l-4.702-4.659c-0.556-0.55-0.56-1.447-0.009-2.003
		c0.55-0.556,1.447-0.56,2.002-0.009l4.706,4.664c0.371,0.371,0.858,0.573,1.377,0.573c0.518,0,1.006-0.202,1.372-0.569l0.301-0.301
		l-6.057-6.059c-0.553-0.553-0.553-1.45,0-2.003c0.553-0.553,1.45-0.553,2.002,0l6.057,6.058l0.345-0.345
		c0.757-0.757,0.757-1.989,0-2.746l-4.702-4.659c-0.556-0.55-0.56-1.447-0.009-2.003c0.551-0.555,1.447-0.56,2.002-0.009
		l4.707,4.664c1.865,1.866,1.865,4.894,0.005,6.755l-0.345,0.345l1.874,1.874l12.477-12.654c0.265-0.269,0.626-0.42,1.003-0.422
		c0.365-0.007,0.739,0.148,1.006,0.415c3.14,3.14,2.619,7.563-1.359,11.542l-4.782,4.789c-0.552,0.554-1.449,0.554-2.002,0.001
		c-0.553-0.553-0.554-1.449-0.001-2.003l4.783-4.79c2.876-2.877,2.805-5.024,2.193-6.352l-11.315,11.476L360.746,264.454z"/>
	<path id="XMLID_263_" class="st48" d="M355.092,306.555c3.365,0,6.102-2.731,6.102-6.089c0-3.357-2.737-6.088-6.102-6.088
		c-3.365,0-6.102,2.731-6.102,6.088C348.99,303.824,351.727,306.555,355.092,306.555z M355.092,296.988
		c1.926,0,3.492,1.56,3.492,3.478c0,1.918-1.567,3.479-3.492,3.479c-1.926,0-3.492-1.561-3.492-3.479
		C351.6,298.549,353.166,296.988,355.092,296.988z M334.799,297.626c0-0.721,0.584-1.305,1.305-1.305h7.586
		c0.721,0,1.305,0.584,1.305,1.305s-0.584,1.305-1.305,1.305h-7.586C335.384,298.931,334.799,298.347,334.799,297.626z
		 M343.69,303.716h-7.586c-0.721,0-1.305-0.584-1.305-1.305c0-0.721,0.584-1.305,1.305-1.305h7.586c0.721,0,1.305,0.584,1.305,1.305
		C344.995,303.132,344.411,303.716,343.69,303.716z M341.788,307.196c0,0.721-0.584,1.305-1.305,1.305h-4.378
		c-0.721,0-1.305-0.584-1.305-1.305s0.584-1.305,1.305-1.305h4.378C341.203,305.891,341.788,306.476,341.788,307.196z M368,292.229
		c0-1.583-1.284-2.867-2.867-2.867h-34.285c-1.583,0-2.867,1.284-2.867,2.867v20.365c0,1.583,1.284,2.867,2.867,2.867h34.285
		c1.583,0,2.867-1.284,2.867-2.867V292.229z M331.461,292.842h33.059v18.15c-1.74-1.838-5.095-3.063-6.354-3.489
		c-0.277-0.094-0.577-0.092-0.853,0.006l-2.221,0.785l-2.221-0.785c-0.275-0.098-0.576-0.053-0.853,0.04
		c-1.454,0.492-5.556,1.822-7.101,4.432h-13.455V292.842z M348.751,311.981c0.993-0.87,2.295-1.308,3.683-1.812l2.223,0.763
		c0.282,0.099,0.589,0.088,0.87-0.011l2.223-0.746c1.387,0.504,2.69,0.937,3.683,1.806H348.751z"/>
	<path class="st48" d="M603.65,184.885c-5.831,0-10.644,4.824-10.644,10.754c0,3.616,1.423,6.528,4.26,8.471v3.476
		c0,0.396,0.233,0.774,0.523,1.043c0.261,0.243,0.637,0.376,0.99,0.376c0.038,0,0.093-0.002,0.13-0.005l9.756-0.786
		c0.732-0.059,1.367-0.675,1.367-1.414v-2.667c2.482-1.8,4.254-4.912,4.254-8.495C614.287,189.709,609.481,184.885,603.65,184.885z
		 M607.889,202.076c-0.46,0.246-0.694,0.728-0.694,1.252v2.164l-7.093,0.557v-2.72c0-0.505-0.206-0.971-0.64-1.225
		c-2.442-1.433-3.599-3.547-3.599-6.464c0-4.365,3.494-7.917,7.77-7.917c4.276,0,7.789,3.552,7.789,7.917
		C611.424,198.472,610.124,200.878,607.889,202.076z M609.905,211.232c0.056,0.781-0.527,1.461-1.304,1.518l-9.686,0.708
		c-0.035,0.003-0.069,0.004-0.104,0.004c-0.732,0-1.351-0.569-1.405-1.316c-0.056-0.781,0.527-1.461,1.304-1.518l9.686-0.708
		C609.172,209.863,609.849,210.45,609.905,211.232z M606.82,215.712c0.06,0.781-0.521,1.463-1.298,1.523l-3.515,0.272
		c-0.037,0.003-0.073,0.004-0.11,0.004c-0.73,0-1.347-0.566-1.404-1.31c-0.06-0.781,0.521-1.463,1.298-1.523l3.515-0.272
		C606.083,214.35,606.76,214.93,606.82,215.712z M609.302,195.613c-0.062,0.641-0.599,1.121-1.226,1.121
		c-0.04,0-0.081-0.002-0.121-0.006c-0.678-0.066-1.174-0.673-1.108-1.356c0.197-2.03-1.576-2.751-1.778-2.826
		c-0.635-0.237-0.967-0.945-0.738-1.586c0.229-0.641,0.923-0.978,1.562-0.754C607.208,190.668,609.614,192.393,609.302,195.613z"/>
	<path id="XMLID_258_" class="st48" d="M542.872,242.137l-8.929-8.929c-0.552-0.552-1.447-0.552-2,0
		c-0.12,0.12-2.694,2.75-1.705,6.208l-4.043,4.043c-2.21-0.671-7.926-1.832-12.135,2.376c-0.552,0.552-0.552,1.447,0,2l6.093,6.093
		l-8.974,8.974c-0.552,0.552-0.552,1.447,0,2c0.276,0.276,0.638,0.414,1,0.414c0.362,0,0.724-0.138,1-0.414l8.974-8.974l6.093,6.093
		c0.276,0.276,0.638,0.414,1,0.414c0.362,0,0.724-0.138,1-0.414c4.208-4.208,3.047-9.924,2.376-12.135l4.043-4.043
		c3.459,0.99,6.088-1.585,6.208-1.705C543.425,243.584,543.425,242.689,542.872,242.137z M536.906,242.92
		c-0.539-0.252-1.178-0.14-1.6,0.281l-5.308,5.308c-0.402,0.402-0.523,1.009-0.308,1.536c0.006,0.016,0.643,1.603,0.752,3.658
		c0.108,2.042-0.326,3.792-1.29,5.222l-5.997-5.997c0,0,0-0.001-0.001-0.001c0,0-0.001,0-0.001-0.001l-5.997-5.997
		c3.787-2.558,8.654-0.63,8.876-0.54c0.528,0.218,1.135,0.097,1.539-0.307l5.308-5.308c0.421-0.421,0.533-1.06,0.281-1.6
		c-0.494-1.055-0.314-2.032-0.002-2.752l6.499,6.499C538.936,243.233,537.96,243.414,536.906,242.92z M528.526,250.572
		c0.05,0.111,0.486,1.118,0.455,2.226c-0.019,0.671-0.569,1.202-1.236,1.202c-0.012,0-0.024,0-0.036-0.001
		c-0.683-0.019-1.221-0.589-1.201-1.272c0.013-0.457-0.17-0.985-0.242-1.149c-0.272-0.624,0.01-1.354,0.633-1.629
		C527.521,249.674,528.248,249.951,528.526,250.572z"/>
	<path id="XMLID_241_" class="st48" d="M649.974,112.574c-3.77,0-6.837-3.067-6.837-6.837c0-3.77,3.067-6.837,6.837-6.837
		c3.77,0,6.836,3.067,6.836,6.837C656.81,109.507,653.743,112.574,649.974,112.574z M649.974,101.41
		c-2.386,0-4.327,1.941-4.327,4.327c0,2.386,1.941,4.327,4.327,4.327c2.386,0,4.327-1.941,4.327-4.327
		C654.3,103.351,652.359,101.41,649.974,101.41z M649.973,122.044h-0.193c-1.232,0-2.315-0.137-2.36-0.143
		c-0.562-0.072-1.006-0.512-1.084-1.073l-0.35-2.537c-0.779-0.247-1.531-0.566-2.251-0.954l-2.005,1.507
		c-0.452,0.339-1.075,0.335-1.521-0.01c-0.036-0.028-0.898-0.697-1.77-1.568l-0.137-0.137c-0.871-0.871-1.54-1.733-1.568-1.77
		c-0.347-0.448-0.35-1.073-0.008-1.525l1.549-2.045c-0.376-0.725-0.683-1.482-0.917-2.263l-2.487-0.353
		c-0.559-0.079-0.997-0.523-1.069-1.083c-0.006-0.046-0.143-1.128-0.143-2.36v-0.193c0-1.232,0.137-2.315,0.143-2.36
		c0.072-0.562,0.512-1.007,1.074-1.084l2.544-0.349c0.247-0.776,0.565-1.527,0.952-2.245l-1.513-2.012
		c-0.339-0.452-0.335-1.075,0.01-1.521c0.028-0.036,0.697-0.898,1.568-1.77l0.137-0.137c0.871-0.871,1.733-1.54,1.77-1.568
		c0.448-0.347,1.074-0.35,1.526-0.007l2.05,1.555c0.723-0.375,1.478-0.681,2.256-0.915l0.354-2.494
		c0.079-0.56,0.523-0.997,1.083-1.069c0.046-0.006,1.128-0.143,2.36-0.143h0.193c1.232,0,2.315,0.137,2.36,0.143
		c0.563,0.072,1.007,0.513,1.084,1.075l0.349,2.547c0.776,0.246,1.526,0.563,2.243,0.95l2.014-1.514
		c0.452-0.34,1.074-0.335,1.521,0.01c0.036,0.028,0.898,0.697,1.77,1.568l0.137,0.137c0.871,0.871,1.54,1.734,1.568,1.77
		c0.347,0.449,0.349,1.074,0.006,1.526l-1.553,2.046c0.376,0.723,0.683,1.479,0.918,2.259l2.491,0.355
		c0.559,0.08,0.996,0.523,1.068,1.083c0.006,0.046,0.143,1.128,0.143,2.36v0.193c0,1.232-0.137,2.315-0.143,2.36
		c-0.072,0.562-0.513,1.007-1.075,1.084l-2.54,0.348c-0.247,0.777-0.565,1.529-0.953,2.248l1.51,2.012
		c0.339,0.451,0.335,1.074-0.011,1.521c-0.028,0.036-0.697,0.898-1.568,1.77l-0.137,0.137c-0.871,0.871-1.734,1.54-1.77,1.568
		c-0.448,0.347-1.074,0.35-1.526,0.007l-2.051-1.557c-0.722,0.374-1.476,0.679-2.255,0.913l-0.354,2.499
		c-0.079,0.559-0.523,0.997-1.083,1.069C652.288,121.907,651.205,122.044,649.973,122.044z M648.686,119.497
		c0.323,0.021,0.702,0.037,1.094,0.037h0.193c0.396,0,0.775-0.016,1.098-0.037l0.332-2.338c0.073-0.515,0.456-0.931,0.962-1.047
		c1.1-0.252,2.149-0.677,3.117-1.262c0.286-0.172,0.628-0.224,0.951-0.144c0.185,0.046,0.355,0.133,0.499,0.253l1.865,1.416
		c0.243-0.213,0.522-0.47,0.799-0.747l0.137-0.137c0.279-0.279,0.536-0.56,0.75-0.803l-1.414-1.883
		c-0.312-0.416-0.335-0.98-0.059-1.42c0.587-0.935,1.022-1.949,1.293-3.013c0.092-0.532,0.516-0.955,1.063-1.03l2.372-0.325
		c0.021-0.322,0.037-0.701,0.037-1.093v-0.193c0-0.394-0.017-0.775-0.037-1.099l-2.331-0.332c-0.514-0.073-0.93-0.455-1.046-0.961
		c-0.25-1.088-0.669-2.125-1.245-3.084c-0.054-0.082-0.098-0.172-0.131-0.267c-0.14-0.398-0.072-0.839,0.183-1.175l1.448-1.907
		c-0.213-0.243-0.469-0.522-0.747-0.799l-0.137-0.137c-0.28-0.28-0.56-0.537-0.802-0.75l-1.888,1.419
		c-0.446,0.335-1.054,0.333-1.495,0.01c-0.939-0.577-1.954-1.002-3.021-1.264c-0.5-0.123-0.874-0.538-0.944-1.048l-0.325-2.372
		c-0.322-0.021-0.701-0.037-1.093-0.037h-0.193c-0.394,0-0.774,0.017-1.098,0.037l-0.332,2.338
		c-0.078,0.553-0.511,0.981-1.051,1.064c-1.068,0.254-2.087,0.672-3.029,1.242c-0.29,0.176-0.639,0.226-0.967,0.14
		c-0.183-0.048-0.352-0.136-0.493-0.256l-1.854-1.406c-0.243,0.213-0.522,0.47-0.799,0.747l-0.137,0.137
		c-0.28,0.28-0.537,0.56-0.75,0.802l1.419,1.888c0.308,0.409,0.336,0.964,0.071,1.402c-0.022,0.037-0.047,0.073-0.072,0.107
		c-0.573,0.933-0.996,1.944-1.258,3.006c-0.123,0.499-0.538,0.873-1.048,0.943l-2.368,0.325c-0.021,0.322-0.037,0.701-0.037,1.093
		v0.193c0,0.394,0.017,0.774,0.037,1.098l2.338,0.331c0.554,0.078,0.989,0.514,1.066,1.068c0.002,0.016,0.004,0.031,0.006,0.047
		c0.255,1.047,0.668,2.045,1.228,2.97c0.191,0.315,0.233,0.699,0.116,1.048c-0.051,0.153-0.131,0.293-0.233,0.414l-1.4,1.848
		c0.214,0.243,0.47,0.522,0.748,0.8l0.137,0.137c0.28,0.28,0.56,0.537,0.802,0.75l1.888-1.419c0.476-0.358,1.124-0.326,1.561,0.042
		c0.919,0.556,1.911,0.967,2.952,1.224c0.499,0.123,0.873,0.538,0.943,1.047L648.686,119.497z"/>
	<g>
		<path class="st48" d="M17.324,243.784c0,0.385-0.231,0.616-0.616,0.616H7.161v6.583h7.238c0.385,0,0.616,0.231,0.616,0.616v3.85
			c0,0.423-0.231,0.616-0.616,0.616H7.161v9.586c0,0.385-0.231,0.616-0.616,0.616H2.541c-0.424,0-0.616-0.231-0.616-0.616v-25.717
			c0-0.385,0.192-0.616,0.616-0.616h14.167c0.385,0,0.616,0.231,0.616,0.616V243.784z"/>
		<path class="st48" d="M20.02,244.862c0-3.619,1.925-5.544,5.544-5.544h4.312c3.619,0,5.544,1.925,5.544,5.544v15.861
			c0,3.619-1.925,5.543-5.544,5.543h-4.312c-3.619,0-5.544-1.925-5.544-5.543V244.862z M29.029,261.301c1.001,0,1.54-0.5,1.54-1.54
			v-13.936c0-1.001-0.539-1.54-1.54-1.54h-2.464c-1.001,0-1.54,0.539-1.54,1.54v13.936c0,1.04,0.539,1.54,1.54,1.54H29.029z"/>
		<path class="st48" d="M39.27,244.862c0-3.619,1.925-5.544,5.544-5.544h4.312c3.619,0,5.544,1.925,5.544,5.544v15.861
			c0,3.619-1.925,5.543-5.544,5.543h-4.312c-3.619,0-5.544-1.925-5.544-5.543V244.862z M48.279,261.301c1.001,0,1.54-0.5,1.54-1.54
			v-13.936c0-1.001-0.539-1.54-1.54-1.54h-2.464c-1.001,0-1.54,0.539-1.54,1.54v13.936c0,1.04,0.539,1.54,1.54,1.54H48.279z"/>
		<path class="st48" d="M58.52,239.935c0-0.385,0.192-0.616,0.616-0.616h9.239c3.619,0,5.544,1.963,5.544,5.583v15.823
			c0,3.619-1.925,5.543-5.544,5.543h-9.239c-0.424,0-0.616-0.192-0.616-0.616V239.935z M67.298,261.186c1.001,0,1.54-0.5,1.54-1.54
			v-13.667c0-1.039-0.539-1.578-1.54-1.578h-3.542v16.785H67.298z"/>
		<path class="st48" d="M93.901,235.469c0.577,0,0.808,0.347,0.616,0.885l-12.319,32.338c-0.154,0.423-0.423,0.616-0.885,0.616
			h-3.619c-0.578,0-0.809-0.347-0.616-0.886l12.358-32.338c0.154-0.424,0.423-0.616,0.885-0.616H93.901z"/>
		<path class="st48" d="M107.876,239.318c3.619,0,5.544,1.925,5.544,5.544v2.541c0,0.385-0.193,0.616-0.616,0.616h-3.888
			c-0.385,0-0.616-0.231-0.616-0.616v-1.617c0-1.001-0.5-1.54-1.54-1.54h-2.118c-0.962,0-1.54,0.539-1.54,1.54v3.272l9.316,3.003
			c0.654,0.231,1.001,0.693,1.001,1.424v7.238c0,3.619-1.925,5.543-5.544,5.543h-4.312c-3.581,0-5.544-1.925-5.544-5.543v-2.502
			c0-0.424,0.231-0.616,0.616-0.616h3.888c0.423,0,0.616,0.192,0.616,0.616v1.617c0,1.04,0.578,1.54,1.54,1.54h2.079
			c1.001,0,1.54-0.5,1.54-1.54v-3.888l-9.239-3.003c-0.693-0.231-1.04-0.693-1.04-1.424v-6.66c0-3.619,1.963-5.544,5.544-5.544
			H107.876z"/>
		<path class="st48" d="M133.093,239.318c0.385,0,0.616,0.231,0.616,0.616v25.717c0,0.385-0.231,0.616-0.616,0.616h-3.042
			c-0.346,0-0.539-0.154-0.693-0.5l-7.238-14.706v14.591c0,0.385-0.192,0.616-0.616,0.616h-3.619c-0.385,0-0.616-0.231-0.616-0.616
			v-25.717c0-0.385,0.231-0.616,0.616-0.616h3.041c0.347,0,0.539,0.154,0.693,0.5l7.237,14.707v-14.591
			c0-0.385,0.192-0.616,0.616-0.616H133.093z"/>
		<path class="st48" d="M151.227,266.267c-0.347,0-0.539-0.192-0.616-0.539l-1.232-4.851h-7.238l-1.193,4.851
			c-0.077,0.347-0.27,0.539-0.616,0.539h-3.773c-0.423,0-0.616-0.231-0.5-0.654l6.391-25.755c0.077-0.385,0.308-0.539,0.655-0.539
			h5.351c0.346,0,0.577,0.154,0.654,0.539l6.391,25.755c0.116,0.423-0.077,0.654-0.539,0.654H151.227z M145.76,245.94l-2.425,10.471
			h4.851L145.76,245.94z"/>
		<path class="st48" d="M172.902,249.02c0,0.385-0.231,0.616-0.616,0.616h-3.619c-0.424,0-0.616-0.231-0.616-0.616v-3.157
			c0-1.001-0.539-1.54-1.54-1.54h-2.464c-1.039,0-1.54,0.539-1.54,1.54v13.975c0,1.04,0.539,1.54,1.54,1.54h2.464
			c1.001,0,1.54-0.5,1.54-1.54v-3.272c0-0.385,0.192-0.616,0.616-0.616h3.619c0.385,0,0.616,0.231,0.616,0.616v4.158
			c0,3.619-1.963,5.543-5.544,5.543h-4.312c-3.619,0-5.583-1.925-5.583-5.543v-15.861c0-3.619,1.963-5.544,5.583-5.544h4.312
			c3.581,0,5.544,1.925,5.544,5.544V249.02z"/>
		<path class="st48" d="M189.148,266.267c-0.462,0-0.693-0.192-0.886-0.578l-4.851-9.509l-1.424,2.733v6.583
			c0,0.5-0.27,0.77-0.77,0.77h-3.696c-0.5,0-0.77-0.27-0.77-0.77v-25.409c0-0.5,0.27-0.77,0.77-0.77h3.696
			c0.5,0,0.77,0.27,0.77,0.77v10.01l5.929-10.202c0.192-0.347,0.462-0.578,0.885-0.578h4.042c0.578,0,0.847,0.424,0.539,0.924
			l-6.545,11.511l6.968,13.628c0.27,0.5,0.039,0.885-0.578,0.885H189.148z"/>
		<path class="st48" d="M216.869,239.318c3.619,0,5.544,1.925,5.544,5.544v2.541c0,0.385-0.193,0.616-0.616,0.616h-3.888
			c-0.385,0-0.616-0.231-0.616-0.616v-1.617c0-1.001-0.5-1.54-1.54-1.54h-2.118c-0.962,0-1.54,0.539-1.54,1.54v3.272l9.316,3.003
			c0.654,0.231,1.001,0.693,1.001,1.424v7.238c0,3.619-1.925,5.543-5.544,5.543h-4.312c-3.581,0-5.544-1.925-5.544-5.543v-2.502
			c0-0.424,0.231-0.616,0.616-0.616h3.888c0.423,0,0.616,0.192,0.616,0.616v1.617c0,1.04,0.578,1.54,1.54,1.54h2.079
			c1.001,0,1.54-0.5,1.54-1.54v-3.888l-9.239-3.003c-0.693-0.231-1.04-0.693-1.04-1.424v-6.66c0-3.619,1.963-5.544,5.544-5.544
			H216.869z"/>
		<path class="st48" d="M239.121,239.318c0.424,0,0.616,0.231,0.616,0.616v3.85c0,0.385-0.192,0.616-0.616,0.616h-4.466v21.251
			c0,0.423-0.192,0.616-0.616,0.616h-4.004c-0.385,0-0.616-0.192-0.616-0.616V244.4h-4.466c-0.385,0-0.616-0.231-0.616-0.616v-3.85
			c0-0.385,0.231-0.616,0.616-0.616H239.121z"/>
		<path class="st48" d="M254.175,266.267c-0.347,0-0.539-0.192-0.616-0.539l-1.232-4.851h-7.238l-1.193,4.851
			c-0.077,0.347-0.27,0.539-0.616,0.539h-3.773c-0.423,0-0.616-0.231-0.5-0.654l6.391-25.755c0.077-0.385,0.308-0.539,0.655-0.539
			h5.351c0.346,0,0.577,0.154,0.654,0.539l6.391,25.755c0.116,0.423-0.077,0.654-0.539,0.654H254.175z M248.708,245.94
			l-2.425,10.471h4.851L248.708,245.94z"/>
		<path class="st48" d="M272.501,239.318c0.424,0,0.616,0.231,0.616,0.616v3.85c0,0.385-0.192,0.616-0.616,0.616h-4.466v21.251
			c0,0.423-0.192,0.616-0.616,0.616h-4.004c-0.385,0-0.616-0.192-0.616-0.616V244.4h-4.466c-0.385,0-0.616-0.231-0.616-0.616v-3.85
			c0-0.385,0.231-0.616,0.616-0.616H272.501z"/>
		<path class="st48" d="M276.429,266.267c-0.424,0-0.616-0.231-0.616-0.616v-25.717c0-0.385,0.192-0.616,0.616-0.616h4.003
			c0.385,0,0.616,0.231,0.616,0.616v25.717c0,0.385-0.231,0.616-0.616,0.616H276.429z"/>
		<path class="st48" d="M284.898,244.862c0-3.619,1.925-5.544,5.544-5.544h4.312c3.619,0,5.544,1.925,5.544,5.544v15.861
			c0,3.619-1.925,5.543-5.544,5.543h-4.312c-3.619,0-5.544-1.925-5.544-5.543V244.862z M293.907,261.301c1.001,0,1.54-0.5,1.54-1.54
			v-13.936c0-1.001-0.539-1.54-1.54-1.54h-2.464c-1.001,0-1.54,0.539-1.54,1.54v13.936c0,1.04,0.539,1.54,1.54,1.54H293.907z"/>
		<path class="st48" d="M319.971,239.318c0.385,0,0.616,0.231,0.616,0.616v25.717c0,0.385-0.231,0.616-0.616,0.616h-3.042
			c-0.346,0-0.539-0.154-0.693-0.5l-7.238-14.706v14.591c0,0.385-0.192,0.616-0.616,0.616h-3.619c-0.385,0-0.616-0.231-0.616-0.616
			v-25.717c0-0.385,0.231-0.616,0.616-0.616h3.041c0.347,0,0.539,0.154,0.693,0.5l7.237,14.707v-14.591
			c0-0.385,0.192-0.616,0.616-0.616H319.971z"/>
	</g>
	<g>
		<path class="st48" d="M17.363,297.573c0,0.385-0.231,0.616-0.616,0.616h-3.619c-0.424,0-0.616-0.231-0.616-0.616v-3.157
			c0-1.001-0.539-1.54-1.54-1.54H8.508c-1.039,0-1.54,0.539-1.54,1.54v13.975c0,1.04,0.539,1.54,1.54,1.54h2.464
			c1.001,0,1.54-0.5,1.54-1.54v-3.272c0-0.385,0.192-0.616,0.616-0.616h3.619c0.385,0,0.616,0.231,0.616,0.616v4.158
			c0,3.619-1.964,5.544-5.544,5.544H7.508c-3.619,0-5.583-1.925-5.583-5.544v-15.861c0-3.619,1.963-5.544,5.583-5.544h4.312
			c3.58,0,5.544,1.925,5.544,5.544V297.573z"/>
		<path class="st48" d="M31.377,288.488c0-0.385,0.231-0.616,0.616-0.616h3.965c0.462,0,0.655,0.231,0.655,0.616v25.716
			c0,0.385-0.193,0.616-0.655,0.616h-3.965c-0.385,0-0.616-0.231-0.616-0.616v-10.24h-4.928v10.24c0,0.385-0.231,0.616-0.616,0.616
			h-3.965c-0.462,0-0.655-0.231-0.655-0.616v-25.716c0-0.385,0.192-0.616,0.655-0.616h3.965c0.385,0,0.616,0.231,0.616,0.616v10.395
			h4.928V288.488z"/>
		<path class="st48" d="M55.824,292.337c0,0.385-0.154,0.655-0.616,0.655h-9.509v5.929h7.238c0.385,0,0.616,0.231,0.616,0.654v3.811
			c0,0.424-0.231,0.655-0.616,0.655h-7.238v5.698h9.509c0.462,0,0.616,0.192,0.616,0.616v3.85c0,0.385-0.154,0.616-0.616,0.616
			H41.041c-0.347,0-0.578-0.231-0.578-0.616v-25.716c0-0.385,0.231-0.616,0.578-0.616h14.167c0.462,0,0.616,0.231,0.616,0.616
			V292.337z"/>
		<path class="st48" d="M75.113,297.573c0,0.385-0.231,0.616-0.616,0.616h-3.619c-0.424,0-0.616-0.231-0.616-0.616v-3.157
			c0-1.001-0.539-1.54-1.54-1.54h-2.464c-1.039,0-1.54,0.539-1.54,1.54v13.975c0,1.04,0.539,1.54,1.54,1.54h2.464
			c1.001,0,1.54-0.5,1.54-1.54v-3.272c0-0.385,0.192-0.616,0.616-0.616h3.619c0.385,0,0.616,0.231,0.616,0.616v4.158
			c0,3.619-1.963,5.544-5.544,5.544h-4.312c-3.619,0-5.583-1.925-5.583-5.544v-15.861c0-3.619,1.963-5.544,5.583-5.544h4.312
			c3.581,0,5.544,1.925,5.544,5.544V297.573z"/>
		<path class="st48" d="M91.359,314.82c-0.462,0-0.693-0.192-0.886-0.578l-4.851-9.509l-1.424,2.733v6.583
			c0,0.5-0.27,0.77-0.77,0.77h-3.696c-0.5,0-0.77-0.27-0.77-0.77v-25.409c0-0.5,0.27-0.77,0.77-0.77h3.696
			c0.5,0,0.77,0.27,0.77,0.77v10.01l5.929-10.202c0.192-0.347,0.462-0.578,0.885-0.578h4.042c0.578,0,0.847,0.424,0.539,0.924
			l-6.545,11.511l6.968,13.628c0.27,0.5,0.039,0.885-0.578,0.885H91.359z"/>
		<path class="st48" d="M99.599,299.19c0-0.5,0.27-0.77,0.77-0.77h6.083c0.5,0,0.77,0.269,0.77,0.77v3.542
			c0,0.5-0.27,0.77-0.77,0.77h-6.083c-0.5,0-0.77-0.27-0.77-0.77V299.19z"/>
		<path class="st48" d="M111.688,314.82c-0.424,0-0.616-0.231-0.616-0.616v-25.716c0-0.385,0.192-0.616,0.616-0.616h4.003
			c0.385,0,0.616,0.231,0.616,0.616v25.716c0,0.385-0.231,0.616-0.616,0.616H111.688z"/>
		<path class="st48" d="M135.98,287.872c0.385,0,0.616,0.231,0.616,0.616v25.716c0,0.385-0.231,0.616-0.616,0.616h-3.042
			c-0.346,0-0.539-0.154-0.693-0.5l-7.238-14.706v14.59c0,0.385-0.192,0.616-0.616,0.616h-3.619c-0.385,0-0.616-0.231-0.616-0.616
			v-25.716c0-0.385,0.231-0.616,0.616-0.616h3.041c0.347,0,0.539,0.154,0.693,0.5l7.237,14.707v-14.591
			c0-0.385,0.192-0.616,0.616-0.616H135.98z"/>
		<path class="st48" d="M156.577,284.022c0.577,0,0.808,0.347,0.616,0.885l-12.319,32.338c-0.154,0.423-0.423,0.616-0.885,0.616
			h-3.619c-0.577,0-0.808-0.347-0.616-0.886l12.358-32.338c0.154-0.423,0.423-0.616,0.885-0.616H156.577z"/>
		<path class="st48" d="M170.86,288.488c0-0.385,0.231-0.616,0.616-0.616h3.965c0.462,0,0.655,0.231,0.655,0.616v25.716
			c0,0.385-0.193,0.616-0.655,0.616h-3.965c-0.385,0-0.616-0.231-0.616-0.616v-10.24h-4.928v10.24c0,0.385-0.231,0.616-0.616,0.616
			h-3.965c-0.462,0-0.655-0.231-0.655-0.616v-25.716c0-0.385,0.192-0.616,0.655-0.616h3.965c0.385,0,0.616,0.231,0.616,0.616v10.395
			h4.928V288.488z"/>
		<path class="st48" d="M195.308,292.337c0,0.385-0.154,0.655-0.616,0.655h-9.509v5.929h7.238c0.385,0,0.616,0.231,0.616,0.654
			v3.811c0,0.424-0.231,0.655-0.616,0.655h-7.238v5.698h9.509c0.462,0,0.616,0.192,0.616,0.616v3.85
			c0,0.385-0.154,0.616-0.616,0.616h-14.167c-0.347,0-0.578-0.231-0.578-0.616v-25.716c0-0.385,0.231-0.616,0.578-0.616h14.167
			c0.462,0,0.616,0.231,0.616,0.616V292.337z"/>
		<path class="st48" d="M204.394,309.739h7.623c0.423,0,0.616,0.231,0.616,0.616v3.85c0,0.424-0.192,0.616-0.616,0.616h-12.242
			c-0.385,0-0.616-0.192-0.616-0.616v-25.716c0-0.385,0.231-0.616,0.616-0.616h4.003c0.424,0,0.616,0.231,0.616,0.616V309.739z"/>
		<path class="st48" d="M216.483,288.488c0-0.385,0.231-0.616,0.616-0.616h9.239c3.619,0,5.544,1.925,5.544,5.544v7.545
			c0,3.581-1.925,5.505-5.544,5.544l-4.851,0.039v7.699c0,0.385-0.192,0.616-0.616,0.616l-3.772-0.039
			c-0.385,0-0.616-0.231-0.616-0.616V288.488z M225.337,301.539c1.04,0,1.54-0.578,1.54-1.54v-5.621c0-1.001-0.5-1.54-1.54-1.54
			l-3.85,0.039v8.701L225.337,301.539z"/>
		<path class="st48" d="M245.358,288.488c0-0.385,0.192-0.616,0.616-0.616h9.239c3.619,0,5.544,1.963,5.544,5.583v15.822
			c0,3.619-1.925,5.544-5.544,5.544h-9.239c-0.424,0-0.616-0.192-0.616-0.616V288.488z M254.136,309.739c1.001,0,1.54-0.5,1.54-1.54
			v-13.667c0-1.039-0.539-1.578-1.54-1.578h-3.542v16.785H254.136z"/>
		<path class="st48" d="M279.969,292.337c0,0.385-0.154,0.655-0.616,0.655h-9.509v5.929h7.238c0.385,0,0.616,0.231,0.616,0.654
			v3.811c0,0.424-0.231,0.655-0.616,0.655h-7.238v5.698h9.509c0.462,0,0.616,0.192,0.616,0.616v3.85
			c0,0.385-0.154,0.616-0.616,0.616h-14.167c-0.347,0-0.578-0.231-0.578-0.616v-25.716c0-0.385,0.231-0.616,0.578-0.616h14.167
			c0.462,0,0.616,0.231,0.616,0.616V292.337z"/>
		<path class="st48" d="M292.52,287.872c3.619,0,5.544,1.925,5.544,5.544v2.541c0,0.385-0.193,0.616-0.616,0.616h-3.888
			c-0.385,0-0.616-0.231-0.616-0.616v-1.617c0-1.001-0.5-1.54-1.54-1.54h-2.118c-0.962,0-1.54,0.539-1.54,1.54v3.272l9.316,3.003
			c0.654,0.231,1.001,0.693,1.001,1.424v7.237c0,3.619-1.925,5.544-5.544,5.544h-4.312c-3.581,0-5.544-1.925-5.544-5.544v-2.502
			c0-0.424,0.231-0.616,0.616-0.616h3.888c0.423,0,0.616,0.192,0.616,0.616v1.617c0,1.04,0.578,1.54,1.54,1.54h2.079
			c1.001,0,1.54-0.5,1.54-1.54v-3.888l-9.239-3.003c-0.693-0.231-1.04-0.693-1.04-1.424v-6.66c0-3.619,1.963-5.544,5.544-5.544
			H292.52z"/>
		<path class="st48" d="M314.311,314.82c-0.462,0-0.693-0.192-0.886-0.578l-4.851-9.509l-1.424,2.733v6.583
			c0,0.5-0.27,0.77-0.77,0.77h-3.696c-0.5,0-0.77-0.27-0.77-0.77v-25.409c0-0.5,0.27-0.77,0.77-0.77h3.696
			c0.5,0,0.77,0.27,0.77,0.77v10.01l5.929-10.202c0.192-0.347,0.462-0.578,0.885-0.578h4.042c0.578,0,0.847,0.424,0.539,0.924
			L312,300.307l6.968,13.628c0.27,0.5,0.039,0.885-0.578,0.885H314.311z"/>
	</g>
	<g>
		<path class="st48" d="M11.78,190.764c3.619,0,5.544,1.925,5.544,5.544v2.541c0,0.385-0.193,0.616-0.616,0.616H12.82
			c-0.385,0-0.616-0.231-0.616-0.616v-1.617c0-1.001-0.5-1.54-1.54-1.54H8.546c-0.962,0-1.54,0.539-1.54,1.54v3.272l9.316,3.003
			c0.654,0.231,1.001,0.693,1.001,1.424v7.237c0,3.619-1.925,5.544-5.544,5.544H7.469c-3.581,0-5.544-1.925-5.544-5.544v-2.502
			c0-0.424,0.231-0.616,0.616-0.616h3.888c0.423,0,0.616,0.192,0.616,0.616v1.617c0,1.04,0.578,1.54,1.54,1.54h2.079
			c1.001,0,1.54-0.5,1.54-1.54v-3.888l-9.239-3.003c-0.693-0.231-1.04-0.693-1.04-1.424v-6.66c0-3.619,1.963-5.544,5.544-5.544
			H11.78z"/>
		<path class="st48" d="M34.033,190.764c0.424,0,0.616,0.231,0.616,0.616v3.85c0,0.385-0.192,0.616-0.616,0.616h-4.466v21.25
			c0,0.424-0.192,0.616-0.616,0.616h-4.004c-0.385,0-0.616-0.192-0.616-0.616v-21.25h-4.466c-0.385,0-0.616-0.231-0.616-0.616v-3.85
			c0-0.385,0.231-0.616,0.616-0.616H34.033z"/>
		<path class="st48" d="M49.087,217.713c-0.347,0-0.539-0.192-0.616-0.539l-1.232-4.851h-7.238l-1.193,4.851
			c-0.077,0.347-0.27,0.539-0.616,0.539h-3.773c-0.423,0-0.616-0.231-0.5-0.654l6.391-25.755c0.077-0.385,0.308-0.539,0.655-0.539
			h5.351c0.346,0,0.578,0.154,0.654,0.539l6.391,25.755c0.116,0.423-0.077,0.654-0.539,0.654H49.087z M43.62,197.386l-2.425,10.472
			h4.851L43.62,197.386z"/>
		<path class="st48" d="M57.095,217.713c-0.424,0-0.616-0.231-0.616-0.616V191.38c0-0.385,0.192-0.616,0.616-0.616h4.003
			c0.385,0,0.616,0.231,0.616,0.616v25.716c0,0.385-0.231,0.616-0.616,0.616H57.095z"/>
		<path class="st48" d="M80.964,204.046c0,2.233-0.731,3.812-2.156,4.697l2.002,8.277c0.116,0.462-0.115,0.693-0.539,0.693h-3.773
			c-0.385,0-0.578-0.192-0.655-0.539l-1.848-7.584H70.57v7.507c0,0.385-0.231,0.616-0.616,0.616h-3.772
			c-0.385,0-0.616-0.231-0.616-0.616V191.38c0-0.385,0.231-0.616,0.616-0.616h9.239c3.619,0,5.544,1.925,5.544,5.544V204.046z
			 M74.419,204.624c1.001,0,1.54-0.539,1.54-1.54v-5.813c0-1.001-0.539-1.54-1.54-1.54h-3.85v8.893H74.419z"/>
		<path class="st48" d="M94.67,190.764c3.619,0,5.544,1.925,5.544,5.544v2.541c0,0.385-0.193,0.616-0.616,0.616H95.71
			c-0.385,0-0.616-0.231-0.616-0.616v-1.617c0-1.001-0.5-1.54-1.54-1.54h-2.118c-0.962,0-1.54,0.539-1.54,1.54v3.272l9.316,3.003
			c0.654,0.231,1.001,0.693,1.001,1.424v7.237c0,3.619-1.925,5.544-5.544,5.544h-4.312c-3.581,0-5.544-1.925-5.544-5.544v-2.502
			c0-0.424,0.231-0.616,0.616-0.616h3.888c0.423,0,0.616,0.192,0.616,0.616v1.617c0,1.04,0.578,1.54,1.54,1.54h2.079
			c1.001,0,1.54-0.5,1.54-1.54v-3.888l-9.239-3.003c-0.693-0.231-1.04-0.693-1.04-1.424v-6.66c0-3.619,1.963-5.544,5.544-5.544
			H94.67z"/>
	</g>
	<g>
		<path class="st48" d="M17.286,146.677c0,0.385-0.154,0.655-0.616,0.655H7.161v5.929h7.238c0.385,0,0.616,0.231,0.616,0.654v3.811
			c0,0.424-0.231,0.655-0.616,0.655H7.161v5.698h9.509c0.462,0,0.616,0.192,0.616,0.616v3.85c0,0.385-0.154,0.616-0.616,0.616H2.502
			c-0.347,0-0.578-0.231-0.578-0.616v-25.717c0-0.385,0.231-0.616,0.578-0.616h14.167c0.462,0,0.616,0.231,0.616,0.616V146.677z"/>
		<path class="st48" d="M26.372,164.078h7.623c0.423,0,0.616,0.231,0.616,0.616v3.85c0,0.423-0.192,0.616-0.616,0.616H21.752
			c-0.385,0-0.616-0.192-0.616-0.616v-25.717c0-0.385,0.231-0.616,0.616-0.616h4.003c0.424,0,0.616,0.231,0.616,0.616V164.078z"/>
		<path class="st48" d="M53.437,146.677c0,0.385-0.154,0.655-0.616,0.655h-9.509v5.929h7.238c0.385,0,0.616,0.231,0.616,0.654v3.811
			c0,0.424-0.231,0.655-0.616,0.655h-7.238v5.698h9.509c0.462,0,0.616,0.192,0.616,0.616v3.85c0,0.385-0.154,0.616-0.616,0.616
			H38.654c-0.347,0-0.578-0.231-0.578-0.616v-25.717c0-0.385,0.231-0.616,0.578-0.616h14.167c0.462,0,0.616,0.231,0.616,0.616
			V146.677z"/>
		<path class="st48" d="M73.61,142.211c0.578,0,0.809,0.308,0.693,0.847l-6.121,25.409c-0.116,0.462-0.385,0.693-0.847,0.693h-3.85
			c-0.462,0-0.731-0.231-0.847-0.693l-6.083-25.409c-0.115-0.539,0.116-0.847,0.693-0.847h3.503c0.462,0,0.731,0.231,0.847,0.693
			l3.811,17.401l3.85-17.401c0.115-0.462,0.385-0.693,0.847-0.693H73.61z"/>
		<path class="st48" d="M87.24,169.16c-0.347,0-0.539-0.192-0.616-0.539l-1.232-4.851h-7.238l-1.193,4.851
			c-0.077,0.347-0.27,0.539-0.616,0.539h-3.773c-0.423,0-0.616-0.231-0.5-0.654l6.391-25.755c0.077-0.385,0.308-0.539,0.655-0.539
			h5.351c0.346,0,0.577,0.154,0.654,0.539l6.391,25.755c0.116,0.423-0.077,0.654-0.539,0.654H87.24z M81.773,148.833l-2.425,10.471
			h4.851L81.773,148.833z"/>
		<path class="st48" d="M105.565,142.211c0.424,0,0.616,0.231,0.616,0.616v3.85c0,0.385-0.192,0.616-0.616,0.616H101.1v21.251
			c0,0.423-0.192,0.616-0.616,0.616H96.48c-0.385,0-0.616-0.192-0.616-0.616v-21.251h-4.466c-0.385,0-0.616-0.231-0.616-0.616v-3.85
			c0-0.385,0.231-0.616,0.616-0.616H105.565z"/>
		<path class="st48" d="M108.877,147.755c0-3.619,1.925-5.544,5.544-5.544h4.312c3.619,0,5.544,1.925,5.544,5.544v15.861
			c0,3.619-1.925,5.543-5.544,5.543h-4.312c-3.619,0-5.544-1.925-5.544-5.543V147.755z M117.886,164.193c1.001,0,1.54-0.5,1.54-1.54
			v-13.936c0-1.001-0.539-1.54-1.54-1.54h-2.464c-1.001,0-1.54,0.539-1.54,1.54v13.936c0,1.04,0.539,1.54,1.54,1.54H117.886z"/>
		<path class="st48" d="M143.527,155.493c0,2.233-0.731,3.812-2.156,4.697l2.002,8.277c0.116,0.462-0.115,0.693-0.539,0.693h-3.773
			c-0.385,0-0.578-0.192-0.655-0.539l-1.848-7.584h-3.426v7.507c0,0.385-0.231,0.616-0.616,0.616h-3.772
			c-0.385,0-0.616-0.231-0.616-0.616v-25.717c0-0.385,0.231-0.616,0.616-0.616h9.239c3.619,0,5.544,1.925,5.544,5.544V155.493z
			 M136.982,156.07c1.001,0,1.54-0.539,1.54-1.54v-5.813c0-1.001-0.539-1.54-1.54-1.54h-3.85v8.893H136.982z"/>
	</g>
	<g>
		<g>
			<path class="st48" d="M410.089,94.273c0-0.385,0.231-0.616,0.616-0.616h3.965c0.462,0,0.655,0.231,0.655,0.616v25.716
				c0,0.385-0.193,0.616-0.655,0.616h-3.965c-0.385,0-0.616-0.231-0.616-0.616v-10.24h-4.928v10.24c0,0.385-0.231,0.616-0.616,0.616
				h-3.965c-0.462,0-0.655-0.231-0.655-0.616V94.273c0-0.385,0.192-0.616,0.655-0.616h3.965c0.385,0,0.616,0.231,0.616,0.616v10.395
				h4.928V94.273z"/>
			<path class="st48" d="M432.843,120.605c-0.347,0-0.539-0.192-0.616-0.539l-1.232-4.851h-7.238l-1.193,4.851
				c-0.077,0.347-0.27,0.539-0.616,0.539h-3.773c-0.423,0-0.616-0.231-0.5-0.654l6.391-25.755c0.077-0.385,0.308-0.539,0.655-0.539
				h5.351c0.346,0,0.578,0.154,0.654,0.539l6.391,25.755c0.116,0.423-0.077,0.654-0.539,0.654H432.843z M427.376,100.278
				l-2.425,10.472h4.851L427.376,100.278z"/>
			<path class="st48" d="M454.518,103.358c0,0.385-0.231,0.616-0.616,0.616h-3.619c-0.424,0-0.616-0.231-0.616-0.616v-3.157
				c0-1.001-0.539-1.54-1.54-1.54h-2.464c-1.039,0-1.54,0.539-1.54,1.54v13.975c0,1.04,0.539,1.54,1.54,1.54h2.464
				c1.001,0,1.54-0.5,1.54-1.54v-3.272c0-0.385,0.192-0.616,0.616-0.616h3.619c0.385,0,0.616,0.231,0.616,0.616v4.158
				c0,3.619-1.964,5.544-5.544,5.544h-4.312c-3.619,0-5.583-1.925-5.583-5.544V99.201c0-3.619,1.963-5.544,5.583-5.544h4.312
				c3.58,0,5.544,1.925,5.544,5.544V103.358z"/>
			<path class="st48" d="M470.764,120.605c-0.462,0-0.693-0.192-0.886-0.578l-4.851-9.509l-1.424,2.733v6.583
				c0,0.5-0.27,0.77-0.77,0.77h-3.696c-0.5,0-0.77-0.27-0.77-0.77V94.427c0-0.5,0.27-0.77,0.77-0.77h3.696
				c0.5,0,0.77,0.27,0.77,0.77v10.01l5.929-10.202c0.192-0.347,0.462-0.578,0.885-0.578h4.042c0.578,0,0.847,0.424,0.539,0.924
				l-6.545,11.511l6.968,13.628c0.27,0.5,0.039,0.885-0.578,0.885H470.764z"/>
			<path class="st48" d="M479.62,120.605c-0.424,0-0.616-0.231-0.616-0.616V94.273c0-0.385,0.192-0.616,0.616-0.616h4.003
				c0.385,0,0.616,0.231,0.616,0.616v25.716c0,0.385-0.231,0.616-0.616,0.616H479.62z"/>
			<path class="st48" d="M503.912,93.657c0.385,0,0.616,0.231,0.616,0.616v25.716c0,0.385-0.231,0.616-0.616,0.616h-3.041
				c-0.347,0-0.539-0.154-0.693-0.5l-7.237-14.706v14.59c0,0.385-0.192,0.616-0.616,0.616h-3.619c-0.385,0-0.615-0.231-0.615-0.616
				V94.273c0-0.385,0.23-0.616,0.615-0.616h3.042c0.346,0,0.539,0.154,0.692,0.5l7.238,14.707V94.273
				c0-0.385,0.192-0.616,0.615-0.616H503.912z"/>
			<path class="st48" d="M508.379,99.201c0-3.619,1.925-5.544,5.544-5.544h4.312c3.58,0,5.544,1.925,5.544,5.544v2.849
				c0,0.385-0.231,0.616-0.616,0.616h-3.619c-0.423,0-0.615-0.231-0.615-0.616v-1.886c0-1.001-0.539-1.54-1.54-1.54h-2.464
				c-1.04,0-1.54,0.539-1.54,1.54v13.936c0,1.04,0.539,1.54,1.54,1.54h2.464c1.001,0,1.54-0.5,1.54-1.54v-3.349h-2.002
				c-0.424,0-0.616-0.231-0.616-0.616v-3.85c0-0.423,0.192-0.616,0.616-0.616h6.236c0.385,0,0.616,0.192,0.616,0.616v8.777
				c0,3.619-1.964,5.544-5.544,5.544h-4.312c-3.619,0-5.544-1.925-5.544-5.544V99.201z"/>
			<path class="st48" d="M552.653,106.938c0,2.233-0.731,3.812-2.156,4.697l2.002,8.277c0.115,0.462-0.115,0.693-0.539,0.693h-3.772
				c-0.385,0-0.577-0.192-0.654-0.539l-1.849-7.584h-3.426v7.507c0,0.385-0.231,0.616-0.616,0.616h-3.772
				c-0.385,0-0.616-0.231-0.616-0.616V94.273c0-0.385,0.231-0.616,0.616-0.616h9.239c3.619,0,5.544,1.925,5.544,5.544V106.938z
				 M546.108,107.516c1.001,0,1.54-0.539,1.54-1.54v-5.813c0-1.001-0.539-1.54-1.54-1.54h-3.85v8.893H546.108z"/>
			<path class="st48" d="M556.504,99.201c0-3.619,1.925-5.544,5.544-5.544h4.312c3.619,0,5.544,1.925,5.544,5.544v15.861
				c0,3.619-1.925,5.544-5.544,5.544h-4.312c-3.619,0-5.544-1.925-5.544-5.544V99.201z M565.513,115.639c1.001,0,1.54-0.5,1.54-1.54
				v-13.936c0-1.001-0.539-1.54-1.54-1.54h-2.464c-1.001,0-1.54,0.539-1.54,1.54v13.936c0,1.04,0.539,1.54,1.54,1.54H565.513z"/>
			<path class="st48" d="M575.754,99.201c0-3.619,1.925-5.544,5.544-5.544h4.312c3.619,0,5.544,1.925,5.544,5.544v15.861
				c0,3.619-1.925,5.544-5.544,5.544h-4.312c-3.619,0-5.544-1.925-5.544-5.544V99.201z M584.763,115.639c1.001,0,1.54-0.5,1.54-1.54
				v-13.936c0-1.001-0.539-1.54-1.54-1.54h-2.464c-1.001,0-1.54,0.539-1.54,1.54v13.936c0,1.04,0.539,1.54,1.54,1.54H584.763z"/>
			<path class="st48" d="M616.178,93.657c0.501,0,0.771,0.27,0.771,0.77v25.409c0,0.5-0.27,0.77-0.771,0.77h-3.58
				c-0.501,0-0.771-0.27-0.771-0.77v-15.129h-0.269l-3.619,15.245c-0.115,0.423-0.385,0.654-0.847,0.654h-2.271
				c-0.462,0-0.731-0.231-0.848-0.654l-3.618-15.245h-0.27v15.129c0,0.5-0.27,0.77-0.771,0.77h-3.541
				c-0.501,0-0.771-0.27-0.771-0.77V94.427c0-0.5,0.27-0.77,0.771-0.77h5.081c0.462,0,0.731,0.231,0.848,0.655l4.272,17.17
				l4.273-17.17c0.115-0.424,0.385-0.655,0.847-0.655H616.178z"/>
		</g>
	</g>
	<g>
		<path class="st48" d="M399.925,239.935c0-0.385,0.192-0.616,0.616-0.616h9.239c3.619,0,5.544,1.963,5.544,5.583v15.823
			c0,3.619-1.925,5.543-5.544,5.543h-9.239c-0.424,0-0.616-0.192-0.616-0.616V239.935z M408.703,261.186c1,0,1.54-0.5,1.54-1.54
			v-13.667c0-1.039-0.539-1.578-1.54-1.578h-3.542v16.785H408.703z"/>
		<path class="st48" d="M434.536,243.784c0,0.385-0.154,0.655-0.616,0.655h-9.509v5.929h7.238c0.385,0,0.616,0.231,0.616,0.654
			v3.811c0,0.424-0.231,0.655-0.616,0.655h-7.238v5.698h9.509c0.462,0,0.616,0.192,0.616,0.616v3.85
			c0,0.385-0.154,0.616-0.616,0.616h-14.167c-0.347,0-0.578-0.231-0.578-0.616v-25.717c0-0.385,0.231-0.616,0.578-0.616h14.167
			c0.462,0,0.616,0.231,0.616,0.616V243.784z"/>
		<path class="st48" d="M459.56,239.318c0.5,0,0.77,0.27,0.77,0.77v25.409c0,0.5-0.27,0.77-0.77,0.77h-3.58
			c-0.5,0-0.77-0.27-0.77-0.77v-15.129h-0.27l-3.619,15.245c-0.116,0.423-0.385,0.654-0.847,0.654h-2.271
			c-0.462,0-0.731-0.231-0.847-0.654l-3.619-15.245h-0.269v15.129c0,0.5-0.27,0.77-0.77,0.77h-3.542c-0.5,0-0.77-0.27-0.77-0.77
			v-25.409c0-0.5,0.27-0.77,0.77-0.77h5.082c0.462,0,0.731,0.231,0.847,0.655l4.273,17.17l4.273-17.17
			c0.116-0.424,0.385-0.655,0.847-0.655H459.56z"/>
		<path class="st48" d="M464.181,244.862c0-3.619,1.925-5.544,5.544-5.544h4.312c3.619,0,5.544,1.925,5.544,5.544v15.861
			c0,3.619-1.925,5.543-5.544,5.543h-4.312c-3.619,0-5.544-1.925-5.544-5.543V244.862z M473.19,261.301c1.001,0,1.54-0.5,1.54-1.54
			v-13.936c0-1.001-0.539-1.54-1.54-1.54h-2.464c-1.001,0-1.54,0.539-1.54,1.54v13.936c0,1.04,0.539,1.54,1.54,1.54H473.19z"/>
		<path class="st48" d="M493.287,239.318c3.618,0,5.543,1.925,5.543,5.544v2.541c0,0.385-0.192,0.616-0.615,0.616h-3.889
			c-0.385,0-0.616-0.231-0.616-0.616v-1.617c0-1.001-0.5-1.54-1.54-1.54h-2.117c-0.962,0-1.54,0.539-1.54,1.54v3.272l9.316,3.003
			c0.655,0.231,1.001,0.693,1.001,1.424v7.238c0,3.619-1.925,5.543-5.543,5.543h-4.313c-3.58,0-5.543-1.925-5.543-5.543v-2.502
			c0-0.424,0.231-0.616,0.616-0.616h3.888c0.424,0,0.616,0.192,0.616,0.616v1.617c0,1.04,0.577,1.54,1.54,1.54h2.078
			c1.001,0,1.54-0.5,1.54-1.54v-3.888l-9.239-3.003c-0.693-0.231-1.04-0.693-1.04-1.424v-6.66c0-3.619,1.963-5.544,5.543-5.544
			H493.287z"/>
	</g>
	<g>
		<path class="st48" d="M425.333,190.764c0.539,0,0.809,0.308,0.731,0.809l-3.696,25.447c-0.077,0.462-0.347,0.693-0.847,0.693
			h-4.158c-0.462,0-0.731-0.231-0.847-0.693l-3.542-15.784l-3.58,15.784c-0.116,0.462-0.385,0.693-0.847,0.693h-4.235
			c-0.5,0-0.77-0.231-0.847-0.731l-3.542-25.409c-0.077-0.5,0.192-0.809,0.731-0.809h3.619c0.462,0,0.731,0.231,0.808,0.731
			l1.887,16.092h0.192l3.773-16.169c0.115-0.424,0.385-0.655,0.847-0.655h2.349c0.462,0,0.731,0.231,0.847,0.655l3.773,16.169h0.192
			l1.963-16.092c0.077-0.5,0.308-0.731,0.809-0.731H425.333z"/>
		<path class="st48" d="M429.454,196.308c0-3.619,1.925-5.544,5.544-5.544h4.312c3.619,0,5.544,1.925,5.544,5.544v15.861
			c0,3.619-1.925,5.544-5.544,5.544h-4.312c-3.619,0-5.544-1.925-5.544-5.544V196.308z M438.463,212.747c1.001,0,1.54-0.5,1.54-1.54
			v-13.936c0-1.001-0.539-1.54-1.54-1.54h-2.464c-1.001,0-1.54,0.539-1.54,1.54v13.936c0,1.04,0.539,1.54,1.54,1.54H438.463z"/>
		<path class="st48" d="M464.104,204.046c0,2.233-0.731,3.812-2.156,4.697l2.002,8.277c0.116,0.462-0.115,0.693-0.539,0.693h-3.772
			c-0.385,0-0.578-0.192-0.655-0.539l-1.848-7.584h-3.426v7.507c0,0.385-0.231,0.616-0.616,0.616h-3.772
			c-0.385,0-0.616-0.231-0.616-0.616V191.38c0-0.385,0.231-0.616,0.616-0.616h9.239c3.619,0,5.544,1.925,5.544,5.544V204.046z
			 M457.559,204.624c1.001,0,1.54-0.539,1.54-1.54v-5.813c0-1.001-0.539-1.54-1.54-1.54h-3.85v8.893H457.559z"/>
		<path class="st48" d="M480.351,217.713c-0.462,0-0.693-0.192-0.886-0.578l-4.851-9.509l-1.424,2.733v6.583
			c0,0.5-0.27,0.77-0.77,0.77h-3.696c-0.5,0-0.77-0.27-0.77-0.77v-25.409c0-0.5,0.27-0.77,0.77-0.77h3.696
			c0.5,0,0.77,0.27,0.77,0.77v10.01l5.929-10.202c0.192-0.347,0.462-0.578,0.885-0.578h4.042c0.578,0,0.847,0.424,0.539,0.924
			l-6.545,11.511l6.968,13.628c0.27,0.5,0.039,0.885-0.578,0.885H480.351z"/>
		<path class="st48" d="M498.445,190.764c3.619,0,5.544,1.925,5.544,5.544v2.541c0,0.385-0.192,0.616-0.616,0.616h-3.889
			c-0.385,0-0.615-0.231-0.615-0.616v-1.617c0-1.001-0.501-1.54-1.54-1.54h-2.117c-0.963,0-1.54,0.539-1.54,1.54v3.272l9.316,3.003
			c0.654,0.231,1.001,0.693,1.001,1.424v7.237c0,3.619-1.925,5.544-5.544,5.544h-4.312c-3.58,0-5.544-1.925-5.544-5.544v-2.502
			c0-0.424,0.231-0.616,0.616-0.616h3.888c0.424,0,0.616,0.192,0.616,0.616v1.617c0,1.04,0.578,1.54,1.54,1.54h2.079
			c1.001,0,1.54-0.5,1.54-1.54v-3.888l-9.24-3.003c-0.692-0.231-1.039-0.693-1.039-1.424v-6.66c0-3.619,1.964-5.544,5.544-5.544
			H498.445z"/>
		<path class="st48" d="M518.003,191.38c0-0.385,0.231-0.616,0.616-0.616h3.966c0.462,0,0.654,0.231,0.654,0.616v25.716
			c0,0.385-0.192,0.616-0.654,0.616h-3.966c-0.385,0-0.616-0.231-0.616-0.616v-10.24h-4.928v10.24c0,0.385-0.23,0.616-0.615,0.616
			h-3.966c-0.462,0-0.654-0.231-0.654-0.616V191.38c0-0.385,0.192-0.616,0.654-0.616h3.966c0.385,0,0.615,0.231,0.615,0.616v10.395
			h4.928V191.38z"/>
		<path class="st48" d="M527.09,196.308c0-3.619,1.925-5.544,5.544-5.544h4.312c3.619,0,5.544,1.925,5.544,5.544v15.861
			c0,3.619-1.925,5.544-5.544,5.544h-4.312c-3.619,0-5.544-1.925-5.544-5.544V196.308z M536.099,212.747c1.001,0,1.54-0.5,1.54-1.54
			v-13.936c0-1.001-0.539-1.54-1.54-1.54h-2.464c-1.001,0-1.54,0.539-1.54,1.54v13.936c0,1.04,0.539,1.54,1.54,1.54H536.099z"/>
		<path class="st48" d="M546.34,191.38c0-0.385,0.231-0.616,0.616-0.616h9.239c3.619,0,5.544,1.925,5.544,5.544v7.545
			c0,3.581-1.925,5.505-5.544,5.544l-4.851,0.039v7.699c0,0.385-0.192,0.616-0.616,0.616l-3.772-0.039
			c-0.385,0-0.616-0.231-0.616-0.616V191.38z M555.194,204.431c1.04,0,1.54-0.578,1.54-1.54v-5.621c0-1.001-0.5-1.54-1.54-1.54
			l-3.85,0.039v8.701L555.194,204.431z"/>
		<path class="st48" d="M575.445,190.764c3.619,0,5.544,1.925,5.544,5.544v2.541c0,0.385-0.192,0.616-0.616,0.616h-3.889
			c-0.385,0-0.615-0.231-0.615-0.616v-1.617c0-1.001-0.501-1.54-1.54-1.54h-2.117c-0.963,0-1.54,0.539-1.54,1.54v3.272l9.316,3.003
			c0.654,0.231,1.001,0.693,1.001,1.424v7.237c0,3.619-1.925,5.544-5.544,5.544h-4.312c-3.58,0-5.544-1.925-5.544-5.544v-2.502
			c0-0.424,0.231-0.616,0.616-0.616h3.888c0.424,0,0.616,0.192,0.616,0.616v1.617c0,1.04,0.578,1.54,1.54,1.54h2.079
			c1.001,0,1.54-0.5,1.54-1.54v-3.888l-9.24-3.003c-0.692-0.231-1.039-0.693-1.039-1.424v-6.66c0-3.619,1.964-5.544,5.544-5.544
			H575.445z"/>
	</g>
	<g>
		<path class="st48" d="M414.362,169.16c-0.347,0-0.539-0.192-0.616-0.539l-1.232-4.851h-7.238l-1.193,4.851
			c-0.077,0.347-0.27,0.539-0.616,0.539h-3.773c-0.423,0-0.616-0.231-0.5-0.654l6.391-25.755c0.077-0.385,0.308-0.539,0.655-0.539
			h5.351c0.346,0,0.577,0.154,0.654,0.539l6.391,25.755c0.116,0.423-0.077,0.654-0.539,0.654H414.362z M408.895,148.833
			l-2.425,10.471h4.851L408.895,148.833z"/>
		<path class="st48" d="M436.037,151.913c0,0.385-0.231,0.616-0.616,0.616h-3.619c-0.424,0-0.616-0.231-0.616-0.616v-3.157
			c0-1.001-0.539-1.54-1.54-1.54h-2.464c-1.039,0-1.54,0.539-1.54,1.54v13.975c0,1.04,0.539,1.54,1.54,1.54h2.464
			c1.001,0,1.54-0.5,1.54-1.54v-3.272c0-0.385,0.192-0.616,0.616-0.616h3.619c0.385,0,0.616,0.231,0.616,0.616v4.158
			c0,3.619-1.963,5.543-5.544,5.543h-4.312c-3.619,0-5.583-1.925-5.583-5.543v-15.861c0-3.619,1.963-5.544,5.583-5.544h4.312
			c3.581,0,5.544,1.925,5.544,5.544V151.913z"/>
		<path class="st48" d="M453.9,142.211c0.424,0,0.616,0.231,0.616,0.616v3.85c0,0.385-0.192,0.616-0.616,0.616h-4.466v21.251
			c0,0.423-0.192,0.616-0.616,0.616h-4.004c-0.385,0-0.616-0.192-0.616-0.616v-21.251h-4.466c-0.385,0-0.616-0.231-0.616-0.616
			v-3.85c0-0.385,0.231-0.616,0.616-0.616H453.9z"/>
		<path class="st48" d="M457.828,169.16c-0.424,0-0.616-0.231-0.616-0.616v-25.717c0-0.385,0.192-0.616,0.616-0.616h4.003
			c0.385,0,0.616,0.231,0.616,0.616v25.717c0,0.385-0.231,0.616-0.616,0.616H457.828z"/>
		<path class="st48" d="M482.236,142.211c0.578,0,0.809,0.308,0.693,0.847l-6.121,25.409c-0.116,0.462-0.385,0.693-0.847,0.693
			h-3.85c-0.462,0-0.731-0.231-0.847-0.693l-6.083-25.409c-0.115-0.539,0.116-0.847,0.693-0.847h3.503
			c0.462,0,0.731,0.231,0.847,0.693l3.811,17.401l3.85-17.401c0.115-0.462,0.385-0.693,0.847-0.693H482.236z"/>
		<path class="st48" d="M486.665,169.16c-0.424,0-0.616-0.231-0.616-0.616v-25.717c0-0.385,0.192-0.616,0.616-0.616h4.003
			c0.385,0,0.616,0.231,0.616,0.616v25.717c0,0.385-0.231,0.616-0.616,0.616H486.665z"/>
		<path class="st48" d="M508.763,142.211c0.423,0,0.615,0.231,0.615,0.616v3.85c0,0.385-0.192,0.616-0.615,0.616h-4.466v21.251
			c0,0.423-0.192,0.616-0.616,0.616h-4.004c-0.385,0-0.616-0.192-0.616-0.616v-21.251h-4.466c-0.385,0-0.615-0.231-0.615-0.616
			v-3.85c0-0.385,0.23-0.616,0.615-0.616H508.763z"/>
		<path class="st48" d="M512.69,169.16c-0.424,0-0.616-0.231-0.616-0.616v-25.717c0-0.385,0.192-0.616,0.616-0.616h4.004
			c0.385,0,0.615,0.231,0.615,0.616v25.717c0,0.385-0.23,0.616-0.615,0.616H512.69z"/>
		<path class="st48" d="M536.52,146.677c0,0.385-0.153,0.655-0.615,0.655h-9.51v5.929h7.238c0.385,0,0.616,0.231,0.616,0.654v3.811
			c0,0.424-0.231,0.655-0.616,0.655h-7.238v5.698h9.51c0.462,0,0.615,0.192,0.615,0.616v3.85c0,0.385-0.153,0.616-0.615,0.616
			h-14.168c-0.346,0-0.577-0.231-0.577-0.616v-25.717c0-0.385,0.231-0.616,0.577-0.616h14.168c0.462,0,0.615,0.231,0.615,0.616
			V146.677z"/>
		<path class="st48" d="M549.071,142.211c3.619,0,5.544,1.925,5.544,5.544v2.541c0,0.385-0.192,0.616-0.616,0.616h-3.889
			c-0.385,0-0.615-0.231-0.615-0.616v-1.617c0-1.001-0.501-1.54-1.54-1.54h-2.117c-0.963,0-1.54,0.539-1.54,1.54v3.272l9.316,3.003
			c0.654,0.231,1.001,0.693,1.001,1.424v7.238c0,3.619-1.925,5.543-5.544,5.543h-4.312c-3.58,0-5.544-1.925-5.544-5.543v-2.502
			c0-0.424,0.231-0.616,0.616-0.616h3.888c0.424,0,0.616,0.192,0.616,0.616v1.617c0,1.04,0.578,1.54,1.54,1.54h2.079
			c1.001,0,1.54-0.5,1.54-1.54v-3.888l-9.24-3.003c-0.692-0.231-1.039-0.693-1.039-1.424v-6.66c0-3.619,1.964-5.544,5.544-5.544
			H549.071z"/>
		<path class="st48" d="M583.49,155.493c0,2.233-0.731,3.812-2.156,4.697l2.002,8.277c0.115,0.462-0.115,0.693-0.539,0.693h-3.772
			c-0.385,0-0.577-0.192-0.654-0.539l-1.849-7.584h-3.426v7.507c0,0.385-0.231,0.616-0.616,0.616h-3.772
			c-0.385,0-0.616-0.231-0.616-0.616v-25.717c0-0.385,0.231-0.616,0.616-0.616h9.239c3.619,0,5.544,1.925,5.544,5.544V155.493z
			 M576.945,156.07c1.001,0,1.54-0.539,1.54-1.54v-5.813c0-1.001-0.539-1.54-1.54-1.54h-3.85v8.893H576.945z"/>
		<path class="st48" d="M587.341,147.755c0-3.619,1.925-5.544,5.544-5.544h4.312c3.619,0,5.544,1.925,5.544,5.544v15.861
			c0,3.619-1.925,5.543-5.544,5.543h-4.312c-3.619,0-5.544-1.925-5.544-5.543V147.755z M596.35,164.193c1.001,0,1.54-0.5,1.54-1.54
			v-13.936c0-1.001-0.539-1.54-1.54-1.54h-2.464c-1.001,0-1.54,0.539-1.54,1.54v13.936c0,1.04,0.539,1.54,1.54,1.54H596.35z"/>
		<path class="st48" d="M606.591,147.755c0-3.619,1.925-5.544,5.544-5.544h4.312c3.619,0,5.544,1.925,5.544,5.544v15.861
			c0,3.619-1.925,5.543-5.544,5.543h-4.312c-3.619,0-5.544-1.925-5.544-5.543V147.755z M615.6,164.193c1.001,0,1.54-0.5,1.54-1.54
			v-13.936c0-1.001-0.539-1.54-1.54-1.54h-2.464c-1.001,0-1.54,0.539-1.54,1.54v13.936c0,1.04,0.539,1.54,1.54,1.54H615.6z"/>
		<path class="st48" d="M647.015,142.211c0.501,0,0.771,0.27,0.771,0.77v25.409c0,0.5-0.27,0.77-0.771,0.77h-3.58
			c-0.501,0-0.771-0.27-0.771-0.77V153.26h-0.27l-3.618,15.245c-0.115,0.423-0.385,0.654-0.847,0.654h-2.271
			c-0.462,0-0.731-0.231-0.848-0.654l-3.618-15.245h-0.27v15.129c0,0.5-0.27,0.77-0.771,0.77h-3.541c-0.501,0-0.771-0.27-0.771-0.77
			v-25.409c0-0.5,0.27-0.77,0.771-0.77h5.081c0.462,0,0.731,0.231,0.847,0.655l4.273,17.17l4.273-17.17
			c0.115-0.424,0.385-0.655,0.847-0.655H647.015z"/>
	</g>
</g>
</svg>
